<svg width="49" height="45" viewBox="0 0 49 45" fill="none" xmlns="http://www.w3.org/2000/svg">
<path d="M21.3159 14.3542C21.3159 14.3542 21.4905 10.5512 17.9695 8.03904C14.4485 5.5269 11.5127 7.429 9.58823 9.32992C7.66371 11.232 5.78521 12.0297 4.89316 10.058C4.00111 8.08624 4.00111 7.12339 3.55509 7.28741C3.10906 7.45142 1.76626 12.7683 4.89316 14.8238C7.74985 16.7023 10.3835 13.0633 12.0638 13.4385C13.7441 13.8138 13.3452 16.7719 12.406 18.4156C12.406 18.4156 16.7978 19.2133 21.317 14.3542H21.3159Z" fill="#BDABF4"/>
<g style="mix-blend-mode:multiply" opacity="0.7">
<path d="M21.3156 14.3542C21.3156 14.3542 21.3404 13.7926 21.1729 12.9595C16.5156 12.6787 14.7279 16.0215 14.1674 14.1123C13.5975 12.1689 11.8984 11.8681 8.27117 13.8645C6.16612 15.0233 4.74781 14.5383 3.92773 13.9271C4.18851 14.2657 4.50592 14.5702 4.89294 14.8239C7.74963 16.7024 10.3833 13.0634 12.0636 13.4386C13.7438 13.8138 13.345 16.772 12.4058 18.4157C12.4058 18.4157 16.7976 19.2133 21.3168 14.3542H21.3156Z" fill="#BDABF4"/>
</g>
<path d="M3.39145 8.9702C3.39145 8.9702 3.40207 8.96312 3.40679 8.95958C3.41269 8.95486 3.41977 8.95132 3.42684 8.9466C3.4469 8.93362 3.41269 8.95368 3.43982 8.93834C3.49882 8.90412 3.56018 8.87344 3.6239 8.84512C3.84337 8.75073 4.0829 8.70235 4.32126 8.68583C4.35783 8.68347 4.41565 8.65987 4.41329 8.61385C4.41093 8.56783 4.34485 8.55721 4.31064 8.55957C4.0416 8.57845 3.77493 8.63627 3.52596 8.74129C3.4292 8.78259 3.33009 8.82978 3.24631 8.8935C3.21091 8.91946 3.21799 8.96194 3.25457 8.98318C3.29469 9.00678 3.35605 8.99852 3.39145 8.97138V8.9702Z" fill="#3C1D78"/>
<path d="M3.31849 10.196C3.35389 10.1559 3.36569 10.1453 3.40817 10.1063C3.49194 10.0273 3.58162 9.9553 3.67484 9.88686C3.96275 9.67683 4.2896 9.52462 4.64123 9.455C4.67781 9.44792 4.72147 9.41134 4.70259 9.37122C4.68253 9.32756 4.61645 9.32992 4.57869 9.337C4.20346 9.41134 3.85183 9.57772 3.54268 9.79955C3.40109 9.90103 3.26185 10.0155 3.14622 10.1453C3.11436 10.1807 3.15566 10.2184 3.18869 10.2291C3.23353 10.2432 3.28899 10.2291 3.31967 10.1948L3.31849 10.196Z" fill="#3C1D78"/>
<path d="M3.79294 10.9301C3.79294 10.9301 3.78232 10.9478 3.79412 10.9277C3.80356 10.9124 3.81182 10.8982 3.82126 10.8841C3.85666 10.8298 3.8956 10.779 3.93808 10.7307C4.07849 10.5702 4.25431 10.4404 4.44428 10.3448C4.60358 10.2646 4.77349 10.2091 4.94813 10.1725C4.9847 10.1643 5.02836 10.1301 5.00948 10.0888C4.98942 10.0463 4.92335 10.0475 4.88559 10.0545C4.41006 10.156 3.93572 10.4074 3.65843 10.8192C3.63837 10.8498 3.61831 10.8817 3.60179 10.9147C3.58055 10.9572 3.64663 10.9832 3.67613 10.9867C3.72215 10.9914 3.77052 10.9737 3.79176 10.9324L3.79294 10.9301Z" fill="#3C1D78"/>
<path d="M4.39353 11.6403C4.45842 11.5318 4.55164 11.4362 4.64604 11.3524C4.88793 11.1377 5.18174 10.9961 5.49679 10.9217C5.53337 10.9135 5.57703 10.8793 5.55815 10.838C5.53927 10.7967 5.47201 10.7955 5.43425 10.8037C4.98823 10.9076 4.55754 11.1471 4.27435 11.5129C4.25547 11.5377 4.23659 11.5625 4.22125 11.5884C4.16697 11.6793 4.35341 11.7052 4.3947 11.638L4.39353 11.6403Z" fill="#3C1D78"/>
<path d="M5.25719 12.0145C5.26309 11.9968 5.27135 11.9791 5.27961 11.9625C5.28197 11.959 5.28315 11.9555 5.28551 11.9519C5.29259 11.9378 5.28551 11.9519 5.28551 11.9496C5.29141 11.9378 5.29849 11.926 5.30557 11.9142C5.32091 11.8882 5.33625 11.8634 5.35395 11.8398C5.46369 11.6841 5.60646 11.5555 5.76458 11.4504C5.89437 11.3643 6.03833 11.2959 6.18464 11.2416C6.21886 11.2286 6.26606 11.2015 6.246 11.1578C6.2283 11.1189 6.1575 11.1118 6.1221 11.1236C5.71384 11.2735 5.30557 11.526 5.09908 11.9236C5.08728 11.9472 5.0743 11.972 5.06604 11.9968C5.03654 12.0841 5.23005 12.0912 5.25601 12.0145H5.25719Z" fill="#3C1D78"/>
<path d="M6.07081 12.3578C5.75223 13.3809 5.94338 14.6163 6.69029 15.4021C6.74457 15.46 6.92511 15.3998 6.85195 15.3243C6.12981 14.5655 5.95282 13.362 6.26079 12.3755C6.28793 12.287 6.09441 12.28 6.07081 12.3578Z" fill="#3C1D78"/>
<path d="M7.83568 10.9123C7.75426 11.2415 7.70942 11.5813 7.67756 11.9188C7.61384 12.5914 7.62092 13.2899 7.80264 13.946C7.90765 14.3236 8.07049 14.6776 8.32064 14.9808C8.3702 15.0422 8.54955 14.9844 8.48229 14.9029C8.03863 14.3613 7.88405 13.6427 7.8463 12.9584C7.81562 12.392 7.86046 11.8209 7.95839 11.2639C7.97845 11.1518 7.99851 11.0409 8.02565 10.93C8.04807 10.8392 7.85456 10.8344 7.83568 10.9123Z" fill="#3C1D78"/>
<path d="M10.6543 8.29046C10.3982 8.64681 10.1976 9.0539 10.0277 9.45626C9.66431 10.3165 9.46135 11.2616 9.54041 12.1973C9.59469 12.838 9.78702 13.4563 10.0962 14.0192C10.1351 14.09 10.3251 14.0499 10.2802 13.9696C9.3646 12.3047 9.67493 10.32 10.5859 8.72469C10.6602 8.59371 10.7381 8.46273 10.8266 8.34002C10.8867 8.25506 10.6991 8.22674 10.6531 8.29046H10.6543Z" fill="#3C1D78"/>
<path d="M11.8234 13.4055C11.7998 13.186 11.8175 12.9583 11.84 12.74C11.9025 12.1229 12.0665 11.5164 12.2872 10.9382C12.8087 9.57065 13.6583 8.25499 14.8394 7.36884C15.0412 7.2178 15.2571 7.06441 15.4908 6.96293C15.6076 6.91219 15.4648 6.82724 15.3834 6.86263C15.1863 6.94877 15.0011 7.07267 14.8265 7.19656C14.3592 7.52459 13.9438 7.92696 13.5781 8.36355C12.5987 9.53289 11.8742 11.0326 11.6701 12.5524C11.6311 12.8368 11.5981 13.1365 11.6288 13.4232C11.6382 13.5082 11.8317 13.4917 11.8234 13.4067V13.4055Z" fill="#3C1D78"/>
<path d="M12.9633 14.0027C13.1804 13.3809 13.486 12.7803 13.8164 12.2139C14.4677 11.0976 15.3173 10.0227 16.4442 9.35719C17.1415 8.94538 17.9297 8.72119 18.7427 8.74479C18.8442 8.74833 18.9138 8.62207 18.784 8.61853C17.3067 8.57487 16.0029 9.28993 14.9999 10.3342C14.181 11.1861 13.5485 12.2174 13.06 13.29C12.9562 13.5177 12.8559 13.749 12.7733 13.985C12.7426 14.0711 12.9361 14.0794 12.9633 14.0027Z" fill="#3C1D78"/>
<path d="M13.2901 15.7737C13.6216 15.1589 14.0582 14.5855 14.5149 14.0592C15.4317 13.002 16.581 12.0698 17.9367 11.658C18.8418 11.3831 19.794 11.3736 20.7085 11.6108C20.7946 11.6332 20.9209 11.5247 20.797 11.4928C19.9698 11.2792 19.1096 11.2509 18.2742 11.4362C17.5238 11.6014 16.8181 11.9318 16.181 12.3565C15.1308 13.0563 14.2494 14.0108 13.539 15.0492C13.3892 15.2675 13.2429 15.4905 13.1166 15.7241C13.0659 15.8174 13.2523 15.8433 13.2901 15.7737Z" fill="#3C1D78"/>
<path d="M4.21155 12.674C4.17025 12.8912 4.17261 13.1212 4.19031 13.3395C4.23043 13.8434 4.39326 14.3319 4.66583 14.7567C4.70949 14.8251 4.89947 14.7826 4.84991 14.7071C4.58206 14.2906 4.42394 13.8162 4.385 13.323C4.36848 13.1165 4.36376 12.8971 4.4027 12.6917C4.4204 12.5985 4.22807 12.595 4.21273 12.674H4.21155Z" fill="#3C1D78"/>
<path d="M21.4121 14.346C21.4499 13.4953 21.2351 12.5997 20.9508 11.8067C20.277 9.92471 18.8693 8.32114 17.0876 7.41021C16.1377 6.92406 15.0722 6.68217 14.0055 6.80253C13.0686 6.90872 12.1848 7.27451 11.3907 7.77246C10.9966 8.01907 10.6237 8.2999 10.2686 8.59961C9.87799 8.93 9.524 9.29697 9.1476 9.64151C8.70275 10.0486 8.22605 10.4344 7.69742 10.7306C7.29978 10.9525 6.84785 11.146 6.38413 11.1377C5.29974 11.1176 4.91271 9.92707 4.59058 9.08693C4.43483 8.68103 4.30031 8.26804 4.154 7.85859C4.08556 7.66744 4.01712 7.40903 3.85075 7.27451C3.56166 7.0397 3.34455 7.37009 3.24543 7.60018C3.04719 8.06627 2.94808 8.57955 2.87846 9.07867C2.67551 10.5182 2.76518 12.1029 3.4767 13.3997C3.87081 14.1183 4.47141 14.7271 5.20888 15.0918C5.94636 15.4564 6.83723 15.5059 7.6573 15.2794C8.47738 15.0528 9.18653 14.6375 9.90749 14.2316C10.2332 14.0475 10.56 13.8622 10.9022 13.71C11.1783 13.5873 11.478 13.4764 11.7836 13.4728C12.5069 13.4634 12.9341 14.0982 13.0592 14.7401C13.2208 15.5661 13.0674 16.4523 12.8137 17.244C12.6863 17.6405 12.5258 18.0275 12.3205 18.3897C12.2686 18.4818 12.455 18.5077 12.494 18.4393C12.9093 17.7066 13.1736 16.877 13.2751 16.0404C13.3601 15.3443 13.3589 14.5077 12.927 13.9142C12.0149 12.6622 10.3842 13.808 9.41781 14.3472C8.69921 14.7484 7.9405 15.146 7.1157 15.2652C6.21539 15.395 5.35166 15.1154 4.65076 14.5443C3.42242 13.5448 2.9941 11.9236 2.98348 10.3979C2.97876 9.74063 3.04483 9.07985 3.18879 8.43914C3.23953 8.21022 3.30089 7.98249 3.38112 7.76184C3.4295 7.62968 3.48024 7.48101 3.5711 7.37127C3.59824 7.33941 3.59942 7.32997 3.6301 7.33233C3.66078 7.33469 3.70679 7.36065 3.74573 7.41139C3.89913 7.60962 3.96639 7.89635 4.04662 8.1288C4.20474 8.59017 4.36639 9.05035 4.55165 9.50228C4.74634 9.97898 4.93985 10.4887 5.32452 10.8474C5.94518 11.428 6.81127 11.3112 7.52397 10.9761C8.53284 10.5017 9.28683 9.69107 10.0986 8.95478C11.5158 7.66862 13.3188 6.64795 15.2964 6.95356C16.4834 7.13646 17.5702 7.76066 18.474 8.53235C19.2138 9.16363 19.8357 9.92707 20.2959 10.7849C20.8493 11.8174 21.1962 13.002 21.2221 14.1785C21.2233 14.2398 21.2245 14.3012 21.2221 14.3625C21.2186 14.4451 21.4121 14.4333 21.4168 14.346H21.4121Z" fill="#3C1D78"/>
<path d="M2.85686 11.3997C2.98783 11.7891 3.26512 12.1608 3.58725 12.4097C4.37783 13.021 5.3985 12.805 6.21267 12.3555C7.18496 11.8198 7.99559 11.0127 8.73189 10.195C8.79914 10.1194 8.61153 10.0876 8.55843 10.1454C7.89883 10.8781 7.18142 11.5908 6.34129 12.1159C5.87166 12.4086 5.33124 12.6599 4.76722 12.6682C4.10998 12.6776 3.56247 12.287 3.23209 11.7407C3.15775 11.6168 3.08695 11.4858 3.04093 11.349C3.01615 11.2734 2.82618 11.3088 2.85686 11.3985V11.3997Z" fill="#3C1D78"/>
<g style="mix-blend-mode:overlay" opacity="0.4">
<path d="M6.65053 11.5011C5.70184 11.5176 4.93251 11.0091 4.40388 10.2445C3.96494 9.60965 3.86818 8.94769 3.65815 8.23382C3.63337 8.14886 3.4257 8.12408 3.41508 8.2291C3.24162 9.95774 4.93959 11.8563 6.69891 11.5979C6.76145 11.5884 6.69065 11.4999 6.65053 11.5011Z" fill="white"/>
</g>
<g style="mix-blend-mode:overlay" opacity="0.4">
<path d="M20.3951 12.4286C20.1332 11.1767 19.3414 10.176 18.4977 9.25213C17.6045 8.27513 16.5591 7.69694 15.2363 7.51877C12.4115 7.13764 10.2026 8.98074 8.44564 10.9501C8.43502 10.9619 8.45744 10.9949 8.47042 10.9843C10.2262 9.41969 12.2664 7.53883 14.7974 7.74886C16.1201 7.8586 17.2021 8.38604 18.1001 9.35125C18.939 10.2539 19.7379 11.2451 19.9963 12.4793C20.0329 12.654 20.4305 12.5985 20.3951 12.4286Z" fill="white"/>
</g>
<path d="M13.2066 23.6523C13.2066 23.6523 8.85492 31.4094 4.61768 28.3439L13.2066 21.4954V23.6523Z" fill="#FF5489"/>
<g style="mix-blend-mode:multiply" opacity="0.5">
<path d="M13.2066 21.4965L4.61768 28.345C4.91857 28.5633 5.22064 28.725 5.52153 28.8394C5.7056 28.7379 5.92625 28.6093 6.13039 28.4725C6.13039 28.4725 6.79707 28.9621 8.04664 27.7904C9.29622 26.6187 9.21009 26.4807 9.21009 26.4807C9.21009 26.4807 10.5021 26.9184 11.439 25.0659C11.8662 24.2211 12.6933 22.9963 13.2054 21.998V21.4977L13.2066 21.4965Z" fill="#FF5489"/>
</g>
<path d="M13.0329 23.604C12.5598 24.4465 11.978 25.243 11.3597 25.984C10.8181 26.633 10.2258 27.2454 9.55793 27.7646C8.92193 28.2601 8.20452 28.6826 7.4104 28.8572C6.47705 29.0625 5.54842 28.8171 4.77909 28.2649L4.76257 28.4206C5.04694 28.1941 5.33131 27.9675 5.6145 27.741C6.29652 27.197 6.97972 26.653 7.66173 26.1079L10.1408 24.1315C10.8582 23.5592 11.5768 22.9869 12.2943 22.4146L13.0011 21.8518C13.1096 21.7645 13.2382 21.683 13.3362 21.5839C13.3409 21.5792 13.3456 21.5757 13.3515 21.5721L13.0117 21.5119V23.6689C13.0117 23.8365 13.3999 23.8093 13.3999 23.6347V21.4777C13.3999 21.329 13.1344 21.3585 13.0601 21.4175C12.7757 21.6441 12.4913 21.8707 12.2081 22.0972C11.5261 22.6412 10.8429 23.1851 10.1609 23.7303L7.68179 25.7067C6.96438 26.279 6.24578 26.8513 5.52836 27.4235L4.82157 27.9864C4.71065 28.0749 4.59029 28.1575 4.48646 28.2542C4.48174 28.259 4.47702 28.2625 4.47112 28.266C4.42746 28.3014 4.39678 28.3805 4.4546 28.4218C5.20741 28.9622 6.09238 29.2572 7.02337 29.1723C7.89301 29.0932 8.70364 28.7168 9.4187 28.2318C10.7757 27.3115 11.8671 25.9993 12.7804 24.6518C12.9904 24.3427 13.1969 24.0276 13.3798 23.7008C13.4837 23.5167 13.1108 23.4648 13.0329 23.6028V23.604Z" fill="#700761"/>
<path d="M35.5854 23.6523C35.5854 23.6523 39.9371 31.4094 44.1744 28.3439L35.5854 21.4954V23.6523Z" fill="#FF5489"/>
<g style="mix-blend-mode:multiply" opacity="0.5">
<path d="M35.5854 21.4965L44.1744 28.345C43.8735 28.5633 43.5714 28.725 43.2705 28.8394C43.0865 28.7379 42.8658 28.6093 42.6617 28.4725C42.6617 28.4725 41.995 28.9621 40.7454 27.7904C39.4958 26.6187 39.582 26.4807 39.582 26.4807C39.582 26.4807 38.2899 26.9184 37.353 25.0659C36.9259 24.2211 36.0987 22.9963 35.5866 21.998V21.4977L35.5854 21.4965Z" fill="#FF5489"/>
</g>
<path d="M35.4017 23.7031C35.9032 24.5963 36.525 25.4388 37.187 26.2188C38.2867 27.5144 39.705 28.8336 41.4407 29.1345C42.4685 29.3126 43.4809 29.0259 44.321 28.4229C44.3694 28.3875 44.3918 28.3097 44.3375 28.2672C44.0532 28.0406 43.7688 27.8141 43.4856 27.5875C42.8036 27.0436 42.1204 26.4996 41.4384 25.9545L38.9593 23.978C38.2418 23.4057 37.5232 22.8335 36.8058 22.2612C36.4601 21.9863 36.1238 21.6877 35.7639 21.4305C35.7592 21.427 35.7545 21.4222 35.7486 21.4187C35.6542 21.3432 35.3922 21.3503 35.3922 21.5143V23.6712C35.3922 23.8388 35.7804 23.8117 35.7804 23.637V21.4801L35.4241 21.5756C35.7085 21.8022 35.9928 22.0287 36.276 22.2553C36.958 22.7992 37.6412 23.3432 38.3233 23.8884C39.1492 24.5468 39.9752 25.2064 40.8024 25.8648C41.5198 26.4371 42.2384 27.0093 42.9558 27.5816L43.6626 28.1445L43.8809 28.3191C43.9151 28.3462 43.9576 28.3946 43.9977 28.4123C44.0024 28.4147 44.0083 28.4206 44.013 28.4241L44.0296 28.2684C43.3405 28.7628 42.5322 29.0165 41.6838 28.9067C40.8826 28.8029 40.1345 28.4111 39.4867 27.9427C38.2241 27.0294 37.1999 25.7893 36.335 24.5043C36.1368 24.2105 35.9433 23.9119 35.7698 23.6028C35.6896 23.4612 35.3108 23.5414 35.4017 23.7031Z" fill="#700761"/>
<path d="M27.477 14.3542C27.477 14.3542 27.3024 10.5512 30.8234 8.03904C34.3444 5.5269 37.2801 7.429 39.2046 9.32992C41.1292 11.232 43.0077 12.0297 43.8997 10.058C44.7918 8.08624 44.7918 7.12339 45.2378 7.28741C45.6838 7.45142 47.0266 12.7683 43.8997 14.8238C41.043 16.7023 38.4094 13.0633 36.7291 13.4385C35.0488 13.8138 35.4476 16.7719 36.3869 18.4156C36.3869 18.4156 31.9951 19.2133 27.4758 14.3542H27.477Z" fill="#BDABF4"/>
<g style="mix-blend-mode:multiply" opacity="0.7">
<path d="M27.4769 14.3542C27.4769 14.3542 27.4521 13.7926 27.6197 12.9595C32.277 12.6787 34.0646 16.0215 34.6251 14.1123C35.195 12.1689 36.8942 11.8681 40.5214 13.8645C42.6264 15.0233 44.0447 14.5383 44.8648 13.9271C44.604 14.2657 44.2866 14.5702 43.8996 14.8239C41.0429 16.7024 38.4092 13.0634 36.729 13.4386C35.0487 13.8138 35.4475 16.772 36.3868 18.4157C36.3868 18.4157 31.995 19.2133 27.4757 14.3542H27.4769Z" fill="#BDABF4"/>
</g>
<path d="M45.5548 8.8922C45.471 8.82848 45.3743 8.78128 45.2775 8.73998C45.0297 8.63496 44.7654 8.57715 44.4976 8.55827C44.4574 8.55591 44.3949 8.56771 44.3819 8.61255C44.3689 8.65738 44.4209 8.68216 44.4563 8.68452C44.6958 8.70104 44.9365 8.74942 45.1572 8.845C45.2197 8.87214 45.2822 8.90282 45.3412 8.93822C45.3577 8.94766 45.3743 8.95827 45.3908 8.96889C45.412 8.98187 45.3778 8.95946 45.3931 8.97008C45.4309 8.99839 45.4852 9.00193 45.5277 8.98069C45.5583 8.96536 45.5937 8.92052 45.5548 8.89102V8.8922Z" fill="#3C1D78"/>
<path d="M45.6415 10.1323C45.5282 10.0049 45.3901 9.89514 45.2521 9.79602C44.9453 9.57655 44.5984 9.41135 44.2267 9.3382C44.1842 9.32994 44.1241 9.3323 44.0957 9.37241C44.071 9.40781 44.0993 9.44793 44.1382 9.45619C44.4922 9.52581 44.8238 9.68039 45.1152 9.89278C45.2438 9.98718 45.3725 10.091 45.4786 10.2114C45.5317 10.2704 45.7111 10.2114 45.6403 10.1335L45.6415 10.1323Z" fill="#3C1D78"/>
<path d="M45.1871 10.897C45.1446 10.812 45.0809 10.7342 45.0183 10.6622C44.8638 10.4864 44.6691 10.3436 44.459 10.2386C44.2879 10.1536 44.1062 10.0934 43.9186 10.0533C43.8761 10.0439 43.8159 10.0474 43.7876 10.0875C43.7628 10.1241 43.7912 10.163 43.8301 10.1713C44.2691 10.2645 44.7045 10.4958 44.9558 10.8698C44.9723 10.8946 44.9888 10.9194 45.0018 10.9465C45.0384 11.0197 45.2272 10.9808 45.1859 10.897H45.1871Z" fill="#3C1D78"/>
<path d="M44.5767 11.5907C44.4174 11.3252 44.1342 11.1164 43.864 10.9819C43.7071 10.904 43.5407 10.845 43.3708 10.806C43.3283 10.7966 43.2669 10.8013 43.2398 10.8403C43.2138 10.8768 43.2433 10.9146 43.2823 10.924C43.5973 10.9972 43.8947 11.1388 44.1377 11.3547C44.2392 11.4444 44.3289 11.5353 44.3926 11.6415C44.4339 11.7111 44.6239 11.6698 44.5767 11.5919V11.5907Z" fill="#3C1D78"/>
<path d="M43.7228 11.9801C43.698 11.9069 43.6532 11.8385 43.6083 11.7771C43.4845 11.6049 43.3252 11.4644 43.1482 11.3488C43.003 11.2544 42.8449 11.1824 42.6833 11.1234C42.6431 11.1093 42.5782 11.1211 42.5523 11.1576C42.524 11.1978 42.5594 11.2273 42.5948 11.2414C42.9594 11.3759 43.3275 11.6119 43.5092 11.9636C43.521 11.9848 43.5317 12.0072 43.5399 12.0308C43.5659 12.1063 43.7558 12.0709 43.724 11.9813L43.7228 11.9801Z" fill="#3C1D78"/>
<path d="M42.5348 12.3908C42.5513 12.4451 42.5867 12.5997 42.602 12.6882C42.6445 12.9242 42.6657 13.1637 42.6646 13.4032C42.661 14.1195 42.4333 14.8121 41.9342 15.3372C41.8645 15.4104 42.0533 15.4422 42.1076 15.3868C42.8557 14.5997 43.0374 13.3631 42.7188 12.3413C42.6952 12.2658 42.5064 12.3 42.5348 12.3908Z" fill="#3C1D78"/>
<path d="M40.7642 10.93C40.8421 11.2439 40.8857 11.5684 40.9176 11.8893C40.9825 12.543 40.9801 13.2191 40.8161 13.8587C40.7182 14.2433 40.5577 14.6091 40.304 14.9171C40.2391 14.9962 40.4267 15.0268 40.4775 14.9667C40.9223 14.4239 41.0887 13.7171 41.1359 13.0303C41.176 12.4427 41.13 11.8468 41.0297 11.2663C41.0096 11.1483 40.9872 11.0291 40.9589 10.9123C40.9377 10.8274 40.7453 10.8498 40.7642 10.9288V10.93Z" fill="#3C1D78"/>
<path d="M37.9591 8.33996C38.2022 8.67861 38.3946 9.06446 38.5586 9.44559C38.9173 10.2822 39.1238 11.1966 39.0636 12.1099C39.0211 12.7625 38.8311 13.3973 38.5161 13.9696C38.4654 14.0628 38.6506 14.0876 38.6895 14.0191C39.217 13.061 39.3739 11.9707 39.1922 10.8969C39.0624 10.1252 38.7804 9.37479 38.3946 8.69513C38.3167 8.55707 38.2353 8.4202 38.1432 8.29158C38.096 8.22551 37.9072 8.26916 37.9591 8.34114V8.33996Z" fill="#3C1D78"/>
<path d="M37.1634 13.4055C37.1881 13.1731 37.1681 12.9324 37.1421 12.7011C37.0749 12.0781 36.9073 11.4657 36.6831 10.8816C36.1545 9.50695 35.2955 8.18303 34.1049 7.2898C33.8925 7.13051 33.6636 6.96767 33.4182 6.86029C33.345 6.82844 33.1822 6.91457 33.2884 6.96177C33.476 7.04437 33.653 7.16119 33.8194 7.27918C34.2772 7.60131 34.6843 7.9966 35.0442 8.42492C35.6035 9.0916 36.0483 9.85622 36.387 10.6562C36.6477 11.271 36.8424 11.9176 36.9309 12.5807C36.9675 12.8545 36.9982 13.1448 36.9675 13.4209C36.9592 13.5011 37.1527 13.4905 37.1622 13.4044L37.1634 13.4055Z" fill="#3C1D78"/>
<path d="M36.0163 13.9696C35.7897 13.3183 35.4652 12.6893 35.1148 12.0982C34.4387 10.9572 33.5537 9.87278 32.3855 9.21082C31.6634 8.80256 30.8528 8.59488 30.0233 8.61966C29.9029 8.6232 29.9159 8.74946 30.0339 8.74592C31.4852 8.70344 32.7572 9.46215 33.7177 10.4993C34.4918 11.3348 35.0959 12.3306 35.562 13.3666C35.6588 13.5814 35.7531 13.7985 35.831 14.0203C35.857 14.0959 36.047 14.0605 36.0151 13.9708L36.0163 13.9696Z" fill="#3C1D78"/>
<path d="M35.6812 15.7241C35.3319 15.0775 34.8694 14.4757 34.3856 13.9259C33.4298 12.8415 32.2298 11.9034 30.8209 11.5081C29.9006 11.2497 28.933 11.2544 28.0091 11.4928C27.884 11.5246 27.9713 11.6356 28.0716 11.6096C28.8917 11.3972 29.7484 11.3783 30.5732 11.5825C31.2988 11.7618 31.9785 12.0981 32.5909 12.5229C33.5856 13.2143 34.4222 14.1347 35.1007 15.1341C35.2411 15.3406 35.3791 15.5519 35.4983 15.7713C35.5372 15.8433 35.7272 15.8032 35.6824 15.7218L35.6812 15.7241Z" fill="#3C1D78"/>
<path d="M44.3887 12.6917C44.4276 12.8947 44.4253 13.1094 44.4099 13.3148C44.3745 13.8092 44.2164 14.2906 43.9485 14.7083C43.8919 14.7968 44.0795 14.8239 44.122 14.7579C44.3946 14.3331 44.5562 13.8528 44.5999 13.3502C44.6199 13.1295 44.6247 12.8959 44.5822 12.6764C44.5657 12.5914 44.3722 12.6115 44.3875 12.6929L44.3887 12.6917Z" fill="#3C1D78"/>
<path d="M27.5752 14.3461C27.5374 13.5071 27.7486 12.6221 28.0295 11.8398C28.7091 9.94244 30.1439 8.31881 31.9634 7.44092C32.931 6.97366 34.0083 6.78368 35.0715 6.97248C36.0119 7.14003 36.8862 7.57544 37.6603 8.12412C38.0355 8.38961 38.3919 8.68342 38.7305 8.99375C39.147 9.37488 39.5388 9.78197 39.9777 10.1395C40.6727 10.7047 41.573 11.3277 42.5158 11.2593C42.8946 11.2321 43.2439 11.0669 43.5117 10.7979C43.8763 10.4321 44.0639 9.93064 44.2551 9.46102C44.4463 8.99139 44.5973 8.55481 44.7554 8.09698C44.8333 7.87161 44.8982 7.57426 45.0598 7.389C45.1035 7.33827 45.1259 7.33001 45.1601 7.33355C45.1896 7.33709 45.1991 7.34771 45.2262 7.38075C45.3194 7.49402 45.3713 7.64978 45.4209 7.78547C45.605 8.29639 45.7006 8.84272 45.7596 9.38078C45.9177 10.838 45.7678 12.4534 44.9265 13.6971C44.4498 14.4027 43.73 14.9856 42.8993 15.2062C42.0686 15.4269 41.2155 15.2228 40.4462 14.8853C39.7181 14.5655 39.0515 14.1313 38.3447 13.7702C37.8231 13.5036 37.2084 13.2298 36.6137 13.4009C35.934 13.598 35.6048 14.2351 35.5151 14.8947C35.4042 15.7089 35.5564 16.5561 35.8113 17.3302C35.9376 17.7137 36.0968 18.0877 36.2963 18.4393C36.3364 18.5101 36.5264 18.47 36.4803 18.3898C36.0532 17.637 35.7877 16.7768 35.7004 15.9166C35.6296 15.218 35.6485 14.3083 36.1995 13.7891C36.701 13.3171 37.3559 13.4729 37.9199 13.7289C38.6349 14.0534 39.2922 14.4947 39.9966 14.8393C40.7011 15.1838 41.5388 15.4776 42.3707 15.421C43.2439 15.362 44.0474 14.9195 44.6516 14.2989C45.7289 13.1897 46.0486 11.5613 46.0014 10.064C45.9814 9.43152 45.9 8.7967 45.7407 8.1843C45.6864 7.97663 45.6239 7.76895 45.5389 7.5719C45.4941 7.46806 45.4398 7.33709 45.3477 7.26511C45.2297 7.17307 45.048 7.19313 44.9383 7.28753C44.7719 7.42912 44.7023 7.69225 44.6327 7.88931C44.4864 8.30229 44.3495 8.71764 44.1914 9.12709C43.9908 9.64863 43.7985 10.2315 43.4256 10.6575C43.1507 10.9714 42.7719 11.1519 42.3518 11.1377C41.881 11.1224 41.4303 10.9206 41.0303 10.687C40.0615 10.123 39.3382 9.27458 38.4886 8.56189C37.7771 7.96483 36.9877 7.448 36.1134 7.12115C35.1918 6.7766 34.1959 6.67867 33.2295 6.87218C32.0673 7.10463 31.0041 7.73001 30.1156 8.50053C29.384 9.13535 28.7693 9.8976 28.3126 10.7519C27.7557 11.7938 27.4076 12.9879 27.3793 14.1738C27.3781 14.2363 27.3769 14.3 27.3793 14.3626C27.3828 14.4475 27.5775 14.4322 27.574 14.3461H27.5752Z" fill="#3C1D78"/>
<path d="M45.7503 11.3666C45.6311 11.7217 45.3857 12.0604 45.0989 12.2964C44.3721 12.8958 43.4281 12.6633 42.6718 12.2409C41.7313 11.7147 40.9443 10.9264 40.2292 10.1323C40.1761 10.0733 39.9968 10.1323 40.0676 10.2102C40.7472 10.9654 41.4883 11.6993 42.3579 12.2338C42.8499 12.5359 43.414 12.7849 44.0004 12.7967C44.7237 12.8108 45.3467 12.425 45.7243 11.8197C45.8093 11.684 45.8895 11.5365 45.9414 11.3843C45.9709 11.2969 45.7774 11.2899 45.7515 11.3666H45.7503Z" fill="#3C1D78"/>
<g style="mix-blend-mode:overlay" opacity="0.4">
<path d="M42.142 11.5011C43.0907 11.5176 43.86 11.0091 44.3886 10.2445C44.8276 9.60965 44.9244 8.94769 45.1344 8.23382C45.1592 8.14886 45.3668 8.12408 45.3775 8.2291C45.5509 9.95774 43.8529 11.8563 42.0936 11.5979C42.0311 11.5884 42.1019 11.4999 42.142 11.5011Z" fill="white"/>
</g>
<g style="mix-blend-mode:overlay" opacity="0.4">
<path d="M28.3972 12.4286C28.6592 11.1767 29.451 10.176 30.2946 9.25213C31.1879 8.27513 32.2333 7.69694 33.556 7.51877C36.3809 7.13764 38.5898 8.98074 40.3467 10.9501C40.3573 10.9619 40.3349 10.9949 40.3219 10.9843C38.5662 9.41969 36.526 7.53883 33.995 7.74886C32.6722 7.8586 31.5902 8.38604 30.6923 9.35125C29.8533 10.2539 29.0545 11.2451 28.7961 12.4793C28.7595 12.654 28.3618 12.5985 28.3972 12.4286Z" fill="white"/>
</g>
<path d="M24.2391 7.99775C23.7376 7.99775 22.186 8.04849 21.8521 6.3694C21.5181 4.69032 22.9931 3.88205 22.4291 2.97229C22.4291 2.97229 22.8904 2.84368 23.2621 3.74163C23.2621 3.74163 23.0568 1.81829 24.6462 0.753967C24.6462 0.753967 24.3772 2.79294 25.274 3.95874C25.274 3.95874 25.1973 3.4077 25.812 3.08675C25.812 3.08675 25.6197 4.25373 25.8628 4.29149C26.1058 4.32925 26.2344 3.89385 26.2344 3.89385C26.2344 3.89385 27.5171 4.96407 26.7347 6.48386C26.0681 7.77828 25.0167 7.99775 24.2368 7.99657L24.2391 7.99775Z" fill="#FFC83F"/>
<path d="M24.0829 2.89447C24.0829 2.89447 23.3006 3.93284 23.4422 5.39481C23.4422 5.39481 23.0186 5.39481 22.7885 4.68919C22.7885 4.68919 22.0923 5.75234 22.6859 6.71519C23.2794 7.67803 25.1473 7.67685 25.801 6.7789C26.4547 5.88095 26.044 4.99716 26.044 4.99716C26.044 4.99716 25.6594 5.57416 25.4281 5.42077C25.1968 5.26737 25.2039 4.51102 25.2039 4.51102C25.2039 4.51102 24.6977 4.63727 24.7237 5.25321C24.7237 5.25321 23.8009 4.29272 24.0829 2.89565V2.89447Z" fill="#FF5489"/>
<g style="mix-blend-mode:overlay" opacity="0.4">
<path d="M23.6519 6.82253C23.0772 6.55704 22.8896 6.00128 22.8353 5.41838C22.8341 5.40422 22.807 5.38534 22.8058 5.40776C22.7858 5.74523 22.781 6.0355 22.9427 6.34111C23.0961 6.62902 23.3049 6.84613 23.6141 6.95941C23.7286 7.00189 23.7498 6.86855 23.6519 6.82371V6.82253Z" fill="white"/>
<path d="M24.2711 6.66445C23.8133 5.99423 23.7449 4.94997 23.8629 4.18181C23.864 4.17237 23.8452 4.15113 23.8404 4.16647C23.6469 4.92873 23.5584 6.07447 24.126 6.71165C24.185 6.77773 24.3466 6.77655 24.2699 6.66445H24.2711Z" fill="white"/>
<path d="M25.0616 6.46972C24.9908 6.29154 24.9837 6.12163 24.9743 5.93402C24.9637 5.7405 24.9235 5.53401 24.9908 5.34758C24.9955 5.33342 24.9707 5.30038 24.9589 5.31808C24.8622 5.47265 24.8634 5.64729 24.8516 5.82546C24.8374 6.04139 24.8126 6.26795 24.9094 6.46854C24.9401 6.53226 25.1017 6.57474 25.0604 6.4709L25.0616 6.46972Z" fill="white"/>
<path d="M25.7883 5.72517C25.642 6.15704 25.3824 6.61132 24.9718 6.8367C24.8974 6.87681 25.0296 6.98537 25.0921 6.95705C25.5665 6.74702 25.7659 6.23137 25.8273 5.74877C25.8296 5.73107 25.7966 5.70039 25.7883 5.72517Z" fill="white"/>
</g>
<path d="M23.9971 2.87082C23.4732 3.57172 23.269 4.54872 23.3457 5.4042L23.4637 5.33222C23.1628 5.32868 22.9646 4.90861 22.882 4.66554C22.8608 4.60418 22.7321 4.6207 22.7026 4.66554C22.1492 5.51865 22.2271 6.80009 23.2147 7.28387C24.1552 7.74524 25.5275 7.52813 26.0455 6.5523C26.2933 6.08621 26.3629 5.46437 26.1375 4.97233C26.1104 4.91333 25.9912 4.92513 25.9581 4.97233C25.9015 5.05611 25.8378 5.13634 25.767 5.2095C25.7151 5.26496 25.6431 5.34402 25.5688 5.36762C25.4944 5.39122 25.4626 5.3452 25.4283 5.2803C25.3092 5.05493 25.2997 4.7505 25.3021 4.50035C25.3021 4.44371 25.2077 4.44135 25.1735 4.45079C24.8077 4.54636 24.6189 4.90271 24.6272 5.26024L24.8053 5.21304C24.2389 4.61952 24.0266 3.69089 24.1788 2.90268C24.1965 2.80946 24.0041 2.80592 23.9888 2.88498C23.8295 3.71213 24.0502 4.66908 24.6437 5.29092C24.6873 5.33576 24.823 5.31924 24.8218 5.24372C24.8159 4.96407 24.9457 4.64312 25.2372 4.5676L25.1086 4.51804C25.1086 4.66554 25.118 4.81539 25.1404 4.96171C25.1652 5.12926 25.2042 5.3629 25.3564 5.46555C25.6502 5.66261 25.99 5.23192 26.1316 5.02189H25.9523C26.1104 5.3688 26.108 5.8101 26.0042 6.16881C25.8413 6.72929 25.4484 7.13166 24.8903 7.29331C24.4325 7.42665 23.9192 7.41367 23.4732 7.24022C22.941 7.03254 22.5953 6.56882 22.5481 5.99418C22.5127 5.56113 22.6366 5.07971 22.8737 4.71392H22.6944C22.7994 5.02071 23.0389 5.45257 23.4201 5.45729C23.4602 5.45729 23.5428 5.44431 23.538 5.38532C23.4637 4.55344 23.6584 3.60003 24.1681 2.91802C24.2307 2.83542 24.0419 2.80592 23.9947 2.86846L23.9971 2.87082Z" fill="#700761"/>
<g style="mix-blend-mode:multiply" opacity="0.7">
<path d="M26.7375 5.50692C26.0708 6.80133 25.0195 7.02081 24.2395 7.01963C23.738 7.01963 22.1864 7.07036 21.8525 5.39128C21.8525 5.3901 21.8525 5.38892 21.8525 5.38774C21.7935 5.68037 21.7805 6.00368 21.8525 6.36829C22.1864 8.04737 23.7369 7.99546 24.2395 7.99664C25.0195 7.99664 26.0708 7.77834 26.7375 6.48392C27.0278 5.92108 27.0337 5.4196 26.9263 5.01251C26.8862 5.17063 26.8248 5.33582 26.7375 5.50692Z" fill="#FFC83F"/>
</g>
<path d="M24.2605 7.93415C23.5254 7.93415 22.7419 7.82205 22.2852 7.17425C21.9513 6.70109 21.8392 6.06155 21.9301 5.49517C22.0079 5.01138 22.2345 4.58542 22.441 4.14765C22.6239 3.75944 22.7608 3.34292 22.5224 2.94645L22.4611 3.03023C22.4481 3.03377 22.4811 3.02787 22.4929 3.03023C22.5531 3.03731 22.6062 3.05265 22.6605 3.08097C22.9165 3.21666 23.0628 3.51283 23.1702 3.76652C23.1985 3.8326 23.3673 3.81254 23.359 3.73348C23.2422 2.6078 23.7897 1.4243 24.7195 0.793019L24.5519 0.745821C24.5012 1.13521 24.5012 1.5364 24.5272 1.92814C24.5767 2.64674 24.7407 3.39955 25.1832 3.98482C25.221 4.03437 25.3838 4.04145 25.372 3.95178C25.3272 3.60369 25.5797 3.29454 25.8676 3.13878L25.7189 3.07979C25.6635 3.41843 25.5903 3.81726 25.6682 4.15591C25.7083 4.3329 25.8487 4.40724 26.0234 4.33172C26.1874 4.26093 26.283 4.06741 26.3325 3.90576L26.1567 3.93644C26.5473 4.26447 26.821 4.78483 26.88 5.28749C26.9956 6.2586 26.3101 7.28753 25.4464 7.69461C25.0664 7.87279 24.6511 7.93651 24.2345 7.93769C24.1142 7.93769 24.1272 8.06394 24.2452 8.06394C25.123 8.06158 25.9431 7.73827 26.4942 7.03384C26.8293 6.60551 27.0782 6.07807 27.0877 5.52703C27.0948 5.11876 26.965 4.71757 26.749 4.3742C26.6322 4.18777 26.4894 4.00134 26.3195 3.85856C26.2759 3.82198 26.1638 3.82316 26.1437 3.88924C26.1154 3.98246 26.0399 4.20311 25.9301 4.22553C25.8381 4.24441 25.8416 3.96476 25.8416 3.89868C25.8381 3.63201 25.8688 3.3618 25.9113 3.09866C25.9231 3.02315 25.811 3.01371 25.7626 3.03967C25.4334 3.21902 25.1278 3.56711 25.1809 3.97066L25.3697 3.93762C24.9331 3.35944 24.7726 2.62314 24.7242 1.91398C24.6983 1.54111 24.6994 1.11515 24.7443 0.76588C24.7561 0.677383 24.6251 0.685643 24.5767 0.718682C23.6599 1.3417 23.1749 2.39187 23.1596 3.48569C23.1584 3.57419 23.1596 3.66505 23.1679 3.75354L23.3566 3.7205C23.2103 3.37714 22.8717 2.79305 22.3997 2.91813C22.3678 2.92639 22.3147 2.96179 22.3383 3.00191C22.5649 3.3795 22.4245 3.76888 22.251 4.13585C22.0339 4.59604 21.7967 5.04442 21.7295 5.55652C21.6551 6.12291 21.7672 6.75655 22.1012 7.22971C22.3513 7.5837 22.7183 7.81969 23.1301 7.94241C23.4853 8.0486 23.8522 8.06512 24.2204 8.06512C24.3219 8.06512 24.3915 7.93887 24.2617 7.93887L24.2605 7.93415Z" fill="#BA5511"/>
<path d="M25.845 10.0804C25.845 10.0804 25.1783 8.93942 24.396 8.61847C23.6137 8.93942 22.947 10.0804 22.947 10.0804C22.5883 9.75949 22.062 9.81141 22.062 9.81141C23.0626 11.2734 23.3057 12.9784 23.3057 12.9784H25.4851C25.4851 12.9784 25.7282 11.2734 26.7288 9.81141C26.7288 9.81141 26.2037 9.76067 25.8438 10.0804H25.845Z" fill="#BDABF4"/>
<path d="M24.3521 9.44792V12.6975C24.3521 12.7813 24.5467 12.7672 24.5467 12.681V9.4314C24.5467 9.34763 24.3521 9.36178 24.3521 9.44792Z" fill="#3C1D78"/>
<path d="M22.9073 10.5925C23.2472 11.1931 23.5115 11.8633 23.659 12.5383C23.6778 12.6232 23.8714 12.602 23.8537 12.5218C23.7038 11.8362 23.4383 11.1554 23.0926 10.5441C23.0525 10.4734 22.8625 10.5135 22.9085 10.5937L22.9073 10.5925Z" fill="#3C1D78"/>
<path d="M25.7085 10.543C25.3615 11.1542 25.0937 11.835 24.9438 12.5206C24.9238 12.6126 25.1173 12.6162 25.1338 12.5383C25.2813 11.8645 25.5421 11.1931 25.8819 10.5925C25.9338 10.5005 25.7474 10.4745 25.7085 10.543Z" fill="#3C1D78"/>
<g style="mix-blend-mode:multiply" opacity="0.7">
<path d="M22.8647 11.3712C23.2058 12.268 23.3072 12.9783 23.3072 12.9783H25.4866C25.4866 12.9783 25.5551 12.4957 25.7698 11.8243C25.2754 11.9423 24.7845 12.1889 24.7845 12.1889C24.1957 11.6284 23.3757 11.4373 22.8647 11.3712Z" fill="#BDABF4"/>
</g>
<path d="M25.9384 10.0556C25.6706 9.5978 25.3142 9.1506 24.893 8.82611C24.7667 8.72935 24.6086 8.60545 24.4517 8.56416C24.3148 8.52876 24.1425 8.66563 24.034 8.73761C23.7307 8.94056 23.4747 9.21549 23.2493 9.49986C23.1101 9.67686 22.9755 9.86093 22.8623 10.0556L23.0298 10.0415C22.7679 9.81963 22.4009 9.71698 22.0587 9.74884C22.0269 9.7512 21.9384 9.78659 21.9726 9.83733C22.4115 10.484 22.7348 11.2049 22.9637 11.9506C23.0676 12.2893 23.1608 12.6374 23.2115 12.9878C23.2163 13.0209 23.2564 13.0421 23.2882 13.0421H25.4676C25.5018 13.0421 25.5762 13.0338 25.5833 12.9878C25.6328 12.6433 25.7237 12.3023 25.8252 11.9707C26.0541 11.2167 26.3762 10.4899 26.8187 9.83733C26.8517 9.78777 26.7963 9.75355 26.7526 9.75001C26.4104 9.71934 26.0375 9.82081 25.7744 10.0438C25.6847 10.1205 25.857 10.1736 25.9196 10.1205C26.1331 9.93881 26.4305 9.85031 26.7113 9.87627L26.6452 9.78895C26.2027 10.4415 25.8771 11.166 25.6458 11.9188C25.5396 12.2622 25.4452 12.6161 25.3933 12.9725L25.5089 12.9182H23.3295L23.4062 12.9725C23.3555 12.6232 23.2623 12.2763 23.1596 11.9388C22.9295 11.1801 22.6039 10.4474 22.1578 9.78895L22.0717 9.87745C22.3525 9.85149 22.6558 9.94117 22.8694 10.1229C22.9095 10.1571 23.0062 10.1606 23.0369 10.1087C23.3649 9.54942 23.8428 8.9323 24.4529 8.67271H24.3349C24.9461 8.93348 25.4275 9.54824 25.7567 10.1087C25.798 10.1783 25.988 10.1382 25.9408 10.0592L25.9384 10.0556Z" fill="#3C1D78"/>
<path d="M38.6897 28.6093C38.4631 26.9444 37.7434 24.1821 36.7605 21.231C35.7764 18.2799 33.9604 16.5772 33.9604 16.5772C33.9604 16.5772 34.3769 16.5394 34.6412 16.4262C34.9056 16.3129 32.0677 15.2533 32.0677 15.2533C32.0677 15.2533 32.5598 15.2533 32.8996 15.2911C33.2406 15.3288 32.1433 14.4202 29.532 13.7772C28.5503 13.5353 27.5792 13.3925 26.752 13.3099C26.8618 13.101 27.086 12.7258 27.3939 12.478C27.3939 12.478 26.4193 11.77 24.8676 12.6491C24.8676 12.6491 24.0593 11.9647 22.7779 11.914C22.7779 11.914 22.9702 12.2444 23.0859 12.6491C23.0859 12.6491 22.2398 12.3978 21.5732 12.6491C21.5732 12.6491 21.9673 12.8485 22.2623 13.2887C21.3879 13.3677 20.3307 13.5128 19.2593 13.7772C16.648 14.4202 15.5506 15.3288 15.8917 15.2911C16.2327 15.2533 16.7235 15.2533 16.7235 15.2533C16.7235 15.2533 13.8857 16.3129 14.15 16.4262C14.4143 16.5394 14.8309 16.5772 14.8309 16.5772C14.8309 16.5772 13.0149 18.2799 12.0308 21.231C11.0467 24.1821 10.3281 26.9444 10.1016 28.6093C9.87503 30.2742 10.2526 30.6907 10.4804 30.0854C10.7069 29.4801 10.7447 30.653 10.8214 31.9014C10.8981 33.1498 11.1175 33.4566 11.3453 32.9657C11.573 32.4748 11.3134 34.6424 11.691 34.7557C12.0698 34.869 12.576 34.1563 12.6892 35.1014C12.8025 36.0466 13.6592 37.2596 14.2609 37.5144C15.1506 37.8897 14.3011 36.8206 14.7554 37.1239C15.2096 37.4271 15.2439 38.108 17.2132 37.8802C19.1826 37.6537 20.1289 37.8307 20.2799 38.7451C20.431 39.6584 20.8475 40.075 20.8475 40.075C20.8475 40.075 20.923 39.2809 21.074 39.5829C21.2251 39.8862 21.1873 40.4537 21.9826 40.9068C21.9826 40.9068 21.854 40.2307 22.1986 40.0006C22.2469 40.3051 22.3779 40.6225 22.6564 40.9068C23.5803 41.852 24.4428 42.8845 24.2894 43.9629C24.2894 43.9629 26.6789 42.2673 26.6045 40.0089C26.9326 40.2484 26.8063 40.9068 26.8063 40.9068C27.6004 40.4526 27.5627 39.885 27.7149 39.5829C27.8671 39.2809 27.9414 40.075 27.9414 40.075C27.9414 40.075 28.3579 39.6584 28.509 38.7451C28.66 37.8319 29.6063 37.6537 31.5757 37.8802C33.5451 38.1068 33.5793 37.426 34.0336 37.1239C34.4878 36.8218 33.6383 37.8909 34.528 37.5144C35.1297 37.2608 35.9864 36.0478 36.0997 35.1014C36.213 34.1551 36.7203 34.869 37.0979 34.7557C37.4767 34.6424 37.2171 32.4736 37.4437 32.9657C37.6702 33.4577 37.892 33.1509 37.9676 31.9014C38.0431 30.653 38.0808 29.4801 38.3086 30.0854C38.5351 30.6907 38.9139 30.2742 38.6873 28.6093H38.6897Z" fill="#FF9CBA"/>
<path d="M38.8351 28.5964C38.7148 27.722 38.5212 26.8571 38.31 26.0016C38.0375 24.8984 37.7248 23.8045 37.3885 22.7178C37.0522 21.6311 36.7029 20.5042 36.1755 19.4694C35.8014 18.7343 35.3566 18.0357 34.8468 17.3867C34.6097 17.0847 34.3619 16.7814 34.0811 16.5183L33.9678 16.6717C34.1401 16.6552 34.3135 16.6257 34.4799 16.582C34.5637 16.5596 34.8126 16.5218 34.8032 16.3897C34.7938 16.2575 34.5058 16.1478 34.4079 16.0994C33.8321 15.815 33.2279 15.5861 32.6297 15.3548C32.4645 15.2911 32.2993 15.2274 32.1341 15.166L32.0374 15.3489C32.2698 15.3489 32.5034 15.356 32.7359 15.3737C32.835 15.382 33.0533 15.428 33.1005 15.2911C33.1524 15.1401 32.8386 14.9678 32.7477 14.9076C32.3819 14.6669 31.9772 14.4829 31.5725 14.3188C30.8928 14.0427 30.1895 13.8292 29.4757 13.6592C28.5895 13.448 27.688 13.3076 26.7818 13.2156L26.8939 13.323C27.0497 13.0303 27.2455 12.7495 27.5028 12.5359C27.5358 12.5088 27.5594 12.451 27.5157 12.4191C27.2939 12.2598 27.0107 12.1796 26.7441 12.1394C26.0632 12.0356 25.3788 12.2456 24.7877 12.5749L24.9894 12.5914C24.4006 12.0958 23.5629 11.8551 22.8089 11.8197C22.7511 11.8173 22.5859 11.8574 22.6401 11.9518C22.7688 12.1737 22.8679 12.4167 22.9399 12.6622L23.1523 12.5607C22.639 12.4097 22.0336 12.379 21.5263 12.5607C21.4555 12.5855 21.374 12.6716 21.4755 12.7247C21.7363 12.8592 21.9593 13.087 22.1233 13.3253L22.2531 13.1932C20.6614 13.3395 19.0684 13.6321 17.5675 14.1902C17.0896 14.3684 16.6141 14.5702 16.1763 14.8333C16.043 14.9135 15.7232 15.0681 15.6878 15.2451C15.6642 15.3666 15.8105 15.3891 15.8978 15.3832C16.1751 15.3678 16.4512 15.3454 16.7297 15.3454L16.6412 15.1755C16.2153 15.3348 15.7916 15.5 15.3704 15.6723C15.0719 15.7938 14.7745 15.9177 14.4831 16.0569C14.3427 16.123 14.0925 16.208 14.0075 16.3496C13.8648 16.5879 14.6648 16.6575 14.7993 16.6693L14.7214 16.5171C14.1338 17.0693 13.6441 17.7502 13.2158 18.4275C12.7875 19.1048 12.3886 19.8824 12.0878 20.6623C11.7125 21.6322 11.4211 22.6411 11.1273 23.6382C10.6553 25.2394 10.2034 26.8701 9.96854 28.5256C9.9119 28.9244 9.86942 29.3303 9.89184 29.7339C9.90246 29.925 9.91544 30.187 10.0452 30.3439C10.1467 30.4666 10.3284 30.4713 10.45 30.3734C10.5125 30.3227 10.5538 30.2519 10.5868 30.1799C10.6081 30.135 10.6222 30.0867 10.6435 30.0418C10.6447 30.0395 10.6765 29.9887 10.6765 29.984C10.6765 29.9875 10.4983 29.9639 10.4936 29.9958C10.4901 30.0194 10.5243 30.0878 10.5302 30.1138C10.5467 30.1905 10.5562 30.2684 10.5656 30.3463C10.5892 30.5409 10.6022 30.738 10.6163 30.9339C10.6494 31.433 10.66 31.9368 10.7214 32.4336C10.7497 32.6649 10.7709 33 10.9326 33.1864C11.0529 33.3257 11.2582 33.2973 11.3727 33.1652C11.4128 33.1192 11.4954 33.0094 11.4978 32.9528C11.5013 32.8926 11.2748 32.9658 11.2807 32.9422C11.2759 32.9611 11.2913 33.0023 11.2936 33.0224C11.3172 33.2218 11.309 33.4271 11.3137 33.6277C11.3184 33.8661 11.3243 34.1068 11.3585 34.3428C11.3798 34.4915 11.4081 34.6968 11.5367 34.7959C11.7149 34.9316 11.9768 34.8336 12.1597 34.7617C12.2164 34.7393 12.3178 34.6791 12.3804 34.6956C12.5031 34.7286 12.5255 34.9894 12.5385 35.0838C12.6447 35.839 13.04 36.5588 13.5544 37.1145C13.7609 37.3375 13.9969 37.5334 14.2872 37.6349C14.4465 37.6903 14.7545 37.7458 14.8241 37.5275C14.8607 37.4142 14.8076 37.2372 14.7627 37.131C14.7592 37.1216 14.7627 37.1063 14.758 37.098C14.7462 37.0779 14.6341 37.2243 14.5928 37.1558C14.5999 37.1676 14.6542 37.1912 14.6754 37.2066C14.7332 37.249 14.784 37.2998 14.8335 37.3505C15.1014 37.6254 15.3574 37.8414 15.7409 37.9369C16.5209 38.1305 17.3362 37.9322 18.1221 37.8921C18.6531 37.865 19.3787 37.8213 19.8224 38.1824C19.9841 38.3145 20.082 38.4974 20.1245 38.6992C20.2035 39.0721 20.2873 39.4331 20.4749 39.7706C20.5445 39.8957 20.6248 40.0255 20.7262 40.1281C20.7982 40.2013 20.9823 40.1671 20.9941 40.0562C21.0059 39.9358 21.0236 39.8143 21.0543 39.6975C21.0614 39.668 21.0909 39.6172 21.0897 39.5889C21.0897 39.5464 21.2242 39.5582 21.0106 39.5759C20.8407 39.5901 20.9292 39.5594 20.9375 39.6149C20.9469 39.6833 20.9965 39.7659 21.0165 39.8343C21.0743 40.029 21.1345 40.2202 21.2443 40.3924C21.4035 40.6426 21.6336 40.8279 21.8873 40.9777C21.9475 41.0131 22.1505 40.9966 22.1304 40.8892C22.082 40.6249 22.069 40.2296 22.3098 40.0538L22.0549 40.009C22.1151 40.3629 22.2708 40.678 22.5163 40.94C22.803 41.2467 23.0968 41.5453 23.3587 41.8745C23.8201 42.4562 24.2484 43.1736 24.1493 43.9453C24.1328 44.0763 24.3287 44.068 24.4006 44.0161C24.698 43.8049 24.9682 43.55 25.2231 43.2904C25.7517 42.7512 26.2107 42.1246 26.4915 41.419C26.6721 40.9647 26.7665 40.4809 26.7535 39.9924L26.4856 40.0644C26.7157 40.2473 26.7157 40.6237 26.6662 40.8904C26.6449 41.0013 26.8196 41.0202 26.8892 40.9789C27.1441 40.829 27.3789 40.6461 27.5405 40.3936C27.6538 40.2166 27.7187 40.0231 27.7777 39.8237C27.7989 39.7517 27.8402 39.6762 27.8544 39.6042C27.8568 39.5983 27.8603 39.5924 27.865 39.5865C27.9051 39.5311 27.8473 39.5299 27.6904 39.583C27.6904 39.5901 27.7022 39.5995 27.7034 39.6078C27.7069 39.6373 27.727 39.6703 27.7352 39.6998C27.7694 39.8249 27.786 39.9559 27.7978 40.0845C27.8096 40.2131 28.0161 40.1659 28.0739 40.1081C28.2768 39.9028 28.4102 39.6042 28.5057 39.3364C28.6355 38.973 28.6155 38.5057 28.9116 38.2225C29.163 37.983 29.5417 37.9228 29.8733 37.8968C30.4621 37.8508 31.0509 37.9204 31.6362 37.9806C32.3925 38.0597 33.2421 38.0667 33.812 37.4909C33.8805 37.4213 33.9454 37.347 34.0162 37.2809C34.0527 37.2467 34.0905 37.216 34.1306 37.1877C34.1424 37.1794 34.1813 37.1653 34.1849 37.1546C34.1719 37.1865 34.015 37.1299 34.035 37.111C34.0386 37.1074 34.0374 37.1169 34.0327 37.124C34.0008 37.1712 33.976 37.3163 33.9642 37.3871C33.9477 37.4897 33.956 37.59 34.0539 37.649C34.1955 37.734 34.3937 37.6703 34.5342 37.6172C34.7289 37.544 34.8976 37.426 35.051 37.2868C35.4404 36.9316 35.7448 36.4773 35.969 36.003C36.0834 35.7587 36.1778 35.5015 36.2262 35.236C36.2463 35.1251 36.2486 34.7393 36.395 34.698C36.4941 34.6696 36.6935 34.8018 36.7891 34.8289C36.9307 34.869 37.1136 34.8891 37.241 34.7971C37.4392 34.6531 37.4404 34.2968 37.4569 34.0808C37.4805 33.7599 37.4723 33.4378 37.4888 33.1156C37.4911 33.0696 37.4982 33.0236 37.5006 32.9776C37.5006 32.9646 37.5136 32.9445 37.5112 32.9327C37.5183 32.9811 37.2882 32.9634 37.2882 32.9599C37.2953 33.0318 37.4026 33.1793 37.4723 33.2301C37.7578 33.4366 37.9383 33.0779 37.995 32.8537C38.1448 32.2519 38.1307 31.6076 38.1696 30.9929C38.1873 30.7203 38.2003 30.4442 38.2475 30.174C38.2534 30.1398 38.3065 30.0123 38.2959 29.984L38.303 29.9746L38.1083 29.9923C38.1083 29.9923 38.1248 30.0135 38.1248 30.0159C38.1248 30.043 38.1673 30.1091 38.1767 30.1339C38.2605 30.3368 38.4564 30.5598 38.69 30.3876C38.9236 30.2153 38.9024 29.7775 38.9047 29.5333C38.9071 29.2194 38.8764 28.9067 38.8351 28.5964C38.8186 28.4678 38.5271 28.4949 38.5437 28.6223C38.6062 29.0955 38.6947 29.6607 38.5484 30.128C38.5354 30.1716 38.4953 30.2188 38.4858 30.2601C38.4811 30.2802 38.467 30.2601 38.4823 30.2648C38.4552 30.2578 38.5425 30.2542 38.5472 30.253C38.5779 30.2436 38.5661 30.2719 38.5661 30.253C38.5661 30.253 38.513 30.1834 38.5024 30.1645C38.467 30.102 38.4493 30.0312 38.4162 29.9675C38.3513 29.8436 38.2074 29.7681 38.0788 29.8648C37.9714 29.9451 37.9619 30.1268 37.9454 30.246C37.8593 30.8761 37.8605 31.5156 37.8074 32.1492C37.7861 32.4053 37.7602 32.6684 37.6847 32.915C37.667 32.974 37.6304 33.0283 37.6115 33.0849C37.5985 33.1239 37.5678 33.092 37.6198 33.0956C37.6882 33.1003 37.6917 33.1144 37.6811 33.0826C37.6658 33.0401 37.6186 32.9917 37.5973 32.9493C37.5773 32.9091 37.5608 32.8655 37.5254 32.836C37.4357 32.7605 37.2776 32.79 37.2292 32.8985C37.1938 32.9776 37.1997 33.0861 37.1962 33.1711C37.1891 33.3233 37.1891 33.4767 37.1855 33.6301C37.1785 33.9357 37.1914 34.2767 37.0888 34.5682C37.0758 34.6059 37.0605 34.6496 37.031 34.6767C37.0439 34.6649 37.0664 34.6673 37.0369 34.6685C37.005 34.6696 36.9779 34.6649 36.9472 34.6578C36.8056 34.6248 36.6793 34.5469 36.5366 34.5186C36.3843 34.4879 36.2168 34.5139 36.1118 34.6378C35.9607 34.816 35.9725 35.0767 35.9253 35.2927C35.8062 35.8378 35.5241 36.3523 35.182 36.7888C35.0309 36.9812 34.8634 37.1653 34.6651 37.3116C34.5861 37.3694 34.5035 37.4178 34.4114 37.4532C34.3819 37.465 34.258 37.5039 34.2557 37.5015C34.1837 37.4579 34.3654 37.1428 34.3147 37.0437C34.1943 36.8054 33.8309 37.1322 33.7306 37.2337C33.576 37.3894 33.4344 37.5535 33.2362 37.6549C32.8633 37.8449 32.4102 37.8426 32.0031 37.8178C31.399 37.7812 30.8043 37.6868 30.1966 37.6939C29.7954 37.6986 29.3706 37.734 29.0025 37.9051C28.7287 38.0337 28.514 38.2496 28.4161 38.5387C28.3394 38.7688 28.3205 39.0131 28.2438 39.2443C28.1742 39.4556 28.0833 39.6609 27.9594 39.8461C27.9158 39.911 27.8697 39.9783 27.8143 40.0337L28.0904 40.0573C28.075 39.9039 28.055 39.747 28.0066 39.6007C27.95 39.4261 27.7447 39.3328 27.6101 39.5028C27.4886 39.6562 27.4697 39.9004 27.4001 40.0798C27.2715 40.4078 27.0296 40.6509 26.7275 40.8279L26.9505 40.9164C27.0095 40.5966 27.0048 40.1671 26.7275 39.9464C26.6579 39.891 26.4573 39.8945 26.4597 40.0184C26.4974 41.4757 25.5381 42.7713 24.4703 43.6727C24.3759 43.7518 24.2815 43.8309 24.1812 43.9017L24.4325 43.9725C24.5293 43.2267 24.1883 42.5435 23.754 41.9583C23.5062 41.6243 23.2289 41.314 22.9422 41.0143C22.6555 40.7146 22.4171 40.4137 22.344 39.983C22.3251 39.8733 22.1564 39.8898 22.0891 39.9382C21.7965 40.1517 21.7752 40.5871 21.8354 40.9152L22.0785 40.8267C21.7764 40.6485 21.5322 40.4125 21.3976 40.0845C21.3221 39.9028 21.3056 39.6455 21.1794 39.491C21.0413 39.3222 20.8383 39.4485 20.7829 39.6137C20.7322 39.7623 20.7156 39.9264 20.7003 40.0821L20.9681 40.0101C20.8596 39.9004 20.7793 39.7565 20.7097 39.6196C20.626 39.4544 20.5575 39.2797 20.508 39.1016C20.4584 38.9234 20.4395 38.7464 20.39 38.5729C20.2613 38.1281 19.8826 37.8827 19.4495 37.78C18.7333 37.6101 17.9557 37.6962 17.2336 37.7765C16.6613 37.8402 15.9415 37.9204 15.4353 37.57C15.1958 37.4036 15.0235 37.0673 14.7332 36.9812C14.5716 36.9328 14.4394 37.0225 14.4784 37.1877C14.4949 37.2573 14.522 37.3234 14.5338 37.3942C14.5385 37.4225 14.5374 37.452 14.5421 37.4803C14.5515 37.5287 14.5114 37.4921 14.5598 37.4956C14.3238 37.4744 14.0713 37.2691 13.8978 37.098C13.6205 36.8254 13.394 36.5009 13.2087 36.1599C13.0235 35.8189 12.8842 35.4472 12.8299 35.0567C12.7945 34.8053 12.7143 34.5186 12.4146 34.5033C12.1951 34.4926 12.017 34.6378 11.8069 34.6661C11.7751 34.6708 11.755 34.6578 11.7644 34.6661C11.7432 34.6496 11.7314 34.6236 11.7196 34.5988C11.6818 34.5233 11.6677 34.436 11.6547 34.3534C11.5839 33.9145 11.6264 33.4696 11.5874 33.0295C11.5745 32.8879 11.5237 32.751 11.3444 32.8029C11.2689 32.8242 11.2358 32.8773 11.2028 32.9422C11.1815 32.9846 11.1591 33.0248 11.1332 33.0649C11.1037 33.1097 11.0836 33.0967 11.1532 33.0944C11.2276 33.092 11.1898 33.1109 11.1756 33.0696C11.1615 33.0283 11.132 32.9858 11.1166 32.9422C11.0635 32.7935 11.0411 32.6342 11.0187 32.4784C10.9526 31.9947 10.9432 31.5038 10.9113 31.0177C10.8901 30.6861 10.8925 30.3238 10.7969 30.0017C10.7414 29.8129 10.5208 29.7516 10.3992 29.9297C10.3438 30.0111 10.3261 30.1126 10.2742 30.1952C10.2671 30.207 10.2281 30.2495 10.2281 30.2542C10.2258 30.2412 10.2836 30.2696 10.3048 30.2542C10.3225 30.2401 10.3048 30.2778 10.3048 30.2483C10.3048 30.2448 10.2907 30.2306 10.2883 30.2259C10.2718 30.1905 10.2529 30.1575 10.2411 30.1197C10.2034 30.0052 10.1904 29.8802 10.1821 29.7598C10.1278 29.0223 10.28 28.2672 10.424 27.545C10.5857 26.7309 10.7839 25.9238 10.9986 25.1214C11.2582 24.1515 11.5438 23.1886 11.8482 22.2317C12.1526 21.2747 12.4453 20.4015 12.883 19.5378C13.3951 18.5278 14.0429 17.5555 14.8312 16.7378C14.8807 16.6858 14.8878 16.6788 14.9374 16.6304C15.0141 16.5584 14.9468 16.4864 14.8595 16.4782C14.712 16.464 14.5645 16.4392 14.4217 16.4015C14.3733 16.3885 14.3191 16.3602 14.2695 16.3543C14.2152 16.3484 14.2612 16.3484 14.2766 16.3897C14.2872 16.4192 14.2542 16.4215 14.2848 16.4015C14.4382 16.2988 14.6188 16.215 14.7946 16.1348C15.3197 15.8964 15.8577 15.6852 16.3958 15.4787C16.5315 15.4268 16.666 15.3749 16.8029 15.3242C16.9575 15.2663 16.8076 15.1542 16.7144 15.1542C16.5126 15.1542 16.3097 15.1601 16.1091 15.1731C16.0713 15.1755 15.9108 15.1672 15.8825 15.192C15.8636 15.2085 15.8955 15.1873 15.9191 15.1979C15.9627 15.2168 15.9875 15.2581 15.9722 15.2675C16.0265 15.2357 16.0607 15.1731 16.1232 15.1259C16.2341 15.0422 16.3533 14.9702 16.4748 14.9017C17.4955 14.3271 18.6613 13.992 19.7988 13.7477C20.6142 13.5719 21.4401 13.4563 22.2708 13.3796C22.318 13.3749 22.4525 13.3218 22.4006 13.2474C22.2142 12.9772 21.9664 12.7212 21.6702 12.569L21.6195 12.733C22.0596 12.576 22.5741 12.6032 23.0189 12.733C23.0708 12.7483 23.2596 12.7282 23.2313 12.6315C23.1534 12.3684 23.0531 12.1088 22.9163 11.8716L22.7475 12.0038C23.4354 12.0368 24.2071 12.2504 24.7464 12.7035C24.7983 12.7471 24.8892 12.753 24.9482 12.72C25.4744 12.4262 26.0738 12.2279 26.6815 12.3235C26.8314 12.3471 26.9812 12.3884 27.1193 12.4521C27.1629 12.4722 27.2042 12.4946 27.2467 12.5182C27.2597 12.5253 27.3187 12.5666 27.2715 12.5324L27.2845 12.4156C26.9966 12.6551 26.783 12.9642 26.6084 13.2923C26.5753 13.356 26.6803 13.3961 26.7205 13.3996C28.1376 13.5436 29.5512 13.8091 30.8963 14.2846C31.3506 14.4451 31.8002 14.6303 32.225 14.8604C32.4291 14.9714 32.6403 15.0882 32.8032 15.2569C32.8244 15.2793 32.7973 15.2722 32.8161 15.2557C32.8256 15.2475 32.8456 15.218 32.8657 15.2073C32.8834 15.1979 32.92 15.2014 32.9318 15.192C32.9495 15.1778 32.9447 15.2014 32.9306 15.192C32.9082 15.1743 32.8232 15.1814 32.7973 15.179C32.5648 15.1601 32.3312 15.1542 32.0987 15.1542C31.9866 15.1542 31.8285 15.2722 32.002 15.3371C32.3559 15.4693 32.7076 15.6062 33.0568 15.7466C33.3365 15.8587 33.615 15.9743 33.8911 16.097C34.0834 16.1832 34.2911 16.2646 34.4657 16.385C34.4693 16.3873 34.5082 16.4286 34.5212 16.431C34.5259 16.431 34.5011 16.418 34.5141 16.4038C34.5802 16.3236 34.546 16.3566 34.474 16.379C34.3064 16.4333 34.1283 16.4628 33.9524 16.4793C33.8864 16.4852 33.7577 16.556 33.8392 16.6327C34.0575 16.8381 34.2557 17.0705 34.4457 17.3018C34.9389 17.9036 35.3708 18.5573 35.7413 19.2405C36.2722 20.2198 36.6286 21.2582 36.9637 22.3166C37.3177 23.434 37.6469 24.5597 37.936 25.696C38.1814 26.6601 38.408 27.6335 38.5437 28.6188C38.5614 28.7474 38.8528 28.7203 38.8351 28.5928V28.5964Z" fill="#700761"/>
<path d="M26.8577 17.6699C26.8494 18.7059 26.2028 19.6735 25.2187 20.0275C24.2346 20.3815 23.142 20.0416 22.4954 19.2416C21.8488 18.4416 21.7544 17.2463 22.2936 16.3519C22.8329 15.4575 23.8771 14.9772 24.8954 15.2014C26.0459 15.4551 26.8494 16.5041 26.8577 17.6711C26.8577 17.7973 27.1503 17.7761 27.1491 17.6451C27.1397 16.5053 26.4046 15.4905 25.332 15.1118C24.2523 14.7306 23.0028 15.0716 22.2688 15.9483C21.5349 16.8251 21.4429 18.1195 22.0564 19.087C22.67 20.0546 23.8358 20.5219 24.9509 20.3024C26.2146 20.0546 27.1409 18.9277 27.1503 17.6451C27.1503 17.5201 26.8601 17.5401 26.8589 17.6711L26.8577 17.6699Z" fill="#700761"/>
<path d="M21.8237 20.6729L27.4887 16.4038H21.3057L26.868 20.6729L24.3854 14.6421L21.8237 20.6729Z" fill="#FF9CBA"/>
<path d="M21.9323 20.7308C22.5719 20.2493 23.2102 19.7667 23.8498 19.2853C24.8669 18.5183 25.884 17.7514 26.9023 16.9844C27.1336 16.8098 27.366 16.6351 27.5973 16.4605C27.6811 16.398 27.602 16.3083 27.5194 16.3083H21.3364C21.2786 16.3083 21.0745 16.3779 21.1842 16.4617C21.812 16.9443 22.4409 17.4257 23.0686 17.9083L26.0586 20.2033C26.2887 20.3791 26.5177 20.5561 26.7477 20.732C26.8185 20.7862 27.064 20.7732 27.0073 20.6352C26.7277 19.9567 26.448 19.2771 26.1696 18.5986C25.7235 17.5166 25.2787 16.4334 24.8327 15.3513C24.73 15.1024 24.6274 14.8534 24.5259 14.6044C24.4834 14.5006 24.2816 14.5431 24.245 14.6292C23.956 15.31 23.6669 15.9909 23.3766 16.6717L21.9996 19.9131C21.8934 20.162 21.7884 20.411 21.6822 20.6612C21.6291 20.785 21.9193 20.8004 21.9677 20.6871C22.2568 20.0063 22.5459 19.3254 22.8362 18.6446C23.2952 17.5638 23.7542 16.4841 24.2132 15.4032C24.3194 15.1543 24.4244 14.9053 24.5306 14.6552L24.2498 14.6799C24.5294 15.3584 24.8091 16.0381 25.0875 16.7165C25.5336 17.7986 25.9784 18.8818 26.4244 19.9638C26.5271 20.2128 26.6297 20.4617 26.7312 20.7107L26.9908 20.614C26.3631 20.1314 25.7342 19.6499 25.1064 19.1673C24.1093 18.4027 23.1135 17.6369 22.1164 16.8723C21.8863 16.6965 21.6574 16.5195 21.4273 16.3437L21.2751 16.4971H27.4581L27.3802 16.3449C26.7407 16.8263 26.1023 17.3089 25.4628 17.7903C24.4456 18.5573 23.4285 19.3243 22.4102 20.0912C22.1789 20.2659 21.9465 20.4405 21.7152 20.6151C21.5748 20.7213 21.8367 20.8039 21.9335 20.7308H21.9323Z" fill="#700761"/>
<g style="mix-blend-mode:overlay" opacity="0.3">
<path d="M25.56 28.9834C25.0856 28.3427 23.7653 28.2589 23.2307 28.9834C22.6962 29.7079 21.8242 30.8914 21.8242 30.8914L24.3954 31.7964L26.9665 30.8914C26.9665 30.8914 26.0343 29.6253 25.56 28.9834Z" fill="white"/>
</g>
<path d="M26.9006 30.718C26.6186 30.8065 24.3956 31.7953 24.3956 31.7953C24.3956 31.7953 22.1725 30.8065 21.8905 30.718C21.6085 30.6295 21.5849 31.2785 21.966 31.4248C22.3471 31.5711 24.3956 32.1139 24.3956 32.1139C24.3956 32.1139 26.444 31.5711 26.8251 31.4248C27.2062 31.2785 27.1838 30.6295 26.9006 30.718Z" fill="#700761"/>
<path d="M24.5415 34.1777V31.97C24.5415 31.8437 24.25 31.865 24.25 31.9959V34.2036C24.25 34.3299 24.5415 34.3087 24.5415 34.1777Z" fill="#700761"/>
<path d="M20.2744 33.2655C20.4868 33.2738 20.7098 33.2018 20.8785 33.0732C20.954 33.0154 21.0201 32.9434 21.0709 32.8631C21.1074 32.8065 21.0661 32.7534 21.0071 32.7381C20.9481 32.7227 20.849 32.731 20.8113 32.79C20.7841 32.8325 20.7534 32.8714 20.7192 32.908C20.7405 32.8856 20.7133 32.9127 20.7086 32.9174C20.7003 32.9245 20.6921 32.9328 20.6826 32.9398C20.6685 32.9516 20.6531 32.9634 20.6378 32.9741C20.6295 32.98 20.6201 32.9859 20.6118 32.9918C20.593 33.0047 20.6378 32.9764 20.6071 32.9941C20.5906 33.0036 20.5729 33.013 20.5552 33.0213C20.5399 33.0283 20.5257 33.0342 20.5104 33.0401C20.488 33.0496 20.5469 33.0272 20.5127 33.0401C20.5045 33.0425 20.4962 33.046 20.488 33.0484C20.4596 33.0567 20.4313 33.0637 20.403 33.0696C20.3711 33.0767 20.4384 33.0637 20.416 33.0673C20.4101 33.0673 20.403 33.0696 20.3971 33.0696C20.3865 33.0708 20.3747 33.072 20.3629 33.0732C20.3475 33.0744 20.3322 33.0755 20.3169 33.0755C20.285 33.0755 20.3629 33.0755 20.3357 33.0755C20.298 33.0743 20.259 33.0779 20.2248 33.0944C20.2012 33.1062 20.1694 33.1298 20.1623 33.1569C20.1469 33.223 20.2177 33.262 20.2744 33.2643V33.2655Z" fill="#700761"/>
<path d="M28.4795 33.0767C28.4523 33.0767 28.5314 33.0767 28.4983 33.0767C28.483 33.0767 28.4677 33.0755 28.4523 33.0743C28.4405 33.0743 28.4299 33.072 28.4181 33.0708C28.4122 33.0708 28.4051 33.0684 28.3992 33.0684C28.3685 33.0637 28.4323 33.0755 28.4098 33.0708C28.3815 33.0649 28.3532 33.0578 28.3249 33.0495C28.3084 33.0448 28.2918 33.0377 28.2753 33.033C28.3131 33.0448 28.2871 33.0377 28.2777 33.033C28.2706 33.0295 28.2623 33.0259 28.2553 33.0224C28.2222 33.0071 28.1762 32.9882 28.1502 32.9622C28.1727 32.9846 28.1491 32.961 28.142 32.9551C28.1349 32.9492 28.129 32.9445 28.1231 32.9398C28.1054 32.9256 28.0889 32.9091 28.0724 32.8938C28.0559 32.8761 28.0393 32.8584 28.024 32.8395C28.0382 32.8572 28.0146 32.8265 28.0122 32.823C28.0051 32.8124 27.9969 32.8017 27.9898 32.7899C27.9532 32.7321 27.8671 32.7203 27.8045 32.7392C27.7597 32.7534 27.6735 32.8041 27.7125 32.8643C27.8647 33.1015 28.1231 33.243 28.4028 33.2643C28.4334 33.2666 28.4641 33.2678 28.4948 33.2655C28.5455 33.2631 28.6423 33.2242 28.6317 33.1581C28.6211 33.0885 28.5349 33.0743 28.4783 33.0767H28.4795Z" fill="#700761"/>
<path d="M20.5188 33.2182C20.9141 33.6701 21.0675 34.3238 21.6079 34.6389C22.3478 35.0684 23.0947 34.5645 23.8097 34.351C23.9867 34.2979 24.1272 34.2707 24.29 34.3274C24.4068 34.3675 24.4847 34.3132 24.5779 34.2967C24.6393 34.2849 24.7254 34.2943 24.8021 34.3108C25.5348 34.4642 26.2039 35.0153 26.9791 34.7262C27.6694 34.4689 27.8322 33.7091 28.2794 33.1981C28.3797 33.0837 28.0965 33.0365 28.0198 33.125C27.8499 33.3197 27.7083 33.5439 27.5821 33.7669C27.424 34.0477 27.2812 34.3321 26.9897 34.4984C26.6428 34.6967 26.2499 34.62 25.8971 34.4772C25.5844 34.3509 25.2658 34.2082 24.9354 34.1362C24.7207 34.089 24.5177 34.0925 24.3148 34.1822H24.4929C24.0257 33.9745 23.4959 34.2448 23.0605 34.4182C22.6911 34.5657 22.2982 34.7144 21.9088 34.5445C21.6268 34.4217 21.4368 34.1775 21.2964 33.9132C21.1466 33.63 20.9755 33.3468 20.7631 33.1049C20.6852 33.0152 20.415 33.1037 20.52 33.2229L20.5188 33.2182Z" fill="#700761"/>
<g style="mix-blend-mode:multiply" opacity="0.5">
<path d="M17.491 32.4322C17.8327 31.739 17.1942 30.7257 16.0649 30.169C14.9357 29.6124 13.7432 29.7231 13.4014 30.4163C13.0597 31.1096 13.6982 32.1228 14.8275 32.6795C15.9568 33.2362 17.1493 33.1254 17.491 32.4322Z" fill="#FF9CBA"/>
<path d="M33.9683 32.6744C35.0976 32.1177 35.736 31.1045 35.3943 30.4113C35.0526 29.718 33.8601 29.6073 32.7308 30.164C31.6015 30.7206 30.9631 31.7339 31.3048 32.4271C31.6465 33.1203 32.839 33.2311 33.9683 32.6744Z" fill="#FF9CBA"/>
</g>
<path d="M16.5061 21.2582C16.8047 21.296 17.8761 21.4034 18.8778 22.1043C19.8796 22.8052 20.426 23.4187 20.8826 23.0954C21.3392 22.7721 20.6041 21.1237 18.2879 20.7343C16.6772 20.4629 15.8324 21.1721 16.5061 21.2582Z" fill="#700761"/>
<path d="M14.665 28.8382C14.665 28.8382 16.4975 29.5545 17.9736 30.5008C17.9736 30.5008 21.1524 31.0306 21.3035 28.7226C21.4545 26.4146 20.0928 23.1225 16.6497 22.9337C13.2066 22.7449 12.7358 26.4146 14.665 28.8382Z" fill="#FFC83F"/>
<g style="mix-blend-mode:overlay" opacity="0.4">
<path d="M16.2732 29.1309C18.1576 30.3345 20.2791 30.4147 20.3948 28.6483C20.5104 26.8807 19.4673 24.3615 16.8313 24.2164C14.1953 24.0712 14.0725 27.7256 16.2732 29.1321V29.1309Z" fill="white"/>
</g>
<path d="M16.2693 24.2954C15.2474 23.9827 14.274 25.3526 15.0433 26.5916C15.8126 27.8294 17.3891 27.1297 18.1324 27.9863C18.818 28.7757 19.4068 28.9716 19.8517 28.3108C20.2965 27.65 19.4056 27.1415 18.7213 26.8087C16.8947 25.919 17.2911 24.6093 16.2693 24.2966V24.2954Z" fill="#700761"/>
<path d="M17.2906 26.3756C17.7696 26.3756 18.1579 25.9873 18.1579 25.5083C18.1579 25.0293 17.7696 24.6411 17.2906 24.6411C16.8116 24.6411 16.4233 25.0293 16.4233 25.5083C16.4233 25.9873 16.8116 26.3756 17.2906 26.3756Z" fill="white"/>
<path d="M15.7813 24.5845C15.7813 24.85 15.5665 25.0647 15.301 25.0647C15.0356 25.0647 14.8208 24.85 14.8208 24.5845C14.8208 24.319 15.0356 24.1042 15.301 24.1042C15.5665 24.1042 15.7813 24.319 15.7813 24.5845Z" fill="white"/>
<g style="mix-blend-mode:multiply">
<path d="M17.0134 23.9791C19.122 24.0948 20.4482 25.375 21.1267 26.8795C20.6477 24.9679 19.2364 23.0765 16.6499 22.9337C13.6764 22.7709 12.9213 25.4848 14.0127 27.7892C13.5596 25.7857 14.4824 23.8399 17.0134 23.9791Z" fill="#FFC83F"/>
</g>
<path d="M21.3094 26.5597C21.1324 25.8824 20.8079 25.244 20.3772 24.6883C19.9465 24.1325 19.4073 23.6594 18.7961 23.3018C18.1837 22.9478 17.4958 22.6823 16.7713 22.6564C14.2733 22.5644 13.0237 24.5726 13.0119 24.752C13.0025 24.8971 13.242 25.3302 13.3364 25.4942C13.3352 25.5048 13.3329 25.5143 13.3305 25.5249C12.7216 25.0423 12.8514 25.5131 13.0355 26.0393C13.5358 27.4695 14.2403 28.4524 14.4998 28.7108C14.5624 28.7721 14.6981 29.0317 14.7689 28.9763C14.8468 28.9161 15.0155 28.9833 14.9553 28.9066L14.7937 28.7178C14.6049 28.4736 14.4267 28.1916 14.2863 27.9049C14.147 27.6158 14.0314 27.3172 13.9571 27.0116C13.8037 26.4004 13.8155 25.7644 14.0078 25.178C14.101 24.8842 14.2379 24.601 14.4066 24.3367C14.5659 24.0747 14.7677 23.854 15.0084 23.6782C15.4886 23.3231 16.1152 23.1862 16.7347 23.2204C17.3577 23.2558 17.9772 23.4564 18.5365 23.762C19.0982 24.0676 19.602 24.4841 20.0114 24.9809C20.4197 25.4789 20.7336 26.0547 20.9306 26.6718C21.13 27.2889 21.1985 27.9485 21.169 28.6046C21.1654 28.6825 21.2221 28.7485 21.2988 28.7568C21.379 28.7662 21.451 28.7084 21.4593 28.6282C21.536 27.9426 21.4923 27.237 21.3094 26.5621V26.5597Z" fill="#700761"/>
<path d="M13.4843 28.7249C13.4913 28.7249 13.4972 28.7273 13.5043 28.7285C13.5539 28.7367 13.489 28.7249 13.5397 28.7344C13.62 28.7497 13.699 28.7662 13.7792 28.7851C14.0648 28.85 14.348 28.9279 14.6265 29.0152C15.5338 29.2984 16.4106 29.6854 17.2271 30.1716C17.8277 30.5279 18.3917 30.9409 18.9109 31.407C18.9982 31.486 19.2696 31.3928 19.154 31.289C17.7038 29.9863 15.8772 29.0695 13.9798 28.6258C13.8359 28.5916 13.6907 28.5597 13.5456 28.5373C13.3899 28.5125 13.2943 28.6966 13.4843 28.7273V28.7249Z" fill="#700761"/>
<path d="M32.2873 21.2582C31.9888 21.296 30.9174 21.4034 29.9156 22.1043C28.9138 22.8063 28.3675 23.4187 27.9108 23.0954C27.4542 22.7721 28.1893 21.1237 30.5056 20.7343C32.1162 20.4629 32.9611 21.1721 32.2873 21.2582Z" fill="#700761"/>
<path d="M34.1282 28.8382C34.1282 28.8382 32.2957 29.5545 30.8196 30.5008C30.8196 30.5008 27.6408 31.0306 27.4898 28.7226C27.3387 26.4146 28.7004 23.1225 32.1435 22.9337C35.5867 22.7449 36.0575 26.4146 34.1282 28.8382Z" fill="#FFC83F"/>
<g style="mix-blend-mode:overlay" opacity="0.4">
<path d="M32.5218 29.1309C30.6374 30.3345 28.5158 30.4147 28.4002 28.6483C28.2846 26.8819 29.3277 24.3615 31.9637 24.2164C34.5997 24.0712 34.7224 27.7256 32.5218 29.1321V29.1309Z" fill="white"/>
</g>
<path d="M32.5241 24.2954C33.546 23.9827 34.5195 25.3526 33.7501 26.5916C32.9808 27.8294 31.4044 27.1297 30.661 27.9863C29.9754 28.7757 29.3866 28.9716 28.9418 28.3108C28.4969 27.65 29.3878 27.1415 30.0722 26.8087C31.8988 25.919 31.5023 24.6093 32.5241 24.2966V24.2954Z" fill="#700761"/>
<path d="M31.503 26.3756C31.982 26.3756 32.3703 25.9873 32.3703 25.5083C32.3703 25.0293 31.982 24.6411 31.503 24.6411C31.024 24.6411 30.6357 25.0293 30.6357 25.5083C30.6357 25.9873 31.024 26.3756 31.503 26.3756Z" fill="white"/>
<path d="M33.0122 24.5845C33.0122 24.85 33.227 25.0647 33.4925 25.0647C33.7579 25.0647 33.9727 24.85 33.9727 24.5845C33.9727 24.319 33.7579 24.1042 33.4925 24.1042C33.227 24.1042 33.0122 24.319 33.0122 24.5845Z" fill="white"/>
<g style="mix-blend-mode:multiply">
<path d="M31.7803 23.9792C29.6717 24.0948 28.3455 25.3751 27.667 26.8795C28.1461 24.968 29.5573 23.0765 32.1438 22.9337C35.1173 22.7709 35.8724 25.4848 34.781 27.7893C35.2341 25.7857 34.3114 23.84 31.7803 23.9792Z" fill="#FFC83F"/>
</g>
<path d="M27.4843 26.5597C27.6613 25.8824 27.9857 25.244 28.4164 24.6883C28.8471 24.1325 29.3864 23.6594 29.9976 23.3018C30.61 22.9478 31.2979 22.6823 32.0224 22.6564C34.5204 22.5644 35.77 24.5726 35.7818 24.752C35.7912 24.8971 35.5517 25.3302 35.4573 25.4942C35.4584 25.5048 35.4608 25.5143 35.4632 25.5249C36.072 25.0423 35.9422 25.5131 35.7582 26.0393C35.2579 27.4695 34.5534 28.4524 34.2938 28.7108C34.2313 28.7721 34.0956 29.0317 34.0248 28.9763C33.9469 28.9161 33.7782 28.9833 33.8384 28.9066L34 28.7178C34.1888 28.4736 34.367 28.1916 34.5074 27.9049C34.6466 27.6158 34.7623 27.3172 34.8366 27.0116C34.99 26.4004 34.9782 25.7644 34.7859 25.178C34.6926 24.8842 34.5558 24.601 34.387 24.3367C34.2277 24.0747 34.026 23.854 33.7853 23.6782C33.305 23.3231 32.6785 23.1862 32.059 23.2204C31.436 23.2558 30.8165 23.4564 30.2572 23.762C29.6955 24.0676 29.1917 24.4841 28.7822 24.9809C28.374 25.4789 28.0601 26.0547 27.863 26.6718C27.6636 27.2889 27.5952 27.9485 27.6247 28.6046C27.6282 28.6825 27.5716 28.7485 27.4949 28.7568C27.4146 28.7662 27.3427 28.7084 27.3344 28.6282C27.2577 27.9426 27.3014 27.237 27.4843 26.5621V26.5597Z" fill="#700761"/>
<path d="M35.2704 28.535C34.8586 28.6011 34.4515 28.7144 34.055 28.8383C33.1111 29.1333 32.1978 29.5344 31.3494 30.043C30.7464 30.4053 30.1765 30.8182 29.6526 31.289C29.5205 31.407 29.7789 31.4873 29.8709 31.4047C31.2857 30.1339 33.0592 29.2418 34.9093 28.8052C35.0096 28.7816 35.1111 28.7592 35.2126 28.7391C35.2386 28.7344 35.2657 28.7285 35.2916 28.7238C35.235 28.7344 35.274 28.7274 35.2881 28.7238C35.3424 28.7156 35.4321 28.6872 35.425 28.6164C35.4191 28.5504 35.3235 28.5256 35.2716 28.535H35.2704Z" fill="#700761"/>
<g style="mix-blend-mode:overlay" opacity="0.4">
<path d="M11.4546 25.4199C10.8375 26.5762 10.4257 28.0488 10.4292 29.3645C10.4292 29.4235 10.5567 29.4895 10.5708 29.414C10.6865 28.7839 10.7455 28.1503 10.8906 27.5249C11.0546 26.8216 11.2906 26.1432 11.4994 25.4541C11.5053 25.4352 11.4676 25.3963 11.4546 25.4199Z" fill="white"/>
<path d="M11.465 28.3592C11.1452 29.6029 11.0815 31.0507 11.3364 32.3133C11.3458 32.3605 11.4579 32.4159 11.4532 32.3428C11.3694 30.9858 11.3694 29.7421 11.5287 28.3923C11.5323 28.3616 11.4756 28.3179 11.465 28.3592Z" fill="white"/>
<path d="M11.9504 30.4454C11.7369 31.6005 11.7333 33.0377 12.0779 34.1693C12.0897 34.2094 12.19 34.2543 12.1888 34.187C12.1746 33.6124 12.0613 33.0389 12.0295 32.4631C11.9917 31.7988 12.0141 31.1345 11.9988 30.4701C11.9988 30.4501 11.9551 30.4147 11.9492 30.4465L11.9504 30.4454Z" fill="white"/>
<path d="M12.6461 31.9428C12.7358 33.4885 13.1417 35.1051 13.8603 36.4845C13.8945 36.5505 14.0833 36.5789 14.0432 36.4762C13.4662 34.9871 13.0048 33.5298 12.6968 31.9593C12.6921 31.9357 12.6437 31.9015 12.6461 31.9428Z" fill="white"/>
<path d="M14.0395 34.7522C14.5823 35.964 15.2584 37.0366 16.6378 37.3009C16.7133 37.3151 16.6932 37.229 16.6413 37.2089C15.9817 36.9529 15.4496 36.6767 15.013 36.0773C14.6873 35.6301 14.4018 35.2313 14.1304 34.7499C14.1115 34.7156 14.0135 34.692 14.0395 34.7522Z" fill="white"/>
</g>
<g style="mix-blend-mode:overlay" opacity="0.4">
<path d="M37.3389 25.4199C37.956 26.5762 38.3678 28.0488 38.3643 29.3645C38.3643 29.4235 38.2369 29.4895 38.2227 29.414C38.1071 28.7839 38.0481 28.1503 37.9029 27.5249C37.7389 26.8216 37.5029 26.1432 37.2941 25.4541C37.2882 25.4352 37.3259 25.3963 37.3389 25.4199Z" fill="white"/>
<path d="M37.328 28.3592C37.6478 29.6029 37.7115 31.0507 37.4567 32.3133C37.4472 32.3605 37.3351 32.4159 37.3398 32.3428C37.4236 30.9858 37.4236 29.7421 37.2643 28.3923C37.2608 28.3616 37.3174 28.3179 37.328 28.3592Z" fill="white"/>
<path d="M36.8448 30.4454C37.0584 31.6005 37.0619 33.0377 36.7174 34.1693C36.7056 34.2094 36.6053 34.2543 36.6065 34.187C36.6206 33.6124 36.7339 33.0389 36.7657 32.4631C36.8035 31.7988 36.7811 31.1345 36.7964 30.4701C36.7964 30.4501 36.8401 30.4147 36.846 30.4465L36.8448 30.4454Z" fill="white"/>
<path d="M36.1471 31.9428C36.0574 33.4885 35.6515 35.1051 34.9329 36.4845C34.8987 36.5505 34.7087 36.5789 34.75 36.4762C35.327 34.9871 35.7884 33.5298 36.0963 31.9593C36.101 31.9357 36.1494 31.9015 36.1471 31.9428Z" fill="white"/>
<path d="M34.7535 34.7522C34.2107 35.964 33.5346 37.0366 32.1552 37.3009C32.0797 37.3151 32.0998 37.229 32.1517 37.2089C32.8113 36.9529 33.3434 36.6767 33.78 36.0773C34.1057 35.6301 34.3913 35.2313 34.6626 34.7499C34.6815 34.7156 34.7795 34.692 34.7535 34.7522Z" fill="white"/>
</g>
<path d="M23.1456 37.9687C22.8293 38.7321 22.8282 39.4543 23.2777 40.1575C23.8476 41.0496 24.5403 41.603 24.5957 42.7393C24.5981 42.7818 24.6913 42.8384 24.709 42.7806C24.9155 42.1198 24.4884 41.4767 24.0907 40.9752C23.8488 40.6708 23.5692 40.3912 23.365 40.0572C22.9568 39.3894 23.0252 38.7251 23.1857 38.0006C23.1892 37.984 23.155 37.9451 23.1444 37.9687H23.1456Z" fill="#700761"/>
<path d="M25.1914 41.9535C26.3301 40.6862 26.3714 38.7794 25.2339 37.4968C25.1926 37.4496 25.0404 37.4543 25.0994 37.5381C26.0469 38.9069 26.0846 40.5175 25.1277 41.8886C25.1053 41.9205 25.1654 41.983 25.1926 41.9523L25.1914 41.9535Z" fill="#700761"/>
<path d="M24.291 37.0367C23.9441 37.4048 23.8485 37.8402 23.9464 38.3417C24.1246 39.2515 24.7358 39.9547 24.8232 40.9046C24.8279 40.9506 24.9435 41.0084 24.9518 40.9435C25.1205 39.6066 23.4214 38.3795 24.3323 37.0803C24.3453 37.0615 24.3075 37.0178 24.291 37.0355V37.0367Z" fill="#700761"/>
<path d="M21.7696 39.9654C21.5902 39.0297 22.0374 38.4208 22.5755 37.7376C22.6097 37.6939 22.507 37.622 22.4693 37.6538C21.8109 38.2084 21.405 39.117 21.6976 39.9595C21.7082 39.9902 21.7802 40.0161 21.7696 39.9654Z" fill="#700761"/>
<path d="M20.6986 38.8809C20.7222 38.2814 21.1954 37.898 21.6284 37.551C21.6862 37.505 21.5635 37.4189 21.5128 37.4555C21.0491 37.7965 20.5629 38.2189 20.6101 38.8466C20.6125 38.8844 20.6963 38.9387 20.6986 38.8809Z" fill="#700761"/>
<path d="M27.1289 39.5098C27.2516 39.1558 27.0486 38.6508 26.9094 38.3299C26.7454 37.9511 26.5247 37.5936 26.2274 37.3068C26.1896 37.2702 26.0398 37.2573 26.0976 37.341C26.3501 37.7045 26.6097 38.0537 26.7938 38.4585C26.9295 38.757 27.1383 39.17 27.123 39.5051C27.123 39.5075 27.1277 39.5145 27.1289 39.5098Z" fill="#700761"/>
<path d="M28.0693 38.8007C28.1472 38.6461 28.0575 38.4396 27.9973 38.2886C27.8534 37.9263 27.6339 37.5971 27.3472 37.334C27.2976 37.2892 27.1879 37.3163 27.248 37.3895C27.4239 37.6007 27.5949 37.8154 27.7342 38.0526C27.8321 38.2178 28.0728 38.5694 28.0374 38.7736C28.0351 38.7854 28.0587 38.8196 28.0681 38.8007H28.0693Z" fill="#700761"/>
<path d="M15.4385 16.8794C15.4385 16.8794 11.5789 17.8635 9.49861 20.1337C7.41716 22.404 6.62305 25.3928 5.82893 26.5657C5.03482 27.7386 4.23952 28.1173 4.61829 28.3439C4.99706 28.5705 5.97997 28.1551 6.28322 27.6631C6.28322 27.6631 6.01891 28.6094 7.19179 27.8896C8.36467 27.171 9.04551 25.5816 9.04551 25.5816C9.04551 25.5816 9.2343 27.2548 11.278 23.637C13.3217 20.0193 15.4397 16.8794 15.4397 16.8794H15.4385Z" fill="#FF9CBA"/>
<path d="M14.6588 16.9784C13.5532 17.3442 12.4723 17.8068 11.4693 18.4003C10.8628 18.759 10.2823 19.1649 9.7643 19.644C9.21916 20.1478 8.74954 20.7331 8.33183 21.3467C7.56839 22.4664 7.00083 23.6983 6.44979 24.9314C6.2492 25.3821 6.0545 25.8388 5.80907 26.2671C5.49638 26.8122 5.06806 27.2712 4.64091 27.7267C4.52527 27.8506 4.31878 28.0323 4.32586 28.2223C4.33412 28.4312 4.60433 28.5137 4.77189 28.5303C5.08576 28.5621 5.41143 28.4606 5.69108 28.3273C5.97073 28.194 6.27752 27.9887 6.45451 27.7126L6.09108 27.6465C6.05568 27.7751 6.04388 27.9285 6.09226 28.0547C6.20672 28.3497 6.59257 28.3073 6.8321 28.2211C7.73949 27.8966 8.41797 27.0565 8.89231 26.2518C9.01621 26.0405 9.13656 25.8234 9.23332 25.5992H8.84865C8.87225 25.8057 8.98789 26.0134 9.19674 26.0759C9.42801 26.1444 9.66519 26.0335 9.8469 25.8966C10.1867 25.6405 10.4487 25.2712 10.687 24.9243C11.2192 24.1502 11.6558 23.3125 12.1289 22.5018C12.2351 22.3201 11.8623 22.267 11.782 22.4039C11.3785 23.0942 11.0009 23.8022 10.5714 24.4771C10.3224 24.8677 10.0593 25.2724 9.72536 25.5969C9.67581 25.6453 9.62507 25.6901 9.57079 25.7326C9.51651 25.7751 9.49881 25.7869 9.46223 25.8057C9.44099 25.8164 9.41975 25.827 9.39734 25.8364C9.37492 25.8459 9.43155 25.8152 9.38317 25.84C9.3407 25.8612 9.37964 25.8411 9.38082 25.8411C9.32064 25.8388 9.42093 25.8447 9.3761 25.8411C9.33834 25.8388 9.39615 25.8411 9.3938 25.8459C9.3938 25.8482 9.37492 25.84 9.37256 25.8411C9.35604 25.8541 9.40087 25.8459 9.37492 25.8423C9.36784 25.8423 9.35132 25.8305 9.3466 25.8258C9.38908 25.8659 9.3525 25.8293 9.34306 25.8199C9.3348 25.8116 9.32654 25.8022 9.31828 25.7939C9.3348 25.8116 9.3289 25.8105 9.31474 25.788C9.30294 25.768 9.29114 25.7479 9.28052 25.7267C9.2699 25.7031 9.26046 25.6783 9.2522 25.6547C9.24158 25.6264 9.26046 25.6889 9.2522 25.6523C9.24984 25.6429 9.24748 25.6346 9.24512 25.6252C9.24158 25.6063 9.23686 25.5863 9.2345 25.5674C9.21444 25.3951 8.90293 25.4435 8.84983 25.5674C8.64806 26.037 8.36251 26.4842 8.04746 26.8854C7.78079 27.224 7.474 27.5367 7.11057 27.7716C6.9442 27.8789 6.76012 27.9875 6.56425 28.0311C6.53003 28.0382 6.50879 28.0335 6.49817 28.03C6.51587 28.037 6.50407 28.0323 6.49817 28.0264C6.47575 28.0016 6.48991 28.0217 6.47693 27.9981C6.42501 27.9131 6.44271 27.7774 6.46867 27.6819C6.51705 27.5037 6.17486 27.5072 6.10524 27.6158C5.96365 27.8376 5.74063 27.9946 5.50818 28.1102C5.31703 28.2058 5.04328 28.325 4.82262 28.2754C4.76481 28.2624 4.72705 28.2365 4.71407 28.2152C4.71407 28.214 4.70935 28.1893 4.70935 28.1987C4.71171 28.1716 4.72705 28.1421 4.73767 28.1232C4.83088 27.9509 5.00434 27.8058 5.13767 27.6654C5.5365 27.2441 5.91645 26.7969 6.19728 26.2872C6.42619 25.8706 6.61853 25.4352 6.81204 25.001C7.3265 23.8494 7.85041 22.7013 8.54304 21.644C8.92771 21.0564 9.3584 20.4841 9.85634 19.9873C10.3236 19.5201 10.8569 19.1201 11.4139 18.7673C12.4582 18.1065 13.6074 17.6026 14.7791 17.2156C15.0234 17.1354 14.8547 16.9147 14.6541 16.9808L14.6588 16.9784Z" fill="#700761"/>
<g style="mix-blend-mode:overlay" opacity="0.4">
<path d="M14.2605 17.7159C12.5082 18.4452 10.7194 19.4375 9.50875 20.9325C8.86213 21.7314 8.37009 22.6411 7.90401 23.5532C7.42612 24.4866 6.86918 25.4836 6.59779 26.5008C6.57183 26.5999 6.79602 26.6247 6.83614 26.548C7.78129 24.7285 8.41375 22.7556 9.67985 21.1095C10.8846 19.5437 12.6168 18.7236 14.2793 17.7478C14.2935 17.7395 14.2746 17.7112 14.2605 17.7171V17.7159Z" fill="white"/>
</g>
<path d="M8.68673 24.7037C8.51091 25.1108 8.33392 25.5084 8.10383 25.8872C7.92801 26.1763 7.44187 27.0966 7.01944 26.9905C6.91325 26.9645 6.85307 27.0577 6.95809 27.1167C7.36045 27.3409 7.68022 26.8784 7.89379 26.5999C8.31268 26.0524 8.62419 25.4246 8.75517 24.745C8.76107 24.7167 8.70207 24.6683 8.68673 24.7037Z" fill="#700761"/>
<path d="M11.7638 21.7208C11.3814 22.2966 11.0098 22.8795 10.6227 23.453C10.4611 23.6925 10.303 23.9391 10.1236 24.1669C9.96549 24.3686 9.82507 24.6235 9.55132 24.5751C9.31415 24.5326 9.35073 24.4689 9.29173 24.2412C9.26931 24.1551 9.06046 24.1232 9.07226 24.2341C9.14542 24.915 9.48407 25.1226 10.0032 24.6318C10.8021 23.8754 11.3189 22.7344 11.8322 21.7786C11.8487 21.7491 11.7826 21.6913 11.7626 21.7208H11.7638Z" fill="#700761"/>
<path d="M33.3532 16.8794C33.3532 16.8794 37.2129 17.8635 39.2932 20.1337C41.3746 22.404 42.1687 25.3928 42.9628 26.5657C43.757 27.7386 44.5522 28.1173 44.1735 28.3439C43.7947 28.5705 42.8118 28.1551 42.5086 27.6631C42.5086 27.6631 42.7729 28.6094 41.6 27.8896C40.4271 27.1698 39.7463 25.5816 39.7463 25.5816C39.7463 25.5816 39.5575 27.2548 37.5138 23.637C35.4701 20.0193 33.3521 16.8794 33.3521 16.8794H33.3532Z" fill="#FF9CBA"/>
<path d="M33.9824 17.2133C35.0101 17.5532 36.0131 17.9839 36.9523 18.5243C37.5246 18.8547 38.0733 19.2275 38.5701 19.6641C39.101 20.1302 39.5589 20.6742 39.966 21.2488C40.7164 22.3072 41.2851 23.4742 41.8138 24.6542C42.0191 25.112 42.2173 25.5746 42.4427 26.0241C42.6846 26.5044 42.9878 26.9374 43.3418 27.3421C43.5353 27.564 43.7477 27.7693 43.9412 27.9923C43.992 28.0501 44.0486 28.115 44.0734 28.1894C44.0828 28.2177 44.0769 28.2377 44.0581 28.2483C43.8775 28.3416 43.5884 28.2354 43.4079 28.1575C43.1365 28.0407 42.8569 27.8672 42.694 27.6135C42.6256 27.5073 42.2704 27.5156 42.3153 27.6808C42.3412 27.7764 42.3507 27.8932 42.3294 27.9687C42.3188 28.0053 42.3129 28.0183 42.3011 28.0312C42.2869 28.0466 42.3011 28.0383 42.2834 28.0348C42.3153 28.0407 42.2586 28.0312 42.2504 28.0301C42.2126 28.023 42.176 28.0112 42.1406 27.9994C42.0439 27.9663 41.9518 27.918 41.8621 27.8672C41.1353 27.4613 40.6019 26.7663 40.1972 26.0524C40.1016 25.8837 40.0084 25.7114 39.9317 25.5333C39.868 25.3846 39.5707 25.453 39.553 25.6005C39.5612 25.5262 39.553 25.5993 39.5482 25.617C39.5388 25.6548 39.5282 25.6902 39.5152 25.7268C39.5058 25.7515 39.4822 25.7928 39.4999 25.7633C39.4869 25.7834 39.4739 25.8023 39.4597 25.8223C39.4527 25.8318 39.422 25.866 39.4609 25.8223C39.4538 25.8294 39.4432 25.8412 39.4338 25.8459C39.3937 25.8648 39.4727 25.833 39.4338 25.8459C39.3866 25.8613 39.4739 25.8365 39.4338 25.8459C39.3901 25.8566 39.4881 25.8389 39.442 25.8448C39.396 25.8507 39.4916 25.8377 39.4456 25.8448C39.3937 25.8518 39.4704 25.853 39.4302 25.8424C39.4161 25.8389 39.3559 25.8141 39.4019 25.8341C39.2922 25.7869 39.2415 25.7445 39.153 25.6666C38.8367 25.3881 38.5889 25.0282 38.3577 24.679C37.8715 23.9462 37.4597 23.1651 37.0172 22.4064C36.9346 22.2659 36.5559 22.3474 36.6491 22.5067C37.0857 23.2536 37.4904 24.0217 37.9671 24.7439C38.2231 25.1321 38.4993 25.5439 38.858 25.8471C39.0338 25.9958 39.2485 26.1244 39.4869 26.0937C39.6639 26.0713 39.7996 25.9651 39.8751 25.807C39.9117 25.7315 39.9306 25.6513 39.94 25.5675L39.5612 25.6347C39.809 26.2094 40.1689 26.7557 40.5795 27.2253C40.9123 27.6053 41.3111 27.9463 41.7736 28.1599C42.0297 28.2778 42.458 28.4029 42.6574 28.115C42.7471 27.9852 42.7436 27.7964 42.7023 27.6489L42.3235 27.7162C42.6197 28.1775 43.2462 28.4985 43.7867 28.5351C44.1265 28.5587 44.6646 28.3781 44.3684 27.9687C44.2221 27.7669 44.0356 27.5946 43.8669 27.4129C43.6061 27.1321 43.3607 26.8371 43.1471 26.5197C42.8958 26.1468 42.7094 25.7315 42.5241 25.3232C41.9837 24.135 41.4704 22.9362 40.7801 21.8246C40.3837 21.1863 39.9364 20.5762 39.4243 20.0252C38.9453 19.5096 38.386 19.0718 37.7984 18.6859C36.6762 17.9508 35.4302 17.401 34.1582 16.9809C33.9871 16.9243 33.7381 17.1355 33.9812 17.2157L33.9824 17.2133Z" fill="#700761"/>
<g style="mix-blend-mode:overlay" opacity="0.4">
<path d="M34.5322 17.7159C36.2844 18.4452 38.0733 19.4375 39.2839 20.9325C39.9305 21.7314 40.4226 22.6411 40.8886 23.5532C41.3665 24.4866 41.9235 25.4836 42.1949 26.5008C42.2208 26.5999 41.9966 26.6247 41.9565 26.548C41.0114 24.7285 40.3789 22.7556 39.1128 21.1095C37.9081 19.5437 36.1759 18.7236 34.5133 17.7478C34.4992 17.7395 34.518 17.7112 34.5322 17.7171V17.7159Z" fill="white"/>
</g>
<path d="M40.1045 24.7037C40.2803 25.1108 40.4573 25.5084 40.6874 25.8872C40.8632 26.1763 41.3494 27.0966 41.7718 26.9905C41.878 26.9645 41.9382 27.0577 41.8331 27.1167C41.4308 27.3409 41.111 26.8784 40.8974 26.5999C40.4785 26.0524 40.167 25.4246 40.0361 24.745C40.0302 24.7167 40.0892 24.6683 40.1045 24.7037Z" fill="#700761"/>
<path d="M37.0291 21.7208C37.4114 22.2966 37.7831 22.8795 38.1701 23.453C38.3317 23.6925 38.4899 23.9391 38.6692 24.1669C38.8273 24.3686 38.9677 24.6235 39.2415 24.5751C39.4787 24.5326 39.4421 24.4689 39.5011 24.2412C39.5235 24.1551 39.7324 24.1232 39.7206 24.2341C39.6474 24.915 39.3088 25.1226 38.7896 24.6318C37.9907 23.8754 37.4739 22.7344 36.9606 21.7786C36.9441 21.7491 37.0102 21.6913 37.0302 21.7208H37.0291Z" fill="#700761"/>
<path d="M10.4992 2.77409L9.17529 3.23663L8.04489 0L6.53336 0.527442L7.66376 3.76408L6.33984 4.22662L6.86729 5.73697L8.19238 5.27443L8.62189 6.50631L10.1322 5.97886L9.70273 4.74698L11.0267 4.28444L10.4992 2.77409Z" fill="#5E185E"/>
<path d="M1.80487 18.536C1.67154 19.1932 1.49218 20.1514 0.452637 20.3343C1.609 20.5502 1.74469 22.0346 1.80487 22.5632C1.86505 22.0334 2.00075 20.549 3.15711 20.3343C2.11756 20.1514 1.93821 19.1932 1.80487 18.536Z" fill="#5E185E"/>
<path d="M4.29965 20.3319C4.22059 20.7225 4.11439 21.2924 3.49609 21.401C4.18401 21.5296 4.26425 22.4122 4.29965 22.7261C4.33505 22.411 4.41646 21.5284 5.1032 21.401C4.4849 21.2924 4.3787 20.7225 4.29965 20.3319Z" fill="#5E185E"/>
<path d="M2.80137 22.2529C2.75181 22.4948 2.68573 22.8487 2.30225 22.916C2.72821 22.9951 2.77895 23.5426 2.80137 23.7384C2.82379 23.5437 2.87335 22.9962 3.30049 22.916C2.91701 22.8487 2.85093 22.4948 2.80137 22.2529Z" fill="#5E185E"/>
<path d="M3.90124 23.6216C4.00876 23.6216 4.09593 23.5345 4.09593 23.4269C4.09593 23.3194 4.00876 23.2322 3.90124 23.2322C3.79371 23.2322 3.70654 23.3194 3.70654 23.4269C3.70654 23.5345 3.79371 23.6216 3.90124 23.6216Z" fill="#5E185E"/>
<path d="M0.703682 22.0039C0.858781 22.0039 0.984513 21.8782 0.984513 21.7231C0.984513 21.568 0.858781 21.4423 0.703682 21.4423C0.548583 21.4423 0.422852 21.568 0.422852 21.7231C0.422852 21.8782 0.548583 22.0039 0.703682 22.0039Z" fill="#5E185E"/>
<path d="M3.90174 19.5956C3.90174 19.7797 3.75189 19.9296 3.56782 19.9296C3.38374 19.9296 3.23389 19.7797 3.23389 19.5956C3.23389 19.4116 3.38374 19.2617 3.56782 19.2617C3.75189 19.2617 3.90174 19.4116 3.90174 19.5956Z" fill="#5E185E"/>
<path d="M14.2337 40.6638C14.1547 41.0544 14.0485 41.6243 13.4302 41.7329C14.1181 41.8615 14.1983 42.7441 14.2337 43.058C14.2691 42.7429 14.3505 41.8603 15.0373 41.7329C14.419 41.6243 14.3128 41.0544 14.2337 40.6638Z" fill="#5E185E"/>
<path d="M15.8756 40.3476C15.826 40.5895 15.76 40.9435 15.3765 41.0107C15.8024 41.0898 15.8532 41.6373 15.8756 41.8332C15.898 41.6385 15.9476 41.091 16.3747 41.0107C15.9912 40.9435 15.9251 40.5895 15.8756 40.3476Z" fill="#5E185E"/>
<path d="M15.1335 40.3476C15.1335 40.455 15.0462 40.5423 14.9388 40.5423C14.8315 40.5423 14.7441 40.455 14.7441 40.3476C14.7441 40.2402 14.8315 40.1529 14.9388 40.1529C15.0462 40.1529 15.1335 40.2402 15.1335 40.3476Z" fill="#5E185E"/>
<path d="M13.0909 41.268C13.246 41.268 13.3717 41.1422 13.3717 40.9871C13.3717 40.832 13.246 40.7063 13.0909 40.7063C12.9358 40.7063 12.8101 40.832 12.8101 40.9871C12.8101 41.1422 12.9358 41.268 13.0909 41.268Z" fill="#5E185E"/>
<path d="M15.6738 42.881C15.8582 42.881 16.0077 42.7315 16.0077 42.5471C16.0077 42.3626 15.8582 42.2131 15.6738 42.2131C15.4893 42.2131 15.3398 42.3626 15.3398 42.5471C15.3398 42.7315 15.4893 42.881 15.6738 42.881Z" fill="#5E185E"/>
<path d="M3.96112 0C3.82779 0.657239 3.64843 1.61537 2.60889 1.79826C3.76525 2.01419 3.90094 3.49859 3.96112 4.02721C4.0213 3.49741 4.157 2.01301 5.31336 1.79826C4.27381 1.61537 4.09446 0.657239 3.96112 0Z" fill="#5E185E"/>
<path d="M4.764 4.19238C4.68495 4.58295 4.57875 5.15287 3.96045 5.26143C4.64837 5.39004 4.7286 6.27266 4.764 6.58652C4.7994 6.27148 4.88082 5.38886 5.56756 5.26143C4.94926 5.15287 4.84306 4.58295 4.764 4.19238Z" fill="#5E185E"/>
<path d="M2.30381 3.34528C2.25425 3.58717 2.18817 3.94116 1.80469 4.00841C2.23065 4.08747 2.28139 4.63497 2.30381 4.83085C2.32623 4.63615 2.37579 4.08865 2.80293 4.00841C2.41945 3.94116 2.35337 3.58717 2.30381 3.34528Z" fill="#5E185E"/>
<path d="M2.99645 5.21898C3.10398 5.21898 3.19115 5.13181 3.19115 5.02428C3.19115 4.91676 3.10398 4.82959 2.99645 4.82959C2.88893 4.82959 2.80176 4.91676 2.80176 5.02428C2.80176 5.13181 2.88893 5.21898 2.99645 5.21898Z" fill="#5E185E"/>
<path d="M2.10924 2.83311C2.21677 2.83311 2.30394 2.74595 2.30394 2.63842C2.30394 2.53089 2.21677 2.44373 2.10924 2.44373C2.00172 2.44373 1.91455 2.53089 1.91455 2.63842C1.91455 2.74595 2.00172 2.83311 2.10924 2.83311Z" fill="#5E185E"/>
<path d="M5.44692 3.34522C5.44692 3.49272 5.32774 3.6119 5.18025 3.6119C5.03275 3.6119 4.91357 3.49272 4.91357 3.34522C4.91357 3.19773 5.03275 3.07855 5.18025 3.07855C5.32774 3.07855 5.44692 3.19773 5.44692 3.34522Z" fill="#5E185E"/>
<path d="M38.2931 2.77409L39.617 3.23663L40.7474 0L42.2589 0.527442L41.1285 3.76408L42.4524 4.22662L41.925 5.73697L40.6011 5.27443L40.1704 6.50631L38.66 5.97886L39.0895 4.74698L37.7656 4.28444L38.2931 2.77409Z" fill="#5E185E"/>
<path d="M46.9875 18.536C47.1208 19.1932 47.3002 20.1514 48.3397 20.3343C47.1834 20.5502 47.0477 22.0346 46.9875 22.5632C46.9273 22.0334 46.7916 20.549 45.6353 20.3343C46.6748 20.1514 46.8542 19.1932 46.9875 18.536Z" fill="#5E185E"/>
<path d="M44.4935 20.3319C44.5726 20.7225 44.6787 21.2924 45.297 21.401C44.6091 21.5296 44.5289 22.4122 44.4935 22.7261C44.4581 22.411 44.3767 21.5284 43.6899 21.401C44.3082 21.2924 44.4144 20.7225 44.4935 20.3319Z" fill="#5E185E"/>
<path d="M45.9908 22.2529C46.0404 22.4948 46.1065 22.8487 46.4899 22.916C46.064 22.9951 46.0132 23.5426 45.9908 23.7384C45.9684 23.5437 45.9188 22.9962 45.4917 22.916C45.8752 22.8487 45.9413 22.4948 45.9908 22.2529Z" fill="#5E185E"/>
<path d="M44.891 23.6216C44.9985 23.6216 45.0857 23.5345 45.0857 23.4269C45.0857 23.3194 44.9985 23.2322 44.891 23.2322C44.7835 23.2322 44.6963 23.3194 44.6963 23.4269C44.6963 23.5345 44.7835 23.6216 44.891 23.6216Z" fill="#5E185E"/>
<path d="M48.0889 22.0039C48.244 22.0039 48.3698 21.8782 48.3698 21.7231C48.3698 21.568 48.244 21.4423 48.0889 21.4423C47.9338 21.4423 47.8081 21.568 47.8081 21.7231C47.8081 21.8782 47.9338 22.0039 48.0889 22.0039Z" fill="#5E185E"/>
<path d="M44.8911 19.5956C44.8911 19.7797 45.041 19.9296 45.225 19.9296C45.4091 19.9296 45.559 19.7797 45.559 19.5956C45.559 19.4116 45.4091 19.2617 45.225 19.2617C45.041 19.2617 44.8911 19.4116 44.8911 19.5956Z" fill="#5E185E"/>
<path d="M34.5594 40.6638C34.6385 41.0544 34.7447 41.6243 35.363 41.7329C34.675 41.8615 34.5948 42.7441 34.5594 43.058C34.524 42.7429 34.4426 41.8603 33.7559 41.7329C34.3742 41.6243 34.4804 41.0544 34.5594 40.6638Z" fill="#5E185E"/>
<path d="M32.9166 40.3476C32.9662 40.5895 33.0322 40.9435 33.4157 41.0107C32.9898 41.0898 32.939 41.6373 32.9166 41.8332C32.8942 41.6385 32.8446 41.091 32.4175 41.0107C32.801 40.9435 32.867 40.5895 32.9166 40.3476Z" fill="#5E185E"/>
<path d="M33.6592 40.3476C33.6592 40.455 33.7465 40.5423 33.8539 40.5423C33.9612 40.5423 34.0486 40.455 34.0486 40.3476C34.0486 40.2402 33.9612 40.1529 33.8539 40.1529C33.7465 40.1529 33.6592 40.2402 33.6592 40.3476Z" fill="#5E185E"/>
<path d="M35.7012 41.268C35.8563 41.268 35.9821 41.1422 35.9821 40.9871C35.9821 40.832 35.8563 40.7063 35.7012 40.7063C35.5461 40.7063 35.4204 40.832 35.4204 40.9871C35.4204 41.1422 35.5461 41.268 35.7012 41.268Z" fill="#5E185E"/>
<path d="M33.1181 42.881C33.3025 42.881 33.452 42.7315 33.452 42.5471C33.452 42.3626 33.3025 42.2131 33.1181 42.2131C32.9337 42.2131 32.7842 42.3626 32.7842 42.5471C32.7842 42.7315 32.9337 42.881 33.1181 42.881Z" fill="#5E185E"/>
<path d="M44.8317 0C44.9651 0.657239 45.1444 1.61537 46.184 1.79826C45.0276 2.01419 44.8919 3.49859 44.8317 4.02721C44.7715 3.49741 44.6359 2.01301 43.4795 1.79826C44.519 1.61537 44.6984 0.657239 44.8317 0Z" fill="#5E185E"/>
<path d="M44.0287 4.19238C44.1077 4.58295 44.2139 5.15287 44.8322 5.26143C44.1443 5.39004 44.0641 6.27266 44.0287 6.58652C43.9933 6.27148 43.9118 5.38886 43.2251 5.26143C43.8434 5.15287 43.9496 4.58295 44.0287 4.19238Z" fill="#5E185E"/>
<path d="M46.4884 3.34528C46.5379 3.58717 46.604 3.94116 46.9875 4.00841C46.5615 4.08747 46.5108 4.63497 46.4884 4.83085C46.466 4.63615 46.4164 4.08865 45.9893 4.00841C46.3727 3.94116 46.4388 3.58717 46.4884 3.34528Z" fill="#5E185E"/>
<path d="M45.7958 5.21898C45.9033 5.21898 45.9905 5.13181 45.9905 5.02428C45.9905 4.91676 45.9033 4.82959 45.7958 4.82959C45.6882 4.82959 45.6011 4.91676 45.6011 5.02428C45.6011 5.13181 45.6882 5.21898 45.7958 5.21898Z" fill="#5E185E"/>
<path d="M46.6835 2.83311C46.791 2.83311 46.8782 2.74595 46.8782 2.63842C46.8782 2.53089 46.791 2.44373 46.6835 2.44373C46.5759 2.44373 46.4888 2.53089 46.4888 2.63842C46.4888 2.74595 46.5759 2.83311 46.6835 2.83311Z" fill="#5E185E"/>
<path d="M43.3452 3.34522C43.3452 3.49272 43.4644 3.6119 43.6119 3.6119C43.7594 3.6119 43.8786 3.49272 43.8786 3.34522C43.8786 3.19773 43.7594 3.07855 43.6119 3.07855C43.4644 3.07855 43.3452 3.19773 43.3452 3.34522Z" fill="#5E185E"/>
<path d="M9.90503 40.206C8.4466 41.6644 6.04892 41.6078 4.66246 40.0396C3.45182 38.6697 3.47896 36.5623 4.72264 35.2207C5.2548 34.6472 5.9262 34.2873 6.633 34.1422C6.76633 34.115 6.76515 33.9251 6.633 33.9015C4.83238 33.5829 2.9055 34.1552 1.5627 35.623C-0.371252 37.7363 -0.360633 41.0331 1.5863 43.1347C3.73855 45.4568 7.36811 45.5087 9.58644 43.2904C10.9174 41.9594 11.4307 40.1199 11.1263 38.3959C11.1027 38.2638 10.9127 38.2579 10.8856 38.3889C10.7487 39.0544 10.423 39.6892 9.90621 40.2048L9.90503 40.206Z" fill="#FFC83F"/>
<g style="mix-blend-mode:multiply" opacity="0.7">
<path d="M9.74125 41.8167C10.7006 40.8574 11.1454 39.5819 11.084 38.3264C11.0203 38.2698 10.9035 38.2886 10.8835 38.3901C10.7466 39.0556 10.4209 39.6904 9.90408 40.2061C8.44565 41.6645 6.04797 41.6079 4.66151 40.0397C3.45087 38.6698 3.47801 36.5624 4.72169 35.2207C5.25386 34.6473 5.92525 34.2874 6.63205 34.1423C6.73471 34.121 6.75713 34.0042 6.70167 33.9405C5.36949 33.8744 4.01372 34.3794 3.03789 35.4626C1.4414 37.2349 1.47562 39.9831 3.11223 41.7176C4.90695 43.6197 7.90523 43.6527 9.74125 41.8155V41.8167Z" fill="#FFC83F"/>
</g>
<path d="M9.81529 40.1588C8.79344 41.1689 7.23471 41.4733 5.9226 40.8621C4.55502 40.2249 3.74675 38.7511 3.91312 37.2561C3.99572 36.5104 4.31903 35.8012 4.82877 35.2514C5.12258 34.934 5.47657 34.6732 5.86596 34.4856C6.05239 34.3959 6.24709 34.3227 6.4465 34.2685C6.57394 34.2331 6.77925 34.2295 6.83825 34.0844C6.96804 33.7611 6.29546 33.7705 6.13145 33.7575C5.75504 33.7269 5.37391 33.7339 4.99869 33.7776C4.23997 33.8673 3.49778 34.1068 2.83464 34.4879C1.5178 35.2431 0.537252 36.5175 0.167924 37.9924C-0.178984 39.3824 0.0145297 40.8892 0.721327 42.1376C1.4293 43.3896 2.62224 44.3371 3.99808 44.7512C5.37391 45.1654 6.75683 45.0521 8.00877 44.4881C9.39522 43.8627 10.4973 42.6722 11.0059 41.2385C11.2655 40.5069 11.3705 39.7199 11.3127 38.9458C11.2985 38.7618 11.2938 38.5529 11.2395 38.3759C11.2017 38.252 11.079 38.2001 10.9551 38.2213C10.7793 38.2532 10.7663 38.3936 10.7286 38.5411C10.6778 38.7417 10.6094 38.9376 10.5244 39.1264C10.3486 39.5181 10.0985 39.8697 9.79641 40.1754C9.75511 40.2178 9.81057 40.265 9.84833 40.278C9.90497 40.2969 9.96869 40.2768 10.0088 40.2355C10.2932 39.9476 10.528 39.6196 10.7062 39.2562C10.7899 39.0839 10.8607 38.9057 10.9162 38.7216C10.9433 38.6331 10.9528 38.5305 10.9882 38.4455C11.0059 38.4019 10.9905 38.3547 11.0094 38.4503C11.0212 38.5092 11.0283 38.5694 11.0365 38.6296C11.138 39.3848 11.0837 40.1588 10.8737 40.8916C10.4607 42.3323 9.44714 43.5689 8.11025 44.2498C6.92084 44.8563 5.52377 44.9979 4.23761 44.6451C2.95145 44.2922 1.70895 43.3719 0.997438 42.1671C0.285921 40.9624 0.0605482 39.4981 0.369698 38.1328C0.696547 36.6897 1.6122 35.413 2.88538 34.6543C3.53317 34.2685 4.26003 34.0183 5.00931 33.9298C5.37863 33.8862 5.7515 33.8803 6.12201 33.9133C6.19517 33.9204 6.56804 33.9204 6.60461 33.9971C6.64827 34.0879 6.5055 34.0868 6.45712 34.0986C6.3521 34.1245 6.24827 34.1552 6.14679 34.1906C4.75915 34.6685 3.77153 35.9358 3.66061 37.4001C3.54969 38.8644 4.28717 40.1636 5.51079 40.8562C6.64473 41.4969 8.08783 41.4922 9.21705 40.8432C9.50024 40.6804 9.75865 40.4821 9.9911 40.2532C10.0949 40.1506 9.88491 40.0869 9.81293 40.1588H9.81529Z" fill="#BA5511"/>
<g style="mix-blend-mode:overlay" opacity="0.6">
<path d="M8.78675 43.3825C7.32714 44.5271 5.14657 44.3902 3.58784 43.5324C2.81733 43.1088 2.14239 42.5035 1.6704 41.7589C1.20432 41.025 0.955347 40.1565 0.940008 39.2893C0.931748 38.809 0.988386 38.3217 1.11936 37.8591C1.25034 37.3966 1.45329 36.9942 1.6822 36.5871C1.69754 36.56 1.64445 36.5022 1.61967 36.5282C0.978947 37.196 0.678057 38.2013 0.648558 39.1087C0.619059 40.0161 0.844431 40.9495 1.31996 41.7365C2.271 43.3082 4.08343 44.2628 5.89939 44.3395C6.94483 44.3843 8.01506 44.12 8.80563 43.4073C8.81389 43.3991 8.79737 43.3743 8.78793 43.3814L8.78675 43.3825Z" fill="white"/>
</g>
<path d="M38.8878 40.206C40.3462 41.6644 42.7439 41.6078 44.1304 40.0396C45.341 38.6697 45.3139 36.5623 44.0702 35.2207C43.538 34.6472 42.8666 34.2873 42.1598 34.1422C42.0265 34.115 42.0277 33.9251 42.1598 33.9015C43.9605 33.5829 45.8873 34.1552 47.2301 35.623C49.1641 37.7363 49.1535 41.0331 47.2065 43.1347C45.0543 45.4568 41.4247 45.5087 39.2064 43.2904C37.8754 41.9594 37.3621 40.1199 37.6665 38.3959C37.6901 38.2638 37.8801 38.2579 37.9073 38.3889C38.0441 39.0544 38.3698 39.6892 38.8866 40.2048L38.8878 40.206Z" fill="#BDABF4"/>
<g style="mix-blend-mode:multiply" opacity="0.5">
<path d="M39.0515 41.8167C38.0922 40.8574 37.6473 39.5818 37.7087 38.3263C37.7724 38.2697 37.8892 38.2886 37.9093 38.3901C38.0462 39.0556 38.3718 39.6904 38.8887 40.206C40.3471 41.6645 42.7448 41.6078 44.1312 40.0396C45.3419 38.6697 45.3147 36.5623 44.0711 35.2207C43.5389 34.6472 42.8675 34.2873 42.1607 34.1422C42.058 34.121 42.0356 34.0041 42.0911 33.9404C43.4233 33.8743 44.779 34.3794 45.7549 35.4626C47.3513 37.2349 47.3171 39.983 45.6805 41.7176C43.8858 43.6196 40.8875 43.6527 39.0515 41.8155V41.8167Z" fill="#BDABF4"/>
</g>
<path d="M38.813 40.2426C39.7534 41.1724 41.1422 41.5358 42.419 41.1842C43.6957 40.8325 44.7683 39.7316 45.0373 38.3924C45.3063 37.0531 44.7553 35.5322 43.5966 34.7015C43.2933 34.4832 42.957 34.3133 42.6019 34.1953C42.5145 34.1658 42.4249 34.141 42.3352 34.1186C42.2785 34.1044 42.0744 34.0749 42.1653 33.9687C42.203 33.925 42.3729 33.9274 42.4272 33.9203C42.5299 33.9073 42.6325 33.8967 42.7352 33.8896C43.4857 33.8354 44.2444 33.9392 44.9535 34.1905C46.3766 34.6956 47.5494 35.8047 48.1418 37.1912C48.6916 38.4785 48.7282 39.9605 48.2492 41.275C47.7571 42.6261 46.7246 43.7482 45.422 44.3547C44.2031 44.9211 42.7918 45.0096 41.5104 44.6084C40.1157 44.1718 38.931 43.1618 38.269 41.8591C37.921 41.1735 37.7204 40.4172 37.6802 39.649C37.6602 39.2632 37.6802 38.8762 37.7404 38.495C37.744 38.4738 37.7487 38.3759 37.7711 38.3652C37.8254 38.3416 37.8313 38.4679 37.8372 38.4915C37.8572 38.5741 37.8785 38.6555 37.9033 38.7357C37.9634 38.934 38.0413 39.1275 38.1345 39.3127C38.3092 39.6573 38.5393 39.9676 38.8106 40.2426C38.8626 40.2945 39.0289 40.239 38.9617 40.1694C38.6525 39.8567 38.4012 39.4945 38.2242 39.0921C38.1369 38.8927 38.0673 38.6862 38.0177 38.475C37.9882 38.3487 37.9564 38.2413 37.8053 38.2366C37.6755 38.2319 37.5941 38.311 37.5717 38.4337C37.5375 38.6166 37.5186 38.803 37.5056 38.9883C37.4785 39.3788 37.4926 39.7718 37.5469 40.1588C37.764 41.6939 38.6301 43.0863 39.9021 43.9712C41.0325 44.7583 42.4437 45.1005 43.8101 44.9341C45.2049 44.7642 46.5016 44.0739 47.4185 43.0096C48.3353 41.9452 48.8439 40.449 48.753 39.0012C48.6598 37.5263 47.9754 36.1292 46.8651 35.1546C45.7547 34.1799 44.1641 33.6442 42.6361 33.7787C42.4909 33.7917 41.842 33.7893 41.9847 34.0961C42.0461 34.2295 42.2644 34.2283 42.3859 34.2625C42.5877 34.3203 42.7848 34.397 42.9735 34.4902C43.6992 34.8513 44.2868 35.4637 44.6184 36.2047C45.2367 37.5865 44.9016 39.2691 43.7783 40.2898C42.7069 41.2632 41.1057 41.4756 39.8219 40.8019C39.5045 40.6355 39.2165 40.4207 38.9617 40.1682C38.9098 40.1163 38.7422 40.1729 38.8106 40.2414L38.813 40.2426Z" fill="#3C1D78"/>
<g style="mix-blend-mode:overlay" opacity="0.6">
<path d="M39.994 43.4073C41.4323 44.6757 43.6743 44.5424 45.2979 43.7211C46.9357 42.8928 48.0956 41.2833 48.1463 39.4214C48.1735 38.3889 47.8513 37.3246 47.1658 36.5411C47.1375 36.5092 47.0903 36.5257 47.1162 36.5694C48.0295 38.0632 48.1121 40.0078 47.2484 41.5476C46.3846 43.0875 44.6041 44.1058 42.8247 44.1955C41.8288 44.2462 40.7916 44.0185 40.0022 43.3837C39.9857 43.3707 39.9845 43.3966 39.9952 43.4061L39.994 43.4073Z" fill="white"/>
</g>
</svg>
