<svg width="40" height="30" viewBox="0 0 40 30" fill="none" xmlns="http://www.w3.org/2000/svg">
<path d="M39.7266 8.08052C38.8139 7.24819 37.684 6.73351 36.5059 6.58876C36.1761 5.2699 35.3438 4.04754 34.4592 3.05036C33.5625 2.03709 32.296 1.35755 31.0173 0.959482C29.5416 0.501098 27.9815 0.561414 26.4857 0.85494C25.0865 1.13238 23.6711 1.65912 22.6779 2.72466C22.501 2.91364 22.3522 3.11871 22.2316 3.33182C22.1311 3.36801 22.0386 3.41224 21.9542 3.44441C21.4516 3.64143 21.0052 4.01538 20.6313 4.40138C20.386 4.65068 20.2574 4.94823 20.2131 5.25784C20.1689 4.94823 20.0402 4.65068 19.7949 4.40138C19.421 4.0194 18.9787 3.64545 18.4721 3.44441C18.3876 3.41224 18.2911 3.37203 18.1946 3.33182C18.074 3.11871 17.9292 2.91767 17.7523 2.72466C16.7592 1.65912 15.3478 1.12836 13.9445 0.85494C12.4447 0.561414 10.8886 0.501098 9.41295 0.959482C8.13028 1.35755 6.86772 2.03709 5.97105 3.05036C5.08645 4.04754 4.25815 5.2699 3.92441 6.58876C2.7503 6.73351 1.61641 7.24819 0.70768 8.08052C0.643345 8.13681 0.643345 8.20919 0.671492 8.26548C0.607157 8.31373 0.61922 8.43838 0.70768 8.45848C0.824286 8.48663 0.977081 8.41023 1.08565 8.38209C1.65662 8.24136 2.40048 8.20919 2.97949 8.31373C3.14837 8.3459 3.31725 8.37404 3.48613 8.40621C2.65782 10.296 3.43386 12.9217 5.01005 14.1963C5.84238 14.8678 6.93205 15.2136 7.97749 14.8437C8.97467 14.4899 9.91959 13.6535 10.1367 12.5638C10.575 10.3644 9.12747 8.26548 7.24568 7.22808C7.35023 7.06725 7.46683 6.9225 7.58746 6.79785C8.35947 6.00975 9.2481 5.60363 10.3659 5.59961C11.0495 5.59961 11.6928 5.68405 12.2638 6.00975C12.3362 6.12636 12.4126 6.24296 12.493 6.35153C12.6257 6.53649 12.7785 6.71341 12.9514 6.87826C12.875 6.89033 12.8026 6.94662 12.7986 7.03106C12.7905 7.17179 12.7986 7.3085 12.8307 7.44923C12.5332 7.35273 12.1793 7.38892 11.8818 7.4814C11.2103 7.68647 10.5388 7.84328 9.86329 8.03227C9.7869 8.05237 9.77082 8.12073 9.79092 8.17702C9.71854 8.37002 10.0241 8.6153 10.1086 8.74397C10.4624 9.27071 10.8685 9.7894 11.3711 10.1875C11.8657 10.5815 12.694 11.1485 13.3856 11.0118C13.3293 11.2289 13.277 11.442 13.2328 11.6591C13.0278 12.7206 12.9554 13.7781 13.3494 14.8075C13.6631 15.6278 14.1214 16.5445 14.7648 17.1557C14.8573 17.2442 14.9497 17.3286 15.0463 17.4171C14.805 17.9358 14.5919 18.4665 14.3426 18.9812C14.1255 19.4315 13.9445 19.8658 13.844 20.3564C13.6631 21.2329 14.0973 21.9889 14.3225 22.7971C14.3225 22.8091 14.3345 22.8212 14.3426 22.8292C14.3265 23.3761 14.4753 23.8988 14.9296 24.3692C15.0302 24.7673 15.2312 25.0608 15.4604 25.3785C15.7097 26.0218 16.1078 26.3958 16.6667 26.8059C16.731 26.9185 16.8034 27.0271 16.8878 27.1356C17.3422 27.7468 18.3273 28.4866 19.1154 28.4947C19.1838 28.4947 19.224 28.4585 19.236 28.4102C19.2762 28.4384 19.3124 28.4665 19.3486 28.4947C19.61 28.7681 19.8995 29.0214 20.1126 29.327C20.1367 29.3592 20.1689 29.3712 20.2011 29.3672C20.2332 29.3672 20.2654 29.3592 20.2895 29.327C20.5026 29.0214 20.7921 28.7681 21.0535 28.4947C21.0897 28.4665 21.1299 28.4384 21.1661 28.4102C21.1781 28.4585 21.2183 28.4947 21.2867 28.4947C22.0748 28.4866 23.0599 27.7468 23.5143 27.1356C23.5947 27.0271 23.6671 26.9145 23.7354 26.8059C24.2943 26.3958 24.6924 26.0218 24.9417 25.3785C25.1709 25.0608 25.372 24.7673 25.4725 24.3692C25.9268 23.9028 26.0756 23.3801 26.0595 22.8292C26.0676 22.8212 26.0756 22.8091 26.0796 22.7971C26.3048 21.9889 26.7391 21.2329 26.5581 20.3564C26.4576 19.8658 26.2767 19.4315 26.0595 18.9812C25.8143 18.4665 25.6011 17.9317 25.3559 17.4171C25.4524 17.3286 25.5448 17.2442 25.6373 17.1557C26.2847 16.5445 26.7391 15.6278 27.0527 14.8075C27.4467 13.7781 27.3784 12.7206 27.1693 11.6591C27.1251 11.442 27.0728 11.2249 27.0165 11.0118C27.7121 11.1485 28.5364 10.5815 29.031 10.1875C29.5296 9.7894 29.9397 9.27071 30.2935 8.74397C30.378 8.6153 30.6836 8.37002 30.6112 8.17702C30.6313 8.12073 30.6112 8.05639 30.5388 8.03227C29.8673 7.84328 29.1918 7.68647 28.5203 7.4814C28.2228 7.39294 27.873 7.35273 27.5714 7.44923C27.6036 7.31252 27.6156 7.17179 27.6036 7.03106C27.5955 6.94662 27.5231 6.88631 27.4508 6.87826C27.6196 6.71341 27.7724 6.53649 27.9091 6.35153C27.9896 6.23894 28.066 6.12233 28.1383 6.00975C28.7093 5.68405 29.3527 5.59961 30.0362 5.59961C31.154 5.60363 32.0426 6.00975 32.8147 6.79785C32.9393 6.92652 33.0519 7.07127 33.1564 7.22808C31.2746 8.26548 29.8311 10.3604 30.2654 12.5638C30.4825 13.6535 31.4274 14.4899 32.4246 14.8437C33.4741 15.2136 34.5597 14.8718 35.3921 14.1963C36.9642 12.9257 37.7403 10.296 36.916 8.40621C37.0849 8.37404 37.2578 8.34188 37.4226 8.31373C38.0016 8.20919 38.7455 8.24136 39.3165 8.38209C39.425 8.41023 39.5778 8.48663 39.6944 8.45848C39.7829 8.43838 39.795 8.31373 39.7306 8.26548C39.7628 8.20919 39.7588 8.13681 39.6985 8.08052H39.7266Z" fill="#2A2A30"/>
<path d="M22.4693 3.25952C22.2884 3.29973 22.1034 3.38417 21.9546 3.44448C21.452 3.64151 21.0057 4.01545 20.6317 4.40146C19.8557 5.19358 20.2417 6.42398 20.7765 7.23218C20.7886 7.25229 20.8167 7.23218 20.8087 7.21208C20.3985 6.29933 20.2337 5.23781 20.9936 4.46982C21.2469 4.2165 21.5525 4.01947 21.8621 3.83853C21.9064 3.81039 22.0753 3.72997 22.2562 3.65759C22.3125 3.51686 22.3768 3.38417 22.4613 3.25952H22.4693Z" fill="white"/>
<path d="M27.6278 7.03508C27.6157 6.8662 27.3503 6.80588 27.3182 6.99487C27.2056 7.64626 26.9603 8.09258 26.4818 8.55096C25.9832 9.02543 25.1308 9.55619 24.4231 9.46773C24.411 9.46773 24.411 9.48381 24.4231 9.48783C25.6977 9.78538 27.7243 8.4424 27.6318 7.0391L27.6278 7.03508Z" fill="white"/>
<path d="M27.1896 11.6632C27.0931 11.1687 26.9484 10.6861 26.8197 10.1956C26.687 9.67287 26.7232 9.16222 26.6749 8.63146C26.6669 8.53495 26.5342 8.51083 26.502 8.60733C26.293 9.24264 26.3613 9.97042 26.5664 10.6017C26.9604 11.8281 27.1414 13.2595 26.7634 14.502C26.4256 15.6238 25.6778 16.5808 24.8494 17.3769C24.2182 17.9841 23.5145 18.4666 23.2813 19.3472C23.2411 19.4919 23.4582 19.5925 23.5306 19.4517C24.0091 18.5229 24.9098 17.8635 25.6577 17.1558C26.305 16.5446 26.7594 15.6278 27.073 14.8076C27.4671 13.7782 27.3987 12.7207 27.1896 11.6592V11.6632Z" fill="white"/>
<path d="M30.5594 8.03223C29.8879 7.84325 29.2124 7.68643 28.5409 7.48137C28.1549 7.36476 27.6724 7.33259 27.3387 7.57787C27.2743 7.62612 27.2904 7.73469 27.3829 7.73469C27.9257 7.73469 28.372 7.77891 28.8988 7.95986C29.4255 8.1408 29.9683 8.31772 30.5313 8.2574C30.6519 8.24534 30.6921 8.06842 30.5634 8.03223H30.5594Z" fill="white"/>
<path d="M30.6273 8.16105C30.5951 8.09269 30.4865 8.06053 30.4222 8.10878C30.2372 8.24951 30.1648 8.37818 30.0241 8.57922C29.7185 9.02957 29.3808 9.42764 28.9867 9.80158C28.5967 10.1675 28.1504 10.4288 27.6598 10.6339C27.3582 10.7586 27.0446 10.7183 26.7591 10.8752C26.743 10.8832 26.743 10.9114 26.7591 10.9194C27.499 11.3175 28.4881 10.642 29.0511 10.1916C29.5496 9.79354 29.9598 9.27484 30.3136 8.7481C30.4021 8.61541 30.7197 8.3621 30.6273 8.16105Z" fill="white"/>
<path d="M29.6143 8.42223C28.605 8.37398 26.482 8.84845 26.6348 10.2477C26.6468 10.3643 26.8157 10.4045 26.8479 10.2759C27.0168 9.66872 27.3425 9.33096 27.8893 9.02939C28.4402 8.72782 29.0594 8.78009 29.6384 8.58709C29.7309 8.55492 29.7148 8.42223 29.6143 8.41821V8.42223Z" fill="white"/>
<path d="M29.662 8.41422C29.3443 8.55093 29.1392 8.88467 28.898 9.11788C28.4919 9.51595 28.1461 9.97031 27.5952 10.1834C27.5872 10.1834 27.5912 10.2035 27.5992 10.1995C28.0576 10.0749 28.4878 9.80948 28.8417 9.49585C29.1352 9.23449 29.4529 8.83239 29.8107 8.67156C29.9836 8.57908 29.8308 8.34184 29.662 8.41824V8.41422Z" fill="white"/>
<path d="M23.8279 20.9153C23.7917 20.5976 23.7394 20.284 23.6952 19.9703C23.6469 19.6366 23.462 19.331 23.4459 18.9933C23.4218 18.4786 23.1685 17.98 23.1122 17.4653C23.0157 16.6008 22.8106 15.7484 22.7503 14.8799C22.6337 13.2393 22.9996 11.627 23.848 10.2277C23.848 10.2237 23.848 10.2156 23.8399 10.2237C22.0024 12.021 22.2718 14.9402 22.6457 17.2562C22.8227 18.3419 23.1685 19.3994 23.3092 20.485C23.3936 21.1445 23.4861 21.8562 23.3092 22.5075C23.1081 23.2514 22.7262 23.6213 22.123 24.0636C22.0426 24.124 22.0145 24.2647 22.123 24.3169C22.9031 24.6909 23.663 23.2072 23.7716 22.6362C23.8802 22.0652 23.8962 21.5023 23.8319 20.9233L23.8279 20.9153Z" fill="white"/>
<path d="M24.3021 11.5344C23.3451 11.6953 22.5731 12.5236 22.4766 13.4926C22.4766 13.5087 22.5007 13.5127 22.5087 13.5007C22.8063 12.99 23.0797 12.4954 23.5823 12.1577C23.9965 11.8802 24.4709 11.7717 24.9414 11.9928C25.4802 12.2502 25.4601 12.8211 25.4681 13.3117C25.4681 13.4765 25.6893 13.4926 25.7415 13.3479C26.0592 12.4592 25.2791 11.3696 24.298 11.5385L24.3021 11.5344Z" fill="white"/>
<path d="M25.5773 13.1067C25.2677 13.2796 24.8656 13.2997 24.5198 13.2756C24.174 13.2515 23.9127 13.4726 23.6996 13.7099C23.4663 13.9712 23.3739 14.313 23.3417 14.6508C23.3256 14.8076 23.3417 15.1494 23.5226 15.2056C23.5427 15.2137 23.5669 15.1976 23.5709 15.1775C23.6433 14.8438 23.595 14.5261 23.7518 14.2085C23.969 13.7742 24.2906 13.6053 24.7611 13.6415C25.0425 13.6616 25.7583 13.6013 25.7663 13.2113C25.7663 13.1148 25.6577 13.0585 25.5773 13.1027V13.1067Z" fill="white"/>
<path d="M25.6337 13.2435C25.6217 13.1389 25.4769 13.0746 25.4206 13.1872C25.3322 13.3601 25.2879 13.5289 25.2477 13.7179C25.1794 14.0195 25.0065 14.2929 24.8014 14.5181C24.6004 14.7352 24.3109 14.9202 24.0093 14.9081C23.8123 14.9001 23.6715 14.8679 23.5107 14.9845C23.4142 15.0529 23.4665 15.2177 23.5951 15.1856C23.8565 15.1132 24.1179 15.2539 24.3873 15.1574C24.6366 15.069 24.8376 14.9282 25.0346 14.7513C25.4327 14.3854 25.69 13.7863 25.6337 13.2475V13.2435Z" fill="white"/>
<path d="M21.4399 21.1807C21.0659 21.0641 20.4949 20.9596 20.1411 21.1687C20.0285 21.237 20.0808 21.4059 20.2054 21.4099C20.6719 21.43 21.1222 21.3938 21.5565 21.5828C21.5726 21.5908 21.5886 21.5989 21.6047 21.6069C21.5163 21.6391 21.4358 21.6914 21.3514 21.7276C21.1664 21.808 20.9654 21.997 20.8568 22.1578C20.7603 22.3025 20.5512 22.4915 20.5995 22.6886C20.6236 22.7891 20.6839 22.8574 20.7965 22.8414C21.0659 22.8052 21.3313 22.4433 21.4198 22.2101C21.4399 22.1538 21.3635 22.1216 21.3273 22.1578C21.1986 22.2704 21.074 22.3749 20.9493 22.4915L20.897 22.5398C20.897 22.5398 20.8729 22.5478 20.8649 22.5559C20.9332 22.4111 21.1584 22.2262 21.2629 22.1498C21.4358 22.0211 21.6248 21.9527 21.8178 21.8643C21.9264 21.816 22.0189 21.7436 22.0189 21.615C22.0189 21.3818 21.6208 21.241 21.4399 21.1847V21.1807Z" fill="white"/>
<path d="M21.4308 21.8522C21.4027 21.7959 21.2982 21.804 21.2901 21.8723C21.2378 22.2141 21.1614 22.4755 20.9242 22.7408C20.7071 22.9861 20.3492 23.0625 20.1482 23.3078C20.0838 23.3882 20.124 23.4928 20.2286 23.5048C20.5945 23.545 21.0006 23.1751 21.2258 22.9218C21.4912 22.6162 21.6198 22.2221 21.4268 21.8562L21.4308 21.8522Z" fill="white"/>
<path d="M22.7864 23.0103C22.6698 22.4233 22.2637 21.8241 21.6726 21.6352C21.5641 21.603 21.4435 21.7397 21.5158 21.8362C21.6606 22.0292 21.8455 22.1659 22.0144 22.3308C22.4688 22.7731 22.4487 23.3722 22.0747 23.8547C21.8616 24.1281 21.54 24.3613 21.2223 24.49C20.4422 24.8036 20.4503 24.0678 20.4624 23.722C20.4543 23.9512 20.5589 23.3199 20.4624 23.3441C20.5428 23.3239 20.5428 23.2033 20.4624 23.1832L20.4342 23.1752C20.398 23.1671 20.3498 23.1792 20.3337 23.2154C20.1407 23.6014 19.9597 24.2407 20.3457 24.5986C20.8323 25.0489 21.4233 24.8398 21.9018 24.4779C22.32 24.1643 22.899 23.5933 22.7824 23.0063L22.7864 23.0103Z" fill="white"/>
<path d="M22.1071 24.0113C21.7693 24.2888 21.7372 24.7753 21.512 25.1332C21.2145 25.6036 20.5872 25.8931 20.0524 25.869C19.9398 25.865 19.8875 26.0379 19.9921 26.0861C20.4907 26.3234 21.0617 26.0298 21.4637 25.7202C21.9664 25.3342 22.1996 24.7632 22.3765 24.1601C22.4247 23.9952 22.2277 23.9108 22.1111 24.0073L22.1071 24.0113Z" fill="white"/>
<path d="M39.7259 8.08055C38.017 6.52044 35.5402 6.07009 33.4412 7.09542C31.4348 8.07653 29.8345 10.2639 30.2929 12.5679C30.51 13.6576 31.4549 14.4939 32.4521 14.8477C33.5016 15.2177 34.5872 14.8759 35.4195 14.2004C37.056 12.8775 37.8321 10.091 36.8349 8.18911C36.7866 8.09663 36.6539 8.16499 36.6741 8.25747C37.0761 10.091 36.7424 11.8924 35.5723 13.3841C34.0243 15.3504 30.7794 14.4859 30.6668 11.8924C30.5783 9.82964 32.1827 8.20922 33.9077 7.35678C34.744 6.94263 35.9664 6.81396 36.855 7.09945C37.3697 7.2643 37.8562 7.36081 38.3508 7.60608C38.7649 7.81115 39.0987 8.14488 39.5128 8.35397C39.6817 8.43841 39.8747 8.22128 39.7219 8.08055H39.7259Z" fill="white"/>
<path d="M39.7258 8.25341C39.5569 8.2132 39.2192 7.98803 38.9337 7.95988C38.226 7.88751 37.5907 7.89555 36.8951 8.01215C35.4717 8.24939 34.2574 8.83644 33.2803 9.91002C32.5565 10.7062 32.082 11.7516 32.5002 12.797C32.8943 13.7862 34.0925 13.943 34.9087 13.4806C35.0414 13.4042 34.9489 13.2152 34.8082 13.2434C34.2734 13.36 33.8311 13.4605 33.3406 13.1308C32.7817 12.7528 32.6812 12.1296 32.8339 11.5224C33.0752 10.5493 33.9518 9.75321 34.7399 9.20636C35.536 8.65952 36.5211 8.4826 37.454 8.31774C38.033 8.2132 38.7769 8.24537 39.3478 8.3861C39.4564 8.41424 39.6092 8.49064 39.7258 8.4625C39.8303 8.43837 39.8303 8.27753 39.7258 8.25341Z" fill="white"/>
<path d="M34.0002 9.45167C34.0163 9.54818 34.0324 9.64468 34.0445 9.73314C34.1128 10.276 33.6947 12.5035 32.7015 11.8803C32.5929 11.8119 32.4401 11.9527 32.5205 12.0612C33.0473 12.781 33.9761 11.9165 34.2093 11.3576C34.5149 10.6338 34.5149 9.90604 34.3581 9.19434C34.2495 9.31094 34.141 9.3994 34.0002 9.45167Z" fill="white"/>
<path d="M33.3009 7.42105C33.4094 7.36878 33.526 7.32053 33.6386 7.2763C33.0837 6.16251 32.0142 5.4307 30.7878 5.27791C29.7946 5.15728 28.1662 5.13315 27.6716 6.2188C27.6435 6.27911 27.7118 6.33541 27.7641 6.29118C28.4275 5.73227 29.2156 5.59958 30.064 5.6036C31.1819 5.60762 32.0705 6.01374 32.8425 6.80184C33.0154 6.97876 33.1682 7.18784 33.3049 7.42105H33.3009Z" fill="white"/>
<path d="M26.3208 1.29322C27.7482 0.951441 29.236 0.919274 30.6594 1.28116C33.4539 1.99286 35.2271 4.16817 36.156 6.78579C36.2927 6.7697 36.4294 6.77774 36.5581 6.80589C36.2686 5.40259 35.392 4.10384 34.4632 3.05036C33.5665 2.03709 32.2999 1.35755 31.0213 0.959482C29.5456 0.501098 27.9895 0.561414 26.4897 0.85494C25.0904 1.13238 23.6751 1.65912 22.6819 2.72466C20.8765 4.66274 22.1431 7.93576 24.7889 8.02825C26.0072 8.06845 27.2416 7.32057 27.9332 6.35555C28.4318 5.66395 28.7696 4.87987 29.3405 4.24055C30.0361 3.46049 30.9569 3.39214 31.938 3.35595C31.9461 3.35595 31.9461 3.34388 31.938 3.33986C31.0655 3.06644 30.1246 3.02623 29.3848 3.66154C28.4559 4.45768 28.0739 5.60766 27.2657 6.49628C26.3248 7.52965 24.6682 7.93174 23.4298 7.22406C21.934 6.36761 22.0064 4.20034 22.9674 3.01417C23.7756 2.021 25.1306 1.5787 26.3208 1.29322Z" fill="white"/>
<path d="M21.6682 26.5566C21.6602 26.5123 21.5918 26.5244 21.5878 26.5686C21.5677 27.216 21.3063 27.7266 20.8519 28.1689C20.5343 28.4786 20.2126 28.8123 20.1362 29.2626C20.1201 29.3632 20.2408 29.4194 20.3011 29.331C20.6268 28.8646 21.1374 28.5188 21.435 28.0403C21.7245 27.5819 21.7768 27.0712 21.6642 26.5525L21.6682 26.5566Z" fill="white"/>
<path d="M22.4167 26.4762C22.4167 26.4762 22.3886 26.4561 22.3846 26.4762C22.284 27.4533 21.1341 27.7549 20.736 28.5711C20.6958 28.6556 20.8084 28.7601 20.8767 28.6797C21.0376 28.4827 21.2869 28.3821 21.4397 28.2052C21.6045 28.0122 21.8096 27.8433 21.9905 27.6664C22.3122 27.3447 22.465 26.9225 22.4167 26.4802V26.4762Z" fill="white"/>
<path d="M24.1977 23.9311C24.1977 23.9029 24.1494 23.911 24.1494 23.9391C24.069 24.872 24.0409 25.8611 23.4458 26.6331C22.8467 27.4092 22.1631 27.8756 21.2664 28.2415C21.1337 28.2938 21.1418 28.5029 21.3026 28.5029C22.0907 28.4948 23.0758 27.755 23.5302 27.1438C24.2499 26.1707 24.3625 25.1132 24.2017 23.9351L24.1977 23.9311Z" fill="white"/>
<path d="M24.6763 21.7396C24.6763 21.7396 24.6482 21.7235 24.6482 21.7396C24.6281 22.6403 24.797 23.5369 24.7809 24.4376C24.7728 25.0045 24.5637 25.5112 24.23 25.9575C24.0048 26.2631 23.7073 26.3757 23.5344 26.7295C23.4942 26.8099 23.5826 26.9306 23.6711 26.8662C24.3305 26.3877 24.7809 25.9816 25.0262 25.1654C25.3478 24.1039 24.7447 22.8051 24.6723 21.7396H24.6763Z" fill="white"/>
<path d="M25.1833 22.3426C25.1712 22.3024 25.1149 22.3185 25.123 22.3587C25.2476 23.0262 25.3642 23.7017 25.2034 24.3692C25.0948 24.8235 24.7129 25.1693 24.5882 25.6277C24.5641 25.7202 24.6807 25.7604 24.733 25.688C25.0747 25.2055 25.4004 24.8436 25.517 24.2526C25.6417 23.6173 25.3803 22.9257 25.1833 22.3386V22.3426Z" fill="white"/>
<path d="M25.0906 18.9289C25.0906 18.8967 25.0384 18.8887 25.0343 18.9209C24.9137 19.7854 25.2474 20.5172 25.4686 21.3495C25.6174 21.9124 25.6737 22.4673 25.6737 23.0463C25.6737 23.5248 25.4123 23.9349 25.2515 24.3692C25.2193 24.4577 25.3399 24.514 25.4043 24.4577C27.077 22.8895 25.1107 20.682 25.0946 18.9249L25.0906 18.9289Z" fill="white"/>
<path d="M26.5738 20.3602C26.4732 19.8696 26.2923 19.4354 26.0752 18.985C25.8017 18.4141 25.5726 17.819 25.2951 17.252C25.271 17.2038 25.1865 17.2239 25.1906 17.2802C25.2589 18.2653 25.8219 19.0655 26.1073 19.9862C26.4089 20.9633 25.8982 21.8198 25.9224 22.7768C25.9224 22.8733 26.0671 22.8974 26.0953 22.8009C26.3204 21.9927 26.7547 21.2367 26.5738 20.3602Z" fill="white"/>
<path d="M17.9609 3.25952C18.1419 3.29973 18.3268 3.38417 18.4756 3.44448C18.9782 3.64151 19.4245 4.01545 19.7985 4.40146C20.5745 5.19358 20.1885 6.42398 19.6537 7.23218C19.6417 7.25229 19.6135 7.23218 19.6216 7.21208C20.0317 6.29933 20.1966 5.23781 19.4366 4.46982C19.1833 4.2165 18.8777 4.01947 18.5681 3.83853C18.5239 3.81039 18.355 3.72997 18.174 3.65759C18.1178 3.51686 18.0534 3.38417 17.969 3.25952H17.9609Z" fill="white"/>
<path d="M12.802 7.03508C12.8141 6.8662 13.0794 6.80588 13.1116 6.99487C13.2242 7.64626 13.4695 8.09258 13.948 8.55096C14.4466 9.02543 15.299 9.55619 16.0067 9.46773C16.0187 9.46773 16.0187 9.48381 16.0067 9.48783C14.732 9.78538 12.7055 8.4424 12.798 7.0391L12.802 7.03508Z" fill="white"/>
<path d="M13.245 11.6632C13.3415 11.1687 13.4863 10.6861 13.6109 10.1956C13.7436 9.67287 13.7074 9.16222 13.7557 8.63146C13.7637 8.53495 13.8964 8.51083 13.9285 8.60733C14.1336 9.24264 14.0693 9.97042 13.8642 10.6017C13.4702 11.8281 13.2892 13.2595 13.6672 14.502C14.0049 15.6238 14.7528 16.5808 15.5811 17.3769C16.2124 17.9841 16.9161 18.4666 17.1493 19.3472C17.1895 19.4919 16.9724 19.5925 16.9 19.4517C16.4215 18.5229 15.5208 17.8635 14.7729 17.1558C14.1256 16.5446 13.6712 15.6278 13.3576 14.8076C12.9595 13.7782 13.0319 12.7207 13.241 11.6592L13.245 11.6632Z" fill="white"/>
<path d="M9.87047 8.03223C10.542 7.84325 11.2175 7.68643 11.889 7.48137C12.275 7.36476 12.7575 7.33259 13.0912 7.57787C13.1556 7.62612 13.1395 7.73469 13.047 7.73469C12.5042 7.73469 12.0578 7.77891 11.5311 7.95986C11.0044 8.1408 10.4615 8.31772 9.89862 8.2574C9.77799 8.24534 9.73778 8.06842 9.86645 8.03223H9.87047Z" fill="white"/>
<path d="M9.80295 8.16105C9.83512 8.09269 9.94368 8.06053 10.008 8.10878C10.193 8.24951 10.2654 8.37818 10.4021 8.57922C10.7077 9.02957 11.0454 9.42764 11.4395 9.80158C11.8295 10.1675 12.2758 10.4288 12.7664 10.6339C13.0679 10.7586 13.3816 10.7183 13.6711 10.8752C13.6872 10.8832 13.6872 10.9114 13.6711 10.9194C12.9312 11.3175 11.9421 10.642 11.3751 10.1916C10.8765 9.79354 10.4664 9.27484 10.1126 8.7481C10.0241 8.61541 9.70645 8.3621 9.79893 8.16105H9.80295Z" fill="white"/>
<path d="M10.8197 8.42223C11.8249 8.37398 13.952 8.84845 13.7992 10.2477C13.7871 10.3643 13.6183 10.4045 13.5821 10.2759C13.4132 9.66872 13.0875 9.33096 12.5407 9.02939C11.9898 8.72782 11.3706 8.78009 10.7916 8.58709C10.6991 8.55492 10.7152 8.42223 10.8157 8.41821L10.8197 8.42223Z" fill="white"/>
<path d="M10.7718 8.41422C11.0894 8.55093 11.2945 8.88467 11.5357 9.11788C11.9419 9.51595 12.2877 9.97031 12.8385 10.1834C12.8506 10.1834 12.8466 10.2035 12.8345 10.1995C12.3761 10.0749 11.9499 9.80948 11.592 9.49585C11.2985 9.23449 10.9809 8.83239 10.623 8.67156C10.4501 8.57908 10.6029 8.34184 10.7718 8.41824V8.41422Z" fill="white"/>
<path d="M16.6055 20.9153C16.6417 20.5976 16.694 20.284 16.7382 19.9703C16.7865 19.6366 16.9714 19.331 16.9875 18.9933C17.0116 18.4786 17.2649 17.98 17.3212 17.4653C17.4177 16.6008 17.6228 15.7484 17.6831 14.8799C17.7997 13.2393 17.4338 11.627 16.5854 10.2277C16.5854 10.2237 16.5854 10.2156 16.5934 10.2237C18.431 12.021 18.1616 14.9402 17.7877 17.2562C17.6107 18.3419 17.2649 19.3994 17.1242 20.485C17.0398 21.1445 16.9473 21.8562 17.1242 22.5075C17.3253 23.2514 17.7072 23.6213 18.3104 24.0636C18.3908 24.124 18.4189 24.2647 18.3104 24.3169C17.5303 24.6909 16.7704 23.2072 16.6618 22.6362C16.5492 22.0652 16.5372 21.5023 16.6015 20.9233L16.6055 20.9153Z" fill="white"/>
<path d="M16.1315 11.5344C17.0885 11.6953 17.8605 12.5236 17.957 13.4926C17.957 13.5087 17.9329 13.5127 17.9249 13.5007C17.6273 12.99 17.3539 12.4954 16.8513 12.1577C16.4371 11.8802 15.9627 11.7717 15.4922 11.9928C14.9534 12.2502 14.9735 12.8211 14.9655 13.3117C14.9655 13.4765 14.7443 13.4926 14.692 13.3479C14.3744 12.4592 15.1545 11.3696 16.1356 11.5385L16.1315 11.5344Z" fill="white"/>
<path d="M14.8521 13.1067C15.1617 13.2796 15.5638 13.2997 15.9096 13.2756C16.2554 13.2515 16.5167 13.4726 16.7298 13.7099C16.963 13.9712 17.0555 14.313 17.0877 14.6508C17.1038 14.8076 17.0877 15.1494 16.9068 15.2056C16.8866 15.2137 16.8625 15.1976 16.8585 15.1775C16.7861 14.8438 16.8344 14.5261 16.6776 14.2085C16.4604 13.7742 16.1388 13.6053 15.6683 13.6415C15.3868 13.6616 14.6711 13.6013 14.6631 13.2113C14.6631 13.1148 14.7716 13.0585 14.8521 13.1027V13.1067Z" fill="white"/>
<path d="M14.7969 13.2435C14.8089 13.1389 14.9537 13.0746 15.01 13.1872C15.0985 13.3601 15.1427 13.5289 15.1829 13.7179C15.2512 14.0195 15.4241 14.2929 15.6292 14.5181C15.8303 14.7352 16.1198 14.9202 16.4213 14.9081C16.6184 14.9001 16.7591 14.8679 16.9199 14.9845C17.0164 15.0529 16.9642 15.2177 16.8355 15.1856C16.5741 15.1132 16.3087 15.2539 16.0393 15.1574C15.7901 15.069 15.589 14.9282 15.392 14.7513C14.9939 14.3854 14.7366 13.7863 14.7929 13.2475L14.7969 13.2435Z" fill="white"/>
<path d="M18.9903 21.1807C19.3682 21.0641 19.9352 20.9596 20.293 21.1687C20.4056 21.237 20.3533 21.4059 20.2287 21.4099C19.7623 21.43 19.3119 21.3938 18.8737 21.5828C18.8576 21.5908 18.8415 21.5989 18.8254 21.6069C18.9139 21.6391 18.9943 21.6914 19.0787 21.7276C19.2637 21.808 19.4647 21.997 19.5733 22.1578C19.6698 22.3025 19.8789 22.4915 19.8306 22.6886C19.8065 22.7891 19.7462 22.8574 19.6336 22.8414C19.3642 22.8052 19.0988 22.4433 19.0104 22.2101C18.9903 22.1538 19.0667 22.1216 19.1028 22.1578C19.2315 22.2704 19.3562 22.3749 19.4808 22.4915L19.5331 22.5398C19.5331 22.5398 19.5572 22.5478 19.5652 22.5559C19.4969 22.4111 19.2717 22.2262 19.1672 22.1498C18.9903 22.0211 18.8013 21.9527 18.6083 21.8643C18.4997 21.816 18.4072 21.7436 18.4072 21.615C18.4072 21.3818 18.8053 21.241 18.9862 21.1847L18.9903 21.1807Z" fill="white"/>
<path d="M18.9988 21.8522C19.0269 21.7959 19.1315 21.804 19.1395 21.8723C19.1918 22.2141 19.2682 22.4755 19.5054 22.7408C19.7225 22.9861 20.0804 23.0625 20.2814 23.3078C20.3458 23.3882 20.3056 23.4928 20.201 23.5048C19.8351 23.545 19.429 23.1751 19.2038 22.9218C18.9385 22.6162 18.8098 22.2221 19.0028 21.8562L18.9988 21.8522Z" fill="white"/>
<path d="M17.644 23.0103C17.7606 22.4233 18.1667 21.8241 18.7578 21.6352C18.8664 21.603 18.987 21.7397 18.9146 21.8362C18.7699 22.0292 18.5849 22.1659 18.416 22.3308C17.9657 22.7731 17.9858 23.3722 18.3557 23.8547C18.5688 24.1281 18.8905 24.3613 19.2081 24.49C19.9882 24.8036 19.9801 24.0678 19.9681 23.722C19.9761 23.9512 19.8716 23.3199 19.9681 23.3441C19.8877 23.3239 19.8877 23.2033 19.9681 23.1832L19.9962 23.1752C20.0324 23.1671 20.0807 23.1792 20.0968 23.2154C20.2898 23.6014 20.4707 24.2407 20.0847 24.5986C19.5941 25.0489 19.0071 24.8398 18.5286 24.4779C18.1104 24.1643 17.5314 23.5933 17.648 23.0063L17.644 23.0103Z" fill="white"/>
<path d="M18.3228 24.0113C18.6605 24.2888 18.6927 24.7753 18.9179 25.1332C19.2154 25.6036 19.8427 25.8931 20.3775 25.869C20.49 25.865 20.5423 26.0379 20.4378 26.0861C19.9392 26.3234 19.3682 26.0298 18.9661 25.7202C18.4635 25.3342 18.2303 24.7632 18.0534 24.1601C18.0051 23.9952 18.2021 23.9108 18.3187 24.0073L18.3228 24.0113Z" fill="white"/>
<path d="M0.702912 8.08055C2.4118 6.52044 4.88868 6.07009 6.9876 7.09542C8.99403 8.07653 10.5944 10.2639 10.136 12.5679C9.91884 13.6576 8.97393 14.4939 7.97674 14.8477C6.92728 15.2177 5.84164 14.8759 5.00931 14.2004C3.3728 12.8775 2.59676 10.091 3.59395 8.18911C3.6422 8.09663 3.77489 8.16499 3.75478 8.25747C3.35269 10.091 3.68643 11.8924 4.85652 13.3841C6.40457 15.3504 9.64944 14.4859 9.76203 11.8924C9.85049 9.82964 8.24212 8.20922 6.52117 7.35678C5.68482 6.94263 4.46246 6.81396 3.57384 7.09945C3.05917 7.2643 2.57264 7.36081 2.07806 7.60608C1.66391 7.81115 1.33017 8.14488 0.916021 8.35397C0.747142 8.43841 0.554138 8.22128 0.706933 8.08055H0.702912Z" fill="white"/>
<path d="M0.707429 8.25341C0.876307 8.2132 1.21406 7.98803 1.49955 7.95988C2.20723 7.88751 2.84253 7.89555 3.53815 8.01215C4.96155 8.24939 6.17587 8.83644 7.15295 9.91002C7.87671 10.7062 8.35118 11.7516 7.93301 12.797C7.53896 13.7862 6.34073 13.943 5.52448 13.4806C5.39179 13.4042 5.48427 13.2152 5.625 13.2434C6.15979 13.36 6.60611 13.4605 7.09264 13.1308C7.65154 12.7528 7.75207 12.1296 7.59927 11.5224C7.35802 10.5493 6.48146 9.75321 5.68934 9.20636C4.8932 8.65952 3.90808 8.4826 2.97522 8.31774C2.39621 8.2132 1.65234 8.24537 1.08137 8.3861C0.972809 8.41424 0.820014 8.49064 0.703408 8.4625C0.598864 8.43837 0.598864 8.27753 0.703408 8.25341H0.707429Z" fill="white"/>
<path d="M6.42922 9.45167C6.41313 9.54818 6.39705 9.64468 6.38499 9.73314C6.31261 10.276 6.73481 12.5035 7.72797 11.8803C7.83654 11.8119 7.98933 11.9527 7.90891 12.0612C7.38217 12.781 6.45334 11.9165 6.22013 11.3576C5.91454 10.6338 5.91454 9.90604 6.07136 9.19434C6.17992 9.31094 6.28849 9.3994 6.42922 9.45167Z" fill="white"/>
<path d="M7.13268 7.42105C7.02009 7.36878 6.90751 7.32053 6.79492 7.2763C7.34981 6.16251 8.41937 5.4307 9.64575 5.27791C10.6389 5.15728 12.2674 5.13315 12.762 6.2188C12.7901 6.27911 12.7217 6.33541 12.6695 6.29118C12.006 5.73227 11.2179 5.59958 10.3695 5.6036C9.2517 5.60762 8.36308 6.01374 7.59106 6.80184C7.41816 6.97876 7.26537 7.18784 7.12866 7.42105H7.13268Z" fill="white"/>
<path d="M14.1132 1.29322C12.6858 0.951441 11.1981 0.919274 9.77466 1.28116C6.98012 1.99286 5.2069 4.16817 4.27807 6.78579C4.14136 6.7697 4.00465 6.77774 3.87598 6.80589C4.16548 5.40259 5.04204 4.10384 5.97087 3.05036C6.86754 2.03709 8.13412 1.35755 9.41277 0.959482C10.8884 0.501098 12.4486 0.561414 13.9443 0.85494C15.3436 1.13238 16.759 1.65912 17.7521 2.72466C19.5575 4.66274 18.2909 7.93576 15.6452 8.02825C14.4269 8.06845 13.1924 7.32057 12.5008 6.35555C12.0022 5.66395 11.6645 4.87987 11.0935 4.24055C10.3979 3.46049 9.47711 3.39214 8.49601 3.35595C8.48796 3.35595 8.48796 3.34388 8.49601 3.33986C9.36854 3.06644 10.3094 3.02623 11.0493 3.66154C11.9781 4.45768 12.3601 5.60766 13.1683 6.49628C14.1092 7.52965 15.7658 7.93174 17.0043 7.22406C18.5 6.36761 18.4317 4.20034 17.4667 3.01417C16.6585 2.021 15.3034 1.5787 14.1132 1.29322Z" fill="white"/>
<path d="M18.7613 26.5566C18.7733 26.5123 18.8377 26.5244 18.8417 26.5686C18.8618 27.216 19.1232 27.7266 19.5775 28.1689C19.8952 28.4786 20.2168 28.8123 20.2932 29.2626C20.3093 29.3632 20.1887 29.4194 20.1284 29.331C19.8027 28.8646 19.292 28.5188 18.9905 28.0403C18.705 27.5819 18.6487 27.0712 18.7613 26.5525V26.5566Z" fill="white"/>
<path d="M18.0133 26.4762C18.0133 26.4762 18.0415 26.4561 18.0455 26.4762C18.146 27.4533 19.296 27.7549 19.6941 28.5711C19.7343 28.6556 19.6217 28.7601 19.5534 28.6797C19.3925 28.4827 19.1432 28.3821 18.9904 28.2052C18.8256 28.0122 18.6205 27.8433 18.4436 27.6664C18.1219 27.3447 17.9691 26.9225 18.0133 26.4802V26.4762Z" fill="white"/>
<path d="M16.2318 23.9311C16.2358 23.9029 16.2801 23.911 16.2801 23.9391C16.3605 24.872 16.3886 25.8611 16.9837 26.6331C17.5828 27.4092 18.2664 27.8756 19.1631 28.2415C19.2957 28.2938 19.2877 28.5029 19.1269 28.5029C18.3388 28.4948 17.3537 27.755 16.8993 27.1438C16.1795 26.1707 16.071 25.1132 16.2318 23.9351V23.9311Z" fill="white"/>
<path d="M15.7542 21.7396C15.7542 21.7396 15.7823 21.7235 15.7823 21.7396C15.8024 22.6403 15.6335 23.5369 15.6496 24.4376C15.6577 25.0045 15.8667 25.5112 16.2005 25.9575C16.4256 26.2631 16.7232 26.3757 16.8961 26.7295C16.9363 26.8099 16.8478 26.9306 16.7594 26.8662C16.1 26.3877 15.6536 25.9816 15.4043 25.1654C15.0827 24.1039 15.6858 22.8051 15.7582 21.7396H15.7542Z" fill="white"/>
<path d="M15.247 22.3426C15.2591 22.3024 15.3154 22.3185 15.3073 22.3587C15.1827 23.0262 15.0661 23.7017 15.2269 24.3692C15.3355 24.8235 15.7175 25.1693 15.8421 25.6277C15.8662 25.7202 15.7496 25.7604 15.6974 25.688C15.3556 25.2055 15.0299 24.8436 14.9133 24.2526C14.7886 23.6173 15.05 22.9257 15.247 22.3386V22.3426Z" fill="white"/>
<path d="M15.3429 18.9289C15.3429 18.8967 15.3952 18.8887 15.3992 18.9209C15.5239 19.7854 15.1861 20.5172 14.965 21.3495C14.8162 21.9124 14.7599 22.4673 14.7599 23.0463C14.7599 23.5248 15.0213 23.9349 15.1821 24.3692C15.2143 24.4577 15.0937 24.514 15.0293 24.4577C13.3566 22.8895 15.3228 20.682 15.3389 18.9249L15.3429 18.9289Z" fill="white"/>
<path d="M13.8594 20.3602C13.96 19.8696 14.1409 19.4354 14.358 18.985C14.6314 18.4141 14.8606 17.819 15.1381 17.252C15.1622 17.2038 15.2466 17.2239 15.2426 17.2802C15.1743 18.2653 14.6113 19.0655 14.3259 19.9862C14.0243 20.9633 14.5349 21.8198 14.5108 22.7768C14.5108 22.8733 14.3661 22.8974 14.3379 22.8009C14.1127 21.9927 13.6785 21.2367 13.8594 20.3602Z" fill="white"/>
</svg>
