<svg width="38" height="36" viewBox="0 0 38 36" fill="none" xmlns="http://www.w3.org/2000/svg">
<path d="M36.7578 17.7617C36.456 18.0923 36.2165 18.5234 35.9961 18.9115C35.8476 19.1702 35.5315 19.5726 35.4836 19.9079C34.9279 20.0229 34.0272 20.9858 33.8548 21.2876C33.6009 21.3307 33.3422 21.4504 33.1314 21.5702C32.7913 21.757 32.4464 22.1211 32.1685 22.3894C32.111 22.4469 32.044 22.5139 31.9961 22.5906C31.4068 22.4852 30.7984 22.6337 30.2044 22.6097C30.1469 22.5618 30.0846 22.5235 30.0128 22.4996C30.0367 22.3942 30.0559 22.284 30.0751 22.1786C31.1338 21.9007 31.838 20.8804 32.3649 19.9797C33.9745 19.6157 35.1865 17.9486 35.6608 16.4731C35.8572 15.8551 35.8476 15.2515 35.7183 14.6623C35.9195 14.0635 36.1111 13.503 36.0967 12.8419C36.0776 12.1185 35.7614 11.4287 35.4213 10.8011C34.6931 9.45498 33.3661 8.35795 32.1398 7.4765C31.8236 7.24655 31.4883 7.05493 31.1433 6.89685C30.8894 6.11599 30.2427 5.19142 29.7685 4.61177C29.0259 3.70636 28.1684 2.98778 27.2774 2.25004C25.6582 0.9087 23.2198 0.295512 21.1455 0.568572C21.0833 0.578153 21.0497 0.611687 21.0401 0.654801C20.9874 0.693125 20.9683 0.779355 21.0401 0.82726C21.7827 1.3111 22.5635 1.67039 23.2534 2.24525C23.8522 2.74347 24.4031 3.30396 24.9109 3.8884C25.3564 4.3962 26.9277 6.42259 26.2522 7.19386C25.8881 7.28488 25.5097 7.34716 25.0785 7.34716C24.1444 7.34716 22.8462 6.55672 22.2138 5.89563C22.1899 5.87168 22.1611 5.87167 22.1372 5.88605C22.1132 5.87167 22.0797 5.87647 22.0557 5.91C21.5575 6.80583 22.1994 7.91723 22.7456 8.66455C23.0953 9.1436 23.6031 9.51726 24.0725 9.86696C24.3121 10.049 24.7576 10.1017 25.045 10.164C25.4905 10.2646 25.5528 10.6095 25.7157 10.964C26.2331 12.085 27.0666 13.0095 28.0966 13.6802C28.6187 14.0203 29.2175 14.2551 29.8068 14.4467C30.5445 14.6862 31.4835 14.8156 31.9913 15.4719C31.8859 15.8216 31.8092 16.1713 31.8332 16.521C30.693 17 29.7541 17.8815 28.8295 18.6815C28.7673 18.6384 28.705 18.5953 28.6427 18.557C28.5373 18.4947 28.4367 18.5522 28.3936 18.6336C27.7085 18.7198 27.1193 18.7342 26.5253 18.5905C26.784 17.7426 26.3001 16.8228 25.4714 16.497C24.6857 16.1905 23.3875 15.8886 22.712 16.6216C21.5288 16.1234 20.312 15.9557 18.9946 15.9701C17.6772 15.9557 16.4604 16.1234 15.2771 16.6216C14.6017 15.8886 13.3082 16.1857 12.5178 16.497C11.689 16.8228 11.2052 17.7474 11.4639 18.5905C10.8699 18.7342 10.2806 18.7198 9.5956 18.6336C9.55249 18.5474 9.45188 18.4947 9.34649 18.557C9.27942 18.5953 9.21715 18.6384 9.15966 18.6815C8.23509 17.8767 7.29614 16.9953 6.156 16.521C6.17516 16.1713 6.10331 15.8216 5.99792 15.4719C6.50571 14.8204 7.44465 14.6862 8.18239 14.4467C8.77642 14.2551 9.37045 14.0203 9.89261 13.6802C10.9226 13.0095 11.7561 12.085 12.2735 10.964C12.4364 10.6095 12.4939 10.2646 12.9442 10.164C13.2316 10.1017 13.6771 10.0442 13.9166 9.86696C14.3861 9.51247 14.8939 9.1436 15.2436 8.66455C15.7897 7.91723 16.4269 6.81062 15.9334 5.91C15.9143 5.87168 15.8808 5.87167 15.852 5.88605C15.8281 5.87167 15.7993 5.87168 15.7754 5.89563C15.1382 6.55672 13.8448 7.34716 12.9106 7.34716C12.4795 7.34716 12.0962 7.28488 11.7369 7.19386C11.0615 6.41779 12.6328 4.3962 13.0783 3.8884C13.5909 3.30396 14.1418 2.74347 14.7358 2.24525C15.4257 1.67039 16.2017 1.3111 16.949 0.82726C17.0209 0.779355 17.0065 0.693125 16.949 0.654801C16.9395 0.611687 16.9011 0.573362 16.8436 0.568572C14.7693 0.295512 12.331 0.9087 10.7118 2.25004C9.82075 2.98778 8.96324 3.70636 8.22071 4.61177C7.74166 5.19142 7.09973 6.12078 6.84584 6.89685C6.50092 7.05014 6.16559 7.24655 5.84941 7.4765C4.62304 8.35795 3.29607 9.45498 2.56791 10.8011C2.22778 11.4287 1.9116 12.1137 1.89244 12.8419C1.87328 13.503 2.0649 14.0587 2.2709 14.6623C2.14155 15.2515 2.13197 15.8551 2.32838 16.4731C2.79785 17.9486 4.01465 19.6157 5.62426 19.9797C6.15122 20.8804 6.85542 21.9007 7.91413 22.1786C7.9285 22.2888 7.95245 22.3942 7.97641 22.4996C7.90455 22.5235 7.84226 22.5618 7.78477 22.6097C7.19075 22.6337 6.57757 22.4852 5.99312 22.5906C5.94522 22.5139 5.87816 22.4421 5.82067 22.3894C5.54282 22.1211 5.1979 21.757 4.85777 21.5702C4.6422 21.4504 4.38351 21.3355 4.1344 21.2876C3.96194 20.9858 3.06133 20.0229 2.50563 19.9079C2.45772 19.5726 2.14154 19.1749 1.99304 18.9115C1.77267 18.5186 1.53315 18.0923 1.23135 17.7617C1.14033 17.6611 0.958296 17.7138 0.924762 17.8432C0.776256 18.442 1.12117 19.0648 1.32237 19.6061C1.47567 20.0181 1.71998 20.5115 2.1128 20.7462C2.17987 20.9858 2.30922 21.2205 2.43377 21.4073C2.59186 21.6421 2.81702 21.7954 3.02301 21.9822C3.1811 22.1211 3.26253 22.2648 3.43019 22.3558C3.62181 22.6672 3.92362 22.9595 4.09608 23.1032C4.24459 23.2229 4.39309 23.3427 4.5416 23.4625C4.6901 23.5822 4.88652 23.6253 5.03982 23.7451C5.16916 23.8457 5.28413 23.9032 5.40868 23.9319C5.57156 24.0421 5.78234 24.0996 5.97396 24.1331C6.63026 24.2385 7.36321 24.3774 8.02909 24.3247C8.23988 24.4685 8.4842 24.5355 8.70935 24.4493C8.8387 24.708 8.97762 24.9619 9.12133 25.211C9.04468 25.2254 8.97282 25.2589 8.92492 25.3547C8.86264 25.4697 8.82433 25.5894 8.81474 25.7236C8.81474 25.738 8.81474 25.7475 8.81474 25.7619C8.58959 25.8338 8.37402 26.011 8.17282 26.0972C7.87581 26.2218 7.52131 26.3847 7.25783 26.5763C7.00393 26.7583 6.68775 27.0314 6.59194 27.3332C6.46259 27.4242 6.36199 27.544 6.21828 27.6494C6.01229 27.8027 5.78714 27.9512 5.64343 28.162C5.42306 28.4877 5.0973 28.8901 5.2458 29.3021C5.22664 29.3979 5.23622 29.4985 5.22664 29.6279C5.20748 29.8818 5.14521 30.1117 5.17874 30.3704C5.2027 30.5668 5.22664 30.8063 5.36077 30.95C5.44221 31.3189 5.77756 31.7069 6.00271 31.98C6.13206 32.1381 6.43386 32.6555 6.70213 32.3872C6.79794 32.2914 6.79315 32.1572 6.75003 32.0375C6.68297 31.8507 6.65901 31.6399 6.55362 31.4674C6.42907 31.2662 6.31888 31.065 6.20391 30.859C6.156 30.7728 6.13205 30.6961 6.08414 30.6291C6.09852 30.5907 6.11289 30.5476 6.12726 30.5141C6.26139 30.1117 6.39553 29.6901 6.41469 29.2638C6.42906 29.2542 6.44343 29.2398 6.45301 29.2302C6.84104 28.8949 7.24824 28.5548 7.50693 28.1093C7.75604 28.0661 8.00035 27.9655 8.1776 27.8649C8.61354 27.6254 9.31295 27.4003 9.66266 26.9883C9.74889 27.017 9.83991 27.0314 9.93093 27.0218C10.0363 27.0122 10.1465 26.9883 10.2327 26.9404C10.3764 27.1559 10.5202 27.3667 10.6591 27.5823C10.6926 27.6302 10.7262 27.6829 10.7597 27.7356C10.5393 27.8697 10.4387 28.0949 10.4196 28.3392C10.1657 28.4781 9.93572 28.7129 9.73452 28.9189C9.57164 29.0817 9.40877 29.259 9.2938 29.4602C9.26984 29.5033 9.25068 29.5464 9.23152 29.5943C9.21715 29.5991 9.20756 29.6039 9.19798 29.6135C8.8339 29.9009 8.46982 30.5141 8.38359 30.974C8.35484 31.1369 8.29257 31.3668 8.28299 31.5872C8.1776 31.7788 8.20635 31.956 8.20156 32.1764C8.20156 32.4255 8.19676 32.6746 8.22071 32.9237C8.23987 33.1297 8.29737 33.4363 8.4842 33.5657C8.64708 33.901 9.00158 34.1453 9.27943 34.3705C9.41356 34.4806 9.76326 34.7681 9.96447 34.6914C10.3238 34.5525 10.0076 34.1453 9.86865 33.9585C9.67703 33.7046 9.495 33.4411 9.27943 33.2064C9.4423 32.8183 9.39439 32.2435 9.38002 31.8459C9.70099 31.4626 9.94051 30.8638 10.0651 30.5333C10.2615 30.4901 10.4531 30.3848 10.6447 30.2602C10.9226 30.0782 11.2819 29.8817 11.4783 29.5943C11.6316 29.6039 11.7801 29.5799 11.9094 29.5129C12.1298 29.8195 12.3693 30.1117 12.628 30.3752C12.5178 30.5285 12.4507 30.7153 12.4364 30.8926C12.4364 30.9021 12.4364 30.9117 12.4364 30.9213C12.0962 31.1321 11.598 31.5776 11.5453 32.0039C11.2819 32.5213 11.0232 33.6519 11.4926 34.083C11.6268 34.4184 11.9094 34.7154 12.1873 34.931C12.2735 34.998 12.3837 35.089 12.4987 35.1465C12.5561 35.4771 13.1023 35.4914 13.337 35.6208C13.5669 35.7501 14.0364 35.9753 14.2855 35.7837C14.3574 35.7262 14.3909 35.6447 14.343 35.5537C14.2041 35.2998 13.9166 35.1274 13.6723 34.9884C13.4951 34.8878 13.2651 34.7681 13.0496 34.7202C12.9777 34.38 12.6615 33.9729 12.398 33.7812C12.4412 33.6902 12.4699 33.604 12.4891 33.5273C12.5418 33.2782 12.6855 32.8806 12.6615 32.5836C12.9873 32.4351 13.2939 32.1477 13.5047 31.9034C13.8927 31.9273 14.2759 31.774 14.4819 31.4339C15.8951 31.798 17.5622 31.9513 19.009 31.683C20.4557 31.956 22.1276 31.798 23.536 31.4339C23.7468 31.774 24.1252 31.9225 24.5133 31.9034C24.724 32.1525 25.0306 32.4351 25.3564 32.5836C25.3324 32.8806 25.4809 33.2782 25.5289 33.5273C25.5432 33.604 25.5768 33.695 25.6151 33.7812C25.3516 33.9729 25.0402 34.3848 24.9636 34.7202C24.748 34.7729 24.5181 34.8926 24.3408 34.9884C24.0965 35.1274 23.8091 35.2998 23.6701 35.5537C23.6222 35.64 23.6558 35.7262 23.7276 35.7837C23.9767 35.9753 24.4414 35.7453 24.6761 35.6208C24.9157 35.4914 25.4618 35.4771 25.5145 35.1465C25.6295 35.0842 25.7396 34.998 25.8259 34.931C26.0989 34.7154 26.3864 34.4184 26.5205 34.083C26.99 33.6519 26.7313 32.5165 26.4678 32.0039C26.4199 31.5776 25.9169 31.1321 25.5768 30.9213C25.5768 30.9117 25.5768 30.9021 25.5768 30.8926C25.5624 30.7153 25.4953 30.5285 25.3851 30.3752C25.6438 30.1117 25.8834 29.8195 26.1037 29.5129C26.2331 29.5799 26.3816 29.6087 26.5349 29.5943C26.7313 29.8817 27.0954 30.083 27.3684 30.2602C27.56 30.3848 27.7517 30.4901 27.9481 30.5333C28.0726 30.8638 28.3121 31.4626 28.6331 31.8459C28.614 32.2435 28.5708 32.8183 28.7337 33.2064C28.5181 33.4411 28.3409 33.6998 28.1493 33.9585C28.0103 34.1453 27.6942 34.5525 28.0535 34.6914C28.2499 34.7681 28.6044 34.4806 28.7385 34.3705C29.0164 34.1453 29.3709 33.8962 29.5337 33.5657C29.7206 33.4363 29.7733 33.1297 29.7972 32.9237C29.8212 32.6746 29.8212 32.4255 29.8164 32.1764C29.8164 31.956 29.8451 31.7788 29.7349 31.5872C29.7253 31.3668 29.6631 31.1369 29.6343 30.974C29.5481 30.5141 29.184 29.9009 28.8199 29.6135C28.8104 29.6039 28.796 29.5991 28.7864 29.5943C28.7673 29.5464 28.7481 29.5033 28.7241 29.4602C28.614 29.259 28.4463 29.0817 28.2834 28.9189C28.0774 28.7129 27.8523 28.4829 27.5984 28.3392C27.584 28.0949 27.4786 27.8697 27.2582 27.7356C27.2918 27.6829 27.3253 27.635 27.3588 27.5823C27.4978 27.3715 27.6415 27.1559 27.7852 26.9404C27.8714 26.9883 27.9816 27.0122 28.087 27.0218C28.178 27.0314 28.269 27.017 28.3553 26.9883C28.705 27.4003 29.4044 27.6254 29.8403 27.8649C30.0176 27.9655 30.2619 28.0661 30.511 28.1093C30.7697 28.5596 31.1769 28.8949 31.5649 29.2302C31.5793 29.2398 31.5889 29.2494 31.6032 29.2638C31.6224 29.6901 31.7517 30.1069 31.8907 30.5141C31.905 30.5524 31.9194 30.5907 31.9338 30.6291C31.8811 30.6961 31.8619 30.7728 31.814 30.859C31.699 31.065 31.5889 31.2662 31.4643 31.4674C31.3589 31.6351 31.335 31.8507 31.2679 32.0375C31.2248 32.1572 31.22 32.2914 31.3158 32.3872C31.5841 32.6555 31.8859 32.1381 32.0152 31.98C32.2404 31.7069 32.5709 31.3189 32.6571 30.95C32.7913 30.8111 32.8152 30.5668 32.8392 30.3704C32.8727 30.1117 32.8152 29.8818 32.7913 29.6279C32.7817 29.4985 32.7913 29.3979 32.7721 29.3021C32.9206 28.8901 32.5949 28.4877 32.3745 28.162C32.2308 27.9464 32.0008 27.7979 31.7996 27.6494C31.6559 27.544 31.5505 27.429 31.4212 27.3332C31.3254 27.0314 31.0092 26.7583 30.7553 26.5763C30.4918 26.3847 30.1421 26.2218 29.8403 26.0972C29.6391 26.0158 29.4188 25.8386 29.1984 25.7619C29.1984 25.7475 29.1984 25.738 29.1984 25.7236C29.1936 25.5894 29.1505 25.4697 29.0882 25.3547C29.0355 25.2589 28.9685 25.2254 28.8918 25.211C29.0355 24.9619 29.1744 24.708 29.3038 24.4493C29.5241 24.5355 29.7733 24.4637 29.984 24.3247C30.6499 24.3774 31.3877 24.2385 32.0392 24.1331C32.2356 24.1044 32.4464 24.0421 32.6045 23.9319C32.729 23.908 32.844 23.8457 32.9733 23.7451C33.1266 23.6253 33.323 23.587 33.4715 23.4625C33.62 23.3427 33.7686 23.2229 33.9171 23.1032C34.0895 22.9595 34.3961 22.6672 34.5829 22.3558C34.7506 22.2648 34.832 22.1163 34.9901 21.9822C35.1961 21.8001 35.4261 21.6469 35.5794 21.4073C35.7039 21.2157 35.8285 20.9858 35.9003 20.7462C36.2884 20.5115 36.5375 20.0181 36.6908 19.6061C36.892 19.0648 37.2369 18.442 37.0884 17.8432C37.0548 17.7138 36.8776 17.6611 36.7818 17.7617H36.7578Z" fill="white"/>
<path d="M28.486 18.6143C27.3889 18.7628 26.5554 18.7436 25.5589 18.2167C24.8691 17.8526 24.2128 17.4071 23.5278 17.019C22.0092 16.1615 20.4523 15.922 18.7229 15.9699C18.5456 15.9747 18.4977 16.2478 18.6798 16.2861C19.681 16.4825 20.6774 16.4777 21.6834 16.7412C22.6655 16.9999 23.6188 17.5795 24.4667 18.1304C25.6739 18.9161 27.2117 19.7353 28.644 18.9879C28.8692 18.8682 28.6967 18.5807 28.486 18.6095V18.6143Z" fill="#2E2E2E"/>
<path d="M25.4628 16.4874C24.6532 16.1713 23.3071 15.8599 22.6508 16.6743C22.5023 16.8611 22.6891 17.1438 22.9143 17.0144C23.6041 16.6264 24.2125 16.636 24.9502 16.8419C25.7263 17.0623 26.2676 17.7378 25.985 18.5426C25.9419 18.6623 26.0568 18.8156 26.1862 18.8061C26.2101 18.8061 26.2389 18.8061 26.2628 18.8013C26.3826 18.7917 26.4736 18.7294 26.512 18.6096C26.785 17.7569 26.3012 16.818 25.4628 16.4922V16.4874Z" fill="#2E2E2E"/>
<path d="M28.6338 18.5472C28.4518 18.4418 28.2745 18.6813 28.4135 18.8346C28.9021 19.3712 29.271 19.9125 29.5249 20.5975C29.8889 21.5844 29.4195 22.8299 29.0027 23.7162C28.3703 25.0575 27.5416 26.2743 26.7272 27.5055C25.7595 28.9762 24.9643 30.5091 23.1295 30.9499C22.3774 31.1319 21.5966 31.199 20.8253 31.199C20.0588 31.199 19.2636 31.0409 18.5019 31.1702C18.2959 31.2038 18.3151 31.5151 18.5019 31.563C20.145 31.999 22.1762 31.8026 23.8002 31.3427C25.52 30.854 26.4254 28.9522 27.3308 27.5773C28.3464 26.0348 29.5057 24.4395 29.98 22.6287C30.3536 21.1916 30.0039 19.3616 28.629 18.552L28.6338 18.5472Z" fill="#2E2E2E"/>
<path d="M27.0863 21.2156C26.8995 20.4108 26.6456 19.7688 26.1282 19.1173C25.8695 18.7868 25.5294 18.5904 25.2276 18.3077C24.9881 18.0826 24.9449 17.9772 24.6384 17.9053C24.5809 17.891 24.5521 17.9676 24.6 18.0011C24.6671 18.0491 25.036 18.5089 25.1749 18.6766C25.4432 18.9928 25.7306 19.2275 25.9797 19.5772C26.4492 20.2431 26.6504 21.1246 26.612 21.9246C26.5354 23.4719 25.8791 24.9378 25.1318 26.2648C24.4084 27.5486 23.3976 28.7367 22.0706 29.4074C21.4574 29.714 20.7628 29.8146 20.0826 29.8721C19.479 29.9247 18.9185 29.6804 18.3053 29.8577C18.1328 29.9056 18.1376 30.1547 18.3053 30.2074C19.5748 30.5858 21.1796 30.5284 22.3581 29.9056C23.9437 29.0672 25.0695 27.6205 25.8887 26.0444C26.2575 25.3306 26.5689 24.6456 26.7941 23.8743C27.0192 23.0935 27.2779 22.0396 27.0911 21.23L27.0863 21.2156Z" fill="#2E2E2E"/>
<path d="M32.8255 16.382C32.7824 16.2814 32.6482 16.2479 32.5524 16.2718C31.0099 16.6359 29.841 17.8 28.6817 18.7964C28.5332 18.9258 28.7008 19.1174 28.8541 19.0934C28.8733 19.0934 28.8877 19.0886 28.9068 19.0838C28.9547 19.079 28.9835 19.0503 29.0074 19.012C29.5344 18.7102 29.9943 18.2503 30.4877 17.8958C31.1153 17.4455 31.738 17.0191 32.471 16.7988C32.8542 17.891 32.3464 18.9353 31.7955 19.8982C31.5512 20.3198 31.2398 20.7126 30.9236 21.0767C30.6075 21.436 30.1332 21.5653 29.8122 21.9102C29.6925 22.0396 29.8122 22.2408 29.9799 22.2025C31.1153 21.9534 31.853 20.8563 32.3991 19.9126C33.0602 18.7725 33.3956 17.6323 32.8255 16.3868V16.382Z" fill="#2E2E2E"/>
<path d="M35.3688 13.6179C35.0574 12.8946 34.267 11.8071 33.3807 11.8071C33.2609 11.8071 33.1843 11.8838 33.1412 11.9892C32.8921 12.5928 32.5951 13.3353 32.4609 13.9724C32.2837 14.8252 31.7423 15.7018 31.8286 16.5881C31.7902 16.727 32.0442 16.842 32.1112 16.6551C32.6142 15.2324 32.9831 13.7233 33.5436 12.3197C34.334 12.473 34.8849 13.6946 35.1101 14.3222C35.4454 15.2611 35.2969 16.2 34.861 17.0767C34.5017 17.8049 33.9843 18.3462 33.4047 18.9019C32.9496 19.3378 32.3364 19.4097 31.8669 19.7833C31.7663 19.8648 31.8477 20.0564 31.9723 20.042C33.7735 19.8839 35.1484 18.0635 35.6562 16.4683C35.9676 15.4815 35.7616 14.5425 35.3688 13.6179Z" fill="#2E2E2E"/>
<path d="M32.3653 15.3856C32.212 14.5377 31.1581 14.2694 30.4395 14.0442C29.0742 13.6131 27.8622 13.0861 26.9616 11.9125C26.54 11.3616 26.2095 10.7819 25.9316 10.1496C25.8262 9.91482 25.5675 9.6753 25.2993 9.65613C23.8046 9.55553 21.9507 7.50998 22.1711 5.95306C22.1806 5.886 22.0944 5.8333 22.0513 5.90516C21.5531 6.80098 22.195 7.91239 22.7411 8.65971C23.0908 9.13876 23.5986 9.51242 24.0681 9.86213C24.3076 10.0442 24.7531 10.0969 25.0406 10.1591C25.4861 10.2597 25.5484 10.6047 25.7112 10.9592C26.2286 12.0801 27.0622 13.0047 28.0921 13.6754C28.6143 14.0155 29.2131 14.2502 29.8023 14.4419C30.564 14.6862 31.5413 14.8203 32.0347 15.5245C32.1545 15.697 32.4036 15.5916 32.3701 15.3856H32.3653Z" fill="#2E2E2E"/>
<path d="M35.4172 10.7963C34.6891 9.45014 33.3621 8.35311 32.1357 7.47166C30.8662 6.55667 29.3285 6.19259 27.8386 6.66685C26.8661 6.97824 26.1284 7.34711 25.0697 7.34232C24.1355 7.34232 22.8373 6.55188 22.205 5.89079C22.1618 5.84768 22.0948 5.88121 22.09 5.93869C22.0804 6.389 22.5451 6.63332 22.8565 6.90159C23.4122 7.39022 23.987 7.62975 24.6912 7.83574C26.2529 8.28126 27.7715 7.03572 29.2901 6.9447C30.1141 6.89201 31.1968 7.49561 31.8626 7.95071C32.6243 8.47288 33.2998 9.12439 33.9465 9.7759C34.6651 10.4945 35.1825 11.3759 35.4603 12.3484C35.7238 13.2586 35.2879 13.9724 35.2783 14.8443C35.2783 15.0551 35.5705 15.0838 35.6376 14.8922C35.8675 14.1975 36.1118 13.5844 36.0927 12.837C36.0735 12.1137 35.7573 11.4238 35.4172 10.7963Z" fill="#2E2E2E"/>
<path d="M26.037 4.51585C25.0262 2.65713 22.9376 1.53615 21.1363 0.645113C21.0166 0.587627 20.9207 0.750506 21.0309 0.822363C21.7735 1.30621 22.5543 1.66549 23.2441 2.24036C23.843 2.73857 24.3939 3.29906 24.9017 3.8835C25.3615 4.41046 27.0287 6.55661 26.1664 7.26561C26.1089 7.31351 26.0993 7.41412 26.1424 7.4716C26.1568 7.49076 26.1664 7.50993 26.1807 7.52909C26.2622 7.65364 26.3963 7.6776 26.5304 7.62011C27.6945 7.11232 26.3388 5.06197 26.037 4.51106V4.51585Z" fill="#2E2E2E"/>
<path d="M31.2064 7.13149C31.0196 6.31231 30.2915 5.24882 29.7597 4.60689C29.0172 3.70148 28.1597 2.9829 27.2686 2.24516C25.6494 0.903817 23.2111 0.29063 21.1368 0.563689C20.9883 0.582851 20.9883 0.774471 21.1368 0.798423C23.2733 1.07627 25.3285 1.33496 27.0243 2.79607C27.7716 3.44279 28.5094 4.03681 29.1705 4.78893C29.8459 5.55541 30.1765 6.61891 30.9573 7.28C31.0723 7.37581 31.2448 7.28479 31.2064 7.13149Z" fill="#2E2E2E"/>
<path d="M29.721 22.466C29.606 22.4803 29.5198 22.5905 29.5868 22.7007C29.6204 22.7582 29.6539 22.8348 29.7162 22.8684C29.7785 22.9019 29.9797 22.9594 30.0036 23.036C30.0803 23.2564 30.109 23.4863 30.0036 23.6971C29.903 23.9079 29.7449 24.0468 29.5246 24.1139C29.3425 24.1666 29.2084 24.0133 29.0264 24.0947C28.9689 24.1235 28.9737 24.2001 29.0072 24.2385C29.4575 24.7798 30.1569 24.2912 30.4012 23.8217C30.6647 23.3139 30.4204 22.3797 29.7162 22.4612L29.721 22.466Z" fill="#2E2E2E"/>
<path d="M29.1756 25.7186C29.1708 25.5845 29.1276 25.4647 29.0654 25.3498C28.9791 25.1821 28.8402 25.2061 28.6869 25.1773C28.5384 25.1534 28.4666 25.3258 28.5863 25.4168C28.6246 25.4456 28.6917 25.6516 28.7061 25.7138C28.7396 25.8528 28.6965 26.0396 28.6342 26.1642C28.4857 26.4707 28.0641 26.7725 27.7432 26.5426C27.6522 26.4755 27.5516 26.5857 27.5707 26.6767C27.6186 26.9211 27.8438 26.9977 28.0689 27.0169C28.3899 27.0456 28.6965 26.8109 28.8929 26.5857C29.1037 26.3414 29.1947 26.0348 29.1756 25.7186Z" fill="#2E2E2E"/>
<path d="M27.0339 27.6398C26.9476 27.6159 26.8326 27.6542 26.7895 27.7404C26.78 27.7596 26.7752 27.774 26.7704 27.7931C26.7464 27.865 26.7704 27.9512 26.8278 28.0039C26.9237 28.0997 27.0339 28.1716 27.1105 28.2818C27.2255 28.4494 27.077 28.7177 26.9955 28.8614C26.8326 29.1488 26.3775 29.2686 26.1141 29.077C25.9751 28.9764 25.7835 29.1728 25.8793 29.3117C26.2195 29.8051 27.0386 29.5944 27.3452 29.1632C27.6902 28.6842 27.7381 27.8362 27.0434 27.6398H27.0339Z" fill="#2E2E2E"/>
<path d="M24.9929 30.0828C24.8684 30.0493 24.763 30.1642 24.7917 30.284C24.8779 30.6816 25.3283 30.9786 24.8444 31.3188C24.4372 31.6014 23.9582 31.4529 23.6803 31.0792C23.5893 30.9547 23.3594 31.0217 23.412 31.1942C23.6372 31.9128 24.4707 32.0613 25.0791 31.726C25.3953 31.5535 25.5917 31.2469 25.5678 30.8876C25.5438 30.5571 25.3235 30.1738 24.9929 30.0828Z" fill="#2E2E2E"/>
<path d="M32.1259 22.6145C31.4648 22.4468 30.7654 22.6624 30.0947 22.6049C29.9558 22.5953 29.9127 22.7965 30.0277 22.8588C30.248 22.9834 30.5115 22.9882 30.7606 23.0025C30.957 23.0169 31.1582 23.0073 31.3546 23.0025C31.484 22.993 31.6133 22.9882 31.7427 22.9977C32.1403 22.9882 32.2888 23.1989 32.2025 23.6205C31.8864 23.7451 31.484 23.7355 31.1486 23.7834C30.7319 23.8409 30.2289 23.9463 29.8504 24.1283C29.7498 24.1762 29.8121 24.3103 29.9031 24.3199C30.5834 24.387 31.3451 24.2385 32.0157 24.1331C32.3654 24.0756 32.763 23.9415 32.8397 23.5582C32.9211 23.1415 32.5044 22.7151 32.1307 22.6193L32.1259 22.6145Z" fill="#2E2E2E"/>
<path d="M34.6746 21.6276C34.3345 21.0287 33.6159 21.297 33.1369 21.5653C32.7968 21.7521 32.4518 22.1162 32.174 22.3845C32.0638 22.4899 31.9153 22.6431 31.9441 22.806C31.968 22.9497 32.2075 22.9497 32.2315 22.806C32.2219 22.8587 32.471 22.6527 32.5333 22.6096C32.7249 22.4755 32.9117 22.3366 33.1033 22.1976C33.3189 22.0348 33.5105 21.8815 33.7644 21.7856C33.9704 21.6803 34.1237 21.7425 34.2195 21.9677C34.1764 22.0395 34.1333 22.1066 34.0806 22.1737C33.5872 22.8779 32.8447 23.1653 32.2123 23.7019C32.1405 23.7641 32.174 23.9078 32.2698 23.927C32.5477 23.9749 32.7201 23.9126 32.9405 23.745C33.0938 23.6252 33.2902 23.5869 33.4387 23.4623C33.5872 23.3426 33.7357 23.2228 33.8842 23.103C34.2004 22.8444 34.9333 22.1018 34.6651 21.6276H34.6746Z" fill="#2E2E2E"/>
<path d="M35.8868 20.1281C35.5993 19.285 33.9897 20.9904 33.8412 21.3209C33.7837 21.4455 33.9275 21.5748 34.0376 21.4694C34.2868 21.2251 34.6077 20.9904 34.8904 20.7844C35.0149 20.6934 35.1299 20.5832 35.2448 20.4826C35.3646 20.3772 35.5131 20.2239 35.5083 20.449C35.494 21.2155 34.6029 21.5748 34.3011 22.2024C34.2532 22.303 34.3347 22.4419 34.4544 22.4036C34.6987 22.3221 34.7802 22.1449 34.967 21.982C35.173 21.8 35.4029 21.6467 35.5562 21.4072C35.791 21.0527 36.0305 20.5592 35.8868 20.1281Z" fill="#2E2E2E"/>
<path d="M37.0647 17.843C37.0312 17.7137 36.854 17.661 36.7581 17.7616C36.4563 18.0922 36.2168 18.5233 35.9965 18.9113C35.8288 19.2036 35.4503 19.673 35.4791 20.0227C35.4887 20.1185 35.618 20.1712 35.6755 20.0754C35.8623 19.7401 36.1306 19.4431 36.3222 19.0982C36.442 18.8874 36.5665 18.667 36.7007 18.4514C36.6288 18.7628 36.4755 19.0694 36.3845 19.3329C36.2072 19.8455 35.8863 20.2048 35.6036 20.6551C35.5557 20.7317 35.6372 20.8467 35.7234 20.8132C36.2024 20.6263 36.4947 20.0611 36.6671 19.5964C36.8683 19.055 37.2133 18.4323 37.0647 17.8335V17.843Z" fill="#2E2E2E"/>
<path d="M30.7321 26.5666C30.4686 26.375 30.1189 26.2121 29.8171 26.0876C29.5488 25.9774 29.2566 25.7043 28.9596 25.7187C28.8303 25.7235 28.7536 25.8816 28.8542 25.9774C29.4291 26.5331 30.3153 26.6385 30.8614 27.2421C30.9189 27.6349 30.8087 27.7738 30.5261 27.6636C30.4303 27.6397 30.3345 27.6109 30.2435 27.5726C30.0279 27.496 29.8267 27.3762 29.6255 27.266C29.247 27.06 28.677 26.9882 28.3608 26.6912C28.2841 26.6193 28.1644 26.7103 28.2171 26.8013C28.4997 27.3283 29.3285 27.5822 29.8219 27.8553C30.2243 28.0756 30.9573 28.3151 31.2974 27.8696C31.6902 27.3618 31.1393 26.8492 30.7321 26.5618V26.5666Z" fill="#2E2E2E"/>
<path d="M32.3506 28.1571C32.2069 27.9416 31.9769 27.793 31.7757 27.6445C31.5506 27.4769 31.426 27.29 31.153 27.199C31.0236 27.1559 30.9565 27.3188 31.0284 27.4098C31.129 27.5248 31.2009 27.6877 31.311 27.793C31.4548 27.9368 31.6464 28.0565 31.8093 28.1859C31.9865 28.3296 32.0919 28.5116 32.2212 28.6985C32.2548 28.7464 32.4991 29.2015 32.341 29.1823C31.9578 29.1248 31.6081 28.7655 31.3302 28.5308C31.0524 28.296 30.8272 28.0278 30.535 27.8266C30.4535 27.7691 30.3769 27.8745 30.4104 27.9511C30.6547 28.4829 31.1194 28.8613 31.5506 29.235C31.7901 29.441 32.4751 29.8051 32.7051 29.417C32.9686 28.9667 32.5997 28.5164 32.3602 28.1619L32.3506 28.1571Z" fill="#2E2E2E"/>
<path d="M32.7722 29.623C32.7531 29.4074 32.7914 29.2637 32.6525 29.0865C32.5902 29.0098 32.4657 29.0577 32.4465 29.1392C32.3794 29.3883 32.389 29.647 32.4321 29.8961C32.4609 30.0733 32.4657 30.2314 32.4321 30.4086C32.4273 30.4374 32.4082 30.7344 32.3219 30.6099C32.1686 30.3895 32.1207 30.0062 32.0441 29.7523C31.977 29.532 31.9243 29.2398 31.7471 29.0817C31.6848 29.029 31.589 29.0625 31.589 29.1487C31.5842 29.6182 31.7279 30.0733 31.8764 30.514C31.9579 30.7584 32.1207 31.1224 32.4513 31.0506C32.7579 30.9835 32.7866 30.6338 32.8202 30.3703C32.8537 30.1116 32.7962 29.8817 32.7722 29.6278V29.623Z" fill="#2E2E2E"/>
<path d="M32.4754 30.7056C32.2359 30.8685 32.1066 31.1607 31.9485 31.4003C31.9197 31.4434 31.891 31.4817 31.8623 31.5248C32.0203 31.2326 32.1784 30.9356 32.1305 30.6146C32.1209 30.5523 32.0347 30.5236 31.9868 30.5571C31.8718 30.6386 31.8575 30.7344 31.7904 30.8541C31.6754 31.0601 31.5652 31.2613 31.4407 31.4625C31.3353 31.6302 31.3113 31.8458 31.2443 32.0326C31.2012 32.1524 31.1964 32.2865 31.2922 32.3823C31.5604 32.6506 31.8623 32.1332 31.9916 31.9751C32.2455 31.6685 32.6335 31.2182 32.6527 30.811C32.6527 30.7248 32.5473 30.6577 32.4707 30.7056H32.4754Z" fill="#2E2E2E"/>
<path d="M28.7053 29.4506C28.5951 29.2494 28.4275 29.0722 28.2646 28.9093C28.0586 28.6985 27.8239 28.459 27.5652 28.32C27.455 28.2626 27.3017 28.3584 27.3448 28.4877C27.431 28.7608 27.5987 28.9668 27.8239 29.1488C27.9101 29.2159 28.6909 30.0398 28.2071 30.0782C27.9149 30.1021 27.7089 29.9728 27.4502 29.8386C27.1819 29.6997 26.8322 29.5416 26.6262 29.3117C26.5304 29.2063 26.3915 29.3404 26.4442 29.4506C26.6071 29.8099 27.0382 30.0446 27.3544 30.2506C27.7376 30.4997 28.1065 30.6578 28.5472 30.4518C28.964 30.2602 28.8778 29.762 28.7005 29.4458L28.7053 29.4506Z" fill="#2E2E2E"/>
<path d="M29.6208 30.9691C29.5346 30.5092 29.1705 29.896 28.8064 29.6086C28.7106 29.5319 28.5382 29.599 28.5813 29.7379C28.6627 29.9966 28.7777 30.193 28.9166 30.4182C29.1083 30.72 29.1849 31.0218 29.2615 31.3619C29.2711 31.405 29.2807 31.4482 29.2903 31.4961C29.1035 31.7595 28.9693 31.7643 28.8783 31.5152C28.8017 31.4003 28.7202 31.2853 28.634 31.1751C28.4136 30.8925 28.3322 30.5715 28.0543 30.3272C27.9873 30.2697 27.8627 30.3272 27.8962 30.4182C28.0831 30.9164 28.6915 32.5883 29.5011 32.114C29.8699 31.8985 29.6783 31.2901 29.616 30.9691H29.6208Z" fill="#2E2E2E"/>
<path d="M29.7063 31.5489C29.644 31.4483 29.5147 31.4771 29.4764 31.5777C29.3758 31.8268 29.3901 32.1094 29.3949 32.3729C29.3949 32.5118 29.3997 32.6555 29.3949 32.7945C29.3949 32.8951 29.3758 32.9909 29.3566 33.0867C29.347 33.1394 29.2033 33.3597 29.1362 33.1921C29.0165 32.8903 28.9973 32.6076 28.9542 32.2867C28.9206 32.0567 28.9638 31.7645 28.7482 31.616C28.6955 31.5825 28.6284 31.6304 28.6236 31.6879C28.614 32.2819 28.4176 33.5753 29.3039 33.6089C29.6632 33.6232 29.7494 33.1777 29.7781 32.9046C29.8021 32.6555 29.8021 32.4064 29.7973 32.1573C29.7973 31.9274 29.8308 31.7405 29.7015 31.5393L29.7063 31.5489Z" fill="#2E2E2E"/>
<path d="M29.357 33.2973C29.1222 33.4506 28.969 33.7189 28.7582 33.9057C28.6432 34.0063 28.5282 34.0973 28.3989 34.1788C28.4085 34.1644 28.4228 34.15 28.4324 34.1357C28.533 34.0063 28.6097 33.8674 28.7198 33.7428C28.8444 33.5991 29.0264 33.3404 28.9546 33.1488C28.9306 33.0865 28.8588 33.0578 28.8061 33.1105C28.5474 33.3692 28.3462 33.671 28.1258 33.9584C27.9869 34.1452 27.6707 34.5524 28.03 34.6914C28.2264 34.768 28.5809 34.4806 28.715 34.3704C29.0216 34.1213 29.424 33.8482 29.5582 33.4602C29.5965 33.3452 29.4528 33.235 29.3522 33.3021L29.357 33.2973Z" fill="#2E2E2E"/>
<path d="M25.4583 30.8495C25.3337 30.7824 25.1757 30.9213 25.2571 31.0507C25.3529 31.204 25.4439 31.3237 25.5589 31.4579C25.7026 31.6303 25.9182 31.7549 25.9853 31.9752C26.129 32.4591 25.4679 32.1956 25.2859 32.0854C25.0415 31.9369 24.802 31.7693 24.5481 31.6303C24.4667 31.5872 24.3373 31.683 24.4044 31.774C24.7828 32.2723 25.6643 33.0531 26.2775 32.4687C26.8667 31.9034 25.899 31.0842 25.4583 30.8495Z" fill="#2E2E2E"/>
<path d="M26.3865 31.8793C26.3242 31.7787 26.1709 31.7931 26.1374 31.9129C26.0703 32.1476 26.0991 32.3871 26.1949 32.6123C26.2859 32.8183 26.3146 33.0291 26.3242 33.2494C26.3242 33.2734 26.2524 34.0015 26.032 33.7045C25.826 33.4267 25.7829 32.9524 25.6679 32.6315C25.6344 32.5356 25.5625 32.4111 25.4619 32.3776C25.4188 32.3632 25.3853 32.3919 25.3709 32.4303C25.2655 32.7321 25.4571 33.2255 25.5194 33.5225C25.5817 33.8243 25.8691 34.3321 26.2571 34.2267C27.1194 33.9872 26.7122 32.3776 26.3961 31.8841L26.3865 31.8793Z" fill="#2E2E2E"/>
<path d="M26.306 33.81C26.0857 33.9825 25.9707 34.2603 25.7887 34.4663C25.6833 34.5861 25.5204 34.6963 25.3815 34.7825C25.2713 34.8544 25.3096 34.8256 25.3432 34.7298C25.3911 34.5957 25.4629 34.4807 25.5396 34.3609C25.6641 34.1741 25.7743 33.9777 25.8941 33.7861C25.9324 33.719 25.8701 33.6471 25.7982 33.6615C25.4006 33.7525 24.5479 34.8879 25.1276 35.1705C25.3671 35.2855 25.6354 35.0556 25.8078 34.9214C26.1144 34.6819 26.4402 34.337 26.5456 33.9489C26.5887 33.7957 26.4114 33.7238 26.3013 33.8052L26.306 33.81Z" fill="#2E2E2E"/>
<path d="M25.3186 34.9693C25.1174 35.0651 24.9114 35.1369 24.7006 35.2184C24.5569 35.2759 24.4371 35.3669 24.2934 35.4244C24.2647 35.4339 24.2168 35.4531 24.1593 35.4723C24.4611 35.228 24.9114 35.1274 25.1509 34.816C25.1892 34.7681 25.1365 34.6818 25.079 34.6914C24.8299 34.7154 24.5425 34.8639 24.3317 34.9836C24.0874 35.1226 23.8 35.295 23.6611 35.5489C23.6132 35.6351 23.6467 35.7214 23.7185 35.7789C23.9676 35.9705 24.4323 35.7405 24.6671 35.616C24.9162 35.4771 25.5198 35.4723 25.5102 35.0794C25.5102 34.9788 25.4048 34.9309 25.3186 34.9693Z" fill="#2E2E2E"/>
<path d="M9.4857 18.6143C10.5827 18.7628 11.4163 18.7436 12.4127 18.2167C13.1025 17.8526 13.7588 17.4071 14.4439 17.019C15.9625 16.1615 17.5194 15.922 19.2488 15.9699C19.426 15.9747 19.4739 16.2478 19.2919 16.2861C18.2907 16.4825 17.2894 16.4777 16.2882 16.7412C15.3062 16.9999 14.3529 17.5795 13.5049 18.1304C12.2977 18.9161 10.76 19.7353 9.3276 18.9879C9.10245 18.8682 9.27491 18.5807 9.4857 18.6095V18.6143Z" fill="#2E2E2E"/>
<path d="M12.5134 16.4874C13.323 16.1713 14.6691 15.8599 15.3254 16.6743C15.4739 16.8611 15.2871 17.1438 15.0619 17.0144C14.3721 16.6264 13.7637 16.636 13.0259 16.8419C12.2499 17.0623 11.7085 17.7378 11.9912 18.5426C12.0343 18.6623 11.9193 18.8156 11.7948 18.8061C11.7708 18.8061 11.7421 18.8061 11.7181 18.8013C11.5984 18.7917 11.5073 18.7294 11.469 18.6096C11.196 17.7569 11.6798 16.818 12.5181 16.4922L12.5134 16.4874Z" fill="#2E2E2E"/>
<path d="M9.34245 18.5473C9.52449 18.4419 9.70175 18.6815 9.56282 18.8348C9.07419 19.3713 8.70532 19.9126 8.45142 20.5977C8.08734 21.5845 8.55681 22.8301 8.97359 23.7163C9.60593 25.0576 10.4347 26.2744 11.2491 27.5056C12.2168 28.9763 13.012 30.5093 14.8468 30.95C15.5989 31.132 16.3797 31.1991 17.151 31.1991C17.9175 31.1991 18.7127 31.041 19.4744 31.1703C19.6804 31.2039 19.6564 31.5153 19.4744 31.5632C17.8313 31.9991 15.8001 31.8027 14.1761 31.3428C12.4563 30.8542 11.5509 28.9523 10.6455 27.5775C9.62988 26.0349 8.47058 24.4397 7.99632 22.6289C7.62266 21.1917 7.97237 19.3617 9.35204 18.5521L9.34245 18.5473Z" fill="#2E2E2E"/>
<path d="M10.8844 21.2156C11.0712 20.4108 11.3251 19.7688 11.8425 19.1173C12.1012 18.7868 12.4413 18.5904 12.7431 18.3077C12.9826 18.0826 13.0257 17.9772 13.3323 17.9053C13.3898 17.891 13.4186 17.9676 13.3706 18.0011C13.3036 18.0491 12.9347 18.5089 12.7958 18.6766C12.5275 18.9928 12.2353 19.2275 11.991 19.5772C11.5215 20.2431 11.3203 21.1246 11.3586 21.9246C11.4353 23.4719 12.0916 24.9378 12.8389 26.2648C13.5671 27.5486 14.5731 28.7367 15.9 29.4074C16.5132 29.714 17.2079 29.8146 17.8881 29.8721C18.4917 29.9247 19.0522 29.6804 19.6654 29.8577C19.8379 29.9056 19.8379 30.1547 19.6654 30.2074C18.3959 30.5858 16.7911 30.5284 15.6126 29.9056C14.027 29.0672 12.9012 27.6205 12.082 26.0444C11.7131 25.3306 11.397 24.6456 11.1766 23.8743C10.9514 23.0935 10.6928 22.0396 10.8796 21.23L10.8844 21.2156Z" fill="#2E2E2E"/>
<path d="M5.14515 16.382C5.19306 16.2814 5.3224 16.2479 5.41821 16.2718C6.96076 16.6359 8.12964 17.8 9.28894 18.7964C9.44224 18.9258 9.26979 19.1174 9.11649 19.0934C9.09733 19.0934 9.08295 19.0886 9.06379 19.0838C9.01588 19.079 8.98714 19.0503 8.96797 19.012C8.44102 18.7102 7.98113 18.2503 7.48771 17.8958C6.86015 17.4455 6.23738 17.0191 5.49964 16.7988C5.1164 17.891 5.6242 18.9353 6.17511 19.8982C6.41942 20.3198 6.73081 20.7126 7.04699 21.0767C7.36316 21.436 7.83742 21.5653 8.15839 21.9102C8.27815 22.0396 8.15838 22.2408 7.98592 22.2025C6.85057 21.9534 6.11284 20.8563 5.56672 19.9126C4.90563 18.7725 4.57028 17.6323 5.14035 16.3868L5.14515 16.382Z" fill="#2E2E2E"/>
<path d="M2.60179 13.6178C2.91318 12.8945 3.70361 11.807 4.58986 11.807C4.70962 11.807 4.78627 11.8837 4.82938 11.989C5.07849 12.5927 5.3755 13.3352 5.50485 13.9723C5.6821 14.825 6.22343 15.7017 6.1372 16.5879C6.17552 16.7269 5.92161 16.8418 5.85454 16.655C5.35154 15.2322 4.98268 13.7232 4.42218 12.3196C3.63175 12.4729 3.08084 13.6945 2.85569 14.322C2.51556 15.261 2.66885 16.1999 3.10479 17.0766C3.46408 17.8047 3.98146 18.3461 4.56111 18.9018C5.01621 19.3377 5.62939 19.4096 6.09887 19.7832C6.19947 19.8647 6.11803 20.0563 5.99347 20.0419C4.19224 19.8838 2.81736 18.0634 2.30956 16.4682C1.99339 15.4813 2.20418 14.5424 2.597 13.6178H2.60179Z" fill="#2E2E2E"/>
<path d="M5.6105 15.3856C5.76379 14.5377 6.81291 14.2694 7.53628 14.0442C8.90158 13.6131 10.1136 13.0861 11.0142 11.9125C11.4358 11.3616 11.7663 10.7819 12.049 10.1496C12.1543 9.91482 12.413 9.6753 12.6813 9.65613C14.1759 9.55553 16.0299 7.50998 15.8095 5.95306C15.7999 5.886 15.8909 5.8333 15.9293 5.90516C16.4275 6.80098 15.7904 7.91239 15.2394 8.65971C14.8897 9.13876 14.3819 9.51242 13.9125 9.86213C13.6729 10.0442 13.2274 10.0969 12.94 10.1591C12.4945 10.2597 12.4322 10.6047 12.2693 10.9592C11.7519 12.0801 10.9184 13.0047 9.88843 13.6754C9.36626 14.0155 8.77223 14.2502 8.17821 14.4419C7.41652 14.6862 6.43925 14.8203 5.94583 15.5245C5.82606 15.697 5.57696 15.5916 5.6105 15.3856Z" fill="#2E2E2E"/>
<path d="M2.55437 10.7963C3.28252 9.45014 4.6095 8.35311 5.83587 7.47166C7.10536 6.55667 8.63833 6.19259 10.133 6.66685C11.1054 6.97824 11.8432 7.34711 12.9019 7.34232C13.836 7.34232 15.1343 6.55188 15.7666 5.89079C15.8049 5.84768 15.8768 5.88121 15.8768 5.93869C15.8864 6.389 15.4169 6.63332 15.1103 6.90159C14.5546 7.39022 13.9798 7.62975 13.2755 7.83574C11.7138 8.28126 10.1952 7.03572 8.67665 6.9447C7.85268 6.89201 6.77001 7.49561 6.10892 7.95071C5.34723 8.47288 4.67177 9.12439 4.02026 9.7759C3.30169 10.4945 2.78431 11.3759 2.50646 12.3484C2.24298 13.2586 2.67892 13.9724 2.6885 14.8443C2.6885 15.0551 2.39628 15.0838 2.32921 14.8922C2.09927 14.1975 1.85494 13.5844 1.87411 12.837C1.89327 12.1137 2.20944 11.4238 2.54957 10.7963H2.55437Z" fill="#2E2E2E"/>
<path d="M11.9391 4.51585C12.9499 2.65713 15.0386 1.53615 16.8398 0.645113C16.9596 0.587627 17.0554 0.750506 16.9452 0.822363C16.1979 1.30621 15.4218 1.66549 14.732 2.24036C14.138 2.73857 13.5871 3.29906 13.0745 3.8835C12.6146 4.41046 10.9475 6.55661 11.8098 7.26561C11.8673 7.31351 11.8769 7.41412 11.8385 7.4716C11.8242 7.49076 11.8146 7.50993 11.8002 7.52909C11.714 7.65364 11.5846 7.6776 11.4505 7.62011C10.2864 7.11232 11.6421 5.06197 11.9439 4.51106L11.9391 4.51585Z" fill="#2E2E2E"/>
<path d="M6.76513 7.13149C6.95196 6.31231 7.6849 5.24882 8.20706 4.60689C8.94959 3.70148 9.8071 2.9829 10.6981 2.24516C12.3173 0.903817 14.7557 0.29063 16.83 0.563689C16.9785 0.582851 16.9785 0.774471 16.83 0.798423C14.6934 1.07627 12.6383 1.33496 10.9425 2.79607C10.1951 3.44279 9.4526 4.03681 8.7963 4.78893C8.12084 5.55541 7.79508 6.61891 7.00943 7.28C6.89446 7.37581 6.72201 7.28479 6.76033 7.13149H6.76513Z" fill="#2E2E2E"/>
<path d="M8.24936 22.4658C8.36434 22.4802 8.45057 22.5904 8.3835 22.7006C8.34996 22.7581 8.31644 22.8347 8.25416 22.8682C8.19188 22.9018 7.99069 22.9593 7.96194 23.0359C7.8853 23.2563 7.85655 23.4862 7.96194 23.697C8.06255 23.9078 8.22063 24.0467 8.441 24.1138C8.62304 24.1665 8.75716 24.0132 8.9392 24.0946C8.99669 24.1234 8.9919 24.2 8.95837 24.2383C8.50806 24.7797 7.80864 24.291 7.56432 23.8216C7.30084 23.3138 7.54516 22.3796 8.24936 22.461V22.4658Z" fill="#2E2E2E"/>
<path d="M8.80034 25.7186C8.80514 25.5845 8.84824 25.4647 8.91052 25.3498C9.00154 25.1821 9.13568 25.2061 9.29377 25.1773C9.44227 25.1534 9.51413 25.3258 9.39436 25.4168C9.35604 25.4456 9.28897 25.6516 9.2746 25.7138C9.24107 25.8528 9.28897 26.0396 9.34646 26.1642C9.49017 26.4707 9.91653 26.7725 10.2327 26.5426C10.3237 26.4755 10.4243 26.5857 10.4052 26.6767C10.3573 26.9211 10.1321 26.9977 9.90695 27.0169C9.58599 27.0456 9.27939 26.8109 9.08298 26.5857C8.8722 26.3414 8.78118 26.0348 8.80034 25.7186Z" fill="#2E2E2E"/>
<path d="M10.9373 27.6398C11.0235 27.6159 11.1385 27.6542 11.1816 27.7404C11.1912 27.7596 11.196 27.774 11.2055 27.7931C11.2295 27.865 11.2055 27.9512 11.1481 28.0039C11.0522 28.0997 10.9421 28.1716 10.8654 28.2818C10.7504 28.4494 10.9037 28.7177 10.9852 28.8614C11.1481 29.1488 11.6032 29.2686 11.8666 29.077C12.0056 28.9764 12.1972 29.1728 12.1014 29.3117C11.7612 29.8051 10.9421 29.5944 10.6355 29.1632C10.2906 28.6842 10.2427 27.8362 10.9373 27.6398Z" fill="#2E2E2E"/>
<path d="M12.9831 30.0828C13.1076 30.0493 13.213 30.1642 13.1843 30.284C13.0981 30.6816 12.6477 30.9786 13.1316 31.3188C13.5388 31.6014 14.0178 31.4529 14.2957 31.0792C14.3867 30.9547 14.6166 31.0217 14.564 31.1942C14.3388 31.9128 13.51 32.0613 12.8968 31.726C12.5807 31.5535 12.3843 31.2469 12.4082 30.8876C12.4322 30.5571 12.6525 30.1738 12.9831 30.0828Z" fill="#2E2E2E"/>
<path d="M5.84518 22.6145C6.50627 22.4468 7.20568 22.6624 7.87635 22.6049C8.01528 22.5953 8.0584 22.7965 7.94343 22.8588C7.72306 22.9834 7.45479 22.9882 7.21048 23.0025C7.01407 23.0169 6.81287 23.0073 6.61166 23.0025C6.48232 22.993 6.35298 22.9882 6.22363 22.9977C5.82602 22.9882 5.67751 23.1989 5.76853 23.6205C6.0847 23.7451 6.48711 23.7355 6.82245 23.7834C7.23922 23.8409 7.74701 23.9463 8.12067 24.1283C8.22127 24.1762 8.159 24.3103 8.06799 24.3199C7.38773 24.387 6.62604 24.2385 5.95536 24.1331C5.60566 24.0756 5.20804 23.9415 5.1314 23.5582C5.04996 23.1415 5.46672 22.7151 5.84038 22.6193L5.84518 22.6145Z" fill="#2E2E2E"/>
<path d="M3.29708 21.6276C3.63721 21.0287 4.3558 21.297 4.83485 21.5653C5.17497 21.7521 5.51509 22.1162 5.79773 22.3845C5.90791 22.4899 6.05642 22.6431 6.02768 22.806C5.99894 22.9497 5.7642 22.9497 5.73545 22.806C5.74503 22.8587 5.49594 22.6527 5.43366 22.6096C5.24204 22.4755 5.05521 22.3366 4.86359 22.1976C4.65281 22.0348 4.45639 21.8815 4.2025 21.7856C3.9965 21.6803 3.8432 21.7425 3.74739 21.9677C3.78571 22.0395 3.83362 22.1066 3.88152 22.1737C4.37974 22.8779 5.11748 23.1653 5.74982 23.7019C5.82168 23.7641 5.78815 23.9078 5.69234 23.927C5.41449 23.9749 5.24203 23.9126 5.01687 23.745C4.86358 23.6252 4.66718 23.5869 4.51867 23.4623C4.37017 23.3426 4.22165 23.2228 4.07314 23.103C3.75697 22.8444 3.02403 22.1018 3.2923 21.6276H3.29708Z" fill="#2E2E2E"/>
<path d="M2.08445 20.1281C2.37188 19.285 3.9815 20.9904 4.13001 21.3209C4.18749 21.4455 4.04378 21.5748 3.93359 21.4694C3.68449 21.2251 3.36352 20.9904 3.08088 20.7844C2.95633 20.6934 2.84135 20.5832 2.72637 20.4826C2.60661 20.3772 2.45811 20.2239 2.4629 20.449C2.47727 21.2155 3.3683 21.5748 3.67011 22.2024C3.71801 22.303 3.63658 22.4419 3.51682 22.4036C3.27251 22.3221 3.19106 22.1449 3.00423 21.982C2.79824 21.8 2.56829 21.6467 2.41499 21.4072C2.18026 21.0527 1.94073 20.5592 2.08445 20.1281Z" fill="#2E2E2E"/>
<path d="M0.91109 17.8432C0.944624 17.7138 1.12187 17.6611 1.21768 17.7617C1.51948 18.0923 1.759 18.5234 1.97937 18.9115C2.14703 19.2037 2.52549 19.6731 2.49675 20.0229C2.48717 20.1187 2.35782 20.1714 2.30034 20.0756C2.11351 19.7402 1.84524 19.4432 1.65361 19.0983C1.53864 18.8875 1.40929 18.6671 1.27516 18.4516C1.34702 18.7629 1.50032 19.0695 1.59134 19.333C1.76858 19.8456 2.08955 20.2049 2.37219 20.6552C2.4201 20.7319 2.34345 20.8468 2.25243 20.8133C1.77338 20.6265 1.48116 20.0612 1.3087 19.5965C1.1075 19.0552 0.762584 18.4324 0.91109 17.8336V17.8432Z" fill="#2E2E2E"/>
<path d="M7.23914 26.5666C7.50261 26.375 7.85711 26.2121 8.15413 26.0876C8.4224 25.9774 8.71462 25.7043 9.01163 25.7187C9.14098 25.7235 9.21762 25.8816 9.12181 25.9774C8.54694 26.5331 7.6607 26.6385 7.11458 27.2421C7.0523 27.6349 7.16728 27.7738 7.44992 27.6636C7.54573 27.6397 7.64154 27.6109 7.73256 27.5726C7.94813 27.496 8.14934 27.3762 8.35054 27.266C8.72899 27.06 9.29905 26.9882 9.61523 26.6912C9.69188 26.6193 9.81165 26.7103 9.75895 26.8013C9.47631 27.3283 8.64755 27.5822 8.15413 27.8553C7.75172 28.0756 7.01878 28.3151 6.67386 27.8696C6.28104 27.3618 6.83194 26.8492 7.23914 26.5618V26.5666Z" fill="#2E2E2E"/>
<path d="M5.62048 28.157C5.76419 27.9414 5.98935 27.7929 6.19535 27.6444C6.4205 27.4767 6.54505 27.2899 6.81811 27.1989C6.94745 27.1558 7.01452 27.3187 6.94266 27.4097C6.84685 27.5247 6.77021 27.6875 6.66003 27.7929C6.51631 27.9366 6.32469 28.0564 6.1666 28.1857C5.98935 28.3295 5.88395 28.5115 5.75461 28.6983C5.72108 28.7462 5.47676 29.2013 5.63485 29.1822C6.01809 29.1247 6.3678 28.7654 6.64565 28.5307C6.9235 28.2959 7.14865 28.0277 7.44566 27.8265C7.5271 27.769 7.60376 27.8744 7.57022 27.951C7.32591 28.4828 6.86601 28.8612 6.43008 29.2349C6.19055 29.4409 5.5055 29.8049 5.27556 29.4169C5.01208 28.9666 5.38095 28.5163 5.62048 28.1618V28.157Z" fill="#2E2E2E"/>
<path d="M5.20277 29.623C5.22193 29.4074 5.18361 29.2637 5.32253 29.0865C5.38002 29.0098 5.50457 29.0577 5.52852 29.1392C5.59559 29.3883 5.58601 29.647 5.54289 29.8961C5.51415 30.0733 5.50936 30.2314 5.54289 30.4086C5.54768 30.4374 5.56685 30.7344 5.65308 30.6099C5.80638 30.3895 5.85428 30.0062 5.93093 29.7523C5.99799 29.532 6.05069 29.2398 6.22793 29.0817C6.29021 29.029 6.38603 29.0625 6.39083 29.1487C6.39083 29.6182 6.2519 30.0733 6.10339 30.514C6.02195 30.7584 5.85907 31.1224 5.52852 31.0506C5.22193 30.9835 5.19319 30.6338 5.15966 30.3703C5.12613 30.1116 5.18361 29.8817 5.20757 29.6278L5.20277 29.623Z" fill="#2E2E2E"/>
<path d="M5.50049 30.7056C5.74001 30.8685 5.86936 31.1607 6.02745 31.4003C6.05619 31.4434 6.08493 31.4817 6.11367 31.5248C5.95559 31.2326 5.7975 30.9356 5.84541 30.6146C5.85499 30.5523 5.94121 30.5236 5.98912 30.5571C6.10409 30.6386 6.11846 30.7344 6.18553 30.8541C6.3005 31.0601 6.41069 31.2613 6.53524 31.4625C6.64063 31.6302 6.66459 31.8458 6.73166 32.0326C6.77477 32.1524 6.77956 32.2865 6.68375 32.3823C6.41548 32.6506 6.11368 32.1332 5.98434 31.9751C5.73044 31.6685 5.3424 31.2182 5.32324 30.811C5.32324 30.7248 5.42864 30.6577 5.50528 30.7056H5.50049Z" fill="#2E2E2E"/>
<path d="M9.26996 29.4506C9.38494 29.2494 9.54782 29.0722 9.7107 28.9093C9.91669 28.6985 10.1514 28.459 10.4101 28.32C10.5203 28.2626 10.6736 28.3584 10.6305 28.4877C10.5442 28.7608 10.3766 28.9668 10.1514 29.1488C10.0652 29.2159 9.28434 30.0398 9.76818 30.0782C10.0604 30.1021 10.2664 29.9728 10.5251 29.8386C10.7933 29.6997 11.1431 29.5416 11.349 29.3117C11.4449 29.2063 11.5838 29.3404 11.5311 29.4506C11.3682 29.8099 10.9371 30.0446 10.6209 30.2506C10.2377 30.4997 9.86879 30.6578 9.42806 30.4518C9.01128 30.2602 9.09751 29.762 9.27476 29.4458L9.26996 29.4506Z" fill="#2E2E2E"/>
<path d="M8.35551 30.9691C8.44174 30.5092 8.80582 29.896 9.1699 29.6086C9.26571 29.5319 9.43817 29.599 9.39506 29.7379C9.31362 29.9966 9.19864 30.193 9.05971 30.4182C8.86809 30.72 8.79144 31.0218 8.7148 31.3619C8.70521 31.405 8.69563 31.4482 8.68605 31.4961C8.86809 31.7595 9.00703 31.7643 9.09805 31.5152C9.17469 31.4003 9.25612 31.2853 9.34235 31.1751C9.56272 30.8925 9.64417 30.5715 9.92202 30.3272C9.98429 30.2697 10.1136 30.3272 10.0801 30.4182C9.89327 30.9164 9.28487 32.5883 8.47527 32.114C8.1064 31.8985 8.29803 31.2901 8.3603 30.9691H8.35551Z" fill="#2E2E2E"/>
<path d="M8.26964 31.5489C8.33191 31.4483 8.46126 31.4771 8.49959 31.5777C8.60019 31.8268 8.58581 32.1094 8.58102 32.3729C8.58102 32.5118 8.57623 32.6555 8.58102 32.7945C8.58102 32.8951 8.5954 32.9909 8.61935 33.0867C8.62893 33.1394 8.77264 33.3597 8.83971 33.1921C8.95947 32.8903 8.97864 32.6076 9.02175 32.2867C9.05528 32.0567 9.01216 31.7645 9.22294 31.616C9.27564 31.5825 9.34271 31.6304 9.3475 31.6879C9.35708 32.2819 9.5535 33.5753 8.66726 33.6089C8.30797 33.6232 8.22173 33.1777 8.19299 32.9046C8.16903 32.6555 8.16904 32.4064 8.17383 32.1573C8.17383 31.9274 8.14029 31.7405 8.26964 31.5393V31.5489Z" fill="#2E2E2E"/>
<path d="M8.6137 33.2973C8.84843 33.4506 9.00173 33.7189 9.21251 33.9057C9.3227 34.0063 9.44246 34.0973 9.5718 34.1788C9.56222 34.1644 9.54785 34.15 9.53827 34.1357C9.43766 34.0063 9.36103 33.8674 9.25085 33.7428C9.12629 33.5991 8.94424 33.3404 9.0161 33.1488C9.04005 33.0865 9.11191 33.0578 9.16461 33.1105C9.42329 33.3692 9.6245 33.671 9.84007 33.9584C9.979 34.1452 10.2952 34.5524 9.93589 34.6914C9.73948 34.768 9.38498 34.4806 9.25085 34.3704C8.94425 34.1213 8.54185 33.8482 8.40771 33.4602C8.36939 33.3452 8.5131 33.235 8.6137 33.3021V33.2973Z" fill="#2E2E2E"/>
<path d="M12.5189 30.8495C12.6434 30.7824 12.7967 30.9213 12.7201 31.0507C12.6243 31.204 12.538 31.3237 12.4183 31.4579C12.2698 31.6303 12.059 31.7549 11.9919 31.9752C11.8482 32.4591 12.5141 32.1956 12.6913 32.0854C12.9356 31.9369 13.1752 31.7693 13.4291 31.6303C13.5105 31.5872 13.6398 31.683 13.5728 31.774C13.1943 32.2723 12.3129 33.0531 11.6997 32.4687C11.1105 31.9034 12.0781 31.0842 12.5189 30.8495Z" fill="#2E2E2E"/>
<path d="M11.5889 31.8793C11.6512 31.7787 11.8045 31.7931 11.838 31.9129C11.9051 32.1476 11.8763 32.3871 11.7805 32.6123C11.6895 32.8183 11.6608 33.0291 11.6512 33.2494C11.6512 33.2734 11.7278 34.0015 11.9482 33.7045C12.1542 33.4267 12.2021 32.9524 12.3123 32.6315C12.3458 32.5356 12.4177 32.4111 12.5231 32.3776C12.5614 32.3632 12.5997 32.3919 12.6141 32.4303C12.7195 32.7321 12.5278 33.2255 12.4656 33.5225C12.4033 33.8243 12.1159 34.3321 11.7278 34.2267C10.8655 33.9872 11.2727 32.3776 11.5889 31.8841V31.8793Z" fill="#2E2E2E"/>
<path d="M11.6699 33.81C11.8903 33.9825 12.0052 34.2603 12.1873 34.4663C12.2927 34.5861 12.4603 34.6963 12.5945 34.7825C12.7046 34.8544 12.6663 34.8256 12.6328 34.7298C12.5849 34.5957 12.513 34.4807 12.4316 34.3609C12.307 34.1741 12.1969 33.9777 12.0771 33.7861C12.034 33.719 12.101 33.6471 12.1729 33.6615C12.5705 33.7525 13.4232 34.8879 12.8436 35.1705C12.604 35.2855 12.3358 35.0556 12.1633 34.9214C11.8567 34.6819 11.531 34.337 11.4256 33.9489C11.3825 33.7957 11.5597 33.7238 11.6699 33.8052V33.81Z" fill="#2E2E2E"/>
<path d="M12.6567 34.9693C12.8579 35.0651 13.0639 35.1369 13.2746 35.2184C13.4184 35.2759 13.5381 35.3669 13.6818 35.4244C13.7106 35.4339 13.7585 35.4531 13.8208 35.4723C13.5142 35.228 13.0687 35.1274 12.8291 34.816C12.7908 34.7681 12.8435 34.6818 12.901 34.6914C13.1501 34.7154 13.4375 34.8639 13.6483 34.9836C13.8926 35.1226 14.18 35.295 14.319 35.5489C14.3669 35.6351 14.3333 35.7214 14.2615 35.7789C14.0124 35.9705 13.5477 35.7405 13.313 35.616C13.0639 35.4771 12.4603 35.4723 12.4698 35.0794C12.4698 34.9788 12.5752 34.9309 12.6615 34.9693H12.6567Z" fill="#2E2E2E"/>
</svg>
