<svg width="34" height="38" viewBox="0 0 34 38" fill="none" xmlns="http://www.w3.org/2000/svg">
<path d="M32.1841 4.45237C30.4248 1.07415 26.0091 -1.15627 22.6008 1.27464C21.6485 1.95128 20.8866 2.87855 20.5157 3.94614C19.7388 3.83086 18.8066 4.72804 18.2953 5.43977C18.155 5.37962 17.9795 5.35457 17.8392 5.34455C17.6788 5.32951 17.4833 5.31948 17.3029 5.33452C17.1225 5.31948 16.932 5.33453 16.7716 5.34455C16.6263 5.35457 16.4558 5.37962 16.3155 5.43977C15.8043 4.72804 14.872 3.83086 14.0951 3.94614C13.7242 2.87855 12.9623 1.95128 12.01 1.27464C8.60173 -1.15627 4.18599 1.07415 2.42671 4.45237C1.47439 6.2768 1.23381 8.09122 0.908015 10.0911C0.602272 11.9857 0.737606 14.1359 1.46939 15.9102C1.5145 16.0255 1.62978 16.0506 1.72 16.0155C1.86034 16.0807 2.08588 15.9954 2.06583 15.81C1.90043 14.0958 2.13099 12.1862 2.79761 10.5923C3.23869 9.53473 3.81508 8.52228 4.53183 7.63011C4.88769 7.18903 5.24858 6.74294 5.74478 6.45724C5.93024 6.35199 6.88756 5.83574 7.33866 5.90591C7.38377 6.25677 7.37374 6.62265 7.40883 6.98353C7.03291 7.30431 6.88756 7.8807 6.76226 8.33681C6.65199 8.73779 6.74722 9.13877 6.92265 9.49965C6.52167 9.53974 6.11568 9.57984 5.68463 9.55979C5.52424 9.49463 5.29869 9.57483 5.32376 9.78033C5.49918 11.1286 5.74478 12.2664 6.84747 13.1836C7.33365 13.5896 7.83988 13.9805 8.40626 14.2612C9.23327 14.6722 9.87984 15.2236 9.95001 16.1208C9.41872 17.0931 8.9175 18.0805 9.22324 19.2333C9.37361 19.7947 9.64928 20.2959 10.1355 20.6468C10.3109 20.7721 10.5064 20.8924 10.6968 21.0126C10.5866 21.559 10.4362 22.0903 10.2608 22.6166C10.0653 23.203 9.71945 23.6842 9.48388 24.2455C9.0428 25.3081 8.93254 26.1501 9.25833 27.2478C9.26835 27.2829 9.2884 27.308 9.31346 27.328C9.23828 27.729 9.22826 28.14 9.32349 28.576C9.33351 28.6262 9.35857 28.6562 9.39366 28.6713C9.44879 29.9895 10.1856 30.7163 10.7119 31.9142C10.7269 31.9492 10.752 31.9643 10.777 31.9693C11.2181 33.067 12.0702 33.7637 12.842 34.6207C12.8671 34.6458 12.8922 34.6608 12.9222 34.6608C13.4385 35.4879 14.2104 36.1294 15.1176 36.4903C15.2629 36.5504 15.4484 36.37 15.3882 36.2196C15.3732 36.1845 15.3582 36.1445 15.3381 36.1044C15.699 36.4151 16.11 36.6858 16.5461 36.9364C16.7215 37.197 16.8668 37.4777 17.0824 37.7083C17.1425 37.7784 17.2628 37.7534 17.3079 37.6832C17.353 37.7534 17.4733 37.7784 17.5335 37.7083C17.744 37.4777 17.8893 37.197 18.0647 36.9364C18.5008 36.6908 18.9118 36.4201 19.2727 36.1044C19.2576 36.1445 19.2376 36.1795 19.2226 36.2196C19.1624 36.37 19.3479 36.5504 19.4932 36.4903C20.4004 36.1344 21.1723 35.4929 21.6886 34.6608C21.7186 34.6608 21.7437 34.6458 21.7688 34.6207C22.5406 33.7637 23.3877 33.067 23.8338 31.9693C23.8588 31.9693 23.8839 31.9492 23.8989 31.9142C24.4202 30.7163 25.162 29.9895 25.2171 28.6713C25.2472 28.6562 25.2773 28.6262 25.2873 28.576C25.3825 28.14 25.3725 27.729 25.2973 27.328C25.3224 27.308 25.3425 27.2829 25.3525 27.2478C25.6783 26.1501 25.568 25.3031 25.1269 24.2455C24.8914 23.6842 24.5505 23.203 24.35 22.6166C24.1746 22.0903 24.0242 21.554 23.914 21.0126C24.1095 20.8924 24.2999 20.7721 24.4753 20.6468C24.9615 20.3009 25.2372 19.7997 25.3876 19.2333C25.6983 18.0805 25.1921 17.0931 24.6608 16.1208C24.731 15.2236 25.3775 14.6722 26.2045 14.2612C26.7759 13.9805 27.2772 13.5896 27.7633 13.1836C28.866 12.2664 29.1166 11.1286 29.287 9.78033C29.3121 9.56982 29.0866 9.48962 28.9262 9.55979C28.4951 9.57984 28.0891 9.53974 27.6882 9.49965C27.8636 9.14378 27.9588 8.73779 27.8485 8.33681C27.7232 7.8807 27.5829 7.30431 27.202 6.98353C27.2421 6.62265 27.232 6.26178 27.2721 5.90591C27.7232 5.83574 28.6806 6.34697 28.866 6.45724C29.3672 6.74294 29.7231 7.18903 30.079 7.63011C30.8007 8.52228 31.3721 9.53473 31.8132 10.5923C32.4798 12.1862 32.7104 14.0958 32.545 15.81C32.5249 15.9954 32.7505 16.0807 32.8908 16.0155C32.976 16.0506 33.0913 16.0205 33.1414 15.9102C33.8732 14.1359 34.0085 11.9857 33.7028 10.0911C33.382 8.09623 33.1364 6.2768 32.1841 4.45237Z" fill="white"/>
<path d="M21.2631 22.2206C20.8872 20.8874 20.2807 19.6343 19.8848 18.3061C19.4738 16.9227 19.3084 15.6797 19.2582 14.2462C19.2582 14.2262 19.2232 14.2262 19.2232 14.2462C19.178 15.2486 19.0678 16.1508 19.2232 17.1533C19.4036 18.3161 19.8697 19.4338 20.2607 20.5315C20.6316 21.5841 20.8722 22.6667 21.1428 23.7443C21.2832 24.3007 21.2731 25.0124 21.0927 25.5587C20.9073 26.1201 20.376 26.4659 20.0552 26.9371C19.9549 27.0824 20.1404 27.2077 20.2707 27.1526C22.3207 26.2404 21.7343 23.8997 21.2581 22.2156L21.2631 22.2206Z" fill="#2E2E2E"/>
<path d="M20.4158 26.7215C20.3105 26.7917 20.2002 26.8518 20.085 26.9019C19.8444 26.8017 19.5837 26.7766 19.3832 26.5912C19.2128 26.4408 19.0324 26.2604 18.7918 26.2303C18.5011 26.1952 17.8295 26.3155 18.0199 26.7816C18.1853 27.1876 18.6464 27.343 19.0524 27.338C19.6439 27.338 20.1451 27.4332 20.5661 26.917C20.6513 26.8117 20.5411 26.6363 20.4158 26.7215ZM18.8018 26.9621C18.7116 26.937 18.6264 26.9019 18.5512 26.8518C18.4861 26.6463 18.5262 26.5611 18.6765 26.5862C18.9021 26.5761 19.1878 26.8568 19.4283 26.9921C19.3883 26.9921 19.3431 26.9821 19.293 26.9821C19.1276 26.9821 18.9622 26.9972 18.8018 26.9571V26.9621Z" fill="#2E2E2E"/>
<path d="M19.935 24.8019C19.524 24.6866 19.0879 24.8019 18.6769 24.8019C18.1757 24.8019 17.5592 24.7768 17.073 24.8921C16.9627 24.9172 16.9277 25.0976 17.0379 25.1477C17.5893 25.3983 18.0855 25.3031 18.6769 25.253C19.544 25.1828 20.9374 25.2279 20.2808 26.5561C19.9149 27.2929 19.2533 27.3781 18.6168 27.739C18.3712 27.8743 18.1607 27.9996 17.9451 28.1751C17.7196 28.3605 17.5391 28.8116 17.1732 28.7615C17.1031 28.7515 17.0479 28.8267 17.1031 28.8818C17.2534 29.0322 17.3838 29.1575 17.6193 29.0221C18.0554 28.7665 18.3661 28.3505 18.8273 28.0949C19.2032 27.8894 19.6493 27.8443 19.9801 27.5636C20.341 27.2578 20.752 26.8168 20.8672 26.3456C21.0477 25.5938 20.6718 25.0174 19.935 24.8069V24.8019Z" fill="#2E2E2E"/>
<path d="M24.1855 20.301C22.3711 20.9576 21.9752 22.8772 21.8198 24.6115C21.7095 25.8645 21.6293 27.0424 21.083 28.2002C20.4164 29.6136 18.5268 30.5459 17.5243 28.8869C17.4542 28.7666 17.2186 28.8067 17.2386 28.9671C17.3539 29.8492 18.0005 30.2151 18.8225 30.2502C20.0655 30.3053 20.9477 29.4432 21.484 28.4358C22.0654 27.3481 22.2258 26.0951 22.2809 24.8821C22.316 24.1153 22.4513 23.4887 22.6468 22.762C22.7571 22.356 22.8974 21.9751 23.1029 21.6092C23.3736 21.128 23.8898 20.9275 24.3108 20.6167C24.4562 20.5115 24.376 20.2308 24.1805 20.301H24.1855Z" fill="#2E2E2E"/>
<path d="M19.9602 29.7689C19.9101 29.7138 19.8098 29.7138 19.7597 29.7689C19.6143 29.9293 19.6244 30.0696 19.5742 30.2801C19.474 30.7162 19.4389 31.0119 19.1432 31.3778C18.637 32.0093 17.825 32.0144 17.1032 32.1046C16.9128 32.1296 16.8225 32.4354 17.0531 32.4755C17.8049 32.6058 18.8124 32.4254 19.3587 31.8439C19.6745 31.5081 19.9101 31.1422 20.0454 30.6961C20.1256 30.4305 20.1556 29.9844 19.9552 29.7689H19.9602Z" fill="#2E2E2E"/>
<path d="M23.3782 15.4791C23.0474 14.7473 22.481 14.2912 21.669 14.2261C20.9422 14.1659 20.3458 14.6722 19.9548 15.2235C19.3584 16.0706 19.4286 16.9276 19.5188 17.905C19.5238 17.9802 19.629 17.9802 19.6341 17.905C19.6942 17.2735 19.6391 16.662 19.8947 16.0655C20.1102 15.5643 20.421 15.1483 20.8821 14.8476C21.4485 14.4817 22.1502 14.6722 22.6013 15.1082C23.1927 15.6796 23.1175 16.4816 22.7967 17.1482C22.7115 17.3286 22.917 17.479 23.0674 17.3587C23.6238 16.9076 23.6588 16.1006 23.3782 15.4741V15.4791Z" fill="#2E2E2E"/>
<path d="M22.967 16.9177C22.5861 17.1533 22.2152 16.9027 21.8192 16.8275C21.4583 16.7624 21.2077 16.9077 20.9671 17.1684C20.6815 17.4791 20.6714 17.8149 20.5912 18.1958C20.5561 18.3713 20.6313 18.5066 20.6013 18.677C20.5712 18.8524 20.5161 18.8976 20.6013 19.0579C20.6213 19.098 20.6764 19.1281 20.7215 19.1231C20.7366 19.1231 20.7516 19.1231 20.7667 19.1231C20.907 19.1131 20.9321 18.9527 20.8469 18.8875C20.8519 18.7973 20.917 18.7071 20.917 18.6118C20.917 18.4565 20.8819 18.3362 20.917 18.1808C21.0624 17.6295 21.2879 17.1282 21.9596 17.3187C22.3555 17.429 23.1324 17.6896 23.1926 17.048C23.2026 16.9328 23.0572 16.8626 22.967 16.9177Z" fill="#2E2E2E"/>
<path d="M22.8268 17.0179C22.4008 17.3136 22.3356 17.8499 22.0599 18.2559C21.8544 18.5616 21.4885 18.7371 21.1227 18.7421C20.9222 18.7421 20.7768 18.7922 20.6114 18.8974C20.5412 18.9426 20.5362 19.0779 20.6365 19.0979C21.1377 19.1882 21.6139 19.143 22.0549 18.8824C22.3005 18.7371 22.4759 18.4463 22.6163 18.2058C22.7817 17.905 22.9621 17.5191 23.0373 17.1833C23.0624 17.068 22.9371 16.9427 22.8268 17.0179Z" fill="#2E2E2E"/>
<path d="M33.7033 10.0911C33.3825 8.09627 33.1369 6.27685 32.1846 4.45241C30.4253 1.07419 26.0096 -1.15623 22.6013 1.27468C21.1778 2.29216 20.1654 3.85597 20.2807 5.64031C20.3809 7.18908 21.5437 8.83808 23.0624 9.27915C24.5962 9.72524 26.2502 9.28918 26.987 7.78051C27.4531 6.82318 26.9569 5.76561 27.6736 4.8985C28.6009 3.77577 30.6559 4.54264 31.1822 5.71549C31.1972 5.75559 31.2574 5.72551 31.2473 5.69042C30.9366 4.6128 29.8539 4.01135 28.8064 3.91612C27.5784 3.80084 26.8115 4.96366 26.6712 6.03627C26.6161 6.47233 26.6963 6.88834 26.581 7.33944C26.4557 7.83564 26.0647 8.25165 25.6587 8.52733C24.7265 9.16387 23.4434 8.95838 22.5362 8.42207C20.3959 7.159 20.4561 4.35218 21.8946 2.62798C23.2429 1.01907 25.1174 0.477755 27.1223 0.92384C29.1723 1.37995 30.7612 2.93373 31.7385 4.71305C32.6508 6.37209 32.8512 8.07624 33.1419 9.90068C33.4527 11.8554 33.2622 13.9004 32.7961 15.81C32.741 16.0406 33.0567 16.1158 33.1419 15.9053C33.8737 14.131 34.0091 11.9807 33.7033 10.0861V10.0911Z" fill="#2E2E2E"/>
<path d="M31.8837 9.40436C31.2772 8.20143 30.4452 6.98848 29.3375 6.19656C28.7861 5.80059 27.493 5.23422 26.8815 5.79057C26.8314 5.83568 26.8314 5.90585 26.8615 5.966C26.8765 5.99106 26.8865 6.01612 26.9016 6.03616C26.9366 6.10132 27.0369 6.10132 27.072 6.03616C27.2975 5.61013 28.6458 6.33189 28.8663 6.4622C29.3676 6.7479 29.7234 7.19398 30.0793 7.63505C30.801 8.52722 31.3724 9.53969 31.8135 10.5973C32.4801 12.1911 32.7107 14.1008 32.5453 15.815C32.5202 16.0756 32.9613 16.1307 32.9964 15.8751C33.3322 13.6647 32.8811 11.3892 31.8787 9.40436H31.8837Z" fill="#2E2E2E"/>
<path d="M28.9322 9.55977C27.7894 9.60989 26.8171 9.24902 25.6943 9.58984C24.3611 10.0008 23.2083 11.0634 21.7548 10.7326C19.9002 10.3116 18.5069 9.28411 18.2512 7.3093C18.151 6.54244 18.6923 5.7405 19.2035 5.23426C19.5243 4.9185 20.2711 4.30701 20.7674 4.32204C20.9127 4.32204 20.9628 4.12155 20.8425 4.05138C19.8351 3.46495 18.3765 5.15908 18.0006 5.92093C17.2488 7.45466 17.9856 9.23398 19.2286 10.2665C20.4516 11.284 22.4264 11.6449 23.8749 11.0133C24.7621 10.6274 25.8297 9.80036 26.8672 9.95574C27.5338 10.056 28.431 10.3517 29.0475 9.97078C29.2279 9.86051 29.1628 9.54475 28.9372 9.55477L28.9322 9.55977Z" fill="#2E2E2E"/>
<path d="M27.8441 8.34183C27.6988 7.82056 27.5334 7.12888 27.0121 6.85822C26.8918 6.79808 26.7314 6.92838 26.8116 7.05369C27.0622 7.43963 27.2026 7.84563 27.3128 8.2867C27.4482 8.823 27.2076 9.18888 27.0422 9.67005C27.0422 9.67005 27.0422 9.67006 27.0422 9.67507C26.947 9.94072 27.3329 10.066 27.4732 9.85552C27.7689 9.42447 27.9895 8.87813 27.8441 8.33681V8.34183Z" fill="#2E2E2E"/>
<path d="M23.9648 14.7524C23.9297 14.6672 23.8044 14.6972 23.8295 14.7925C24.1854 16.231 25.1076 17.5542 24.8319 19.0929C24.5964 20.4312 22.9123 20.6517 22.5815 21.9699C22.5614 22.0602 22.6817 22.1103 22.7268 22.0301C23.1127 21.4036 23.8746 21.0728 24.461 20.6517C24.9472 20.3059 25.2229 19.8047 25.3732 19.2383C25.8243 17.5442 24.5312 16.2059 23.9598 14.7524H23.9648Z" fill="#2E2E2E"/>
<path d="M28.7815 9.71513C28.7815 9.71513 28.7665 9.75524 28.7615 9.77529C28.7314 9.83043 28.7314 9.90059 28.7515 9.95572C28.6512 10.7326 28.5259 11.4293 28.0999 12.121C27.6337 12.8778 26.7466 13.4793 25.9747 13.8803C24.872 14.4467 24.1052 15.2686 24.5663 16.5367C24.5863 16.5869 24.6715 16.5818 24.6665 16.5217C24.5513 15.3839 25.258 14.7323 26.2053 14.2612C26.7767 13.9805 27.2779 13.5896 27.7641 13.1836C28.8667 12.2663 29.1174 11.1286 29.2878 9.78029C29.3279 9.48457 28.8667 9.44447 28.7866 9.71513H28.7815Z" fill="#2E2E2E"/>
<path d="M28.1347 10.6324C27.2425 11.0334 26.2401 10.903 25.363 11.4043C24.6913 11.7902 24.2954 12.7626 24.0899 13.4693C24.0748 13.5244 24.155 13.5595 24.1851 13.5094C24.6813 12.6523 25.2527 11.7852 26.2501 11.4794C26.8967 11.2789 27.859 11.4443 28.3452 10.898C28.4806 10.7477 28.3152 10.5522 28.1397 10.6324H28.1347Z" fill="#2E2E2E"/>
<path d="M28.23 10.7025C28.1047 10.7276 27.9994 10.7727 27.9393 10.903C27.7789 11.2539 27.403 11.5496 27.1574 11.8503C26.6562 12.4719 25.9344 12.9179 25.2528 13.3139C25.2127 13.334 25.2377 13.4041 25.2828 13.3891C25.9545 13.1385 26.601 12.8428 27.1624 12.3866C27.6386 12.0007 28.2099 11.4644 28.3954 10.868C28.4255 10.7677 28.3302 10.6875 28.235 10.7076L28.23 10.7025Z" fill="#2E2E2E"/>
<path d="M18.4268 5.51501C18.2714 5.39472 18.0308 5.35963 17.8404 5.3446C17.5998 5.32455 17.289 5.30449 17.0584 5.38469C16.883 5.44483 16.883 5.6754 17.0584 5.73555C17.269 5.81073 17.5296 5.78064 17.7501 5.78566C17.8604 5.78566 17.9907 5.82075 18.101 5.84581C18.1912 5.87088 18.2363 5.92601 18.3366 5.93603C18.4168 5.94104 18.502 5.87588 18.517 5.79569C18.517 5.78566 18.517 5.77564 18.522 5.76562C18.5471 5.65535 18.502 5.57515 18.4168 5.50999L18.4268 5.51501Z" fill="#2E2E2E"/>
<path d="M19.5241 33.7135C19.5241 33.6433 19.4238 33.6483 19.4188 33.7135C19.3336 34.6407 18.8174 35.3625 18.2209 36.0391C17.8049 36.5203 17.3438 36.9464 17.2836 37.603C17.2736 37.7283 17.449 37.7934 17.5292 37.7032C17.7999 37.4025 17.9603 37.0265 18.2259 36.7108C18.4715 36.4201 18.7572 36.1244 18.9627 35.8036C19.3737 35.167 19.5792 34.4603 19.5191 33.7085L19.5241 33.7135Z" fill="#2E2E2E"/>
<path d="M20.4465 33.7084C20.2811 34.5154 19.7999 35.2271 19.1433 35.7283C18.617 36.1293 17.9504 36.42 17.5946 36.9914C17.5394 37.0766 17.6447 37.1668 17.7249 37.1217C19.1333 36.3699 20.4214 35.4276 20.5116 33.7134C20.5116 33.6733 20.4515 33.6683 20.4465 33.7034V33.7084Z" fill="#2E2E2E"/>
<path d="M22.5818 28.9218C22.5818 28.9218 22.5668 28.9017 22.5568 28.9117C22.0505 30.0946 22.3312 31.3326 22.0706 32.5606C21.7899 33.8888 20.9479 35.0868 19.8201 35.8085C19.8953 35.5679 19.9655 35.3273 20.0156 35.0667C20.0156 35.0467 20.0156 35.0316 20.0156 35.0116C19.8652 35.2371 19.6698 35.4326 19.4743 35.6331C19.3841 35.8286 19.3039 36.024 19.2237 36.2145C19.1635 36.3649 19.349 36.5453 19.4943 36.4852C20.6321 36.0391 21.5543 35.1469 22.0255 33.9991C22.3362 33.2423 22.5768 32.5957 22.5718 31.7637C22.5718 30.8114 22.3312 29.8591 22.5768 28.9168L22.5818 28.9218Z" fill="#2E2E2E"/>
<path d="M23.9099 28.4858C23.9099 28.4858 23.8848 28.4858 23.8848 28.4959C24.2958 29.7038 23.8848 31.1874 23.2483 32.235C22.9325 32.7562 22.5917 33.1622 22.1256 33.5582C21.8248 33.8138 21.6243 34.1045 21.5291 34.4854C21.499 34.6157 21.6644 34.731 21.7647 34.6208C22.5416 33.7587 23.3987 33.057 23.8397 31.9493C24.2758 30.8516 24.4111 29.5885 23.9099 28.4858Z" fill="#2E2E2E"/>
<path d="M24.6716 26.7716C24.2606 25.9296 23.8496 25.1025 23.5639 24.2054C23.5438 24.1502 23.4636 24.1703 23.4736 24.2304C23.7443 25.5236 24.3959 26.6814 24.6415 27.9695C24.7868 28.7364 24.7066 29.4481 24.3608 30.1548C24.0801 30.7212 23.8095 31.2074 23.6992 31.8339C23.6791 31.9392 23.8395 32.0294 23.8897 31.9141C24.441 30.656 25.2329 29.9193 25.2079 28.4657C25.1978 27.8943 24.9172 27.2778 24.6665 26.7716H24.6716Z" fill="#2E2E2E"/>
<path d="M23.8697 24.2105C23.8697 24.2105 23.8246 24.2055 23.8296 24.2256C24.0552 24.832 24.2607 25.4385 24.4912 26.04C24.812 26.887 24.8772 27.6489 24.9824 28.5411C25.0025 28.6964 25.238 28.7616 25.2781 28.5811C25.629 26.9472 24.5363 25.6139 23.8697 24.2105Z" fill="#2E2E2E"/>
<path d="M25.1176 24.2505C24.882 23.6891 24.5412 23.2079 24.3407 22.6215C24.1402 22.0301 23.9748 21.4286 23.8645 20.8171C23.8394 20.6818 23.659 20.7319 23.644 20.8472C23.5538 21.7143 23.8595 22.8421 24.2454 23.6189C24.5863 24.3056 24.9622 24.9722 25.0624 25.7541C25.1226 26.2152 25.0173 26.7415 25.0173 27.2127C25.0173 27.4031 25.288 27.4332 25.3431 27.2578C25.6689 26.1601 25.5586 25.3131 25.1176 24.2555V24.2505Z" fill="#2E2E2E"/>
<path d="M13.3437 22.2206C13.7196 20.8874 14.326 19.6343 14.722 18.3061C15.133 16.9227 15.2984 15.6797 15.3485 14.2462C15.3485 14.2262 15.3786 14.2262 15.3836 14.2462C15.4287 15.2487 15.539 16.1509 15.3836 17.1533C15.2032 18.3161 14.732 19.4338 14.3461 20.5315C13.9752 21.5841 13.7346 22.6667 13.4639 23.7443C13.3236 24.3007 13.3336 25.0124 13.5141 25.5587C13.6995 26.1201 14.2308 26.4659 14.5516 26.9371C14.6518 27.0824 14.4664 27.2077 14.3361 27.1526C12.2861 26.2404 12.8725 23.8997 13.3487 22.2156L13.3437 22.2206Z" fill="#2E2E2E"/>
<path d="M14.0407 26.9221C14.4617 27.4434 14.9629 27.3431 15.5543 27.3431C15.9653 27.3431 16.4265 27.1928 16.5869 26.7868C16.7773 26.3206 16.1057 26.2003 15.815 26.2354C15.5794 26.2655 15.394 26.4459 15.2235 26.5963C15.0231 26.7767 14.7624 26.8068 14.5218 26.9071C14.4066 26.8569 14.2963 26.7968 14.191 26.7266C14.0607 26.6414 13.9555 26.8219 14.0407 26.9221ZM15.3188 26.9873C15.2737 26.9873 15.2286 26.9873 15.1834 26.9973C15.424 26.8619 15.7097 26.5813 15.9353 26.5913C16.0856 26.5612 16.1307 26.6514 16.0606 26.8569C15.9804 26.9071 15.8952 26.9421 15.81 26.9672C15.6496 27.0023 15.4792 26.9872 15.3188 26.9923V26.9873Z" fill="#2E2E2E"/>
<path d="M14.6765 24.802C15.0875 24.6867 15.5236 24.802 15.9346 24.802C16.4358 24.802 17.0523 24.7769 17.5385 24.8922C17.6487 24.9173 17.6838 25.0977 17.5735 25.1478C17.0222 25.3984 16.526 25.3032 15.9346 25.2531C15.0674 25.1829 13.6741 25.228 14.3307 26.5562C14.6915 27.293 15.3582 27.3782 15.9897 27.7391C16.2353 27.8744 16.4458 27.9998 16.6613 28.1752C16.8869 28.3606 17.0673 28.8117 17.4332 28.7616C17.5034 28.7516 17.5635 28.8268 17.5034 28.8819C17.353 29.0323 17.2227 29.1576 16.9871 29.0222C16.5511 28.7666 16.2403 28.3506 15.7792 28.095C15.4033 27.8895 14.9572 27.8444 14.6264 27.5637C14.2655 27.2579 13.8545 26.8169 13.7392 26.3457C13.5588 25.5939 13.9347 25.0175 14.6715 24.807L14.6765 24.802Z" fill="#2E2E2E"/>
<path d="M10.4265 20.301C12.2409 20.9576 12.6368 22.8772 12.7922 24.6115C12.9025 25.8645 12.9827 27.0424 13.529 28.2002C14.1956 29.6136 16.0852 30.5459 17.0877 28.8869C17.1628 28.7666 17.3934 28.8067 17.3734 28.9671C17.2581 29.8492 16.6115 30.2151 15.7845 30.2502C14.5415 30.3053 13.6593 29.4432 13.123 28.4358C12.5416 27.3481 12.3862 26.0951 12.3261 24.8821C12.291 24.1153 12.1557 23.4887 11.9602 22.762C11.8499 22.356 11.7096 21.9751 11.5041 21.6092C11.2334 21.128 10.7172 20.9275 10.2961 20.6167C10.1508 20.5115 10.231 20.2308 10.4265 20.301Z" fill="#2E2E2E"/>
<path d="M14.6468 29.7689C14.697 29.7138 14.7972 29.7138 14.8473 29.7689C14.9927 29.9293 14.9827 30.0696 15.0328 30.2801C15.133 30.7162 15.1681 31.0119 15.4638 31.3778C15.9701 32.0093 16.782 32.0144 17.5038 32.1046C17.6943 32.1296 17.7845 32.4354 17.5539 32.4755C16.8021 32.6058 15.7946 32.4254 15.2433 31.8439C14.9275 31.5081 14.697 31.1422 14.5566 30.6961C14.4764 30.4305 14.4464 29.9844 14.6468 29.7689Z" fill="#2E2E2E"/>
<path d="M11.2281 15.4791C11.5589 14.7473 12.1252 14.2912 12.9372 14.2261C13.664 14.1659 14.2604 14.6722 14.6514 15.2235C15.2478 16.0706 15.1777 16.9276 15.0874 17.905C15.0824 17.9802 14.9772 17.9802 14.9722 17.905C14.912 17.2735 14.9672 16.662 14.7065 16.0655C14.491 15.5643 14.1802 15.1483 13.7191 14.8476C13.1527 14.4817 12.451 14.6722 11.9999 15.1082C11.4085 15.6796 11.4837 16.4816 11.8045 17.1482C11.8897 17.3286 11.6842 17.479 11.5338 17.3587C10.9774 16.9076 10.9424 16.1006 11.223 15.4741L11.2281 15.4791Z" fill="#2E2E2E"/>
<path d="M11.6394 16.9177C12.0203 17.1532 12.3912 16.9026 12.7872 16.8274C13.148 16.7623 13.3986 16.9076 13.6392 17.1683C13.9249 17.479 13.94 17.8148 14.0151 18.1958C14.0502 18.3712 13.975 18.5065 14.0051 18.6769C14.0352 18.8524 14.0903 18.8975 14.0051 19.0579C13.9851 19.098 13.9299 19.128 13.8848 19.123C13.8698 19.123 13.8548 19.123 13.8397 19.123C13.6994 19.113 13.6743 18.9526 13.7645 18.8875C13.7595 18.7972 13.6944 18.707 13.6944 18.6118C13.6944 18.4564 13.7295 18.3361 13.6944 18.1807C13.549 17.6294 13.3235 17.1282 12.6518 17.3186C12.2559 17.4289 11.479 17.6895 11.4188 17.048C11.4088 16.9327 11.5542 16.8625 11.6444 16.9177H11.6394Z" fill="#2E2E2E"/>
<path d="M11.7793 17.0179C12.2103 17.3136 12.2705 17.8499 12.5462 18.2559C12.7517 18.5617 13.1176 18.7371 13.4834 18.7421C13.6839 18.7421 13.8293 18.7922 13.9947 18.8975C14.0649 18.9426 14.0699 19.0779 13.9696 19.098C13.4684 19.1882 12.9922 19.1431 12.5512 18.8824C12.3056 18.7371 12.1302 18.4464 11.9898 18.2058C11.8244 17.9051 11.644 17.5191 11.5688 17.1833C11.5437 17.068 11.669 16.9427 11.7793 17.0179Z" fill="#2E2E2E"/>
<path d="M0.903135 10.0911C1.22391 8.09623 1.46951 6.2768 2.42183 4.45237C4.18111 1.07415 8.59684 -1.15627 12.0051 1.27464C13.4286 2.29211 14.4411 3.85593 14.3258 5.64027C14.2255 7.18903 13.0627 8.83804 11.544 9.27911C10.0103 9.72519 8.35626 9.28914 7.61947 7.78047C7.14832 6.82314 7.64954 5.76557 6.9328 4.89846C6.00554 3.77573 3.95054 4.54259 3.42928 5.71545C3.41424 5.75554 3.3541 5.72546 3.36412 5.69038C3.67488 4.61276 4.75751 4.0113 5.80506 3.91607C7.03304 3.80079 7.79991 4.96361 7.94025 6.03622C7.99538 6.47228 7.91519 6.88829 8.03047 7.33939C8.15578 7.8356 8.54672 8.25161 8.95271 8.52728C9.87997 9.16383 11.1681 8.95833 12.0753 8.42203C14.2155 7.15896 14.1554 4.35213 12.7169 2.62794C11.3686 1.01902 9.49403 0.477709 7.48915 0.923794C5.43917 1.3799 3.84529 2.93368 2.86791 4.71301C1.95569 6.37204 1.76022 8.07619 1.4645 9.90063C1.15374 11.8554 1.34421 13.9003 1.81034 15.81C1.86547 16.0406 1.5497 16.1157 1.4645 15.9052C0.732718 14.1309 0.597391 11.9807 0.903135 10.0861V10.0911Z" fill="#2E2E2E"/>
<path d="M2.7276 9.4044C3.33408 8.20148 4.1661 6.98853 5.2738 6.1966C5.82514 5.80064 7.11828 5.23426 7.72977 5.79062C7.77989 5.83573 7.77989 5.9059 7.74982 5.96605C7.73478 5.99111 7.72476 6.01616 7.70972 6.03621C7.67464 6.10137 7.57439 6.10137 7.5393 6.03621C7.31375 5.61017 5.96548 6.33193 5.74494 6.46225C5.24874 6.74794 4.88785 7.19403 4.53199 7.6351C3.81023 8.52727 3.23884 9.53973 2.79777 10.5973C2.13115 12.1912 1.90059 14.1008 2.06599 15.815C2.09105 16.0756 1.64998 16.1308 1.61489 15.8751C1.27908 13.6648 1.73017 11.3892 2.73261 9.4044H2.7276Z" fill="#2E2E2E"/>
<path d="M5.68045 9.55988C6.82824 9.61 7.79559 9.24912 8.91832 9.58995C10.2516 10.001 11.3994 11.0636 12.8579 10.7327C14.7124 10.3117 16.1058 9.28421 16.3614 7.30941C16.4617 6.54255 15.9204 5.7406 15.4091 5.23437C15.0933 4.9186 14.3415 4.30711 13.8453 4.32215C13.7 4.32215 13.6498 4.12166 13.7701 4.05149C14.7776 3.46506 16.2361 5.15919 16.612 5.92104C17.3639 7.45477 16.6271 9.23409 15.3841 10.2666C14.1611 11.2841 12.1863 11.645 10.7378 11.0134C9.85059 10.6275 8.783 9.80047 7.74547 9.95585C7.07885 10.0561 6.18167 10.3518 5.56517 9.97088C5.38473 9.86061 5.44989 9.54485 5.67544 9.55488L5.68045 9.55988Z" fill="#2E2E2E"/>
<path d="M6.76771 8.34184C6.91307 7.82057 7.07847 7.1289 7.59974 6.85824C7.72003 6.79809 7.88042 6.9284 7.79522 7.0537C7.54962 7.43964 7.40426 7.84564 7.294 8.28671C7.15867 8.82302 7.39925 9.1889 7.56465 9.67007C7.56465 9.67007 7.56465 9.67007 7.56465 9.67509C7.65988 9.94073 7.27394 10.066 7.1336 9.85553C6.83788 9.42448 6.61735 8.87814 6.76271 8.33682L6.76771 8.34184Z" fill="#2E2E2E"/>
<path d="M10.6419 14.7524C10.677 14.6672 10.8023 14.6972 10.7772 14.7925C10.4164 16.231 9.49913 17.5542 9.76979 19.0929C10.0054 20.4312 11.6895 20.6517 12.0203 21.9699C12.0403 22.0602 11.92 22.1103 11.8749 22.0301C11.489 21.4036 10.7271 21.0728 10.1407 20.6517C9.65451 20.3059 9.37884 19.8047 9.22848 19.2383C8.77738 17.5442 10.0755 16.2059 10.6419 14.7524Z" fill="#2E2E2E"/>
<path d="M5.83021 9.71513C5.83021 9.71513 5.84524 9.75524 5.85026 9.77529C5.88033 9.83043 5.88033 9.90059 5.86028 9.95572C5.96053 10.7326 6.08583 11.4293 6.51187 12.121C6.978 12.8778 7.86516 13.4793 8.63703 13.8803C9.73972 14.4467 10.5066 15.2686 10.0455 16.5367C10.0254 16.5869 9.9402 16.5818 9.94522 16.5217C10.0605 15.3839 9.35378 14.7323 8.40648 14.2612C7.83509 13.9805 7.33387 13.5896 6.84768 13.1836C5.745 12.2663 5.49439 11.1286 5.32397 9.78029C5.28388 9.48457 5.75001 9.44447 5.82519 9.71513H5.83021Z" fill="#2E2E2E"/>
<path d="M6.47711 10.6324C7.36928 11.0334 8.37172 10.9031 9.24886 11.4043C9.92049 11.7902 10.3165 12.7626 10.522 13.4693C10.542 13.5244 10.4568 13.5595 10.4267 13.5094C9.93052 12.6523 9.35913 11.7852 8.3617 11.4795C7.71513 11.279 6.75279 11.4444 6.2666 10.8981C6.13127 10.7477 6.29668 10.5522 6.4721 10.6324H6.47711Z" fill="#2E2E2E"/>
<path d="M6.37701 10.7026C6.50232 10.7277 6.60757 10.7728 6.6627 10.9031C6.8231 11.254 7.19902 11.5497 7.44461 11.8504C7.94583 12.4719 8.66758 12.918 9.34924 13.314C9.38934 13.334 9.36428 13.4042 9.31917 13.3892C8.64753 13.1386 8.00097 12.8429 7.44461 12.3867C6.96846 12.0008 6.39706 11.4645 6.21161 10.868C6.18154 10.7678 6.28178 10.6876 6.37701 10.7077V10.7026Z" fill="#2E2E2E"/>
<path d="M16.1805 5.51504C16.3359 5.39475 16.5765 5.35966 16.767 5.34463C17.0075 5.32458 17.3183 5.30452 17.5489 5.38472C17.7243 5.44486 17.7243 5.67543 17.5489 5.73558C17.3383 5.81076 17.0777 5.78067 16.8572 5.78569C16.7419 5.78569 16.6166 5.82078 16.5063 5.84584C16.4161 5.87091 16.371 5.92604 16.2708 5.93606C16.1906 5.94107 16.1054 5.87591 16.0903 5.79572C16.0903 5.7857 16.0903 5.77567 16.0853 5.76565C16.0602 5.65538 16.1053 5.57518 16.1855 5.51002L16.1805 5.51504Z" fill="#2E2E2E"/>
<path d="M15.0884 33.7134C15.0934 33.6432 15.1887 33.6482 15.1937 33.7134C15.2789 34.6406 15.8001 35.3624 16.3916 36.039C16.8076 36.5202 17.2687 36.9462 17.3289 37.6028C17.3389 37.7281 17.1635 37.7933 17.0833 37.7031C16.8126 37.4023 16.6472 37.0264 16.3866 36.7107C16.141 36.42 15.8553 36.1242 15.6498 35.8035C15.2388 35.1669 15.0333 34.4602 15.0934 33.7084L15.0884 33.7134Z" fill="#2E2E2E"/>
<path d="M14.1607 33.7086C14.3261 34.5155 14.8073 35.2272 15.4639 35.7285C15.9902 36.1294 16.6568 36.4201 17.0127 36.9915C17.0628 37.0767 16.9626 37.167 16.8824 37.1219C15.4739 36.37 14.1858 35.4277 14.0956 33.7136C14.0956 33.6735 14.1557 33.6684 14.1607 33.7035V33.7086Z" fill="#2E2E2E"/>
<path d="M12.0305 28.9219C12.0305 28.9219 12.0456 28.9018 12.0556 28.9118C12.5618 30.0947 12.2811 31.3327 12.5418 32.5607C12.8224 33.8889 13.6645 35.0869 14.7922 35.8086C14.717 35.568 14.6469 35.3274 14.5968 35.0668C14.5968 35.0468 14.5968 35.0317 14.5968 35.0117C14.7471 35.2372 14.9426 35.4327 15.1381 35.6332C15.2283 35.8287 15.3085 36.0241 15.3887 36.2146C15.4488 36.365 15.2634 36.5454 15.118 36.4852C13.9803 36.0392 13.053 35.147 12.5869 33.9992C12.2761 33.2424 12.0355 32.5958 12.0405 31.7638C12.0405 30.8115 12.2811 29.8591 12.0355 28.9169L12.0305 28.9219Z" fill="#2E2E2E"/>
<path d="M10.7025 28.4858C10.7025 28.4858 10.7326 28.4858 10.7276 28.4959C10.3166 29.7038 10.7276 31.1874 11.3641 32.235C11.6799 32.7562 12.0207 33.1622 12.4869 33.5582C12.7876 33.8138 12.9881 34.1045 13.0833 34.4854C13.1134 34.6157 12.948 34.731 12.8477 34.6208C12.0709 33.7587 11.2138 33.057 10.7727 31.9493C10.3366 30.8516 10.2013 29.5885 10.7025 28.4858Z" fill="#2E2E2E"/>
<path d="M9.9352 26.7716C10.3462 25.9296 10.7572 25.1026 11.0429 24.2054C11.0629 24.1502 11.1431 24.1703 11.1331 24.2304C10.8625 25.5236 10.2109 26.6814 9.96528 27.9695C9.81992 28.7364 9.90012 29.4481 10.246 30.1549C10.5266 30.7212 10.7973 31.2074 10.9076 31.8339C10.9276 31.9392 10.7672 32.0294 10.7171 31.9141C10.1658 30.6561 9.37383 29.9193 9.3989 28.4657C9.40892 27.8943 9.6896 27.2779 9.94021 26.7716H9.9352Z" fill="#2E2E2E"/>
<path d="M10.7421 24.2105C10.7421 24.2105 10.7872 24.2054 10.7822 24.2255C10.5566 24.832 10.3511 25.4384 10.1206 26.0399C9.79979 26.887 9.73464 27.6488 9.62938 28.541C9.60933 28.6964 9.37375 28.7615 9.33365 28.5811C8.9828 26.9471 10.0755 25.6139 10.7421 24.2105Z" fill="#2E2E2E"/>
<path d="M9.49421 24.2505C9.72978 23.6892 10.0706 23.208 10.2711 22.6216C10.4716 22.0301 10.637 21.4287 10.7473 20.8172C10.7723 20.6819 10.9528 20.732 10.9628 20.8473C11.053 21.7144 10.7523 22.8421 10.3613 23.619C10.0205 24.3057 9.64457 24.9723 9.54433 25.7542C9.48418 26.2153 9.58944 26.7416 9.58944 27.2127C9.58944 27.4032 9.31878 27.4333 9.26364 27.2578C8.93785 26.1602 9.04813 25.3131 9.4892 24.2555L9.49421 24.2505Z" fill="#2E2E2E"/>
</svg>
