<svg width="38" height="37" viewBox="0 0 38 37" fill="none" xmlns="http://www.w3.org/2000/svg">
<path d="M8.71783 32.5028C8.87486 32.5884 9.05569 32.4409 9.04141 32.2744C8.97955 31.5891 8.65596 30.942 8.55128 30.2567C8.51321 30.0093 8.50369 29.7618 8.50845 29.5096C8.54176 29.6714 8.57983 29.8332 8.62265 29.9902C8.85107 30.8849 9.21272 31.789 9.80755 32.5076C10.1407 32.9168 12.0774 34.7917 12.6865 34.1921C12.7103 34.1731 12.7008 34.135 12.6865 34.116C12.7055 34.0779 12.7151 34.0303 12.7008 33.9827C12.5818 33.5259 12.5866 33.0167 12.6913 32.5599C12.7198 32.4409 12.7674 32.3363 12.815 32.2268C12.815 32.2268 12.815 32.2316 12.815 32.2363C13.3527 33.3308 14.2997 33.7733 15.2847 34.3872C15.3561 34.4824 15.4322 34.5728 15.5131 34.6632C15.8224 35.0058 16.2126 35.2438 16.5362 35.5721C16.66 35.6958 16.9264 35.5721 16.8884 35.3913C16.817 35.0867 16.8075 34.7869 16.7694 34.4871C16.8265 34.5918 16.8979 34.687 16.974 34.7774C17.4927 35.377 18.2541 36.1098 18.9584 36.481C18.9631 36.481 18.9726 36.481 18.9774 36.4905C18.9774 36.4905 18.9869 36.4905 18.9917 36.4905H19.0012C19.0012 36.4905 19.0012 36.4905 19.006 36.4905C19.0297 36.4905 19.0535 36.481 19.0726 36.462C19.7673 36.086 20.6096 35.3675 21.1235 34.7726C21.1283 34.7679 21.1331 34.7584 21.1378 34.7536C21.1188 34.963 21.095 35.1724 21.0474 35.3865C21.0046 35.5673 21.2711 35.6958 21.3995 35.5673C21.7231 35.239 22.1133 34.9963 22.4226 34.6584C22.5035 34.568 22.5797 34.4776 22.6511 34.3825C23.6361 33.7686 24.5831 33.326 25.1208 32.2316C25.1208 32.2316 25.1208 32.2268 25.1208 32.222C25.1684 32.3267 25.2159 32.4362 25.2445 32.5551C25.3492 33.012 25.3539 33.5211 25.235 33.978C25.2207 34.0256 25.235 34.0731 25.2493 34.1112C25.2302 34.135 25.2255 34.1683 25.2493 34.1873C25.8584 34.7822 27.7951 32.9073 28.1282 32.5028C28.7183 31.7795 29.0799 30.8801 29.3131 29.9855C29.3512 29.8332 29.394 29.6714 29.4273 29.5049C29.4321 29.7571 29.4226 30.0045 29.3845 30.252C29.2798 30.9372 28.9515 31.5844 28.8944 32.2696C28.8801 32.4314 29.0657 32.5837 29.2179 32.498C30.0793 32.0079 31.0548 30.9753 31.4783 30.0854C31.7067 29.6096 31.8352 29.1147 31.897 28.6103C31.9541 29.1385 31.9827 29.6714 32.0255 30.1854C31.9161 30.3138 31.9161 30.5137 32.0683 30.6136C32.0874 30.6279 32.1112 30.6422 32.135 30.6517C32.292 30.7469 32.5537 30.6612 32.5632 30.4661C33.2866 29.7999 33.7243 28.8577 33.8909 27.8774C34.4096 26.8971 35.2804 26.1405 35.9323 25.2507C36.6176 24.3227 37.0221 23.1283 37.0411 21.9767C37.0554 20.8918 36.827 19.9448 36.2845 19.055C36.2845 19.0502 36.2845 19.0454 36.2845 19.0359C36.137 17.1896 35.4137 15.1386 34.1098 13.692C34.205 13.7253 34.3049 13.7538 34.4001 13.7634C34.776 13.7919 35.1852 13.9252 35.5279 13.6967C35.5469 13.6825 35.5564 13.6634 35.5612 13.6444C35.6516 13.6016 35.7087 13.4779 35.623 13.397C35.2709 13.0639 34.8807 12.7736 34.5619 12.4072C34.1859 11.9694 33.9813 11.3745 33.653 10.8939C33.3912 10.5085 32.9392 9.99931 32.4443 9.75186C32.4871 9.73282 32.5299 9.71379 32.5728 9.69951C33.0439 9.49489 33.553 9.29503 34.0765 9.31882C34.3906 9.3331 34.6951 9.38544 34.9997 9.31882C35.1805 9.37117 35.3566 9.17606 35.2186 9C34.0812 7.53434 32.6489 6.11152 30.9263 5.36441C30.1459 5.02655 29.3226 4.96469 28.4851 4.99324C28.6041 4.95042 28.7278 4.90758 28.861 4.86951C29.1418 4.79338 29.4035 4.68393 29.6986 4.65538C29.9888 4.62683 30.2791 4.68869 30.5551 4.62683C30.5837 4.62207 30.6075 4.60779 30.6265 4.58876C30.774 4.66965 30.9263 4.46979 30.8216 4.33655C29.9175 3.11835 28.8991 2.29035 27.3906 1.93345C26.7197 1.77642 26.0154 1.72883 25.3349 1.86207C23.9644 1.04359 22.4702 0.662899 20.8761 0.996002C20.662 1.03883 19.4818 1.2958 18.9584 1.67649C18.4349 1.2958 17.2548 1.03883 17.0406 0.996002C15.4465 0.662899 13.9523 1.03883 12.5818 1.86207C11.9013 1.72883 11.1971 1.77642 10.5261 1.93345C9.01762 2.29035 7.99928 3.11835 7.09514 4.33655C6.99521 4.47455 7.14272 4.67441 7.29024 4.58876C7.30928 4.60779 7.32831 4.62207 7.36162 4.62683C7.64238 4.69345 7.93265 4.62683 8.21817 4.65538C8.50845 4.68393 8.77017 4.79338 9.05569 4.86951C9.19369 4.90758 9.31265 4.95042 9.43162 4.99324C8.5941 4.96469 7.77086 5.02655 6.99045 5.36441C5.26783 6.11152 3.83549 7.53434 2.69818 9C2.56018 9.17606 2.73625 9.37117 2.91707 9.31882C3.22163 9.3902 3.53094 9.33786 3.84025 9.31882C4.36369 9.29503 4.87286 9.49489 5.34397 9.69951C5.3868 9.71855 5.42962 9.73758 5.47245 9.75186C4.97755 9.99931 4.52549 10.5085 4.26376 10.8939C3.93542 11.3698 3.7308 11.9694 3.35487 12.4072C3.0408 12.7736 2.64583 13.0639 2.2937 13.397C2.2128 13.4731 2.26514 13.6016 2.35556 13.6444C2.36032 13.6682 2.36983 13.6872 2.39363 13.6967C2.73625 13.9252 3.14549 13.7919 3.52142 13.7634C3.62135 13.7538 3.71652 13.7301 3.81169 13.692C2.50783 15.1386 1.78452 17.1896 1.63701 19.0359C1.63701 19.0407 1.63701 19.0454 1.63701 19.055C1.08977 19.9448 0.861352 20.8918 0.875628 21.9767C0.894662 23.1283 1.29915 24.3227 1.98439 25.2507C2.64108 26.1405 3.5119 26.8971 4.02583 27.8774C4.19238 28.8529 4.63018 29.7999 5.35349 30.4661C5.363 30.6565 5.62473 30.7421 5.78176 30.6517C5.80555 30.6422 5.82459 30.6279 5.84838 30.6136C6.00066 30.5137 5.9959 30.3138 5.89121 30.1854C5.93404 29.6714 5.96259 29.1385 6.01969 28.6103C6.08155 29.1099 6.21004 29.6048 6.43845 30.0854C6.86672 30.9753 7.83748 32.0079 8.69879 32.498L8.71783 32.5028Z" fill="#2A2A30"/>
<path d="M21.728 20.3921C21.3902 19.1977 21 18.1889 21.0142 16.9183C21.0285 15.624 21.1142 14.3059 21.314 13.0306C21.3235 12.9735 21.2331 12.9544 21.2141 13.0068C20.5384 14.7532 20.5051 16.866 20.7335 18.7028C20.9286 20.297 22.7131 23.3425 20.3718 24.1229C20.2148 24.1752 20.2671 24.4465 20.4289 24.4465C21.138 24.4465 21.7137 23.7612 22.0421 23.1854C22.4846 22.4146 21.9374 21.1535 21.728 20.4017V20.3921Z" fill="white"/>
<path d="M23.3268 12.5929C21.7993 12.5548 20.8618 14.5201 20.9142 15.805C20.9142 15.8335 20.9523 15.8478 20.9665 15.8145C21.2568 14.9436 21.6185 14.1632 22.337 13.5589C22.8034 13.1639 23.3696 13.0926 23.9359 13.2829C24.683 13.5351 24.7163 14.3917 24.6449 15.0246C24.6259 15.1959 24.8638 15.2863 24.959 15.1388C25.768 13.9158 24.6259 12.6214 23.3316 12.5881L23.3268 12.5929Z" fill="white"/>
<path d="M24.9302 15.0053C24.7969 14.3772 23.7786 14.3248 23.3551 14.6722C23.0886 14.8911 22.8602 15.1671 22.7841 15.5097C22.6936 15.9047 22.8364 16.4139 22.6889 16.7755C22.6651 16.8326 22.746 16.8707 22.7793 16.8231C23.0172 16.4948 23.0125 16.0712 23.1267 15.6953C23.298 15.1148 24.0451 14.6817 24.5257 15.1957C24.6732 15.3527 24.9778 15.2432 24.9254 15.0053H24.9302Z" fill="white"/>
<path d="M24.9015 14.8103C24.8492 14.6913 24.6969 14.6961 24.6255 14.7865C24.497 14.9483 24.4637 15.1006 24.478 15.3004C24.5018 15.624 24.3876 15.8857 24.1497 16.1237C23.9784 16.2902 23.6643 16.3806 23.4406 16.3902C23.2408 16.3949 23.0837 16.5139 22.8886 16.5615C22.841 16.571 22.822 16.6138 22.841 16.6566C22.841 16.6566 22.841 16.6614 22.841 16.6662C22.8315 16.6709 22.8268 16.69 22.841 16.6947L22.8791 16.7185C22.8791 16.7185 22.9315 16.728 22.941 16.709C22.9695 16.6614 22.9648 16.728 23.0599 16.7375C23.1932 16.7518 23.2931 16.6471 23.4216 16.6519C23.7642 16.6662 24.064 16.6328 24.359 16.4473C24.6017 16.295 24.7968 16.0095 24.911 15.7477C25.0252 15.4813 25.0252 15.0768 24.911 14.8151L24.9015 14.8103Z" fill="white"/>
<path d="M27.0621 14.3012C26.7005 13.8158 26.3198 13.3447 26.0057 12.826C25.7154 12.3454 25.5441 11.8124 25.3157 11.3032C24.9255 10.4372 24.3069 9.75192 23.5693 9.17137C22.2083 8.10068 20.3477 7.68668 18.6632 7.98171C18.5632 8.00075 18.4919 8.09591 18.5109 8.2006C18.5109 8.21964 18.5157 8.23391 18.5204 8.25295C18.5442 8.39571 18.6822 8.42426 18.7774 8.36716C19.4436 8.46233 20.086 8.36716 20.7665 8.53371C21.6754 8.76213 22.4415 9.13805 23.2029 9.69005C23.969 10.2468 24.4734 10.9796 24.8541 11.8314C25.2539 12.7213 25.6536 13.4922 26.2389 14.2774C26.8575 15.1054 27.4285 15.9096 27.6807 16.9279C27.9615 18.07 27.4904 19.1787 26.9479 20.159C26.5339 20.9013 25.8154 21.4914 25.2158 22.0815C24.5924 22.6906 24.2022 23.2378 23.9119 24.0611C23.8548 24.2181 24.0642 24.318 24.1641 24.1943C25.3728 22.7239 27.0145 21.5628 27.8378 19.8164C28.78 17.8178 28.347 16.0285 27.0621 14.3012Z" fill="white"/>
<path d="M24.8685 21.0536C24.878 20.9918 24.7781 20.968 24.7591 21.0298C24.4831 21.934 24.1167 22.8143 23.8644 23.728C23.6551 24.4846 23.5123 25.2793 23.1887 26.0073C22.9936 26.4547 22.6129 26.9115 22.2037 27.1732C21.942 27.3397 21.2567 27.6157 20.9427 27.473C20.6857 27.354 20.3907 27.3493 20.1242 27.2208C19.6198 26.9781 19.4104 26.388 19.1058 25.9502C19.0154 25.817 18.7965 25.9027 18.787 26.0502C18.7156 27.0638 19.4532 27.7728 20.3526 28.0964C21.2234 28.4104 22.356 28.0107 23.0269 27.4254C23.7788 26.764 24.2689 25.422 24.2118 24.437C24.1833 23.9849 24.3403 23.3473 24.445 22.9142C24.5925 22.2956 24.7924 21.6818 24.8685 21.0489V21.0536Z" fill="white"/>
<path d="M22.4324 27.5586C22.361 27.3206 21.9375 27.2826 21.9518 27.5776C21.9851 28.4484 22.2611 29.1622 21.7043 29.9617C21.2903 30.5565 20.4671 30.6326 19.8152 30.5898C19.5011 30.5708 19.1965 30.5042 18.8968 30.6136C18.7683 30.6612 18.7826 30.8325 18.873 30.9039C19.2489 31.2132 19.9627 31.1466 20.4195 31.1418C21.0001 31.1418 21.5711 30.8658 21.9899 30.4709C22.8036 29.7 22.7179 28.5198 22.4324 27.5586Z" fill="white"/>
<path d="M18.6967 22.4099C18.5682 22.4717 18.6348 22.6668 18.7728 22.6478C19.696 22.5146 20.9523 22.2338 21.3996 23.2664C21.49 23.471 21.7565 23.3854 21.7945 23.195C22.0801 21.7865 19.3867 22.072 18.6919 22.4051L18.6967 22.4099Z" fill="white"/>
<path d="M20.4902 23.8088C20.0762 23.9468 19.9524 24.4607 19.7954 24.8176C19.6669 25.1031 19.4671 25.2887 19.272 25.5219C19.1482 25.6694 18.9579 25.8502 18.9531 26.0596C18.9531 26.15 19.0197 26.2214 19.1102 26.2071C19.2815 26.1833 19.3766 26.0263 19.4956 25.9073C19.6669 25.7408 19.8382 25.579 19.9857 25.3934C20.2903 24.9984 20.4997 24.4512 20.6948 23.9991C20.7566 23.8611 20.5996 23.7707 20.4854 23.8088H20.4902Z" fill="white"/>
<path d="M20.7049 22.9808C20.3147 23.0807 19.9436 23.4139 19.8056 23.7898C19.7247 23.9992 19.6295 24.9271 20.0245 24.8843C20.1529 24.87 20.1196 24.5274 20.1101 24.456C20.0911 24.2704 20.1101 24.0991 20.1672 23.9183C20.2434 23.6756 20.4908 23.5185 20.7049 23.4091C21.0143 23.2521 20.6383 23.6327 20.5669 23.6994C20.4527 23.8041 20.3385 23.9135 20.2434 24.0325C20.172 24.1229 20.2909 24.2704 20.3909 24.2038C20.6764 24.0182 20.9762 23.8754 21.1618 23.5709C21.3616 23.233 21.0809 22.8761 20.7097 22.9761L20.7049 22.9808Z" fill="white"/>
<path d="M26.1249 27.8108C26.0535 27.0351 25.7775 26.2975 25.5015 25.5694C25.3493 25.1697 25.1637 24.789 25.0447 24.375C24.9115 23.9135 25.078 23.4804 25.078 23.0283C25.078 22.857 24.8353 22.7809 24.7782 22.957C24.5926 23.5042 24.4784 23.8754 24.5498 24.4607C24.6355 25.1745 25.0019 25.9073 25.235 26.583C25.5444 27.4776 25.649 28.3675 25.6157 29.3145C25.5872 30.1615 25.1684 31.0181 24.8972 31.808C24.8448 31.9603 25.0542 32.0697 25.1494 31.9412C26.0773 30.6754 26.2629 29.3478 26.1249 27.806V27.8108Z" fill="white"/>
<path d="M21.5327 32.0175C21.5137 31.9509 21.4233 31.9699 21.428 32.0366C21.5756 33.231 21.133 34.2065 20.2479 34.9917C19.7958 35.3961 19.0249 35.5865 18.9631 36.2717C18.9536 36.3955 18.925 36.5477 19.044 36.4859C19.7435 36.1147 20.6048 35.3819 21.1235 34.7823C21.7374 34.0685 21.7564 32.8693 21.5327 32.0223V32.0175Z" fill="white"/>
<path d="M23.4451 30.6374C23.4213 30.5756 23.3309 30.6089 23.3404 30.6708C23.564 32.3934 22.7789 33.7163 21.613 34.8155C21.613 34.5585 21.5654 34.3016 21.4845 34.0256C21.456 33.9304 21.3037 33.8876 21.2656 34.0066C21.1276 34.4729 21.1562 34.925 21.0515 35.3913C21.0087 35.5721 21.2751 35.7006 21.4036 35.5721C21.7272 35.2438 22.1174 35.0011 22.4267 34.6632C22.7884 34.2635 23.0644 33.8305 23.3071 33.3499C23.7211 32.5361 23.8067 31.4702 23.4451 30.6374Z" fill="white"/>
<path d="M25.1065 28.7341C25.0827 28.6437 24.9495 28.6675 24.959 28.7579C25.1398 29.9713 25.216 31.1181 24.5212 32.1936C23.9644 33.0597 22.9604 33.3404 22.3751 34.1589C22.2799 34.2921 22.4417 34.5206 22.5987 34.4206C23.6028 33.7877 24.5783 33.3499 25.1256 32.2317C25.6538 31.1562 25.3635 29.8333 25.1065 28.7293V28.7341Z" fill="white"/>
<path d="M30.8356 12.7546C30.0314 12.8022 29.2415 12.726 28.6276 12.1312C27.9852 11.5126 27.4618 10.8035 26.924 10.0945C25.9771 8.84775 24.6209 8.01975 23.1362 7.57244C23.0791 7.55341 23.0458 7.64382 23.1029 7.66286C24.2164 8.01023 24.9968 8.5432 25.8343 9.3474C26.5909 10.0755 27.0192 11.0891 27.6949 11.8933C28.2089 12.5071 28.7038 13.0211 29.4699 13.3208C29.8982 13.4874 30.788 13.554 31.0498 13.0924C31.1497 12.9211 31.026 12.7451 30.8356 12.7546Z" fill="white"/>
<path d="M30.3977 8.43379C29.6744 7.63911 28.4086 7.35835 27.3807 7.56297C26.8192 7.67717 25.5296 8.1578 25.4915 8.86207C25.482 8.99531 25.6771 9.09049 25.7485 8.95724C26.015 8.45759 26.9858 8.19586 27.4711 8.08165C28.2991 7.89131 29.2318 8.18635 29.8695 8.69552C30.6118 9.2951 30.9116 10.2801 30.9116 11.1938C30.9116 12.0646 30.2264 12.4453 29.6839 12.9592C29.5887 13.0496 29.6315 13.2114 29.7695 13.2257C30.4881 13.3114 31.2875 12.3073 31.4303 11.6649C31.692 10.48 31.1971 9.29986 30.4024 8.42427L30.3977 8.43379Z" fill="white"/>
<path d="M29.1519 10.9179C28.7284 10.4944 27.829 10.2898 27.3341 10.7181C27.2532 10.7894 27.2722 10.8989 27.3436 10.9607C27.4435 11.0464 27.5673 11.0512 27.6862 11.0179C27.9432 10.956 28.243 10.9512 28.4952 11.0512C28.7522 11.1511 28.9377 11.389 29.0615 11.627C29.1424 11.7792 29.1804 11.9125 29.1138 12.0838C29.0757 12.1932 28.9996 12.4216 28.9282 12.5121C28.7236 12.7785 29.1566 13.0831 29.3565 12.8118C29.8228 12.179 29.6848 11.4414 29.1519 10.9132V10.9179Z" fill="white"/>
<path d="M25.473 1.94299C24.0693 1.07217 22.5322 0.662926 20.8905 1.00555C20.5955 1.06741 18.4398 1.53376 18.7586 2.17617C18.7824 2.219 18.811 2.25231 18.8491 2.28086C18.9537 2.35224 19.0775 2.31893 19.1536 2.22851C19.777 1.49093 21.4615 1.46713 22.3181 1.45761C23.3935 1.4481 24.3215 2.07624 25.3446 2.29513C25.5397 2.33796 25.6348 2.03817 25.473 1.94299Z" fill="white"/>
<path d="M30.836 4.34608C29.9318 3.12787 28.9135 2.29987 27.405 1.94298C26.7198 1.78118 26.006 1.7336 25.316 1.87635C24.4261 2.06194 23.6885 2.69959 22.7844 2.81856C22.732 2.82808 22.732 2.91374 22.7844 2.91374C23.2412 2.91374 23.6838 2.83284 24.1168 2.69484C25.0304 2.40456 25.7775 2.26656 26.734 2.39504C28.3948 2.6187 29.3655 3.60373 30.6123 4.58876C30.7646 4.71249 30.9406 4.48884 30.8312 4.34608H30.836Z" fill="white"/>
<path d="M35.2322 9.01431C34.0949 7.54866 32.6625 6.12583 30.9399 5.37873C29.2649 4.65066 27.3757 5.18838 25.6341 5.1979C25.6103 5.1979 25.6103 5.23121 25.6341 5.23121C27.2663 5.46914 28.9698 5.13604 30.5402 5.74038C32.3913 6.45417 33.2907 8.38142 34.9657 9.31411C35.1656 9.42355 35.3845 9.20466 35.2369 9.01431H35.2322Z" fill="white"/>
<path d="M30.5927 4.37932C29.4934 3.88918 28.2943 4.65056 27.3425 5.1407C27.2759 5.17401 27.2854 5.29773 27.3711 5.29773C27.9659 5.29773 28.3181 5.03125 28.8748 4.88374C29.1556 4.8076 29.4173 4.69815 29.7123 4.66959C30.0026 4.64104 30.2929 4.70291 30.5689 4.64104C30.7021 4.60773 30.7164 4.43643 30.5927 4.38408V4.37932Z" fill="white"/>
<path d="M35.0661 9.08582C33.5909 8.4101 32.4155 9.51886 30.988 9.6283C30.7215 9.64734 30.75 10.0709 31.007 10.0947C31.5447 10.1375 32.0967 9.93286 32.5821 9.72348C33.0532 9.51886 33.5624 9.319 34.0858 9.34279C34.4094 9.35707 34.7282 9.41893 35.0423 9.33327C35.166 9.29996 35.1803 9.14293 35.0661 9.09059V9.08582Z" fill="white"/>
<path d="M31.7636 12.1074C31.7112 12.0884 31.6779 12.1598 31.7208 12.1931C32.7248 12.9925 33.7004 13.83 34.3808 14.9388C34.7472 15.5336 35.0899 16.1189 35.3611 16.7661C35.6657 17.5037 35.7513 18.3507 35.9417 19.1216C35.9988 19.3453 36.3081 19.2882 36.2938 19.0598C36.0749 16.3045 34.5664 13.0829 31.7684 12.1122L31.7636 12.1074Z" fill="white"/>
<path d="M36.0748 18.7458C35.242 17.5799 34.1095 16.7234 33.1387 15.6812C33.1102 15.6479 33.0578 15.6908 33.0864 15.7241C33.7526 16.652 34.6234 17.3991 35.2849 18.3318C36.1557 19.5643 36.5174 20.9395 36.4079 22.4385C36.3175 23.6757 35.5799 24.8321 34.7805 25.7314C34.0667 26.5356 33.6051 27.2304 33.41 28.2963C33.3814 28.4581 33.6289 28.5105 33.686 28.3582C34.1428 27.14 35.1849 26.2882 35.9416 25.2603C36.6268 24.3324 37.0313 23.138 37.0503 21.9864C37.0693 20.7682 36.7791 19.7261 36.0748 18.7363V18.7458Z" fill="white"/>
<path d="M35.6328 13.416C35.2806 13.0829 34.8904 12.7927 34.5716 12.4262C34.1957 11.9885 33.9911 11.3936 33.6627 10.913C33.2963 10.3753 32.5492 9.57583 31.8354 9.62818C31.7022 9.6377 31.7212 9.81377 31.8164 9.86135C33.5247 10.7322 33.7246 12.864 35.4615 13.6635C35.5995 13.7254 35.747 13.5207 35.6328 13.416Z" fill="white"/>
<path d="M35.5271 13.5302C35.4224 13.4589 35.3891 13.4493 35.2606 13.4493C34.9418 13.4493 34.6325 13.5065 34.3136 13.4256C33.9234 13.3256 33.5713 13.1591 33.1716 13.0877C33.1145 13.0782 33.105 13.1591 33.1525 13.1781C33.5332 13.3637 33.9663 13.7444 34.4088 13.7777C34.7847 13.8062 35.194 13.9395 35.5366 13.7111C35.5985 13.6682 35.5842 13.5635 35.5271 13.5255V13.5302Z" fill="white"/>
<path d="M25.8633 32.9263C25.811 32.3838 25.5825 32.0602 25.3018 31.6177C25.1923 31.4463 24.9449 31.5177 24.9639 31.7271C24.9877 32.0316 25.1828 32.2648 25.2494 32.5598C25.3541 33.0167 25.3589 33.5258 25.2399 33.9827C25.1923 34.1683 25.4493 34.3443 25.5588 34.1492C25.7967 33.74 25.9014 33.4069 25.8586 32.9263H25.8633Z" fill="white"/>
<path d="M31.9398 26.7022C31.935 26.5404 31.6828 26.5642 31.6638 26.7117C31.5401 27.6349 31.483 28.5866 31.1784 29.4717C30.9976 30.0094 30.5788 30.4091 30.2505 30.8612C30.0411 31.1515 29.7889 31.4798 29.4986 31.7463C29.6414 31.2705 29.8127 30.8136 29.846 30.2949C29.8888 29.5669 29.7746 28.8769 29.6319 28.1631C29.4653 27.3494 29.1988 26.5594 29.0085 25.7552C28.8229 24.9605 28.5802 24.104 28.6896 23.2903C28.7087 23.1523 28.4945 23.1332 28.4755 23.2712C28.2328 24.7083 28.8752 26.2644 29.175 27.6539C29.3558 28.4914 29.5224 29.3956 29.3939 30.2474C29.2892 30.9326 28.9609 31.5798 28.9038 32.265C28.8895 32.4268 29.0751 32.5791 29.2274 32.4934C30.0887 32.0033 31.0642 30.9707 31.4877 30.0808C32.0016 29.0054 31.9921 27.8585 31.9398 26.6927V26.7022Z" fill="white"/>
<path d="M29.2841 27.7681C29.2365 27.6872 29.1033 27.002 29.07 27.1114C28.9177 27.6206 28.9367 28.8293 28.8368 29.3527C28.6703 30.2235 28.3943 31.0278 27.9327 31.7891C27.2903 32.8598 26.0958 33.2929 25.2631 34.1113C25.2441 34.1351 25.2298 34.1732 25.2583 34.197C25.8674 34.7918 27.8042 32.9169 28.1373 32.5124C28.7274 31.7891 29.089 30.8898 29.3222 29.9951C29.5078 29.2766 29.6886 28.4343 29.2889 27.7776L29.2841 27.7681Z" fill="white"/>
<path d="M32.1208 26.8878C31.7544 25.7457 30.6742 24.6941 30.008 23.7186C29.9984 23.7043 29.9794 23.7186 29.9889 23.7328C30.5029 24.7084 31.0929 25.6315 31.4879 26.6641C31.9162 27.7872 31.9352 29.0768 32.0399 30.2569C32.0589 30.4996 32.4063 30.452 32.4444 30.2426C32.6395 29.1624 32.4586 27.9252 32.1255 26.8878H32.1208Z" fill="white"/>
<path d="M33.9531 26.4691C33.7532 24.3991 32.8301 22.5242 32.4684 20.4923C32.4541 20.4114 32.3304 20.4304 32.3399 20.5161C32.7444 23.6187 34.8382 27.5065 32.0544 30.1713C31.9259 30.295 31.9117 30.5187 32.0735 30.6233C32.0925 30.6376 32.1163 30.6519 32.1401 30.6614C32.2971 30.7566 32.5588 30.6709 32.5684 30.4758C33.6438 29.486 34.0911 27.8871 33.9531 26.4643V26.4691Z" fill="white"/>
<path d="M16.2127 20.3921C16.5506 19.1977 16.9408 18.1889 16.9265 16.9183C16.9122 15.624 16.8266 14.3059 16.6267 13.0306C16.6172 12.9735 16.7076 12.9544 16.7266 13.0068C17.4023 14.7532 17.4357 16.866 17.2072 18.7028C17.0121 20.297 15.2277 23.3425 17.5689 24.1229C17.7259 24.1752 17.6736 24.4465 17.5118 24.4465C16.8075 24.4465 16.227 23.7612 15.8986 23.1854C15.4561 22.4146 16.0033 21.1535 16.2127 20.4017V20.3921Z" fill="white"/>
<path d="M14.6186 12.5929C16.1461 12.5548 17.0836 14.5201 17.036 15.805C17.036 15.8335 16.9979 15.8478 16.9836 15.8145C16.6934 14.9436 16.3317 14.1632 15.6132 13.5589C15.1468 13.1639 14.5805 13.0926 14.0143 13.2829C13.2672 13.5351 13.2339 14.3917 13.3052 15.0246C13.3243 15.1959 13.0863 15.2863 12.9912 15.1388C12.1822 13.9158 13.3243 12.6214 14.6186 12.5881V12.5929Z" fill="white"/>
<path d="M13.0099 15.0053C13.1431 14.3772 14.1615 14.3248 14.585 14.6722C14.8515 14.8911 15.0799 15.1671 15.156 15.5097C15.2464 15.9047 15.1037 16.4139 15.2464 16.7755C15.2702 16.8326 15.1893 16.8707 15.156 16.8231C14.9181 16.4948 14.9228 16.0712 14.8086 15.6953C14.6373 15.1148 13.8902 14.6817 13.4096 15.1957C13.2621 15.3527 12.9575 15.2432 13.0099 15.0053Z" fill="white"/>
<path d="M13.0385 14.8103C13.0909 14.6913 13.2432 14.6961 13.3145 14.7865C13.443 14.9483 13.4763 15.1006 13.4621 15.3004C13.4383 15.624 13.5525 15.8857 13.7904 16.1237C13.9617 16.2902 14.2758 16.3806 14.4994 16.3902C14.6993 16.3949 14.8563 16.5139 15.0514 16.5615C15.099 16.571 15.118 16.6138 15.1038 16.6566C15.1038 16.6566 15.1038 16.6614 15.1038 16.6662C15.1133 16.6709 15.118 16.69 15.1038 16.6947L15.0657 16.7185C15.0657 16.7185 15.0181 16.728 15.0038 16.709C14.9753 16.6614 14.98 16.728 14.8849 16.7375C14.7564 16.7518 14.6517 16.6471 14.5232 16.6519C14.1806 16.6662 13.8808 16.6328 13.581 16.4473C13.3383 16.295 13.1432 16.0095 13.029 15.7477C12.9148 15.4813 12.9148 15.0768 13.029 14.8151L13.0385 14.8103Z" fill="white"/>
<path d="M10.8779 14.3012C11.2396 13.8158 11.6203 13.3447 11.9344 12.826C12.2246 12.3454 12.3959 11.8124 12.6244 11.3032C13.0146 10.4372 13.6332 9.75192 14.3708 9.17137C15.7317 8.10068 17.5923 7.68668 19.2769 7.98171C19.3768 8.00075 19.4482 8.09591 19.4292 8.2006C19.4292 8.21964 19.4244 8.23391 19.4197 8.25295C19.3959 8.39571 19.2579 8.42426 19.1627 8.36716C18.4965 8.46233 17.8541 8.36716 17.1736 8.53371C16.2647 8.76213 15.4986 9.13805 14.7372 9.69005C13.971 10.2468 13.4666 10.9796 13.0859 11.8314C12.6862 12.7213 12.2865 13.4922 11.7012 14.2774C11.0826 15.1054 10.5115 15.9096 10.2593 16.9279C9.97856 18.07 10.4497 19.1787 10.9921 20.159C11.4061 20.9013 12.1247 21.4914 12.7243 22.0815C13.3477 22.6906 13.7379 23.2378 14.0281 24.0611C14.0852 24.2181 13.8759 24.318 13.7759 24.1943C12.5672 22.7239 10.9255 21.5628 10.1023 19.8164C9.16008 17.8178 9.59312 16.0285 10.8779 14.3012Z" fill="white"/>
<path d="M13.0719 21.0536C13.0624 20.9918 13.1623 20.968 13.1814 21.0298C13.4526 21.934 13.8238 22.8143 14.076 23.728C14.2854 24.4846 14.4281 25.2793 14.7517 26.0073C14.9468 26.4547 15.3275 26.9115 15.7368 27.1732C15.9985 27.3397 16.6837 27.6157 16.9978 27.473C17.2547 27.354 17.5498 27.3493 17.8163 27.2208C18.3207 26.9781 18.5301 26.388 18.8346 25.9502C18.925 25.817 19.1439 25.9027 19.1534 26.0502C19.2201 27.0638 18.4872 27.7728 17.5879 28.0964C16.717 28.4104 15.5845 28.0107 14.9135 27.4254C14.1617 26.764 13.6715 25.422 13.7286 24.437C13.7572 23.9849 13.6001 23.3473 13.4954 22.9142C13.3479 22.2956 13.1481 21.6818 13.0719 21.0489V21.0536Z" fill="white"/>
<path d="M15.5088 27.5586C15.5802 27.3206 16.0037 27.2826 15.9895 27.5776C15.9562 28.4484 15.6802 29.1622 16.2369 29.9617C16.6509 30.5565 17.4742 30.6326 18.1261 30.5898C18.4402 30.5708 18.7447 30.5042 19.0445 30.6136C19.173 30.6612 19.1587 30.8325 19.0683 30.9039C18.6924 31.2132 17.9786 31.1466 17.5217 31.1418C16.9412 31.1418 16.3749 30.8658 15.9514 30.4709C15.1377 29.7 15.2233 28.5198 15.5088 27.5586Z" fill="white"/>
<path d="M19.2438 22.4099C19.3723 22.4717 19.3105 22.6668 19.1677 22.6478C18.2445 22.5146 16.9883 22.2338 16.5362 23.2664C16.4458 23.471 16.1793 23.3854 16.1412 23.195C15.8557 21.7865 18.5491 22.072 19.2391 22.4051L19.2438 22.4099Z" fill="white"/>
<path d="M17.4543 23.8088C17.8683 23.9468 17.992 24.4607 18.1491 24.8176C18.2776 25.1031 18.4774 25.2887 18.6725 25.5219C18.7963 25.6694 18.9866 25.8502 18.9914 26.0596C18.9914 26.15 18.9247 26.2214 18.8343 26.2071C18.663 26.1833 18.5678 26.0263 18.4489 25.9073C18.2776 25.7408 18.1063 25.579 17.9587 25.3934C17.6542 24.9984 17.4448 24.4512 17.2497 23.9991C17.1926 23.8611 17.3449 23.7707 17.4591 23.8088H17.4543Z" fill="white"/>
<path d="M17.241 22.9808C17.6312 23.0807 18.0024 23.4139 18.1404 23.7898C18.2165 23.9992 18.3164 24.9271 17.9215 24.8843C17.793 24.87 17.8263 24.5274 17.8358 24.456C17.8548 24.2704 17.8358 24.0991 17.7787 23.9183C17.7026 23.6756 17.4551 23.5185 17.241 23.4091C16.9317 23.2521 17.3076 23.6327 17.379 23.6994C17.4932 23.8041 17.6074 23.9135 17.7026 24.0325C17.7739 24.1229 17.655 24.2704 17.555 24.2038C17.2695 24.0182 16.9697 23.8754 16.7842 23.5709C16.5843 23.233 16.865 22.8761 17.2362 22.9761L17.241 22.9808Z" fill="white"/>
<path d="M11.8209 27.8108C11.8923 27.0351 12.1683 26.2975 12.4395 25.5694C12.5918 25.1697 12.7774 24.789 12.8963 24.375C13.0296 23.9135 12.863 23.4804 12.863 23.0283C12.863 22.857 13.1057 22.7809 13.1628 22.957C13.3484 23.5042 13.4579 23.8754 13.3912 24.4607C13.3056 25.1745 12.9392 25.9073 12.706 26.583C12.3967 27.4776 12.292 28.3675 12.3253 29.3145C12.3539 30.1615 12.7726 31.0181 13.0439 31.808C13.0962 31.9603 12.8868 32.0697 12.7916 31.9412C11.8637 30.6754 11.6781 29.3478 11.8161 27.806L11.8209 27.8108Z" fill="white"/>
<path d="M16.5654 32.0175C16.5844 31.9509 16.6748 31.9699 16.67 32.0366C16.5225 33.231 16.9651 34.2065 17.8502 34.9917C18.3022 35.3961 19.0731 35.5865 19.135 36.2717C19.1445 36.3955 19.0731 36.5477 18.9589 36.4859C18.2547 36.1147 17.4933 35.3819 16.9746 34.7823C16.3607 34.0685 16.3417 32.8693 16.5654 32.0223V32.0175Z" fill="white"/>
<path d="M14.4993 30.6374C14.5231 30.5756 14.6135 30.6089 14.604 30.6708C14.3803 32.3934 15.1655 33.7163 16.3314 34.8155C16.3314 34.5585 16.379 34.3016 16.4599 34.0256C16.4884 33.9304 16.6407 33.8876 16.6788 34.0066C16.8168 34.4729 16.7882 34.925 16.8929 35.3913C16.9357 35.5721 16.6692 35.7006 16.5408 35.5721C16.2172 35.2438 15.827 35.0011 15.5177 34.6632C15.156 34.2635 14.88 33.8305 14.6373 33.3499C14.2233 32.5361 14.1424 31.4702 14.4993 30.6374Z" fill="white"/>
<path d="M12.8381 28.7341C12.8571 28.6437 12.9951 28.6675 12.9856 28.7579C12.8096 29.9713 12.7287 31.1181 13.4234 32.1936C13.9802 33.0597 14.9842 33.3404 15.5696 34.1589C15.6647 34.2921 15.5029 34.5206 15.3459 34.4206C14.3418 33.7877 13.3663 33.3499 12.8191 32.2317C12.2909 31.1562 12.5811 29.8333 12.8381 28.7293V28.7341Z" fill="white"/>
<path d="M7.10411 12.7546C7.90832 12.8022 8.69825 12.726 9.31211 12.1312C9.95452 11.5126 10.478 10.8035 11.0157 10.0945C11.9627 8.84775 13.3189 8.01975 14.8036 7.57244C14.8607 7.55341 14.894 7.64382 14.8369 7.66286C13.7233 8.01023 12.9429 8.5432 12.1054 9.3474C11.3488 10.0755 10.9205 11.0891 10.2448 11.8933C9.73087 12.5071 9.23597 13.0211 8.46984 13.3208C8.04156 13.4874 7.1517 13.554 6.88998 13.0924C6.79005 12.9211 6.91377 12.7451 7.10411 12.7546Z" fill="white"/>
<path d="M7.54254 8.43379C8.26585 7.63911 9.53165 7.35835 10.5595 7.56297C11.121 7.67717 12.4106 8.1578 12.4487 8.86207C12.4582 8.99531 12.2631 9.09049 12.1917 8.95724C11.9252 8.45759 10.9545 8.19586 10.4691 8.08165C9.64109 7.89131 8.7084 8.18635 8.07075 8.69552C7.32841 9.2951 7.02861 10.2801 7.02861 11.1938C7.02861 12.1074 7.71385 12.4453 8.25634 12.9592C8.35151 13.0496 8.30868 13.2114 8.17068 13.2257C7.45213 13.3114 6.65268 12.3073 6.50992 11.6649C6.2482 10.48 6.7431 9.29986 7.53778 8.42427L7.54254 8.43379Z" fill="white"/>
<path d="M8.78969 10.9179C9.21321 10.4944 10.1126 10.2898 10.6075 10.7181C10.6884 10.7894 10.6693 10.8989 10.598 10.9607C10.498 11.0464 10.3743 11.0512 10.2553 11.0179C9.99838 10.956 9.69859 10.9512 9.44638 11.0512C9.18942 11.1511 9.00383 11.389 8.88011 11.627C8.79921 11.7792 8.7659 11.9125 8.82776 12.0838C8.86583 12.1932 8.94197 12.4216 9.01335 12.5121C9.21797 12.7785 8.78493 13.0831 8.58507 12.8118C8.11873 12.179 8.25673 11.4414 8.78969 10.9132V10.9179Z" fill="white"/>
<path d="M12.4728 1.94299C13.8766 1.07217 15.4136 0.662926 17.0554 1.00555C17.3504 1.06741 19.506 1.53376 19.1872 2.17617C19.1634 2.219 19.1349 2.25231 19.0968 2.28086C18.9921 2.35224 18.8684 2.31893 18.7923 2.22851C18.1689 1.49093 16.4891 1.46713 15.6278 1.45761C14.5523 1.4481 13.6244 2.07624 12.6013 2.29513C12.4062 2.33796 12.311 2.03817 12.4728 1.94299Z" fill="white"/>
<path d="M7.10451 4.34608C8.00865 3.12787 9.02699 2.29987 10.5355 1.94298C11.2207 1.78118 11.9345 1.7336 12.6245 1.87635C13.5144 2.06194 14.252 2.69959 15.1561 2.81856C15.2084 2.82808 15.2084 2.91374 15.1561 2.91374C14.6993 2.91374 14.2615 2.83284 13.8237 2.69484C12.91 2.40456 12.1629 2.26656 11.2064 2.39504C9.54568 2.6187 8.57493 3.60373 7.32817 4.58876C7.17589 4.71249 6.99982 4.48884 7.10927 4.34608H7.10451Z" fill="white"/>
<path d="M2.70836 9.01431C3.84567 7.54866 5.27801 6.12583 7.00063 5.37873C8.67566 4.65066 10.5648 5.18838 12.3065 5.1979C12.3303 5.1979 12.3303 5.23121 12.3065 5.23121C10.6743 5.46914 8.9707 5.13604 7.40035 5.74038C5.54925 6.45417 4.64987 8.38142 2.97484 9.31411C2.77498 9.42355 2.55608 9.20466 2.7036 9.01431H2.70836Z" fill="white"/>
<path d="M7.34769 4.37932C8.44693 3.88918 9.6461 4.65056 10.5978 5.1407C10.6644 5.17401 10.6549 5.29773 10.5693 5.29773C9.97444 5.29773 9.62231 5.03125 9.06555 4.88374C8.78479 4.8076 8.52307 4.69815 8.22803 4.66959C7.93776 4.64104 7.64748 4.70291 7.37148 4.64104C7.23824 4.60773 7.22396 4.43643 7.34769 4.38408V4.37932Z" fill="white"/>
<path d="M2.87404 9.08558C4.34921 8.40985 5.52458 9.51861 6.95217 9.62806C7.21865 9.64709 7.1901 10.0706 6.93313 10.0944C6.39541 10.1372 5.84341 9.93262 5.35803 9.72324C4.88693 9.51862 4.37776 9.31875 3.85431 9.34255C3.53073 9.35682 3.2119 9.41868 2.89783 9.33303C2.7741 9.29972 2.75983 9.14269 2.87879 9.09034L2.87404 9.08558Z" fill="white"/>
<path d="M6.17716 12.1074C6.22951 12.0884 6.26282 12.1598 6.21999 12.1931C5.21592 12.9925 4.24041 13.83 3.55993 14.9388C3.19351 15.5336 2.85089 16.1189 2.57965 16.7661C2.2751 17.5037 2.18945 18.3507 1.9991 19.1216C1.942 19.3453 1.63269 19.2882 1.64696 19.0598C1.86586 16.3045 3.37434 13.0829 6.17241 12.1122L6.17716 12.1074Z" fill="white"/>
<path d="M1.86995 18.7458C2.7027 17.5799 3.83525 16.7234 4.80601 15.6812C4.83456 15.6479 4.88691 15.6908 4.85836 15.7241C4.19215 16.652 3.32132 17.3991 2.65988 18.3318C1.78905 19.5643 1.42739 20.9395 1.53684 22.4385C1.62726 23.6757 2.36484 24.8321 3.16429 25.7314C3.87808 26.5356 4.33967 27.2304 4.53477 28.2963C4.56332 28.4581 4.31112 28.5105 4.25877 28.3582C3.80194 27.14 2.75981 26.2882 2.00319 25.2603C1.31795 24.3324 0.913465 23.138 0.89443 21.9864C0.875396 20.7682 1.16567 19.7261 1.86995 18.7363V18.7458Z" fill="white"/>
<path d="M2.3084 13.416C2.66054 13.0829 3.05074 12.7927 3.36957 12.4262C3.7455 11.9885 3.95012 11.3936 4.27847 10.913C4.64488 10.3753 5.39198 9.57583 6.10577 9.62818C6.24377 9.6377 6.21998 9.81377 6.12481 9.86135C4.41646 10.7322 4.21184 12.864 2.47971 13.6635C2.34171 13.7254 2.19419 13.5207 2.3084 13.416Z" fill="white"/>
<path d="M2.41309 13.5302C2.51778 13.4589 2.55109 13.4493 2.67958 13.4493C2.9984 13.4493 3.30771 13.5065 3.62654 13.4256C4.01199 13.3256 4.36889 13.1591 4.76861 13.0877C4.82571 13.0782 4.83523 13.1591 4.78764 13.1781C4.40695 13.3637 3.97392 13.7444 3.53137 13.7777C3.15544 13.8062 2.7462 13.9395 2.40358 13.7111C2.34171 13.6682 2.35599 13.5635 2.41309 13.5255V13.5302Z" fill="white"/>
<path d="M12.0779 32.9263C12.1302 32.3838 12.3634 32.0602 12.6394 31.6177C12.7488 31.4463 12.9963 31.5177 12.9772 31.7271C12.9534 32.0316 12.7583 32.2648 12.6917 32.5598C12.587 33.0167 12.5823 33.5258 12.7012 33.9827C12.7488 34.1683 12.4919 34.3443 12.3824 34.1492C12.1445 33.74 12.0398 33.4069 12.0826 32.9263H12.0779Z" fill="white"/>
<path d="M6.00529 26.7022C6.01481 26.5404 6.26226 26.5642 6.28129 26.7117C6.40502 27.6349 6.46212 28.5866 6.76667 29.4717C6.95226 30.0094 7.36626 30.4091 7.6946 30.8612C7.90398 31.1515 8.15619 31.4798 8.44646 31.7463C8.3037 31.2705 8.13239 30.8136 8.09908 30.2949C8.05625 29.5669 8.17046 28.8769 8.31798 28.1631C8.48453 27.3494 8.75101 26.5594 8.94136 25.7552C9.12694 24.9605 9.36963 24.104 9.26018 23.2903C9.24115 23.1523 9.45529 23.1332 9.47432 23.2712C9.71701 24.7083 9.0746 26.2644 8.77481 27.6539C8.59398 28.4914 8.42743 29.3956 8.55591 30.2474C8.6606 30.9326 8.98894 31.5798 9.04605 32.265C9.06032 32.4268 8.87474 32.5791 8.72246 32.4934C7.86115 32.0033 6.88564 30.9707 6.46212 30.0808C5.94819 29.0054 5.95771 27.8585 6.01005 26.6927L6.00529 26.7022Z" fill="white"/>
<path d="M8.65637 27.7681C8.70395 27.6872 8.83719 27.002 8.8705 27.1114C9.02278 27.6206 9.00375 28.8293 9.10368 29.3527C9.27023 30.2235 9.54623 31.0278 10.0078 31.7891C10.6502 32.8598 11.8446 33.2929 12.6774 34.1113C12.7012 34.1351 12.7107 34.1732 12.6822 34.197C12.0731 34.7918 10.1363 32.9169 9.80319 32.5124C9.21313 31.7891 8.85147 30.8898 8.6183 29.9951C8.43271 29.2766 8.25189 28.4343 8.65161 27.7776L8.65637 27.7681Z" fill="white"/>
<path d="M5.81999 26.8878C6.1864 25.7457 7.26661 24.6941 7.93282 23.7186C7.94233 23.7043 7.96137 23.7186 7.95185 23.7328C7.43792 24.7084 6.84785 25.6315 6.45289 26.6641C6.01985 27.7872 6.00082 29.0768 5.90089 30.2569C5.88185 30.4996 5.53447 30.452 5.4964 30.2426C5.3013 29.1624 5.48213 27.9252 5.81523 26.8878H5.81999Z" fill="white"/>
<path d="M3.9882 26.4691C4.18806 24.3991 5.11123 22.5242 5.47289 20.4923C5.48716 20.4114 5.61089 20.4304 5.60137 20.5161C5.19689 23.6187 3.1031 27.5065 5.88689 30.1713C6.01537 30.295 6.02965 30.5187 5.86785 30.6233C5.84882 30.6376 5.82503 30.6519 5.80123 30.6614C5.6442 30.7566 5.38247 30.6709 5.37296 30.4758C4.29751 29.486 3.8502 27.8871 3.9882 26.4643V26.4691Z" fill="white"/>
</svg>
