<svg width="78" height="69" viewBox="0 0 78 69" fill="none" xmlns="http://www.w3.org/2000/svg">
<path d="M18.4159 22.7471C20.0851 21.7863 21.8223 21.0682 23.6566 20.4762C24.5495 20.1947 25.52 20.2141 26.4323 20.0103C27.1893 19.8453 27.8395 20.0103 28.5189 20.0588C28.7712 20.1462 29.0235 20.2432 29.2759 20.35C30.0232 20.6702 30.8481 20.9905 31.6245 21.3884C30.1591 21.0682 28.5286 21.1652 27.1602 21.5437C25.5006 21.9999 23.0258 22.5336 22.3852 24.4164C22.3658 24.4747 22.4241 24.5329 22.4823 24.5135C22.6958 24.4455 22.8899 24.3388 23.0743 24.2223C25.1318 23.6206 27.3154 23.8147 29.3729 24.397C30.9937 24.8532 32.6921 25.6878 34.4002 25.6102C34.4875 25.7072 34.5749 25.8043 34.6622 25.8916C35.7006 26.9204 37.0497 26.833 38.3793 26.9592C38.4763 26.9592 38.554 26.9203 38.6122 26.8427C39.2333 27.163 39.7865 27.5124 40.4659 27.7356C40.4659 27.7356 40.4756 27.7356 40.4853 27.7356C40.5241 27.7841 40.5532 27.8326 40.592 27.8812C41.1161 28.6285 43.0668 30.1036 44.212 29.6766C44.445 29.6863 44.6779 29.6378 44.8817 29.5019C45.3669 29.7251 45.8231 30.0163 46.3278 30.2007C47.5021 30.618 48.4338 30.6374 49.6857 30.5598C49.8022 30.5598 49.9284 30.5307 50.0545 30.521C50.1128 30.5986 50.1613 30.6859 50.2001 30.7054C50.6368 31.0062 51.19 31.2877 51.7335 31.3071C53.3834 31.3653 54.7227 30.7053 56.0523 29.7931C57.4498 28.8323 59.9537 26.2119 58.43 24.4844C58.4883 24.3485 58.5368 24.2029 58.5853 24.0476C58.9444 22.9801 59.0221 21.0682 58.3136 20.0394C58.3815 20.0103 58.4494 19.9715 58.5077 19.923C58.7406 19.7289 58.8473 19.4765 58.8959 19.2048C59.5267 18.1566 58.4494 15.9633 57.8089 15.313C57.2363 14.721 56.4599 13.7408 55.5088 13.8476C55.402 13.8573 55.2953 13.8767 55.1885 13.8961C55.1303 13.6535 55.043 13.4011 54.9362 13.1585C54.9653 13.11 54.975 13.0517 54.9556 12.9935C54.5868 11.266 53.4125 9.45116 51.782 8.69416C51.2288 6.23877 47.9485 4.72476 45.8716 3.89983C44.0665 3.18165 42.1351 2.93901 40.2426 2.60903C38.2628 2.24994 36.7391 1.26004 35.0019 0.386584C34.9048 0.338058 34.8078 0.454514 34.8854 0.532154C34.9534 0.609795 35.0213 0.677712 35.0892 0.755353C35.6521 1.90056 35.8365 2.93903 36.9429 3.75426C37.0011 3.80279 37.0691 3.8513 37.137 3.89012C36.4577 3.79306 35.7783 3.71542 35.0892 3.64749C31.8574 3.33692 28.6256 3.51163 25.4229 3.96777C21.8806 4.47244 18.9302 5.78262 15.7761 7.41308C10.3994 10.1984 7.59464 16.7494 7.08997 22.4948C6.99292 23.5721 6.98321 27.0562 7.57523 29.8707C7.57523 29.8707 7.56553 29.8707 7.55583 29.8707C4.53754 30.6471 0.053773 32.3746 0.0343628 36.247C0.0343628 38.3821 0.30611 39.9543 1.40279 41.7983C2.48006 43.6034 3.61556 45.3795 4.62489 47.2234C4.62489 47.2429 4.62489 47.2526 4.62489 47.272C4.61519 47.3496 4.69283 47.4176 4.75106 47.3982C4.819 47.437 4.91604 47.3884 4.92575 47.2914C4.92575 47.2332 4.92575 47.1652 4.92575 47.107C5.68275 45.4765 5.39159 43.3802 5.89626 41.643C6.38152 40.0028 8.19637 39.0517 8.99219 37.6445C9.40951 39.1197 10.5838 40.4881 11.2244 41.808C11.9328 43.2929 12.2046 44.8166 11.8843 46.447C11.8358 46.6703 11.4282 47.3011 11.2535 47.7669C11.2147 47.8058 11.1758 47.8543 11.1273 47.8931C10.9332 48.0872 11.1952 48.456 11.4282 48.2813C13.9903 46.4082 15.3879 44.3896 16.3584 41.3713C17.3968 38.1006 15.8537 35.5191 14.2329 32.8502C11.8552 28.9293 15.0482 24.6494 18.3867 22.7375L18.4159 22.7471Z" fill="white"/>
<path d="M77.947 32.7434C77.947 30.6083 77.6753 29.0361 76.5786 27.1921C75.5013 25.3869 74.3658 23.6109 73.3565 21.7669C73.3565 21.7475 73.3565 21.7378 73.3565 21.7184C73.3662 21.6407 73.2886 21.5728 73.2303 21.5922C73.1624 21.5534 73.0556 21.6019 73.0556 21.699C73.0556 21.7572 73.0556 21.8252 73.0556 21.8834C72.2986 23.5138 72.5995 25.6102 72.0851 27.3474C71.5999 28.9875 69.7947 29.9386 68.9892 31.3459C68.5719 29.8707 67.3976 28.5023 66.757 27.1727C66.0485 25.6878 65.7768 24.1641 66.0971 22.5336C66.1456 22.3104 66.5532 21.6796 66.7279 21.2137C66.7667 21.1749 66.8055 21.1264 66.8444 21.0876C67.0385 20.8935 66.7764 20.5247 66.5435 20.6994C63.9814 22.5724 62.5838 24.5911 61.6133 27.6094C60.5749 30.88 62.1277 33.4616 63.7387 36.1305C66.1165 40.0514 62.9235 44.3313 59.585 46.2432C57.9157 47.204 56.1784 47.9222 54.3442 48.5045C53.4513 48.7957 52.4808 48.7666 51.5685 48.9704C50.8115 49.1353 50.1613 48.9703 49.4819 48.9218C49.2296 48.8345 48.9773 48.7374 48.7249 48.6307C47.9776 48.3104 47.1527 47.9901 46.3763 47.5922C47.8417 47.9125 49.4722 47.8154 50.8406 47.4369C52.5002 46.9808 54.975 46.447 55.6155 44.5642C55.6349 44.506 55.5767 44.4478 55.5185 44.4672C55.305 44.5351 55.1109 44.6419 54.9265 44.7583C52.869 45.3601 50.6756 45.1659 48.6279 44.5836C47.0071 44.1275 45.3087 43.2929 43.6006 43.3705C43.5133 43.2734 43.4259 43.1764 43.3386 43.0891C42.3001 42.0603 40.9511 42.138 39.6118 42.0215C39.5148 42.0215 39.4371 42.0603 39.3789 42.138C38.7578 41.8177 38.2046 41.4683 37.5252 41.2451C37.5252 41.2451 37.5155 41.2451 37.5058 41.2451C37.467 41.1965 37.4379 41.148 37.399 41.0995C36.875 40.3522 34.9242 38.8867 33.779 39.304C33.5461 39.2943 33.3132 39.3429 33.1094 39.4788C32.6241 39.2555 32.168 38.9644 31.6633 38.7897C30.489 38.3724 29.5573 38.353 28.3054 38.4306C28.1792 38.4306 28.0627 38.45 27.9366 38.4694C27.8783 38.3918 27.8298 38.3044 27.791 38.285C27.3543 37.9842 26.8011 37.7027 26.2576 37.6833C24.6077 37.6251 23.2684 38.285 21.9388 39.1973C20.5413 40.1581 18.0373 42.7785 19.561 44.506C19.5028 44.6419 19.4543 44.7875 19.4058 44.9427C19.0467 46.0103 18.969 47.9222 19.6775 48.9509C19.6096 48.98 19.5416 49.0189 19.4834 49.0674C19.2505 49.2518 19.1437 49.5138 19.0952 49.7856C18.4644 50.8337 19.5416 53.0271 20.1822 53.6773C20.7548 54.2694 21.5312 55.2496 22.4823 55.1428C22.589 55.1331 22.6958 55.1137 22.8025 55.0943C22.8705 55.3466 22.9481 55.5892 23.0549 55.8416C23.0258 55.8901 23.0161 55.9483 23.0355 56.0066C23.4043 57.7341 24.5786 59.5489 26.2091 60.3059C26.7622 62.7613 30.0426 64.2753 32.1195 65.1003C33.9246 65.8184 35.8559 66.0611 37.7484 66.4007C39.738 66.7501 41.252 67.74 42.9989 68.6232C43.0959 68.6717 43.1833 68.5553 43.1154 68.4679C43.0474 68.3903 42.9795 68.3223 42.9115 68.2447C42.3486 67.0995 42.1642 66.0611 41.0579 65.2458C40.9996 65.1973 40.9317 65.1488 40.8638 65.11C41.5431 65.207 42.2225 65.2847 42.9115 65.3526C46.1433 65.6729 49.3752 65.4884 52.5875 65.0323C56.1299 64.5276 59.0803 63.2175 62.2344 61.587C67.6111 58.8016 70.4159 52.2507 70.9302 46.4955C71.0273 45.4183 71.037 41.9342 70.445 39.1197C70.445 39.1197 70.4547 39.1197 70.4644 39.1197C73.4827 38.3433 77.9761 36.6158 77.9858 32.7434H77.947Z" fill="white"/>
<path d="M45.0658 27.3376C44.338 25.6877 42.8434 23.737 40.8053 23.999C40.126 24.0864 39.7863 24.756 39.6019 25.348C39.3204 26.27 40.1356 27.2114 40.6112 27.8811C41.1353 28.6284 43.086 30.1035 44.2312 29.6765C44.5127 29.6862 44.7844 29.628 45.0076 29.4339C45.5899 28.9486 45.3279 27.9102 45.0658 27.3279V27.3376ZM40.9218 24.8725C41.9602 24.4454 43.2316 25.8915 43.7265 26.6097C44.1244 27.1823 44.435 27.8617 44.5127 28.5604C44.6 29.3757 43.7945 29.036 43.2898 28.9971C43.2898 28.9971 43.2704 28.9971 43.2607 28.9971C42.8046 28.8322 42.3775 28.541 42.0087 28.2499C41.407 27.7937 39.5922 25.4257 40.9218 24.8725Z" fill="#3C0088"/>
<path d="M44.5426 28.5701C44.1835 27.7451 43.6109 27.1143 42.8927 26.5805C42.3784 26.1923 41.7475 25.6489 41.0584 25.8041C40.4955 25.9303 40.2335 26.4058 40.4858 26.9202C40.5732 27.0949 40.7867 26.959 40.7673 26.8038C40.6703 26.0856 41.4952 26.4641 41.7572 26.6388C42.126 26.8814 42.4754 27.192 42.7957 27.4928C43.378 28.0169 43.6691 28.5701 43.8438 29.2883C43.7468 29.4338 43.8438 29.6376 44.0379 29.6474C44.6105 29.6765 44.7173 29.0068 44.5329 28.5701H44.5426Z" fill="#3C0088"/>
<path d="M58.537 19.9326C58.7699 19.7385 58.8766 19.4862 58.9252 19.2145C59.556 18.1663 58.4787 15.973 57.8382 15.3227C57.2656 14.7307 56.4892 13.7505 55.5381 13.8572C54.9267 13.9252 54.1988 14.129 53.9853 14.7792C53.335 16.73 54.9752 18.5739 56.4601 19.593C56.9842 19.952 57.9449 20.4082 58.537 19.9326ZM57.9255 16.7591C58.1293 17.1764 58.3429 17.652 58.4205 18.1275C58.4205 18.1275 58.4205 18.1469 58.4205 18.1566C58.3623 18.6613 58.5564 19.5153 57.7606 19.2727C57.0909 19.0689 56.4795 18.6321 55.9942 18.1372C55.3828 17.5161 54.1988 15.9924 54.8199 15.051C55.6157 13.8475 57.5956 16.0797 57.9352 16.7591H57.9255Z" fill="#3C0088"/>
<path d="M57.7701 19.3212C57.0228 18.8068 56.5181 18.1371 56.1202 17.3316C55.8388 16.7493 55.4215 16.0311 55.7029 15.3906C55.9358 14.8568 56.4502 14.6918 56.9161 15.0412C57.0713 15.1577 56.8966 15.3421 56.7511 15.2935C56.0717 15.0606 56.2852 15.9438 56.4017 16.2349C56.5667 16.6426 56.819 17.0405 57.0422 17.419C57.4498 18.0886 57.9351 18.4768 58.6145 18.7874C58.7794 18.7195 58.9541 18.865 58.9347 19.0494C58.8571 19.622 58.1777 19.6026 57.7895 19.3309L57.7701 19.3212Z" fill="#3C0088"/>
<path d="M58.0319 19.7094C57.8572 19.5638 57.5466 19.6415 57.5563 19.9132C57.6048 21.2428 57.9736 22.4656 57.6922 23.8146C57.2748 25.8042 55.7802 26.8718 54.2857 28.0364C52.762 29.2301 50.5783 29.7057 48.6761 29.7639C47.7735 29.793 46.9777 29.5989 46.1237 29.366C45.6287 29.2301 45.2599 28.9292 44.7455 28.9001C44.4253 28.8904 44.4253 29.3175 44.6776 29.4145C45.2502 29.6474 45.7646 30.0065 46.3566 30.22C47.5309 30.6373 48.4626 30.6567 49.7146 30.5791C51.5585 30.4626 53.4996 29.8415 54.965 28.706C56.7508 27.3182 57.896 26.2409 58.6238 24.067C59.0315 22.8733 59.08 20.6023 58.0513 19.7094H58.0319Z" fill="#3C0088"/>
<path d="M58.2941 24.3289C58.0903 24.1348 57.7603 24.3289 57.8282 24.6007C58.43 27.1725 56.2948 28.8224 54.2956 30.0064C53.1213 30.7052 51.3161 30.7731 50.2291 29.9191C50.0544 29.7832 50.0739 29.822 50.1127 29.8803C50.0253 29.7735 49.8312 29.8026 49.7827 29.9482C49.7827 29.9773 49.7633 29.9967 49.7633 30.0258C49.7245 30.1423 49.8021 30.2587 49.9186 30.2976C49.9671 30.317 50.1515 30.6567 50.2388 30.7149C50.6756 31.0158 51.2288 31.2972 51.7722 31.3166C53.4221 31.3749 54.7614 30.7149 56.091 29.8026C57.5371 28.8127 60.1575 26.0467 58.3135 24.3289H58.2941Z" fill="#3C0088"/>
<path d="M48.7255 19.8161C47.4347 17.5548 46.1536 15.74 43.9312 14.3424C41.5243 12.8187 39.0301 11.4406 36.2738 10.6351C33.3429 9.78103 30.3634 9.52869 27.316 9.56752C24.7053 9.59663 21.9685 10.0528 19.8528 11.6832C19.746 11.7706 19.8333 11.9356 19.9595 11.8676C24.783 9.40252 31.004 10.111 36.0215 11.5474C38.4575 12.2461 40.9614 13.4981 43.0383 14.9442C43.9311 15.575 44.8046 16.1282 45.5907 16.8949C46.5806 17.846 47.2406 19.2047 48.1723 20.2431C48.444 20.544 48.9293 20.1558 48.7255 19.8161Z" fill="#3C0088"/>
<path d="M48.4243 20.0394C48.3369 20.0588 48.2593 20.0782 48.1817 20.1461C47.4344 20.8934 46.3571 20.612 45.5128 20.2529C44.0764 19.6512 42.873 18.3021 41.7181 17.2734C39.7091 15.4877 37.3896 14.0707 34.8662 13.139C32.605 12.2947 30.1495 11.5086 27.7524 11.198C25.5299 10.9068 22.3175 10.3828 20.2891 11.6153C20.2115 11.6638 20.26 11.7803 20.3474 11.7512C23.2201 10.9165 26.9954 11.7997 29.8002 12.4402C32.6147 13.0905 35.4194 14.1192 37.8845 15.6235C40.4564 17.186 42.3683 19.6802 45.0178 21.0778C45.8233 21.5048 46.9491 21.7086 47.842 21.466C48.0846 21.3981 48.3758 21.2719 48.5116 21.0487C48.5116 21.0487 48.8804 20.2432 48.7445 20.4761C48.8901 20.2237 48.6572 19.9714 48.3952 20.0296L48.4243 20.0394Z" fill="#3C0088"/>
<path d="M40.6989 27.3667C39.6216 26.338 38.3017 25.8721 37.0886 25.0375C36.2442 24.4649 35.4096 23.6109 36.6228 22.8539C37.2827 22.4365 38.0591 22.2327 38.8161 22.4462C38.884 22.4656 38.9132 22.3783 38.8646 22.3298C38.1173 21.7669 37.4768 21.8639 36.6033 22.1357C35.9434 22.3395 35.1184 22.8927 35.0893 23.6594C35.0505 24.7172 35.8754 25.2316 36.6616 25.7848C37.2342 26.1924 37.8747 26.4545 38.5056 26.765C39.1946 27.1047 39.7672 27.4929 40.4951 27.7355C40.7086 27.8035 40.8736 27.5123 40.7086 27.3667H40.6989Z" fill="#3C0088"/>
<path d="M38.7864 22.1356C38.602 22.0871 38.3594 21.6212 38.175 21.4951C37.6801 21.136 37.2336 21.1263 36.6416 21.0486C35.3896 20.8933 34.2056 21.7765 33.7398 22.8829C33.2739 23.9699 33.9048 25.1442 34.6715 25.9012C35.7099 26.9299 37.0589 26.8426 38.3885 26.9688C38.6408 26.9882 38.7767 26.6291 38.5923 26.4641C38.078 25.9885 37.5636 26.1632 36.9036 26.0371C35.9137 25.8527 35.1373 25.3771 34.6229 24.494C33.3613 22.32 37.1851 20.8739 38.505 22.4462C38.5535 22.4947 38.6311 22.5141 38.6991 22.4947C38.7379 22.4947 38.7767 22.4947 38.8058 22.4753C38.8156 22.4656 38.8349 22.4462 38.8446 22.4365C38.9417 22.3394 38.8932 22.1841 38.767 22.1453L38.7864 22.1356Z" fill="#3C0088"/>
<path d="M55.2663 14.0997C54.8878 12.2267 53.0438 10.111 51.0834 9.84892C49.647 9.66453 47.706 11.0038 48.8803 12.5372C48.9871 12.6731 49.2588 12.6052 49.1909 12.4111C48.8609 11.4211 49.5791 10.6156 50.5302 10.5477C51.2386 10.4992 51.9568 10.9747 52.51 11.3532C53.6455 12.1296 53.859 13.4786 54.8392 14.3521C55.043 14.5268 55.3245 14.3521 55.276 14.0997H55.2663Z" fill="#3C0088"/>
<path d="M54.9845 12.9933C54.4604 10.5573 52.3641 7.95635 49.6079 8.36397C48.8024 8.48043 47.6378 9.23741 47.6378 10.14C47.6378 11.227 48.2006 11.6152 48.8606 12.3528C48.88 12.3819 48.9285 12.3916 48.9674 12.3819L49.045 12.3528C49.1129 12.3236 49.1129 12.2363 49.045 12.2169C48.977 12.1878 48.4336 11.0329 48.4336 11.0232C47.8998 9.66444 49.7243 8.97536 50.724 9.15976C52.8009 9.53826 53.587 11.6055 54.5672 13.1777C54.7128 13.4106 55.0525 13.2553 54.9942 12.9933H54.9845Z" fill="#3C0088"/>
<path d="M31.887 19.292C29.4704 17.5645 26.5783 17.5257 24.0258 16.1087C23.987 16.0893 23.9579 16.1476 23.987 16.167C25.7824 17.4189 27.8108 17.7877 29.7324 18.7582C31.8676 19.8452 32.8283 21.3495 33.7794 23.4264C33.8474 23.5623 34.09 23.5332 34.1191 23.3779C34.3715 21.7377 33.1486 20.1946 31.887 19.292Z" fill="#3C0088"/>
<path d="M37.5933 21.5532C35.429 15.934 28.4996 17.7197 24.1129 15.9049C24.0546 15.8757 24.0158 15.9631 24.0546 16.0116C25.5007 17.545 28.5481 17.5256 30.5085 17.7877C32.0516 18.0012 33.6821 18.4476 34.8758 19.5152C35.7008 20.2527 36.3801 21.1553 37.2633 21.825C37.4186 21.9414 37.6709 21.7473 37.603 21.5629L37.5933 21.5532Z" fill="#3C0088"/>
<path d="M48.3465 10.9748C43.756 10.1401 40.2621 6.90831 35.4872 6.62686C35.3804 6.62686 35.361 6.79185 35.4581 6.81126C38.1464 7.2674 40.4951 8.3835 42.8049 9.81985C44.4839 10.8583 46.2599 11.5862 48.2494 11.722C48.6764 11.7512 48.7735 11.0524 48.3465 10.9748Z" fill="#3C0088"/>
<path d="M48.9964 8.52902C47.7444 8.26699 46.3566 8.17964 45.192 7.61674C44.1438 7.11208 43.0666 6.75298 41.9311 6.49094C40.7373 6.2095 39.3495 6.33567 38.1364 6.43272C37.3211 6.50065 36.3215 6.37449 35.5548 6.67534C35.516 6.69475 35.516 6.74328 35.5548 6.76269C36.3797 7.08296 37.2726 7.03445 38.1364 6.99563C39.6892 6.9374 41.2323 7.1315 42.7172 7.56823C44.4738 8.07289 47.1621 9.96539 49.0546 8.99488C49.2487 8.89783 49.2099 8.56785 48.9964 8.52902Z" fill="#3C0088"/>
<path d="M33.8276 22.4171C33.4296 21.1749 31.7895 20.6023 30.7316 20.0685C29.0623 19.2144 27.2863 18.7389 25.4326 18.4865C21.5021 17.9528 18.0373 18.6418 14.4853 20.3014C14.4464 20.3208 14.4853 20.3888 14.5144 20.3693C17.7268 19.1465 20.7062 18.7486 24.1418 19.1174C25.9179 19.3115 27.626 19.6414 29.2856 20.3499C30.6831 20.9516 32.3524 21.5437 33.449 22.6403C33.6043 22.8053 33.9052 22.6403 33.8373 22.4171H33.8276Z" fill="#3C0088"/>
<path d="M29.1881 19.7871C28.2952 19.098 27.3538 19.0786 26.228 19.263C24.2967 19.5736 22.5013 19.8259 20.667 20.612C17.7652 21.8543 14.6498 23.5818 13.4173 26.668C12.7865 28.25 12.4759 29.6766 12.8059 31.3653C13.1261 33.0249 14.2422 34.4709 15.106 35.8879C16.4162 38.0327 15.7562 41.1092 14.8051 43.2347C13.9608 45.1077 12.5535 46.4471 11.156 47.9028C10.9619 48.0969 11.2239 48.4657 11.4568 48.291C14.019 46.4179 15.4165 44.3993 16.3871 41.381C17.4255 38.1104 15.8824 35.5288 14.2616 32.8599C11.8839 28.939 15.0769 24.6591 18.4154 22.7471C20.0847 21.7863 21.8219 21.0682 23.6562 20.4762C24.549 20.1947 25.5196 20.2141 26.4319 20.0103C27.383 19.8065 28.1594 20.1074 29.0619 20.0686C29.1978 20.0686 29.3046 19.8744 29.1784 19.7774L29.1881 19.7871Z" fill="#3C0088"/>
<path d="M34.9627 25.0375C30.8963 24.0184 26.5969 22.2618 22.5402 24.329C22.5014 24.3484 22.5305 24.4067 22.5693 24.3969C24.7821 23.6011 27.1598 23.7758 29.392 24.3969C31.1777 24.9016 33.0702 25.8818 34.9627 25.5616C35.2345 25.513 35.2053 25.1054 34.9627 25.0375Z" fill="#3C0088"/>
<path d="M33.1387 21.9124C31.382 21.0292 29.0334 21.0389 27.17 21.5533C25.5104 22.0094 23.0356 22.5432 22.3951 24.426C22.3757 24.4842 22.4339 24.5425 22.4922 24.5231C23.1036 24.3192 23.55 23.8825 24.0644 23.504C25.0349 22.7955 26.2286 22.5723 27.3738 22.2909C28.3346 22.0579 29.5381 21.9221 30.528 22.0677C31.3529 22.1841 32.1779 22.417 33.0028 22.3976C33.2454 22.3976 33.3716 22.0385 33.129 21.9221L33.1387 21.9124Z" fill="#3C0088"/>
<path d="M7.5753 29.8803C4.55701 30.6567 0.0732432 32.3843 0.053833 36.2566C0.053833 38.3917 0.32558 39.964 1.42226 41.8079C2.52864 43.6519 3.69328 45.4765 4.72202 47.369C4.78025 47.4757 4.93551 47.4175 4.94522 47.3107C5.01315 46.1558 4.26588 45.0883 3.72239 44.108C2.84893 42.5164 1.78135 40.8277 1.20874 39.1002C0.509976 36.9554 1.23788 34.5097 2.83923 33.0151C4.25617 31.6952 6.17778 31.3943 7.80824 30.4627C8.1091 30.288 7.90529 29.8124 7.56561 29.8998L7.5753 29.8803Z" fill="#3C0088"/>
<path d="M50.1706 8.38347C49.7824 7.80116 48.8701 7.52941 48.2781 7.18973C46.9582 6.43273 45.483 6.05425 44.0661 5.53988C41.1546 4.49172 38.1945 3.95794 35.118 3.65708C31.8862 3.34652 28.6544 3.5212 25.4517 3.97734C21.9093 4.482 18.959 5.79221 15.8048 7.42267C10.4282 10.208 7.62341 16.759 7.11875 22.5044C6.93435 24.6492 7.0702 36.2857 11.651 33.345C11.7384 33.2868 11.6801 33.1509 11.5831 33.18C8.67154 33.9079 8.00189 28.8515 8.00189 26.8426C8.00189 24.1737 7.83692 21.6892 8.60363 19.0785C9.40915 16.3028 10.5543 13.7601 12.3595 11.4794C14.1452 9.23752 16.5036 8.05349 19.0075 6.80153C24.0445 4.2782 30.2266 4.05499 35.7391 4.59848C38.3013 4.85081 40.8149 5.33605 43.2509 6.1901C44.6096 6.66565 46.0459 7.05386 47.3367 7.7041C47.7734 7.92732 49.1225 8.40289 49.4039 8.82021C49.7242 9.28606 50.4812 8.8493 50.1706 8.37375V8.38347Z" fill="#3C0088"/>
<path d="M40.3401 4.87993C39.2143 4.42379 38.0108 3.8415 37.0597 3.07479C36.2445 2.41485 35.8175 1.49285 35.1672 0.69703C35.1284 0.658209 35.0702 0.706732 35.0993 0.755258C35.6719 1.90046 35.8466 2.94862 36.9627 3.76385C37.9138 4.46262 39.0978 5.17111 40.2818 5.32639C40.5536 5.3555 40.5536 4.96729 40.3401 4.88965V4.87993Z" fill="#3C0088"/>
<path d="M45.9013 3.8998C44.0961 3.18162 42.1648 2.93898 40.2723 2.609C38.2924 2.24991 36.7687 1.26001 35.0315 0.386553C34.9345 0.338028 34.8374 0.454483 34.9151 0.532124C36.7978 2.74489 39.5832 3.3563 42.3395 3.86097C45.7654 4.4918 49.463 6.11256 51.3555 9.16967C51.5399 9.47053 51.9281 9.257 51.8796 8.94644C51.5108 6.33577 48.0655 4.75384 45.9109 3.89008L45.9013 3.8998Z" fill="#3C0088"/>
<path d="M13.3308 29.7056C13.292 29.5115 12.9911 29.5212 12.9426 29.7056C12.6902 30.7538 12.7 31.8213 12.2147 32.8113C12.1856 32.8695 12.2341 32.9277 12.2923 32.918C12.7485 32.8307 12.9426 32.2775 13.0784 31.8893C13.3211 31.1905 13.4666 30.4432 13.3211 29.7153L13.3308 29.7056Z" fill="#3C0088"/>
<path d="M8.84613 36.1886C7.97266 37.984 6.0025 39.0225 5.33285 40.9053C4.99317 41.8661 4.83791 42.8269 4.72145 43.8362C4.58558 44.9814 4.80878 46.1363 4.64379 47.2718C4.62438 47.3786 4.76997 47.4659 4.83791 47.3495C5.75019 45.6899 5.3911 43.4674 5.92488 41.6429C6.546 39.5369 9.33138 38.5857 9.41872 36.3342C9.41872 36.0333 8.982 35.8974 8.84613 36.1789V36.1886Z" fill="#3C0088"/>
<path d="M12.6026 43.7101C12.3988 42.4387 11.9329 41.2644 11.2439 40.1774C10.8945 39.6242 10.5839 39.0225 10.2539 38.4596C9.73955 37.5667 9.78807 36.635 9.55515 35.6742C9.48722 35.4025 9.10871 35.4219 9.03107 35.6742C8.3323 37.9549 10.3607 39.9251 11.2633 41.8273C11.9717 43.3121 12.2435 44.8358 11.9232 46.4663C11.865 46.7672 11.1468 47.8056 11.2147 48.1841C11.2147 48.2132 11.273 48.2326 11.2924 48.2035C11.6126 47.825 12.0979 47.5921 12.3114 47.0486C12.7287 46.0005 12.7773 44.8261 12.6026 43.7101Z" fill="#3C0088"/>
<path d="M32.9444 41.672C33.6722 43.3218 35.1668 45.2726 37.2049 45.0105C37.8843 44.9232 38.2239 44.2536 38.4083 43.6615C38.6898 42.7396 37.8746 41.7981 37.399 41.1285C36.8749 40.3812 34.9242 38.9157 33.779 39.333C33.5072 39.3233 33.2355 39.3816 33.0026 39.5757C32.4203 40.0609 32.6823 41.0994 32.9444 41.6817V41.672ZM37.0884 44.1371C36.05 44.5641 34.7786 43.118 34.2837 42.3999C33.8858 41.8273 33.5752 41.1479 33.4976 40.4492C33.4102 39.6339 34.2157 39.9736 34.7204 40.0124C34.7204 40.0124 34.7398 40.0124 34.7495 40.0124C35.2056 40.1774 35.6327 40.4686 36.0015 40.75C36.6032 41.2061 38.418 43.5742 37.0884 44.1274V44.1371Z" fill="#3C0088"/>
<path d="M33.4586 40.4298C33.8177 41.2547 34.3903 41.8856 35.1085 42.429C35.6229 42.8172 36.2537 43.3607 36.9428 43.2055C37.5154 43.0793 37.7677 42.6038 37.5153 42.0894C37.428 41.9147 37.2145 42.0506 37.2339 42.2058C37.331 42.924 36.506 42.5455 36.244 42.3708C35.8752 42.1282 35.5258 41.8176 35.2055 41.5168C34.6232 40.9927 34.3321 40.4395 34.1574 39.7213C34.2544 39.5758 34.1477 39.372 33.9633 39.3622C33.3907 39.3331 33.2839 40.0028 33.4683 40.4298H33.4586Z" fill="#3C0088"/>
<path d="M19.4736 49.077C19.2407 49.2614 19.1339 49.5235 19.0854 49.7952C18.4546 50.8434 19.5318 53.0367 20.1724 53.6869C20.745 54.279 21.5214 55.2592 22.4725 55.1524C23.0839 55.0845 23.8118 54.8807 24.0253 54.2207C24.6755 52.27 23.0354 50.426 21.5505 49.407C21.0264 49.0479 20.0656 48.5918 19.4736 49.0673V49.077ZM20.085 52.2506C19.8812 51.8333 19.6677 51.3577 19.59 50.8822C19.59 50.8822 19.59 50.8628 19.59 50.8531C19.6483 50.3484 19.4542 49.4943 20.25 49.737C20.9197 49.9408 21.5311 50.3775 22.0163 50.8725C22.6277 51.4936 23.8118 53.0173 23.1907 53.949C22.3948 55.1524 20.415 52.93 20.0753 52.2409L20.085 52.2506Z" fill="#3C0088"/>
<path d="M20.2401 49.6885C20.9777 50.2028 21.492 50.8725 21.8899 51.678C22.1714 52.2506 22.5887 52.9785 22.3073 53.619C22.0841 54.1528 21.5697 54.3178 21.0941 53.9684C20.9389 53.852 21.1135 53.6675 21.2591 53.7161C21.9482 53.949 21.725 53.0658 21.6085 52.7747C21.4435 52.3671 21.1912 51.9692 20.968 51.6004C20.5604 50.9307 20.0751 50.5328 19.3957 50.2319C19.2308 50.2999 19.056 50.1543 19.0755 49.9699C19.1531 49.3973 19.8325 49.4167 20.2207 49.6885H20.2401Z" fill="#3C0088"/>
<path d="M19.9683 49.3003C20.143 49.4459 20.4632 49.3683 20.4438 49.0965C20.3953 47.7669 20.0265 46.5441 20.308 45.1951C20.7253 43.2055 22.2198 42.1379 23.7144 40.9733C25.2381 39.7796 27.4218 39.3041 29.324 39.2458C30.2266 39.2167 31.0224 39.4108 31.8862 39.6437C32.3811 39.7699 32.7596 40.0805 33.2643 40.0999C33.5845 40.1193 33.5845 39.6923 33.3322 39.5855C32.7596 39.3526 32.2452 38.9935 31.6532 38.7897C30.4789 38.3724 29.5472 38.353 28.2952 38.4306C26.4513 38.5471 24.5102 39.1682 23.0448 40.3037C21.259 41.6915 20.1138 42.7688 19.386 44.9427C18.9783 46.1365 18.9298 48.4075 19.9586 49.3003H19.9683Z" fill="#3C0088"/>
<path d="M19.7161 44.6807C19.9199 44.8748 20.2499 44.6807 20.182 44.4089C19.59 41.8371 21.7154 40.1872 23.7146 39.0032C24.8889 38.3044 26.6941 38.2365 27.7811 39.0905C27.9557 39.2264 27.9363 39.1876 27.8975 39.1293C27.9946 39.2361 28.179 39.207 28.2275 39.0614C28.2275 39.0323 28.2469 39.0129 28.2469 38.9838C28.2857 38.8673 28.2081 38.7508 28.0916 38.712C28.0431 38.6926 27.8587 38.3529 27.7714 38.2947C27.3346 37.9938 26.7814 37.7124 26.2379 37.693C24.5881 37.6348 23.2488 38.2947 21.9192 39.207C20.4731 40.1969 17.8527 42.9629 19.6967 44.6807H19.7161Z" fill="#3C0088"/>
<path d="M29.2851 49.1934C30.5759 51.4547 31.8667 53.2696 34.0794 54.6671C36.4863 56.1908 38.9902 57.569 41.7465 58.3745C44.6774 59.2285 47.6569 59.4808 50.7043 59.442C53.315 59.4032 56.0518 58.9568 58.1675 57.3263C58.2743 57.239 58.1869 57.074 58.0608 57.1419C53.2373 59.607 47.0163 58.8986 41.9988 57.4622C39.5628 56.7634 37.0589 55.5115 34.9917 54.0654C34.0988 53.4346 33.2254 52.8814 32.4393 52.1147C31.4494 51.1636 30.7894 49.8048 29.8577 48.7664C29.586 48.4655 29.1007 48.8537 29.3045 49.1934H29.2851Z" fill="#3C0088"/>
<path d="M29.5863 48.9703C29.6736 48.9509 29.761 48.9315 29.8289 48.8636C30.5762 48.1163 31.6535 48.3977 32.4978 48.7568C33.9342 49.3586 35.1376 50.7076 36.2925 51.7363C38.3015 53.5221 40.621 54.939 43.1443 55.8707C45.4056 56.7053 47.861 57.5011 50.2582 57.8117C52.4806 58.1028 55.693 58.6269 57.7214 57.3944C57.799 57.3459 57.7505 57.2294 57.6632 57.2585C54.7905 58.0931 51.0152 57.21 48.2104 56.5694C45.3959 55.9192 42.5911 54.8905 40.126 53.3862C37.5542 51.8236 35.6423 49.3294 32.9928 47.9319C32.1872 47.5049 31.0615 47.3011 30.1686 47.5437C29.926 47.6116 29.6348 47.7378 29.4892 47.961C29.4892 47.961 29.1204 48.7665 29.2466 48.5239C29.101 48.7762 29.3339 49.0286 29.596 48.98L29.5863 48.9703Z" fill="#3C0088"/>
<path d="M37.3116 41.6332C38.3889 42.662 39.7088 43.1278 40.9219 43.9624C41.7663 44.5351 42.6009 45.3891 41.3975 46.1461C40.7375 46.5634 39.9611 46.7672 39.2041 46.5537C39.1265 46.5343 39.107 46.6217 39.1556 46.6702C39.8932 47.2331 40.5434 47.136 41.4266 46.8643C42.0865 46.6605 42.9114 46.1073 42.9406 45.3309C42.9794 44.273 42.1545 43.7586 41.3683 43.2055C40.786 42.7978 40.1552 42.5358 39.5244 42.2252C38.845 41.8855 38.2627 41.4973 37.5348 41.2547C37.3213 41.1868 37.1563 41.4779 37.3213 41.6235L37.3116 41.6332Z" fill="#3C0088"/>
<path d="M39.2138 46.874C39.3982 46.9225 39.6408 47.3883 39.8155 47.5145C40.3105 47.8736 40.7569 47.8833 41.3489 47.9609C42.6009 48.1162 43.7849 47.233 44.2508 46.1266C44.7166 45.03 44.0858 43.8654 43.3094 43.1084C42.2709 42.0796 40.9219 42.1573 39.5826 42.0408C39.3303 42.0214 39.1944 42.3805 39.3788 42.5455C39.8932 43.021 40.4075 42.8463 41.0675 42.9725C42.0671 43.1569 42.8338 43.6421 43.3482 44.5253C44.6099 46.6992 40.786 48.1453 39.4662 46.5731C39.4176 46.5149 39.34 46.5051 39.272 46.5246C39.2332 46.5246 39.1944 46.5246 39.1653 46.544C39.1459 46.5537 39.1362 46.5731 39.1168 46.5828C39.0197 46.6798 39.0682 46.8351 39.1944 46.874H39.2138Z" fill="#3C0088"/>
<path d="M22.744 54.9099C23.1225 56.783 24.9664 58.9084 26.9269 59.1607C28.3632 59.3451 30.3043 58.0058 29.13 56.4724C29.0232 56.3365 28.7514 56.4045 28.8194 56.5986C29.1494 57.5982 28.4312 58.394 27.4801 58.462C26.7716 58.5105 26.0534 58.0349 25.5002 57.6564C24.3647 56.88 24.1512 55.5213 23.171 54.6575C22.9672 54.4828 22.6858 54.6575 22.7343 54.9099H22.744Z" fill="#3C0088"/>
<path d="M23.0256 56.0161C23.5497 58.4521 25.646 61.0531 28.4023 60.6455C29.2078 60.529 30.3724 59.772 30.3724 58.8694C30.3724 57.7825 29.8095 57.3943 29.1496 56.6567C29.1301 56.6275 29.0816 56.6178 29.0428 56.6275L28.9652 56.6567C28.8972 56.6858 28.8972 56.7731 28.9652 56.8022C29.0331 56.8313 29.5766 57.9863 29.5863 57.996C30.1201 59.3547 28.2955 60.0438 27.2959 59.8594C25.219 59.4809 24.4232 57.4137 23.4527 55.8414C23.3071 55.6085 22.9674 55.7638 23.0256 56.0258V56.0161Z" fill="#3C0088"/>
<path d="M46.114 49.7078C48.5305 51.4354 51.4227 51.4839 53.9751 52.8911C54.0139 52.9105 54.043 52.8523 54.0139 52.8329C52.2185 51.5809 50.1901 51.2122 48.2685 50.2416C46.1334 49.1547 45.1726 47.6504 44.2215 45.5735C44.1535 45.4376 43.9109 45.4667 43.8818 45.622C43.6294 47.2622 44.8523 48.8053 46.114 49.7078Z" fill="#3C0088"/>
<path d="M40.4072 47.4466C42.5714 53.0658 49.5009 51.2801 53.8876 53.095C53.9458 53.1241 53.9846 53.0367 53.9458 52.9882C52.4998 51.4548 49.4523 51.4742 47.4919 51.2122C45.9488 50.9987 44.3183 50.5522 43.1246 49.4847C42.29 48.7471 41.6203 47.8445 40.7469 47.1748C40.5916 47.0584 40.3392 47.2525 40.4072 47.4369V47.4466Z" fill="#3C0088"/>
<path d="M29.6545 58.0349C34.2451 58.8696 37.7389 62.1014 42.5138 62.3828C42.6206 62.3828 42.64 62.2179 42.5333 62.1984C39.8449 61.7423 37.4963 60.6262 35.1865 59.1899C33.5075 58.1514 31.7315 57.4235 29.7419 57.2876C29.3149 57.2585 29.2178 57.9573 29.6449 58.0349H29.6545Z" fill="#3C0088"/>
<path d="M29.0038 60.4805C30.2557 60.7425 31.6435 60.8299 32.8082 61.3928C33.8563 61.8974 34.9336 62.2565 36.0691 62.5186C37.2628 62.8 38.6604 62.6738 39.8638 62.5768C40.679 62.5089 41.6786 62.635 42.4454 62.3439C42.4842 62.3245 42.4842 62.2662 42.4454 62.2565C41.6204 61.9363 40.7275 61.9848 39.8638 62.0236C38.311 62.0818 36.7679 61.8877 35.283 61.451C33.5263 60.9463 30.838 59.0538 28.9455 60.0243C28.7514 60.1214 28.7903 60.4514 29.0038 60.4999V60.4805Z" fill="#3C0088"/>
<path d="M44.1823 46.5924C44.5802 47.8347 46.2204 48.4073 47.2783 48.9411C48.9475 49.7951 50.7236 50.2707 52.5773 50.523C56.5175 51.0568 59.9726 50.3677 63.5246 48.7081C63.5634 48.6887 63.5343 48.6208 63.4955 48.6402C60.2831 49.8631 57.3036 50.2609 53.868 49.8921C52.0823 49.698 50.3839 49.3681 48.7243 48.6596C47.3268 48.0579 45.6575 47.4756 44.5705 46.3789C44.4153 46.2139 44.1144 46.3789 44.1823 46.6021V46.5924Z" fill="#3C0088"/>
<path d="M48.8218 49.2226C49.7147 49.9117 50.6561 49.9311 51.7722 49.7467C53.7035 49.4361 55.499 49.1838 57.3332 48.3977C60.2351 47.1555 63.3504 45.4279 64.583 42.3417C65.2138 40.7598 65.5244 39.3331 65.1944 37.6444C64.8741 35.9849 63.758 34.5388 62.8846 33.1218C61.5744 30.9867 62.2343 27.9005 63.1854 25.7751C64.0298 23.902 65.437 22.5627 66.8346 21.1069C67.0287 20.9128 66.7666 20.544 66.5337 20.7187C63.9715 22.5918 62.574 24.6105 61.6035 27.6287C60.565 30.8994 62.1179 33.4809 63.7289 36.1498C66.1067 40.0707 62.9137 44.3507 59.5751 46.2626C57.9058 47.2234 56.1686 47.9415 54.3344 48.5239C53.4415 48.815 52.471 48.7859 51.5587 48.9897C50.6076 49.1935 49.8312 48.8927 48.9286 48.9218C48.8024 48.9218 48.686 49.1159 48.8122 49.2129L48.8218 49.2226Z" fill="#3C0088"/>
<path d="M43.0477 43.9625C47.1238 44.9815 51.4232 46.7284 55.4702 44.6709C55.509 44.6515 55.4799 44.5933 55.4411 44.6127C53.2283 45.4085 50.8506 45.2338 48.6184 44.6127C46.8326 44.108 44.9402 43.1278 43.0477 43.4481C42.7759 43.4966 42.805 43.9043 43.0477 43.9722V43.9625Z" fill="#3C0088"/>
<path d="M44.8715 47.0971C46.6281 47.9803 48.9767 47.9706 50.8401 47.4562C52.4997 47.0001 54.9745 46.4663 55.615 44.5835C55.6344 44.5252 55.5762 44.467 55.518 44.4864C54.9163 44.6903 54.4601 45.127 53.9458 45.5055C52.9752 46.2139 51.7815 46.4372 50.6363 46.7186C49.6755 46.9515 48.4721 47.0874 47.4821 46.9418C46.6572 46.8254 45.8323 46.5827 44.9976 46.6118C44.755 46.6118 44.6288 46.9709 44.8715 47.0874V47.0971Z" fill="#3C0088"/>
<path d="M70.4254 39.1195C73.4437 38.3431 77.9372 36.6156 77.9469 32.7433C77.9469 30.6081 77.6751 29.0359 76.5784 27.1919C75.4721 25.348 74.3075 23.5234 73.2787 21.6309C73.2205 21.5241 73.0652 21.5824 73.0555 21.6891C72.9876 22.844 73.7349 23.9116 74.2783 24.8918C75.1518 26.4835 76.2194 28.1722 76.792 29.8997C77.4907 32.0445 76.7629 34.4902 75.1615 35.9848C73.7446 37.3144 71.823 37.6055 70.1925 38.5372C69.8819 38.7119 70.0954 39.1874 70.4254 39.1001V39.1195Z" fill="#3C0088"/>
<path d="M27.8395 60.626C28.2277 61.2083 29.14 61.4801 29.732 61.8197C31.0519 62.5767 32.5271 62.9553 33.944 63.4696C36.8556 64.5178 39.8156 65.0516 42.8922 65.3524C46.124 65.6727 49.3558 65.4883 52.5682 65.0321C56.1105 64.5275 59.0609 63.2173 62.215 61.5868C67.5917 58.8015 70.3964 52.2505 70.9108 46.4954C71.0952 44.3505 70.9593 32.7141 66.3688 35.6548C66.2815 35.713 66.3397 35.8489 66.4368 35.8197C69.3483 35.0919 70.018 40.1482 70.018 42.1572C70.018 44.8261 70.1829 47.3106 69.4162 49.9213C68.6107 52.6969 67.4655 55.2397 65.6603 57.5204C63.8746 59.7623 61.5163 60.9463 59.0123 62.1983C53.9754 64.7216 47.7932 64.9448 42.2807 64.4013C39.7186 64.149 37.205 63.6637 34.769 62.8097C33.4103 62.3341 31.9739 61.9459 30.6831 61.2957C30.2464 61.0724 28.8974 60.5969 28.6159 60.1796C28.2957 59.7137 27.5387 60.1505 27.8492 60.626H27.8395Z" fill="#3C0088"/>
<path d="M37.6616 64.1297C38.7873 64.5858 39.9908 65.1681 40.9322 65.9348C41.7474 66.6045 42.1744 67.5168 42.8247 68.3126C42.8635 68.3514 42.9218 68.3029 42.9023 68.2544C42.3297 67.1092 42.155 66.061 41.0389 65.2458C40.0878 64.547 38.9038 63.8385 37.7198 63.6833C37.4481 63.6444 37.448 64.0423 37.6616 64.12V64.1297Z" fill="#3C0088"/>
<path d="M32.1092 65.1002C33.9144 65.8184 35.8457 66.061 37.7382 66.4007C39.7277 66.7501 41.2417 67.74 42.9887 68.6232C43.0857 68.6717 43.173 68.5552 43.1051 68.4679C41.2223 66.2551 38.4369 65.6437 35.6904 65.1391C32.2645 64.5082 28.5669 62.8875 26.6744 59.8304C26.49 59.5295 26.1018 59.743 26.1503 60.0536C26.5191 62.6642 29.9644 64.2462 32.1189 65.1099L32.1092 65.1002Z" fill="#3C0088"/>
<path d="M64.6703 39.3039C64.7091 39.498 65.0099 39.4883 65.0585 39.3039C65.3108 38.2557 65.3011 37.1882 65.7766 36.1983C65.8057 36.14 65.7572 36.0818 65.699 36.0915C65.2429 36.1788 65.0488 36.732 64.9129 37.1202C64.6703 37.819 64.5247 38.5663 64.6703 39.2942V39.3039Z" fill="#3C0088"/>
<path d="M69.1541 32.8113C70.0276 31.0158 71.9977 29.9774 72.6674 28.0946C73.007 27.1338 73.1623 26.173 73.2788 25.1636C73.405 24.0184 73.1915 22.8635 73.3565 21.728C73.3759 21.6213 73.2303 21.5339 73.1623 21.6504C72.2501 23.31 72.6091 25.5324 72.0657 27.357C71.4445 29.463 68.6592 30.4141 68.5718 32.6657C68.5621 32.9665 69.0085 33.1024 69.1444 32.821L69.1541 32.8113Z" fill="#3C0088"/>
<path d="M65.4077 25.2995C65.6115 26.5708 66.0773 27.7452 66.7664 28.8321C67.1158 29.3853 67.4263 29.987 67.7563 30.5499C68.2706 31.4428 68.2221 32.3745 68.455 33.3353C68.523 33.607 68.9015 33.5876 68.9791 33.3353C69.6779 31.0546 67.6495 29.0845 66.7469 27.1823C66.0385 25.6974 65.7667 24.1737 66.087 22.5432C66.1452 22.2424 66.8731 21.2039 66.7955 20.8254C66.7955 20.7866 66.7372 20.7769 66.7178 20.806C66.3976 21.1942 65.9123 21.4174 65.6988 21.9609C65.2815 23.009 65.233 24.1931 65.4077 25.2995Z" fill="#3C0088"/>
</svg>
