<svg width="36" height="34" viewBox="0 0 36 34" fill="none" xmlns="http://www.w3.org/2000/svg">
<path d="M35.5001 14.6972C35.4159 14.5954 35.2653 14.6087 35.1502 14.6219C34.9686 14.6441 34.9199 14.8212 34.787 14.9054C34.3618 15.1711 34.0828 15.6406 33.7994 16.0392C33.7772 16.0702 33.7684 16.1056 33.7684 16.1366C33.6842 16.1366 33.6001 16.1366 33.5159 16.1366C33.6886 15.9152 33.8348 15.6672 33.9632 15.4324C34.074 15.2287 34.2644 14.9098 34.0872 14.6928C34.0031 14.5909 33.8525 14.6042 33.7374 14.6175C33.5558 14.6397 33.5071 14.8168 33.3742 14.901C32.949 15.1667 32.67 15.6362 32.3865 16.0348C32.3555 16.079 32.3511 16.1278 32.36 16.1721C32.2625 16.1721 32.1607 16.1809 32.0632 16.1809C32.2493 15.9506 32.4087 15.6805 32.546 15.4324C32.6567 15.2287 32.8471 14.9098 32.67 14.6928C32.5858 14.5909 32.4353 14.6042 32.3201 14.6175C32.1385 14.6397 32.0898 14.8168 31.9569 14.901C31.5716 15.1401 31.3059 15.5476 31.049 15.9196C30.7656 15.6362 30.491 15.2996 30.2385 15.0383C29.7381 14.5156 29.2598 13.9798 28.7593 13.4527C27.5679 12.1949 26.4386 10.8707 25.2649 9.59515C24.1444 8.37721 23.0637 7.11055 21.8989 5.9369C20.8404 4.86954 19.9104 3.51429 18.7146 2.58423C18.75 1.97747 18.6127 1.39728 18.1344 0.892389C17.4568 0.174909 16.2654 -0.143969 15.3973 0.396356C14.5868 0.905678 14.2857 1.99076 14.7773 2.81896C15.0652 3.30614 15.7649 3.63388 16.3717 3.58516C16.2122 3.79775 16.0218 3.99704 15.8314 4.1742C15.0032 4.94925 13.8339 5.02012 12.802 5.33014C12.0048 5.5693 11.15 5.64016 10.344 5.88817C9.40062 6.18048 8.5547 6.43293 7.67778 6.91568C6.17196 7.74831 5.20646 9.0504 4.83444 10.7201C4.61742 11.6944 4.5687 12.5847 4.72814 13.5723C4.81672 14.1303 4.9673 14.6795 5.09574 15.2287C5.14003 15.4236 5.20646 15.5963 5.2729 15.7867C5.21532 15.6317 5.4412 16.1101 5.49434 16.1632C5.32604 16.1721 5.15775 16.1853 4.98502 16.1942C4.99831 16.1676 5.00716 16.1366 5.01602 16.1056C5.05588 15.9728 4.98059 15.831 4.83444 15.8133C4.20553 15.7425 3.59435 15.5919 3.11603 15.1357C2.95216 14.9763 2.69528 14.7592 2.44727 14.8744C2.33212 14.9275 2.24797 15.0825 2.17268 15.1756C1.88923 15.5254 1.39762 15.7646 1.03002 15.9993C0.742144 16.1809 0.343546 16.3271 0.104386 16.584C0.0822417 16.584 0.0645247 16.584 0.0423803 16.584C0.00694918 16.584 -0.0107655 16.6282 0.00695005 16.6592C0.0113789 16.6681 0.0202371 16.6725 0.024666 16.6814C0.0202371 16.6902 0.0113789 16.6947 0.00695005 16.7035C-0.0107655 16.7345 0.00694918 16.7744 0.0423803 16.7788C0.0645247 16.7788 0.0822417 16.7788 0.104386 16.7788C0.347975 17.0357 0.742144 17.1818 1.03002 17.3634C1.40205 17.5982 1.89366 17.8373 2.17268 18.1872C2.24797 18.2802 2.33212 18.4308 2.44727 18.4884C2.69528 18.6035 2.95216 18.3865 3.11603 18.2271C3.58992 17.7709 4.20553 17.6159 4.83444 17.5494C4.98059 17.5317 5.05588 17.3944 5.01602 17.2571C5.00716 17.2261 4.99388 17.1996 4.98502 17.1686C5.15332 17.1818 5.32162 17.1907 5.49434 17.1996C5.44562 17.2527 5.21975 17.731 5.2729 17.576C5.20646 17.762 5.14003 17.9348 5.09574 18.1341C4.9673 18.6832 4.81672 19.2324 4.72814 19.7905C4.5687 20.7737 4.61742 21.6683 4.83444 22.6427C5.20646 24.3079 6.17196 25.61 7.67778 26.4426C8.5547 26.9254 9.39619 27.1823 10.344 27.4746C11.15 27.7226 12.0048 27.7935 12.802 28.0326C13.8339 28.3426 15.0032 28.4135 15.8314 29.1886C16.0218 29.3657 16.2122 29.565 16.3717 29.7776C15.7649 29.7289 15.0652 30.0566 14.7773 30.5438C14.2857 31.3676 14.5868 32.4571 15.3973 32.9664C16.2654 33.5112 17.4568 33.1878 18.1344 32.4704C18.6127 31.9655 18.75 31.3853 18.7146 30.7785C19.9104 29.8529 20.8404 28.4932 21.8989 27.4303C23.0637 26.2566 24.1444 24.99 25.2649 23.772C26.4386 22.4965 27.5635 21.1678 28.7593 19.9145C29.2598 19.3874 29.7381 18.8515 30.2385 18.3289C30.491 18.0676 30.7611 17.7355 31.049 17.4476C31.3103 17.8196 31.5716 18.2271 31.9569 18.4662C32.0898 18.5504 32.1341 18.7231 32.3201 18.7497C32.4353 18.763 32.5858 18.7762 32.67 18.6744C32.8471 18.4574 32.6567 18.1385 32.546 17.9348C32.4087 17.6867 32.2493 17.4166 32.0632 17.1863C32.1607 17.1863 32.2581 17.1907 32.36 17.1951C32.3511 17.2394 32.3555 17.2881 32.3865 17.3324C32.6744 17.731 32.949 18.2005 33.3742 18.4662C33.5071 18.5504 33.5513 18.7231 33.7374 18.7497C33.8525 18.763 34.0031 18.7762 34.0872 18.6744C34.2644 18.4574 34.074 18.1385 33.9632 17.9348C33.8348 17.7045 33.6886 17.452 33.5159 17.2306C33.6001 17.2306 33.6842 17.2306 33.7684 17.2306C33.7684 17.266 33.7772 17.297 33.7994 17.328C34.0872 17.7266 34.3663 18.1961 34.787 18.4618C34.9199 18.5459 34.9642 18.7187 35.1502 18.7452C35.2653 18.7585 35.4159 18.7718 35.5001 18.67C35.6772 18.4529 35.4868 18.134 35.376 17.9303C35.2343 17.6734 35.0705 17.3944 34.8756 17.1597C34.9686 17.1464 35.0616 17.1331 35.1502 17.1154C35.2033 17.1066 35.2432 17.0711 35.2609 17.0268C35.2698 17.0224 35.283 17.018 35.2875 17.0091C35.3982 16.9205 35.3982 16.7567 35.3849 16.6282C35.3672 16.4821 35.345 16.3714 35.2343 16.2695C35.2299 16.2651 35.221 16.2606 35.2122 16.2562C35.1945 16.2429 35.1767 16.2341 35.1502 16.2296C35.0616 16.2119 34.9686 16.1986 34.8756 16.1853C35.0705 15.9506 35.2387 15.6672 35.376 15.4147C35.4868 15.211 35.6772 14.8921 35.5001 14.6751V14.6972Z" fill="white"/>
<path d="M35.1502 16.2471C34.0607 16.0301 32.8029 16.1851 31.6913 16.1851H12.1909C9.67968 16.1851 7.09764 16.0168 4.59532 16.225C4.4093 16.2427 4.42702 16.535 4.6086 16.5483C7.09764 16.7564 9.65754 16.5881 12.1554 16.5881H31.6558C32.7852 16.5881 34.0563 16.752 35.1679 16.5261C35.3318 16.4907 35.3097 16.2737 35.1546 16.2427L35.1502 16.2471Z" fill="#2E2E2E"/>
<path d="M4.8392 15.822C4.2103 15.7511 3.59911 15.6005 3.12079 15.1444C2.95692 14.9849 2.70005 14.7679 2.45203 14.8831C2.33688 14.9362 2.25273 15.0912 2.17744 15.1842C1.89399 15.5341 1.40238 15.7733 1.03478 16.008C0.702618 16.2162 0.228726 16.3756 0.0117105 16.7122C-0.00600506 16.7432 0.0117113 16.7831 0.0471424 16.7875C0.397025 16.8141 0.684901 16.7078 0.977208 16.5262C1.4201 16.256 2.10657 15.977 2.43874 15.5607C2.6779 15.2595 2.57161 15.2196 2.94364 15.574C3.06322 15.6891 3.28466 15.8176 3.43524 15.8884C3.79398 16.0611 4.09957 16.1497 4.44503 16.2029C4.37859 16.2693 4.29887 16.3224 4.20587 16.3579C3.91356 16.5085 4.15272 16.9779 4.42288 16.8096C4.69305 16.6413 4.93221 16.4155 5.02078 16.1054C5.06064 15.9726 4.98535 15.8308 4.8392 15.8131V15.822Z" fill="#2E2E2E"/>
<path d="M16.7706 1.24656C16.0222 0.909965 15.2648 1.31742 15.3357 2.18548C15.3622 2.51322 15.8406 2.7701 16.093 2.86753C16.3587 2.96497 16.5846 2.88082 16.7706 2.72581C16.6821 3.31485 16.2569 3.78874 15.8317 4.18292C15.0035 4.95797 13.8343 5.02883 12.8023 5.33885C12.0052 5.57801 11.1504 5.64888 10.3443 5.89689C9.40096 6.1892 8.55505 6.44164 7.67813 6.92438C6.1723 7.75702 5.20681 9.05912 4.83478 10.7288C4.61776 11.7032 4.56905 12.5934 4.72849 13.581C4.81706 14.139 4.96765 14.6882 5.09608 15.2374C5.14037 15.4323 5.20681 15.605 5.27324 15.7954C5.21124 15.6227 5.50354 16.2516 5.50354 16.1719C5.50354 16.4465 5.92872 16.4952 5.93315 16.2118C5.93315 16.0435 5.88443 16.0036 5.78256 15.8353C5.56998 15.4899 5.52569 15.0381 5.45482 14.6439C5.29981 13.8113 5.09608 12.9964 5.12266 12.1416C5.17138 10.5472 5.78256 9.16098 6.92522 8.08033C8.91379 6.20248 12.0627 6.12277 14.565 5.48058C15.6944 5.18827 16.6555 4.43092 17.2268 3.42557C17.6077 2.7568 17.5457 1.59644 16.7706 1.24656ZM16.1196 2.2652C15.7121 1.98618 15.9114 1.48571 16.3587 1.72487C16.5802 1.84888 16.7219 2.0039 16.7795 2.18548C16.7618 2.18548 16.7441 2.18991 16.7263 2.19877C16.5448 2.33606 16.341 2.3582 16.1196 2.26077V2.2652Z" fill="#2E2E2E"/>
<path d="M18.1393 0.896783C17.4617 0.179304 16.2703 -0.139574 15.4022 0.40075C14.5918 0.910072 14.2906 1.99515 14.7822 2.82335C15.1985 3.52755 16.4785 3.904 17.0896 3.27509C17.1738 3.18652 17.0896 3.00493 16.9656 3.08022C16.3677 3.44339 15.4642 2.96951 15.1808 2.41147C14.7822 1.63641 15.4155 0.768343 16.1817 0.631047C16.8372 0.511467 17.4838 0.905644 17.9046 1.37068C18.4272 1.94643 18.1969 2.86321 17.9843 3.51426C17.2225 5.82614 14.2507 6.67206 12.3419 7.75271C10.557 8.76249 9.18408 10.1 8.61718 12.1329C8.38245 12.9832 8.53746 13.8956 8.71462 14.7282C8.83863 15.3172 9.34352 16.1765 9.86613 16.513C10.0654 16.6459 10.3267 16.3846 10.154 16.1986C7.94399 13.7848 9.44539 10.2506 11.8946 8.70492C13.1967 7.88114 14.6228 7.2921 15.947 6.50819C16.8948 5.95015 18.0861 5.04665 18.436 3.93943C18.7726 2.87649 18.9719 1.7737 18.1393 0.896783Z" fill="#2E2E2E"/>
<path d="M31.4519 16.2737C31.0222 15.9636 30.6104 15.4233 30.2428 15.0424C29.7423 14.5198 29.264 13.9839 28.7635 13.4569C27.5721 12.1991 26.4428 10.8748 25.2691 9.59933C24.1486 8.38139 23.068 7.11472 21.9032 5.94106C20.7871 4.81613 19.8127 3.36788 18.5195 2.44225C18.3468 2.31824 18.1696 2.54411 18.2848 2.70355C18.7498 3.3546 19.4008 3.9215 19.9367 4.5194C20.5302 5.1793 21.1325 5.82592 21.757 6.45482C22.9882 7.69933 24.122 9.04572 25.2957 10.3345C26.4428 11.5923 27.5544 12.8811 28.6794 14.1567C29.171 14.7103 29.6759 15.224 30.194 15.7511C30.5129 16.0744 30.8938 16.4331 31.3544 16.5305C31.5006 16.5615 31.5581 16.349 31.4519 16.2692V16.2737Z" fill="#2E2E2E"/>
<path d="M18.6708 2.60167C18.5645 2.47323 18.3829 2.5441 18.2633 2.60167C17.9178 2.77883 17.5458 2.68139 17.2225 2.53524C17.1738 2.5131 17.1074 2.52638 17.0675 2.56181C17.0586 2.57067 17.0498 2.57953 17.0409 2.58838C17.0143 2.61496 16.9966 2.65925 17.0011 2.69911C16.8638 3.31029 18.3607 3.23943 18.6309 2.90727C18.7018 2.82312 18.7593 2.69467 18.6752 2.5928L18.6708 2.60167Z" fill="#2E2E2E"/>
<path d="M10.8272 14.8654C10.3489 14.4579 9.46308 13.891 8.80318 14.0239C8.64374 14.0549 8.63045 14.2675 8.7766 14.3339C9.4055 14.5952 10.0211 14.8122 10.5526 15.2595C10.8316 15.4943 11.0973 15.7379 11.3055 16.0346C11.4516 16.2383 11.4959 16.3978 11.7307 16.5041C11.837 16.5528 11.9477 16.4642 11.961 16.3579C12.0318 15.8043 11.1948 15.1798 10.8227 14.8654H10.8272Z" fill="#2E2E2E"/>
<path d="M13.0677 16.039C12.9216 15.8043 12.6868 15.6094 12.4521 15.4677C12.1244 15.2684 11.5575 15.1178 11.2164 15.3437C11.15 15.388 11.1677 15.4943 11.2253 15.5341C11.3493 15.6183 11.4512 15.6316 11.6017 15.6404C11.8586 15.6581 12.0712 15.7334 12.2838 15.8707C12.4787 15.9992 12.5894 16.2295 12.802 16.3313C12.9658 16.4066 13.1696 16.1985 13.0677 16.039Z" fill="#2E2E2E"/>
<path d="M32.6741 14.6971C32.5899 14.5953 32.4394 14.6085 32.3242 14.6218C32.1426 14.644 32.0939 14.8211 31.961 14.9053C31.5359 15.171 31.2568 15.6405 30.9734 16.0391C30.8715 16.1852 31.0398 16.3934 31.1993 16.3092C31.4872 16.1586 31.6554 15.8486 31.8459 15.5962C31.9389 15.4722 32.0673 15.357 32.1825 15.2507C32.2356 15.1976 32.2799 15.1754 32.3109 15.109C32.3242 15.0869 32.3331 15.0647 32.3464 15.0381C32.3641 15.0337 32.3818 15.0293 32.3951 15.0204C32.3552 15.1754 32.2401 15.3304 32.1648 15.4545C31.992 15.7468 31.744 15.9904 31.589 16.2915C31.5226 16.42 31.713 16.5395 31.8149 16.451C32.1116 16.1852 32.3552 15.7866 32.5501 15.4367C32.6608 15.233 32.8513 14.9141 32.6741 14.6971Z" fill="#2E2E2E"/>
<path d="M34.0873 14.6971C34.0032 14.5952 33.8526 14.6085 33.7375 14.6218C33.5559 14.6439 33.5072 14.8211 33.3743 14.9053C32.9491 15.171 32.6701 15.6405 32.3867 16.0391C32.2804 16.1852 32.4487 16.3934 32.6125 16.3092C32.9004 16.1586 33.0687 15.8486 33.2591 15.5962C33.3521 15.4722 33.4806 15.357 33.5957 15.2507C33.6489 15.1976 33.6932 15.1754 33.7242 15.109C33.7375 15.0868 33.7463 15.0647 33.7596 15.0381C33.7773 15.0337 33.795 15.0293 33.8083 15.0204C33.7685 15.1754 33.6533 15.3304 33.578 15.4544C33.4053 15.7467 33.1573 15.9903 33.0023 16.2915C32.9358 16.4199 33.1263 16.5395 33.2281 16.4509C33.5249 16.1852 33.7685 15.7866 33.9589 15.4367C34.0696 15.233 34.2601 14.9141 34.0829 14.6971H34.0873Z" fill="#2E2E2E"/>
<path d="M35.4998 14.6971C35.4156 14.5953 35.265 14.6085 35.1499 14.6218C34.9683 14.644 34.9196 14.8211 34.7867 14.9053C34.3615 15.171 34.0825 15.6405 33.7991 16.0391C33.6972 16.1852 33.8611 16.3934 34.0249 16.3092C34.3128 16.1586 34.4811 15.8486 34.6716 15.5962C34.7646 15.4722 34.893 15.357 35.0082 15.2507C35.0613 15.1976 35.1056 15.1754 35.1366 15.109C35.1499 15.0869 35.1632 15.0647 35.172 15.0381C35.1897 15.0337 35.2075 15.0293 35.2207 15.0204C35.1809 15.1754 35.0657 15.3304 34.9904 15.4545C34.8177 15.7468 34.5697 15.9904 34.4147 16.2915C34.3483 16.42 34.5387 16.5395 34.6406 16.451C34.9373 16.1852 35.1809 15.7866 35.3758 15.4367C35.4865 15.233 35.6769 14.9141 35.4998 14.6971Z" fill="#2E2E2E"/>
<path d="M35.1502 17.1331C34.0607 17.3501 32.8029 17.1907 31.6913 17.1907H12.1909C9.67968 17.1907 7.09764 17.359 4.59532 17.1508C4.4093 17.1375 4.42702 16.8408 4.6086 16.8275C7.09764 16.6193 9.65754 16.7876 12.1554 16.7876H31.6558C32.7852 16.7876 34.0563 16.6238 35.1679 16.8496C35.3318 16.8851 35.3097 17.1021 35.1546 17.1331H35.1502Z" fill="#2E2E2E"/>
<path d="M4.8392 17.5582C4.2103 17.6291 3.59911 17.7796 3.12079 18.2358C2.95692 18.3953 2.70005 18.6123 2.45203 18.4971C2.33688 18.444 2.25273 18.289 2.17744 18.196C1.89399 17.8461 1.40238 17.6069 1.03478 17.3722C0.702618 17.164 0.228726 17.0046 0.0117105 16.668C-0.00600506 16.637 0.0117113 16.5971 0.0471424 16.5927C0.397025 16.5661 0.684901 16.6724 0.977208 16.854C1.4201 17.1242 2.10657 17.4032 2.43874 17.8195C2.6779 18.1207 2.57161 18.1605 2.94364 17.8062C3.06322 17.6911 3.28466 17.5671 3.43524 17.4918C3.79398 17.319 4.09957 17.2305 4.44503 17.1773C4.37859 17.1109 4.29887 17.0577 4.20587 17.0179C3.91356 16.8717 4.15272 16.3978 4.42288 16.5661C4.69305 16.7344 4.93221 16.9603 5.02078 17.2703C5.06064 17.4032 4.98535 17.5449 4.8392 17.5626V17.5582Z" fill="#2E2E2E"/>
<path d="M17.2268 29.959C16.6555 28.9492 15.6988 28.1919 14.565 27.904C12.0627 27.2618 8.91379 27.1821 6.92522 25.3042C5.78256 24.2236 5.17138 22.8374 5.12266 21.243C5.09608 20.3882 5.29981 19.5733 5.45482 18.7406C5.52569 18.3465 5.57441 17.8947 5.78256 17.5493C5.88443 17.381 5.93757 17.3411 5.93315 17.1728C5.93315 16.8938 5.50797 16.9381 5.50354 17.2127C5.50354 17.1374 5.21124 17.7619 5.27324 17.5891C5.20681 17.7751 5.14037 17.9479 5.09608 18.1472C4.96765 18.6964 4.81706 19.2455 4.72849 19.8036C4.56905 20.7868 4.61776 21.6814 4.83478 22.6558C5.20681 24.321 6.1723 25.6231 7.67813 26.4558C8.55505 26.9385 9.39653 27.1954 10.3443 27.4877C11.1504 27.7357 12.0052 27.8066 12.8023 28.0457C13.8343 28.3558 15.0035 28.4266 15.8317 29.2017C16.2525 29.5958 16.6776 30.0697 16.7706 30.6588C16.5846 30.5038 16.3587 30.4196 16.093 30.5171C15.8361 30.6101 15.3578 30.8714 15.3357 31.1991C15.2692 32.0627 16.0222 32.4746 16.7706 32.138C17.5457 31.7882 17.6077 30.6322 17.2268 29.959ZM16.7263 31.1814C16.7263 31.1814 16.7618 31.1947 16.7795 31.1947C16.7219 31.3807 16.5846 31.5313 16.3587 31.6553C15.9114 31.8944 15.7121 31.394 16.1196 31.115C16.341 31.022 16.5448 31.0441 16.7263 31.177V31.1814Z" fill="#2E2E2E"/>
<path d="M18.1393 32.4834C17.4617 33.1965 16.2703 33.5198 15.4022 32.9795C14.5918 32.4702 14.2906 31.3851 14.7822 30.5569C15.1985 29.8527 16.4785 29.4762 17.0896 30.1051C17.1738 30.1937 17.0896 30.3753 16.9656 30.3C16.3677 29.9368 15.4642 30.4107 15.1808 30.9688C14.7822 31.7438 15.4155 32.6119 16.1817 32.7492C16.8372 32.8688 17.4838 32.4746 17.9046 32.0096C18.4272 31.4338 18.1969 30.517 17.9843 29.866C17.2225 27.5541 14.2507 26.7082 12.3419 25.6275C10.557 24.6177 9.18408 23.2802 8.61718 21.2474C8.38245 20.397 8.53746 19.4847 8.71462 18.652C8.83863 18.063 9.34352 17.2038 9.86613 16.8672C10.0654 16.7343 10.3267 17 10.154 17.1816C7.94399 19.5954 9.44539 23.1296 11.8946 24.6753C13.1967 25.4991 14.6228 26.0881 15.947 26.872C16.8948 27.4301 18.0861 28.3336 18.436 29.4408C18.7726 30.5037 18.9719 31.6065 18.1393 32.4834Z" fill="#2E2E2E"/>
<path d="M31.4519 17.1108C31.0222 17.4208 30.6104 17.9611 30.2428 18.342C29.7423 18.8646 29.264 19.4005 28.7635 19.9275C27.5721 21.1853 26.4428 22.5096 25.2691 23.7851C24.1486 25.003 23.068 26.2653 21.9032 27.4434C20.7871 28.5683 19.8127 30.0165 18.5195 30.9422C18.3468 31.0662 18.1696 30.8403 18.2848 30.6809C18.7498 30.0298 19.4008 29.4629 19.9367 28.865C20.5302 28.2096 21.1325 27.5585 21.757 26.9296C22.9882 25.6895 24.122 24.3387 25.2957 23.0499C26.4428 21.7921 27.5544 20.5033 28.6794 19.2278C29.171 18.6742 29.6759 18.1604 30.194 17.6334C30.5129 17.3101 30.8938 16.9513 31.3544 16.8539C31.5006 16.8229 31.5581 17.0355 31.4519 17.1108Z" fill="#2E2E2E"/>
<path d="M18.6708 30.7784C18.5645 30.9068 18.3829 30.8359 18.2633 30.7784C17.9178 30.6012 17.5458 30.6986 17.2225 30.8448C17.1738 30.8669 17.1074 30.8536 17.0675 30.8182C17.0586 30.8094 17.0498 30.8005 17.0409 30.7916C17.0143 30.7651 16.9966 30.7208 17.0011 30.6809C16.8638 30.0697 18.3607 30.1406 18.6309 30.4728C18.7018 30.5613 18.7593 30.6853 18.6752 30.7872L18.6708 30.7784Z" fill="#2E2E2E"/>
<path d="M10.8272 18.5194C10.3489 18.9268 9.46308 19.4937 8.80318 19.3608C8.64374 19.3298 8.63045 19.1128 8.7766 19.0508C9.4055 18.7895 10.0211 18.5725 10.5526 18.1252C10.8316 17.8905 11.0973 17.6469 11.3055 17.3501C11.4516 17.1464 11.4959 16.9825 11.7307 16.8807C11.837 16.8319 11.9477 16.9205 11.961 17.0268C12.0318 17.5804 11.1948 18.2005 10.8227 18.5194H10.8272Z" fill="#2E2E2E"/>
<path d="M13.0677 17.3455C12.9216 17.5803 12.6868 17.7751 12.4521 17.9213C12.1244 18.1206 11.5575 18.2712 11.2164 18.0409C11.15 17.9966 11.1677 17.8903 11.2253 17.8504C11.3493 17.7663 11.4512 17.753 11.6017 17.7441C11.8586 17.7264 12.0712 17.6511 12.2838 17.5138C12.4787 17.3854 12.5894 17.1551 12.802 17.0532C12.9658 16.9779 13.1696 17.1905 13.0677 17.3455Z" fill="#2E2E2E"/>
<path d="M32.6741 18.6876C32.5899 18.7895 32.4394 18.7762 32.3242 18.7629C32.1426 18.7407 32.0939 18.5636 31.961 18.4794C31.5359 18.2137 31.2568 17.7442 30.9734 17.3456C30.8715 17.1995 31.0398 16.9913 31.1993 17.0755C31.4872 17.2261 31.6554 17.5361 31.8459 17.7885C31.9389 17.9125 32.0673 18.0277 32.1825 18.134C32.2356 18.1871 32.2799 18.2093 32.3109 18.2757C32.3242 18.2978 32.3331 18.3244 32.3464 18.3466C32.3641 18.351 32.3818 18.3554 32.3951 18.3643C32.3552 18.2093 32.2401 18.0542 32.1648 17.9302C31.992 17.6379 31.744 17.3944 31.589 17.0932C31.5226 16.9603 31.713 16.8452 31.8149 16.9337C32.1116 17.1995 32.3552 17.5981 32.5501 17.9524C32.6608 18.1561 32.8513 18.475 32.6741 18.692V18.6876Z" fill="#2E2E2E"/>
<path d="M34.0873 18.6876C34.0032 18.7895 33.8526 18.7762 33.7375 18.7629C33.5559 18.7407 33.5072 18.5636 33.3743 18.4794C32.9491 18.2137 32.6701 17.7442 32.3867 17.3456C32.2804 17.1995 32.4487 16.9913 32.6125 17.0755C32.9004 17.2261 33.0687 17.5361 33.2591 17.7885C33.3521 17.9125 33.4806 18.0277 33.5957 18.134C33.6489 18.1871 33.6932 18.2093 33.7242 18.2757C33.7375 18.2978 33.7463 18.3244 33.7596 18.3466C33.7773 18.351 33.795 18.3554 33.8083 18.3643C33.7685 18.2093 33.6533 18.0542 33.578 17.9302C33.4053 17.6379 33.1573 17.3944 33.0023 17.0932C32.9358 16.9603 33.1263 16.8452 33.2281 16.9337C33.5249 17.1995 33.7685 17.5981 33.9589 17.9524C34.0696 18.1561 34.2601 18.475 34.0829 18.692L34.0873 18.6876Z" fill="#2E2E2E"/>
<path d="M35.4998 18.6876C35.4156 18.7895 35.265 18.7762 35.1499 18.7629C34.9683 18.7407 34.9196 18.5636 34.7867 18.4794C34.3615 18.2137 34.0825 17.7442 33.7991 17.3456C33.6972 17.1995 33.8611 16.9913 34.0249 17.0755C34.3128 17.2261 34.4811 17.5361 34.6716 17.7885C34.7646 17.9125 34.893 18.0277 35.0082 18.134C35.0613 18.1871 35.1056 18.2093 35.1366 18.2757C35.1499 18.2978 35.1632 18.3244 35.172 18.3466C35.1897 18.351 35.2075 18.3554 35.2207 18.3643C35.1809 18.2093 35.0657 18.0542 34.9904 17.9302C34.8177 17.6379 34.5697 17.3944 34.4147 17.0932C34.3483 16.9603 34.5387 16.8452 34.6406 16.9337C34.9373 17.1995 35.1809 17.5981 35.3758 17.9524C35.4865 18.1561 35.6769 18.475 35.4998 18.692V18.6876Z" fill="#2E2E2E"/>
<path d="M35.3849 16.6502C35.3672 16.504 35.345 16.3933 35.2343 16.2915C35.1944 16.2516 35.128 16.2339 35.0837 16.2782C35.0394 16.318 34.9996 16.3579 34.9686 16.411C34.9331 16.4819 34.9287 16.5616 34.9198 16.6369C34.9021 16.7831 34.9066 16.9425 35.0306 17.0444C35.1059 17.1064 35.221 17.0886 35.2919 17.0311C35.4026 16.9425 35.4026 16.7786 35.3893 16.6502H35.3849Z" fill="#2E2E2E"/>
</svg>
