<svg width="35" height="34" viewBox="0 0 35 34" fill="none" xmlns="http://www.w3.org/2000/svg">
<path d="M34.7918 14.2195C33.5 13.9819 32.4587 13.2258 31.2188 12.824C31.1755 12.8111 31.1107 12.7938 31.033 12.7722C31.4607 12.595 31.8625 12.3488 32.2384 12.029C33.15 11.2513 33.5518 10.0459 33.6296 8.89665C33.716 7.63938 33.2364 6.62837 32.4587 5.66489C31.6162 4.62364 30.454 3.93668 29.2702 3.36637C28.5573 3.02073 27.8747 2.65348 27.1531 2.32512C26.3884 1.97516 25.7533 1.18882 26.0687 0.303113C26.1248 0.151895 25.8915 0.0568422 25.8094 0.190779C25.7922 0.190779 25.7706 0.190778 25.749 0.20374C25.049 0.497536 24.5781 0.964155 24.28 1.67704C23.9127 2.55411 24.2281 3.32317 24.8114 4.00581C25.52 4.83103 26.5007 5.25012 27.4383 5.74698C27.7234 5.8982 28.0172 6.03214 28.3067 6.17472C28.3024 6.20496 28.3067 6.23952 28.324 6.26977C28.6005 6.70614 28.2246 7.0345 27.7364 7.26781C27.6759 6.91353 27.3346 6.64565 27.0235 6.45123C26.3149 6.00621 25.3644 6.15311 24.6256 6.41235C24.3707 6.50308 24.1504 6.61973 23.9473 6.75799C23.1048 6.44259 21.8907 7.03882 21.2383 7.57457C20.7544 7.50544 20.344 7.85108 19.899 8.0239C19.2034 8.2961 18.4516 8.46892 17.6998 8.47756C16.948 8.4646 16.1963 8.29178 15.5006 8.0239C15.0513 7.85108 14.6409 7.50112 14.1613 7.57457C13.5089 7.03882 12.2948 6.44259 11.4523 6.75799C11.2536 6.61973 11.0289 6.49876 10.774 6.41235C10.0352 6.15311 9.08898 6.00189 8.38041 6.45123C8.06933 6.64565 7.72801 6.91353 7.66752 7.26781C7.1793 7.0345 6.80342 6.70614 7.07993 6.26977C7.10154 6.23952 7.10585 6.20496 7.10153 6.17472C7.39101 6.03214 7.68481 5.8982 7.96996 5.74698C8.90752 5.25012 9.88828 4.83103 10.5968 4.00581C11.1801 3.32317 11.4955 2.54979 11.1283 1.67704C10.8302 0.964155 10.3635 0.497536 9.65929 0.20374C9.63768 0.195099 9.61608 0.190779 9.5988 0.190779C9.51671 0.0611627 9.28772 0.151895 9.33957 0.303113C9.65497 1.18882 9.01985 1.97516 8.25511 2.32512C7.53358 2.65348 6.85094 3.02073 6.13805 3.36637C4.95423 3.941 3.792 4.62796 2.9495 5.66489C2.1718 6.62405 1.69223 7.63506 1.77864 8.89665C1.85641 10.0416 2.25822 11.2513 3.16985 12.029C3.54574 12.3488 3.94754 12.595 4.37528 12.7722C4.29751 12.7895 4.2327 12.8111 4.1895 12.824C2.9495 13.2258 1.90825 13.9819 0.616412 14.2195C0.452232 14.2498 0.473833 14.4745 0.607769 14.5263C0.733065 14.8071 1.02686 14.9713 1.22128 15.2262C1.43299 15.4984 1.60581 15.8354 1.8564 16.0687C2.444 16.6261 3.17417 17.2785 3.96051 17.5204C4.78141 17.7753 5.62391 17.7451 6.46209 17.5809C6.96328 17.4816 7.46878 17.2439 7.98724 17.2871C8.04773 17.2914 8.10822 17.3001 8.1687 17.3087C8.41929 17.7321 8.70877 18.121 9.01121 18.4969C9.25316 19.456 9.4087 20.5232 9.26612 21.4867C9.13219 22.381 8.99825 23.392 9.08898 24.2907C9.24884 25.8936 10.2901 27.2373 11.7418 27.9416C11.7418 27.9416 11.7418 27.9416 11.7461 27.9416C11.9103 28.7409 12.567 29.5358 13.3188 30.0154C13.0941 30.832 13.5996 31.8171 14.3557 32.2102C15.3105 32.7071 16.5635 33.4114 17.6998 33.2169C18.8361 33.4114 20.0891 32.7071 21.0439 32.2102C21.8 31.8171 22.3055 30.832 22.0808 30.0154C22.8326 29.5358 23.4893 28.7409 23.6535 27.9416C23.6535 27.9416 23.6535 27.9416 23.6578 27.9416C25.1095 27.2373 26.1464 25.8979 26.3106 24.2907C26.4014 23.3877 26.2674 22.3767 26.1335 21.4867C25.9909 20.5189 26.1464 19.456 26.3884 18.4969C26.6908 18.121 26.9803 17.7321 27.2309 17.3087C27.2914 17.3044 27.3519 17.2914 27.4124 17.2871C27.9265 17.2482 28.4363 17.4816 28.9375 17.5809C29.7757 17.7494 30.6182 17.7753 31.4391 17.5204C32.2254 17.2785 32.9556 16.6261 33.5432 16.0687C33.7938 15.8311 33.9709 15.4984 34.1783 15.2262C34.3727 14.9713 34.6665 14.8071 34.7918 14.5263C34.9258 14.4745 34.9474 14.2498 34.7832 14.2195H34.7918Z" fill="white"/>
<path d="M28.1679 5.63887C27.1958 5.09016 26.1416 4.62786 25.3293 3.84152C24.6769 3.21073 24.4004 2.50216 24.8065 1.63805C25.0355 1.15415 25.4503 0.812832 25.8694 0.497433C25.999 0.39806 25.9299 0.125867 25.7441 0.203636C25.0442 0.497433 24.5732 0.964052 24.2751 1.67694C23.9079 2.55401 24.2233 3.32306 24.8065 4.00571C25.5151 4.83093 26.4959 5.25002 27.4334 5.74688C27.913 6.00179 28.4228 6.20918 28.8894 6.49001C29.7536 7.00848 30.0041 8.1491 29.5851 9.03913C29.5807 9.05209 29.5937 9.06073 29.6023 9.05209C30.7127 7.5399 29.4338 6.36472 28.1593 5.64319L28.1679 5.63887Z" fill="#2E2E2E"/>
<path d="M32.4539 5.66478C31.6114 4.62354 30.4491 3.93657 29.2653 3.36626C28.5524 3.02062 27.8698 2.65337 27.1482 2.32501C26.3835 1.97505 25.7484 1.18871 26.0638 0.303004C26.12 0.147465 25.8823 0.0524132 25.8046 0.194991C25.4287 0.860353 25.6965 1.68125 26.1804 2.20836C26.5045 2.55832 27.0359 2.75275 27.468 2.92557C28.1808 3.21072 28.8333 3.64277 29.5245 3.97978C30.6954 4.55873 31.7496 5.41419 32.4971 6.49001C33.4433 7.85962 33.3136 9.50142 32.523 10.8926C31.8706 12.0462 30.5701 12.6208 29.2869 12.6511C27.9346 12.6856 26.66 11.895 26.1243 10.6248C25.8089 9.87298 25.891 9.13849 26.3144 8.46449C26.6557 7.92442 27.6581 7.83801 28.1895 7.50101C28.682 7.18561 29.1443 6.43816 28.5308 6.05795C28.4055 5.98018 28.25 6.13572 28.3277 6.26102C28.8549 7.08624 27.0186 7.53557 26.5563 7.66951C26.12 7.79481 25.8046 8.30463 25.6447 8.68916C25.2386 9.65264 25.4762 10.7976 26.12 11.6012C26.8588 12.5301 27.8611 13.1436 29.0536 13.1393C30.2461 13.1393 31.3262 12.7937 32.2378 12.016C33.1495 11.2383 33.5513 10.0328 33.629 8.88358C33.7155 7.62631 33.2359 6.6153 32.4582 5.65182L32.4539 5.66478Z" fill="#2E2E2E"/>
<path d="M28.7558 12.7504C28.3454 13.0312 28.0732 13.3682 27.5677 13.5151C26.9239 13.7009 26.3233 13.675 25.6753 13.5151C24.31 13.1695 23.5582 11.9209 23.1564 10.6852C22.7978 9.57914 23.1261 8.08424 23.9643 7.28926C24.9926 6.31282 26.764 6.40355 27.5374 7.58306C27.5849 7.65651 27.7016 7.64787 27.7275 7.55714C27.8571 7.05595 27.4164 6.69735 27.0276 6.45108C26.319 6.00606 25.3685 6.15296 24.6297 6.41219C23.0959 6.95658 22.6034 8.46877 22.6422 9.97231C22.6811 11.4499 23.6619 13.1954 25.0834 13.7614C25.4938 13.9256 25.8999 14.0552 26.3406 14.0941C26.8504 14.1416 27.1918 14.0509 27.693 13.9515C28.233 13.8435 28.8897 13.4417 28.9502 12.8584C28.9589 12.7634 28.8336 12.6986 28.7601 12.7504H28.7558Z" fill="#2E2E2E"/>
<path d="M23.9901 6.7709C23.1433 6.42526 21.8947 7.03445 21.2379 7.58316C20.7929 7.9504 20.4473 8.40406 20.1146 8.87067C19.8294 9.26816 19.4017 9.68293 19.2289 10.1366C19.2203 10.1625 19.2548 10.1928 19.2807 10.1755C19.9418 9.6743 20.4602 8.96141 21.0306 8.36085C21.8644 7.47946 22.8754 7.30232 23.9944 7.0863C24.1716 7.05173 24.1284 6.82707 23.9944 6.7709H23.9901Z" fill="#2E2E2E"/>
<path d="M21.3158 7.59171C20.8017 7.47073 20.374 7.84662 19.903 8.02808C19.108 8.33916 18.2353 8.52062 17.3755 8.47742C17.22 8.46878 17.1768 8.6848 17.2977 8.75825C17.8205 9.08229 18.7019 8.79714 19.2679 8.69344C19.9721 8.56815 20.7239 8.15338 21.3418 7.81638C21.4368 7.76453 21.4152 7.61331 21.3115 7.58739L21.3158 7.59171Z" fill="#2E2E2E"/>
<path d="M21.5015 22.6963C21.009 21.7674 20.6763 20.8212 20.3609 19.8231C20.2226 19.3825 20.2226 18.9158 20.2183 18.4622C20.214 17.8443 20.1146 17.2654 20.1924 16.6476C20.3263 15.5501 20.3998 14.5003 20.8016 13.459C20.8102 13.4374 20.7757 13.4201 20.7627 13.4417C20.2356 14.3577 19.9937 15.2477 19.8511 16.2976C19.7776 16.829 19.7171 17.3172 19.7344 17.8573C19.7517 18.2937 19.6999 18.8294 19.7819 19.2615C19.9634 20.2077 20.2356 21.1107 20.6331 21.9921C21.0781 22.9858 21.7003 23.9061 22.0589 24.9387C22.1237 25.1244 22.3829 25.051 22.3527 24.8566C22.2144 24.0616 21.886 23.4092 21.5058 22.6963H21.5015Z" fill="#2E2E2E"/>
<path d="M22.7848 13.5886C21.1646 13.6664 19.9418 15.697 19.8295 17.1315C19.8209 17.2222 19.9505 17.2265 19.9807 17.1531C20.4603 15.9001 21.0004 14.9021 22.1799 14.2021C22.8971 13.7787 23.839 14.0207 24.4438 14.5262C25.0358 15.0187 25.0487 15.6495 25.079 16.3538C25.0876 16.5309 25.3339 16.5655 25.3857 16.397C25.9128 14.7595 24.2883 13.5195 22.7848 13.5929V13.5886Z" fill="#2E2E2E"/>
<path d="M25.2861 15.9433C25.1046 16.1291 24.9664 16.3062 24.7374 16.4488C24.4781 16.613 24.0202 16.5655 23.7177 16.5914C23.2598 16.6303 22.8407 16.7988 22.4475 17.0321C22.1148 17.2352 21.8901 17.5635 21.7216 17.9048C21.6568 18.0344 21.618 18.1857 21.5661 18.3196C21.5013 18.4795 21.5964 18.7085 21.497 18.8424C21.4581 18.8986 21.5315 18.9677 21.5877 18.9331C21.8167 18.7905 21.8037 18.5011 21.9204 18.2634C22.2617 17.5722 22.7499 17.2049 23.5017 17.0234C24.2319 16.8463 25.3077 17.071 25.4848 16.06C25.5064 15.9476 25.3725 15.8483 25.2818 15.9433H25.2861Z" fill="#2E2E2E"/>
<path d="M24.7027 16.6389C24.2058 17.0105 24.0978 17.6715 23.683 18.1338C23.3849 18.4622 22.9874 18.6825 22.5381 18.7084C22.2184 18.7257 21.9894 18.6263 21.6697 18.6955C21.6265 18.7041 21.6049 18.743 21.6005 18.7862C21.566 18.8208 21.5746 18.8942 21.6308 18.9072C21.6438 18.9072 21.6567 18.9072 21.6697 18.9115C21.7042 18.9158 21.7474 18.9115 21.7647 18.8726C21.7474 18.9072 22.6332 19.0627 22.7541 19.067C23.0695 19.0757 23.4195 18.8597 23.6614 18.6868C24.2793 18.2548 24.6638 17.49 24.9144 16.8074C24.9576 16.6951 24.8021 16.5698 24.7027 16.6432V16.6389Z" fill="#2E2E2E"/>
<path d="M27.5112 13.7528C27.4032 13.6275 27.1871 13.7572 27.2347 13.9127C27.671 15.2737 27.1828 16.4834 26.4786 17.6413C26.1675 18.1511 25.7657 18.5659 25.42 19.0455C25.2299 19.3047 24.9707 19.5812 24.8108 19.8491C24.6683 20.0954 24.6294 20.4108 24.5127 20.67C24.4652 20.7737 24.6078 20.8601 24.6639 20.7607C25.4244 19.4775 26.5607 18.5011 27.3038 17.1877C27.8136 16.289 28.3018 14.6472 27.5068 13.7528H27.5112Z" fill="#2E2E2E"/>
<path d="M26.3315 18.1813C25.3421 19.4515 25.6272 21.331 25.7482 22.8129C25.8346 23.8844 25.8433 24.8133 25.2773 25.7682C24.8409 26.5113 24.0848 27.0773 23.4627 27.6735C23.3201 27.8118 23.5015 28.0192 23.6657 27.9371C25.1174 27.2328 26.1543 25.8935 26.3185 24.2862C26.4093 23.3832 26.2753 22.3722 26.1414 21.4822C25.9858 20.4366 26.1803 19.2744 26.4568 18.2548C26.4741 18.1856 26.379 18.1165 26.3315 18.1813Z" fill="#2E2E2E"/>
<path d="M34.7915 14.2194C33.4997 13.9817 32.4584 13.2256 31.2185 12.8238C30.9635 12.7418 29.9266 12.4912 29.7754 12.8886C29.7581 12.9319 29.81 12.9751 29.8488 12.9621C30.0994 12.8886 30.6049 13.0571 30.8382 13.1176C31.469 13.2818 32.0696 13.6188 32.6356 13.9342C33.2793 14.2928 34.0398 14.7638 34.7915 14.5305C34.9341 14.4872 34.9557 14.2496 34.7915 14.2194Z" fill="#2E2E2E"/>
<path d="M34.6664 14.2367C34.1998 14.375 33.8887 14.7076 33.6295 15.1311C33.1283 15.9476 32.1994 16.6865 31.318 17.0494C30.4712 17.395 29.4732 17.2308 28.6047 17.0623C28.069 16.9586 27.5203 16.7729 27.0105 17.0623C26.9586 17.0926 26.937 17.1531 26.95 17.2136L26.9586 17.2438C26.9629 17.2697 26.9889 17.2913 27.0148 17.3C27.153 17.3345 27.287 17.2956 27.4252 17.2827C27.9394 17.2438 28.4492 17.4771 28.9504 17.5765C29.7886 17.745 30.6311 17.7709 31.452 17.516C32.2383 17.274 32.9685 16.6216 33.5561 16.0643C33.8067 15.8267 33.9838 15.494 34.1912 15.2218C34.4115 14.9323 34.7572 14.7638 34.8436 14.4095C34.8695 14.3058 34.7744 14.2065 34.6708 14.2367H34.6664Z" fill="#2E2E2E"/>
<path d="M33.0462 14.8589C31.8494 14.8286 30.752 14.3793 29.5422 14.5824C28.6652 14.7292 27.7362 15.2564 27.382 16.1032C27.356 16.1637 27.4424 16.1982 27.4857 16.1637C28.4405 15.3557 29.1966 14.9755 30.4668 14.9539C31.3007 14.941 32.2728 15.481 33.0894 15.1699C33.2536 15.1095 33.2363 14.8632 33.0462 14.8589Z" fill="#2E2E2E"/>
<path d="M32.9939 14.8459C32.4841 15.1786 31.9397 15.3687 31.4601 15.7576C30.7343 16.3495 29.8788 16.7426 28.9196 16.5439C28.8764 16.5353 28.8462 16.5957 28.8894 16.6173C29.4381 16.8636 30.1164 16.9198 30.6781 16.6476C31.1101 16.4402 31.4947 16.1982 31.8749 15.9088C32.2767 15.602 32.7779 15.4767 33.1883 15.1872C33.3957 15.0403 33.2056 14.7033 32.9896 14.8416L32.9939 14.8459Z" fill="#2E2E2E"/>
<path d="M22.6854 25.712C22.5256 25.1417 22.3355 24.5196 21.8084 24.1782C21.156 23.7591 20.59 23.6122 19.8295 23.474C19.6394 23.4394 17.6131 23.5302 17.6477 23.8024C17.6304 23.6684 17.3971 23.6684 17.3798 23.8024C17.3798 23.8196 17.3798 23.8326 17.3755 23.8456C17.3625 23.9406 17.4144 24.027 17.5181 24.0313C18.7926 24.0789 20.0067 23.703 21.1948 24.3943C21.8861 24.7961 22.0589 25.3793 22.2577 26.1052C22.383 26.5632 22.8323 26.8786 23.0829 27.2631C23.5668 28.0019 22.5515 28.9827 22.0244 29.3845C21.4584 29.8209 20.8189 29.9462 20.1579 30.1622C19.2247 30.4689 18.2569 30.4862 17.2848 30.5337C17.0644 30.5467 16.9996 30.8794 17.2329 30.9312C18.568 31.225 19.8425 30.7152 21.1257 30.4344C22.3095 30.1795 23.7051 28.8228 23.7051 27.5699C23.7051 26.8138 22.8755 26.3904 22.6897 25.7163L22.6854 25.712Z" fill="#2E2E2E"/>
<path d="M22.0067 29.7863C21.9462 29.661 21.7777 29.7129 21.7388 29.8209C21.7129 29.8986 21.687 29.9462 21.6999 30.0239C21.7777 30.4387 21.6092 30.7757 21.3629 31.0911C21.0605 31.48 20.8272 31.7003 20.3822 31.9379C19.8853 32.2015 19.4014 32.383 18.8657 32.5385C18.3429 32.6897 17.833 32.6249 17.3232 32.7588C17.1331 32.8064 17.159 33.057 17.3232 33.1174C18.5546 33.5711 19.9847 32.7588 21.0475 32.2058C21.8771 31.7738 22.4085 30.6375 22.0067 29.782V29.7863Z" fill="#2E2E2E"/>
<path d="M22.3439 25.5867C22.3396 25.5219 22.2532 25.5262 22.2446 25.5867C22.1409 26.4465 20.3781 26.5891 19.7862 26.9952C19.4017 27.2588 19.0128 27.747 19.3541 28.1963C19.6091 28.5247 20.0843 28.4945 20.4127 28.3303C20.646 28.2136 20.7799 27.9155 20.8836 27.6995C21.0694 27.3149 21.3373 27.0212 21.6051 26.6971C21.6095 26.6928 21.6138 26.6841 21.6181 26.6755C22.0502 26.4292 22.3828 26.0966 22.3396 25.5867H22.3439ZM20.5682 27.3452C20.4688 27.5396 20.3997 27.734 20.2571 27.9025C19.9504 28.1445 19.8078 28.0278 19.8337 27.5569C20.0065 27.3754 20.2269 27.2588 20.4559 27.168C20.5466 27.1335 20.646 27.0946 20.754 27.0557C20.6849 27.1464 20.6244 27.2415 20.5682 27.3495V27.3452Z" fill="#2E2E2E"/>
<path d="M7.24351 5.63887C8.21563 5.09016 9.26985 4.62786 10.0821 3.84152C10.7345 3.21073 11.011 2.50216 10.6049 1.63805C10.3759 1.15415 9.96113 0.812832 9.54204 0.497433C9.41243 0.39806 9.48155 0.125867 9.66733 0.203636C10.3673 0.497433 10.8382 0.964052 11.1363 1.67694C11.5036 2.55401 11.1882 3.32306 10.6049 4.00571C9.89632 4.83093 8.91556 5.25002 7.978 5.74688C7.49843 6.00179 6.9886 6.20918 6.52199 6.49001C5.65788 7.00848 5.40729 8.1491 5.82638 9.03913C5.8307 9.05209 5.81774 9.06073 5.8091 9.05209C4.70305 7.5399 5.9776 6.36472 7.25216 5.64319L7.24351 5.63887Z" fill="#2E2E2E"/>
<path d="M2.95359 5.66478C3.79609 4.62354 4.95831 3.93657 6.14214 3.36626C6.85503 3.02062 7.53767 2.65337 8.2592 2.32501C9.02394 1.97505 9.65905 1.18871 9.34366 0.303004C9.28749 0.147465 9.52512 0.0524132 9.60721 0.194991C9.98309 0.860353 9.71522 1.68125 9.23132 2.20836C8.90728 2.55832 8.37586 2.75275 7.94381 2.92557C7.23092 3.21072 6.57851 3.64277 5.88723 3.97978C4.71636 4.55873 3.66215 5.41419 2.9147 6.49001C1.9685 7.85962 2.09812 9.50142 2.88878 10.8926C3.54118 12.0462 4.84166 12.6208 6.12486 12.6511C7.47719 12.6856 8.75174 11.895 9.28749 10.6248C9.60289 9.87298 9.5208 9.13849 9.09739 8.46449C8.75607 7.92442 7.7537 7.83801 7.22227 7.50101C6.72973 7.18561 6.26744 6.43816 6.88095 6.05795C7.00625 5.98018 7.16179 6.13572 7.08402 6.26102C6.55691 7.08624 8.39314 7.53557 8.85543 7.66951C9.29181 7.79481 9.60721 8.30463 9.76707 8.68916C10.1689 9.65264 9.93557 10.7976 9.29181 11.6012C8.553 12.5301 7.55063 13.1436 6.35817 13.1393C5.1657 13.1393 4.08557 12.7937 3.17393 12.016C2.2623 11.2383 1.86049 10.0328 1.78272 8.88358C1.69631 7.62631 2.17589 6.6153 2.95359 5.65182V5.66478Z" fill="#2E2E2E"/>
<path d="M6.65181 12.7504C7.06226 13.0312 7.33445 13.3682 7.83996 13.5151C8.48371 13.7009 9.08427 13.675 9.73235 13.5151C11.0976 13.1695 11.8494 11.9209 12.2512 10.6852C12.6098 9.57914 12.2815 8.08424 11.4433 7.28926C10.415 6.31282 8.63925 6.40355 7.8702 7.58306C7.82267 7.65651 7.70602 7.64787 7.6801 7.55714C7.55048 7.05595 7.99117 6.69735 8.38002 6.45108C9.08859 6.00606 10.0391 6.15296 10.7736 6.41219C12.3074 6.95658 12.7999 8.46877 12.761 9.97231C12.7222 11.4499 11.7414 13.1954 10.3199 13.7614C9.90949 13.9256 9.50336 14.0552 9.06267 14.0941C8.55284 14.1416 8.21152 14.0509 7.71034 13.9515C7.17027 13.8435 6.51355 13.4417 6.45306 12.8584C6.44442 12.7634 6.56972 12.6986 6.64317 12.7504H6.65181Z" fill="#2E2E2E"/>
<path d="M11.4174 6.7709C12.2643 6.42526 13.5129 7.03445 14.1696 7.58316C14.6146 7.9504 14.9603 8.40406 15.2929 8.87067C15.5781 9.26816 16.0058 9.68293 16.1787 10.1366C16.1873 10.1625 16.1527 10.1928 16.1268 10.1755C15.4658 9.6743 14.9473 8.96141 14.377 8.36085C13.5431 7.47946 12.5321 7.30232 11.4131 7.0863C11.236 7.05173 11.2792 6.82707 11.4131 6.7709H11.4174Z" fill="#2E2E2E"/>
<path d="M14.0912 7.59171C14.6054 7.47073 15.0331 7.84662 15.504 8.02808C16.299 8.33916 17.1718 8.52062 18.0316 8.47742C18.1871 8.46878 18.2303 8.6848 18.1093 8.75825C17.5865 9.08229 16.7051 8.79714 16.1392 8.69344C15.4349 8.56815 14.6831 8.15338 14.0653 7.81638C13.9703 7.76453 13.9919 7.61331 14.0955 7.58739L14.0912 7.59171Z" fill="#2E2E2E"/>
<path d="M13.9097 22.6963C14.4066 21.7674 14.735 20.8212 15.0504 19.8231C15.1886 19.3825 15.1886 18.9158 15.1929 18.4622C15.1973 17.8443 15.2966 17.2654 15.2189 16.6476C15.0849 15.5501 15.0115 14.5003 14.6097 13.459C14.601 13.4374 14.6356 13.4201 14.6485 13.4417C15.18 14.3577 15.4176 15.2477 15.5602 16.2976C15.6336 16.829 15.6941 17.3172 15.6768 17.8573C15.6596 18.2937 15.7114 18.8294 15.6293 19.2615C15.4478 20.2077 15.1757 21.1107 14.7782 21.9921C14.3332 22.9858 13.711 23.9061 13.3524 24.9387C13.2876 25.1244 13.0284 25.051 13.0586 24.8566C13.1969 24.0616 13.5252 23.4092 13.9054 22.6963H13.9097Z" fill="#2E2E2E"/>
<path d="M12.6226 13.5886C14.2428 13.6664 15.4655 15.697 15.5779 17.1315C15.5865 17.2222 15.4569 17.2265 15.4266 17.1531C14.9471 15.9001 14.407 14.9021 13.2275 14.2021C12.5103 13.7787 11.5684 14.0207 10.9635 14.5262C10.3716 15.0187 10.3587 15.6495 10.3284 16.3538C10.3198 16.5309 10.0735 16.5655 10.0217 16.397C9.49455 14.7595 11.1191 13.5195 12.6226 13.5929V13.5886Z" fill="#2E2E2E"/>
<path d="M10.121 15.9433C10.3025 16.1291 10.4407 16.3062 10.6697 16.4488C10.9289 16.613 11.3869 16.5655 11.6893 16.5914C12.1473 16.6303 12.5664 16.7988 12.9596 17.0321C13.2923 17.2352 13.5169 17.5635 13.6854 17.9048C13.7502 18.0344 13.7891 18.1857 13.841 18.3196C13.9058 18.4795 13.8107 18.7085 13.9101 18.8424C13.949 18.8986 13.8755 18.9677 13.8194 18.9331C13.5904 18.7905 13.6033 18.5011 13.4867 18.2634C13.1454 17.5722 12.6571 17.2049 11.9054 17.0234C11.1752 16.8463 10.0994 17.071 9.92224 16.06C9.90064 15.9476 10.0346 15.8483 10.1253 15.9433H10.121Z" fill="#2E2E2E"/>
<path d="M10.705 16.6389C11.2018 17.0105 11.3098 17.6715 11.7246 18.1338C12.0227 18.4622 12.4202 18.6825 12.8695 18.7084C13.1893 18.7257 13.4183 18.6263 13.738 18.6955C13.7812 18.7041 13.8028 18.743 13.8071 18.7862C13.8417 18.8208 13.833 18.8942 13.7769 18.9072C13.7639 18.9072 13.7509 18.9072 13.738 18.9115C13.7034 18.9158 13.6602 18.9115 13.6429 18.8726C13.6602 18.9072 12.7745 19.0627 12.6535 19.067C12.3381 19.0757 11.9882 18.8597 11.7462 18.6868C11.1284 18.2548 10.7482 17.49 10.4933 16.8074C10.45 16.6951 10.6056 16.5698 10.705 16.6432V16.6389Z" fill="#2E2E2E"/>
<path d="M7.89602 13.7528C8.00403 13.6275 8.22006 13.7572 8.17253 13.9127C7.73616 15.2737 8.22438 16.4834 8.92862 17.6413C9.2397 18.1511 9.64151 18.5659 9.98715 19.0455C10.1773 19.3047 10.4365 19.5812 10.5964 19.8491C10.7432 20.0954 10.7778 20.4108 10.8945 20.67C10.942 20.7737 10.7994 20.8601 10.7432 20.7607C9.98283 19.4775 8.84653 18.5011 8.1034 17.1877C7.59358 16.289 7.10536 14.6472 7.90034 13.7528H7.89602Z" fill="#2E2E2E"/>
<path d="M9.07951 18.1813C10.0689 19.4515 9.78376 21.331 9.66279 22.8129C9.57638 23.8844 9.56774 24.8133 10.1337 25.7682C10.5744 26.5113 11.3305 27.0773 11.9483 27.6735C12.0909 27.8118 11.9095 28.0192 11.7453 27.9371C10.2936 27.2328 9.25666 25.8935 9.09248 24.2862C9.00174 23.3832 9.13568 22.3722 9.26962 21.4822C9.42516 20.4366 9.23074 19.2744 8.95422 18.2548C8.93694 18.1856 9.03199 18.1165 9.07951 18.1813Z" fill="#2E2E2E"/>
<path d="M0.620059 14.2194C1.9119 13.9817 2.95315 13.2256 4.19314 12.8238C4.44805 12.7418 5.48498 12.4912 5.6362 12.8886C5.65348 12.9319 5.60164 12.9751 5.56275 12.9621C5.31216 12.8886 4.80666 13.0571 4.57335 13.1176C3.94255 13.2818 3.342 13.6188 2.77601 13.9342C2.13225 14.2928 1.37183 14.7638 0.620059 14.5305C0.477482 14.4872 0.455879 14.2496 0.620059 14.2194Z" fill="#2E2E2E"/>
<path d="M0.745668 14.2367C1.21229 14.375 1.52336 14.7076 1.78259 15.1311C2.28378 15.9476 3.21269 16.6865 4.09408 17.0494C4.94091 17.395 5.93895 17.2308 6.80738 17.0623C7.34312 16.9586 7.89183 16.7729 8.40165 17.0623C8.4535 17.0926 8.4751 17.1531 8.46214 17.2136L8.4535 17.2438C8.44918 17.2697 8.42325 17.2913 8.39733 17.3C8.25907 17.3345 8.12514 17.2956 7.98688 17.2827C7.47274 17.2438 6.96291 17.4771 6.46173 17.5765C5.62355 17.745 4.78105 17.7709 3.96015 17.516C3.17381 17.274 2.44363 16.6216 1.85604 16.0643C1.60545 15.8267 1.42831 15.494 1.22092 15.2218C1.00058 14.9323 0.654936 14.7638 0.568525 14.4095C0.542602 14.3058 0.637651 14.2065 0.741344 14.2367H0.745668Z" fill="#2E2E2E"/>
<path d="M2.36092 14.8589C3.55771 14.8286 4.65512 14.3793 5.86487 14.5824C6.74194 14.7292 7.67085 15.2564 8.02514 16.1032C8.05106 16.1637 7.96465 16.1982 7.92145 16.1637C6.96661 15.3557 6.21052 14.9755 4.93596 14.9539C4.1021 14.941 3.12997 15.481 2.31339 15.1699C2.14921 15.1095 2.1665 14.8632 2.3566 14.8589H2.36092Z" fill="#2E2E2E"/>
<path d="M2.41751 14.8459C2.92733 15.1786 3.47172 15.3687 3.9513 15.7576C4.67715 16.3495 5.53261 16.7426 6.48745 16.5439C6.53065 16.5353 6.5609 16.5957 6.5177 16.6173C5.96899 16.8636 5.28634 16.9198 4.729 16.6476C4.29694 16.4402 3.91241 16.1982 3.53221 15.9088C3.1304 15.602 2.62922 15.4767 2.21877 15.1872C2.01138 15.0403 2.20148 14.7033 2.41751 14.8416V14.8459Z" fill="#2E2E2E"/>
<path d="M12.7225 25.712C12.8824 25.1417 13.0725 24.5196 13.5996 24.1782C14.252 23.7591 14.818 23.6122 15.5784 23.474C15.7685 23.4394 17.7948 23.5302 17.7603 23.8024C17.7775 23.6684 18.0109 23.6684 18.0281 23.8024C18.0281 23.8196 18.0281 23.8326 18.0325 23.8456C18.0454 23.9406 17.9936 24.027 17.8899 24.0313C16.6153 24.0789 15.4013 23.703 14.2131 24.3943C13.5218 24.7961 13.349 25.3793 13.1503 26.1052C13.025 26.5632 12.5756 26.8786 12.325 27.2631C11.8411 28.0019 12.8565 28.9827 13.3836 29.3845C13.9496 29.8209 14.589 29.9462 15.25 30.1622C16.1833 30.4689 17.1511 30.4862 18.1232 30.5337C18.3435 30.5467 18.4083 30.8794 18.175 30.9312C16.84 31.225 15.5654 30.7152 14.2822 30.4344C13.0984 30.1795 11.7029 28.8228 11.7029 27.5699C11.7029 26.8138 12.5324 26.3904 12.7182 25.7163L12.7225 25.712Z" fill="#2E2E2E"/>
<path d="M13.4 29.7863C13.4605 29.661 13.629 29.7129 13.6679 29.8209C13.6938 29.8986 13.7197 29.9462 13.7025 30.0239C13.6247 30.4387 13.7932 30.7757 14.0395 31.0911C14.3419 31.48 14.5752 31.7003 15.0202 31.9379C15.5171 32.2015 16.001 32.383 16.5367 32.5385C17.0595 32.6897 17.5693 32.6249 18.0792 32.7588C18.2693 32.8064 18.2433 33.057 18.0792 33.1174C16.8478 33.5711 15.4177 32.7588 14.3549 32.2058C13.5253 31.7738 12.9939 30.6375 13.3957 29.782L13.4 29.7863Z" fill="#2E2E2E"/>
<path d="M13.7889 26.6712C13.7889 26.6712 13.7932 26.6842 13.8019 26.6928C14.0698 27.0169 14.3419 27.3107 14.5234 27.6952C14.6271 27.9155 14.761 28.2093 14.9943 28.326C15.3227 28.4902 15.8023 28.5247 16.0529 28.1921C16.3942 27.7427 16.0053 27.2545 15.6208 26.991C15.0289 26.5848 13.2661 26.4422 13.1624 25.5825C13.1538 25.522 13.0717 25.5177 13.0631 25.5825C13.0199 26.0923 13.3569 26.425 13.7846 26.6712H13.7889ZM14.653 27.0514C14.7567 27.0903 14.8604 27.1292 14.9511 27.1638C15.1801 27.2545 15.4048 27.3712 15.5733 27.5526C15.5992 28.0236 15.461 28.1402 15.1499 27.8983C15.0073 27.7298 14.9382 27.5353 14.8388 27.3409C14.7826 27.2329 14.7222 27.1379 14.653 27.0471V27.0514Z" fill="#2E2E2E"/>
</svg>
