<svg width="35" height="34" viewBox="0 0 35 34" fill="none" xmlns="http://www.w3.org/2000/svg">
<path d="M34.7916 14.2195C33.4998 13.9819 32.4585 13.2258 31.2185 12.824C31.1753 12.811 31.1105 12.7937 31.0327 12.7721C31.4605 12.595 31.8623 12.3487 32.2382 12.029C33.1498 11.2513 33.5516 10.0459 33.6294 8.89659C33.7158 7.63932 33.2362 6.62831 32.4585 5.66483C31.616 4.62358 30.4538 3.93662 29.2699 3.36631C28.5571 3.02067 27.8744 2.65342 27.1529 2.32506C26.3882 1.9751 25.753 1.18876 26.0684 0.303052C26.1246 0.151834 25.8913 0.0567811 25.8092 0.190718C25.7919 0.190718 25.7703 0.190717 25.7487 0.203679C25.0488 0.497475 24.5779 0.964094 24.2797 1.67698C23.9125 2.55405 24.2279 3.3231 24.8112 4.00575C25.5197 4.83097 26.5005 5.25006 27.438 5.74692C27.7232 5.89814 28.017 6.03208 28.3065 6.17465C28.3021 6.2049 28.3065 6.23946 28.3238 6.26971C28.6003 6.70608 28.2244 7.03444 27.7362 7.26775C27.6757 6.91347 27.3343 6.64559 27.0233 6.45117C26.3147 6.00615 25.3642 6.15305 24.6254 6.41229C24.3705 6.50302 24.1501 6.61967 23.9471 6.75793C23.1045 6.44253 21.8905 7.03876 21.2381 7.57451C20.7542 7.50538 20.3437 7.85102 19.8987 8.02384C19.2031 8.29604 18.4513 8.46886 17.6996 8.4775C16.9478 8.46454 16.196 8.29171 15.5004 8.02384C15.0511 7.85102 14.6406 7.50106 14.161 7.57451C13.5086 7.03876 12.2946 6.44253 11.4521 6.75793C11.2533 6.61967 11.0287 6.4987 10.7737 6.41229C10.0349 6.15305 9.08873 6.00183 8.38017 6.45117C8.06909 6.64559 7.72776 6.91347 7.66727 7.26775C7.17905 7.03444 6.80317 6.70608 7.07969 6.26971C7.10129 6.23946 7.10561 6.2049 7.10129 6.17465C7.39076 6.03208 7.68456 5.89814 7.96972 5.74692C8.90727 5.25006 9.88803 4.83097 10.5966 4.00575C11.1799 3.3231 11.4953 2.54973 11.128 1.67698C10.8299 0.964094 10.3633 0.497475 9.65904 0.203679C9.63744 0.195038 9.61584 0.190718 9.59855 0.190718C9.51646 0.0611017 9.28748 0.151834 9.33933 0.303052C9.65473 1.18876 9.0196 1.9751 8.25487 2.32506C7.53334 2.65342 6.8507 3.02067 6.13781 3.36631C4.95398 3.94094 3.79176 4.6279 2.94925 5.66483C2.17156 6.62399 1.69198 7.635 1.77839 8.89659C1.85616 10.0415 2.25797 11.2513 3.16961 12.029C3.54549 12.3487 3.9473 12.595 4.37503 12.7721C4.29726 12.7894 4.23246 12.811 4.18925 12.824C2.94926 13.2258 1.90801 13.9819 0.616168 14.2195C0.451988 14.2497 0.473589 14.4744 0.607525 14.5262C0.732821 14.8071 1.02662 14.9713 1.22104 15.2262C1.43275 15.4984 1.60557 15.8354 1.85616 16.0687C2.44375 16.626 3.17393 17.2784 3.96026 17.5204C4.78116 17.7753 5.62367 17.745 6.46185 17.5809C6.96303 17.4815 7.46853 17.2439 7.987 17.2871C8.04748 17.2914 8.10797 17.3 8.16846 17.3087C8.41905 17.7321 8.70852 18.1209 9.01096 18.4968C9.25291 19.456 9.40845 20.5231 9.26588 21.4866C9.13194 22.381 8.998 23.392 9.08873 24.2906C9.24859 25.8936 10.2898 27.2373 11.7415 27.9415C11.7415 27.9415 11.7415 27.9415 11.7459 27.9415C11.91 28.7408 12.5668 29.5358 13.3185 30.0154C13.0939 30.8319 13.5994 31.817 14.3555 32.2102C15.3103 32.707 16.5633 33.4113 17.6996 33.2169C18.8359 33.4113 20.0888 32.707 21.0436 32.2102C21.7997 31.817 22.3052 30.8319 22.0806 30.0154C22.8323 29.5358 23.4891 28.7408 23.6532 27.9415C23.6532 27.9415 23.6533 27.9415 23.6576 27.9415C25.1093 27.2373 26.1462 25.8979 26.3104 24.2906C26.4011 23.3877 26.2672 22.3767 26.1332 21.4866C25.9907 20.5188 26.1462 19.456 26.3881 18.4968C26.6906 18.1209 26.9801 17.7321 27.2307 17.3087C27.2911 17.3043 27.3516 17.2914 27.4121 17.2871C27.9263 17.2482 28.4361 17.4815 28.9373 17.5809C29.7755 17.7494 30.618 17.7753 31.4389 17.5204C32.2252 17.2784 32.9554 16.626 33.543 16.0687C33.7935 15.831 33.9707 15.4984 34.1781 15.2262C34.3725 14.9713 34.6663 14.8071 34.7916 14.5262C34.9255 14.4744 34.9471 14.2497 34.7829 14.2195H34.7916Z" fill="#2A2A30"/>
<path d="M28.1684 5.63896C27.1963 5.09025 26.1421 4.62795 25.3298 3.84162C24.6774 3.21082 24.4009 2.50225 24.807 1.63814C25.036 1.15424 25.4508 0.812923 25.8699 0.497524C25.9995 0.398152 25.9304 0.125958 25.7446 0.203728C25.0447 0.497524 24.5737 0.964143 24.2756 1.67703C23.9084 2.5541 24.2238 3.32315 24.807 4.0058C25.5156 4.83102 26.4964 5.25011 27.4339 5.74697C27.9135 6.00188 28.4233 6.20927 28.8899 6.4901C29.754 7.00857 30.0046 8.14919 29.5855 9.03922C29.5812 9.05218 29.5942 9.06082 29.6028 9.05218C30.7132 7.53999 29.4343 6.36481 28.1598 5.64328L28.1684 5.63896Z" fill="white"/>
<path d="M32.4539 5.66478C31.6114 4.62354 30.4491 3.93657 29.2653 3.36626C28.5524 3.02062 27.8698 2.65337 27.1482 2.32501C26.3835 1.97505 25.7484 1.18871 26.0638 0.303004C26.12 0.147465 25.8823 0.0524132 25.8046 0.194991C25.4287 0.860353 25.6965 1.68125 26.1804 2.20836C26.5045 2.55832 27.0359 2.75275 27.468 2.92557C28.1808 3.21072 28.8333 3.64277 29.5245 3.97978C30.6954 4.55873 31.7496 5.4142 32.4971 6.49001C33.4433 7.85962 33.3136 9.50142 32.523 10.8926C31.8706 12.0462 30.5701 12.6208 29.2869 12.6511C27.9346 12.6856 26.66 11.895 26.1243 10.6248C25.8089 9.87298 25.891 9.13849 26.3144 8.46449C26.6557 7.92442 27.6581 7.83801 28.1895 7.50101C28.682 7.18561 29.1443 6.43816 28.5308 6.05795C28.4055 5.98018 28.25 6.13572 28.3277 6.26102C28.8549 7.08624 27.0186 7.53557 26.5563 7.66951C26.12 7.79481 25.8046 8.30463 25.6447 8.68916C25.2386 9.65264 25.4762 10.7976 26.12 11.6012C26.8588 12.5301 27.8611 13.1436 29.0536 13.1393C30.2461 13.1393 31.3262 12.7937 32.2378 12.016C33.1495 11.2383 33.5513 10.0328 33.629 8.88358C33.7155 7.62631 33.2359 6.6153 32.4582 5.65182L32.4539 5.66478Z" fill="white"/>
<path d="M28.7563 12.7504C28.3458 13.0312 28.0736 13.3682 27.5681 13.5151C26.9244 13.7009 26.3238 13.675 25.6758 13.5151C24.3105 13.1695 23.5587 11.9209 23.1569 10.6852C22.7983 9.57914 23.1266 8.08424 23.9648 7.28926C24.9931 6.31282 26.7645 6.40355 27.5379 7.58306C27.5854 7.65651 27.7021 7.64787 27.728 7.55714C27.8576 7.05595 27.4169 6.69735 27.0281 6.45108C26.3195 6.00606 25.369 6.15296 24.6302 6.41219C23.0964 6.95658 22.6038 8.46877 22.6427 9.97231C22.6816 11.4499 23.6624 13.1954 25.0838 13.7614C25.4943 13.9256 25.9004 14.0552 26.3411 14.0941C26.8509 14.1416 27.1923 14.0509 27.6934 13.9515C28.2335 13.8435 28.8902 13.4417 28.9507 12.8584C28.9594 12.7634 28.8341 12.6986 28.7606 12.7504H28.7563Z" fill="white"/>
<path d="M23.9901 6.77087C23.1433 6.42523 21.8947 7.03442 21.2379 7.58313C20.7929 7.95037 20.4473 8.40403 20.1146 8.87064C19.8294 9.26813 19.4017 9.6829 19.2289 10.1366C19.2203 10.1625 19.2548 10.1927 19.2807 10.1754C19.9418 9.67427 20.4602 8.96138 21.0306 8.36082C21.8644 7.47943 22.8754 7.30229 23.9944 7.08627C24.1716 7.0517 24.1284 6.82704 23.9944 6.77087H23.9901Z" fill="white"/>
<path d="M21.3163 7.59165C20.8022 7.47067 20.3744 7.84656 19.9035 8.02802C19.1085 8.3391 18.2358 8.52056 17.376 8.47736C17.2204 8.46872 17.1772 8.68474 17.2982 8.75819C17.821 9.08223 18.7024 8.79708 19.2684 8.69338C19.9726 8.56809 20.7244 8.15332 21.3422 7.81632C21.4373 7.76447 21.4157 7.61325 21.312 7.58733L21.3163 7.59165Z" fill="white"/>
<path d="M21.5015 22.6964C21.009 21.7675 20.6763 20.8213 20.3609 19.8232C20.2226 19.3825 20.2226 18.9159 20.2183 18.4623C20.214 17.8444 20.1146 17.2655 20.1924 16.6476C20.3263 15.5502 20.3998 14.5003 20.8016 13.4591C20.8102 13.4375 20.7757 13.4202 20.7627 13.4418C20.2356 14.3578 19.9937 15.2478 19.8511 16.2977C19.7776 16.8291 19.7171 17.3173 19.7344 17.8574C19.7517 18.2938 19.6999 18.8295 19.7819 19.2616C19.9634 20.2078 20.2356 21.1108 20.6331 21.9921C21.0781 22.9859 21.7003 23.9061 22.0589 24.9388C22.1237 25.1245 22.3829 25.0511 22.3527 24.8567C22.2144 24.0617 21.886 23.4093 21.5058 22.6964H21.5015Z" fill="white"/>
<path d="M22.7848 13.5886C21.1646 13.6664 19.9418 15.697 19.8295 17.1315C19.8209 17.2222 19.9505 17.2265 19.9807 17.1531C20.4603 15.9001 21.0004 14.9021 22.1799 14.2021C22.8971 13.7787 23.839 14.0207 24.4438 14.5262C25.0358 15.0187 25.0487 15.6495 25.079 16.3538C25.0876 16.5309 25.3339 16.5655 25.3857 16.397C25.9128 14.7595 24.2883 13.5195 22.7848 13.5929V13.5886Z" fill="white"/>
<path d="M25.2863 15.9434C25.1049 16.1292 24.9666 16.3063 24.7376 16.4489C24.4784 16.6131 24.0204 16.5655 23.718 16.5915C23.26 16.6303 22.8409 16.7988 22.4477 17.0321C22.1151 17.2352 21.8904 17.5636 21.7219 17.9049C21.6571 18.0345 21.6182 18.1857 21.5664 18.3197C21.5015 18.4795 21.5966 18.7085 21.4972 18.8424C21.4583 18.8986 21.5318 18.9677 21.588 18.9332C21.8169 18.7906 21.804 18.5011 21.9206 18.2635C22.262 17.5722 22.7502 17.205 23.5019 17.0235C24.2321 16.8464 25.3079 17.071 25.4851 16.06C25.5067 15.9477 25.3727 15.8483 25.282 15.9434H25.2863Z" fill="white"/>
<path d="M24.7027 16.639C24.2058 17.0105 24.0978 17.6716 23.683 18.1339C23.3849 18.4622 22.9874 18.6826 22.5381 18.7085C22.2184 18.7258 21.9894 18.6264 21.6697 18.6955C21.6265 18.7042 21.6049 18.7431 21.6005 18.7863C21.566 18.8208 21.5746 18.8943 21.6308 18.9072C21.6438 18.9072 21.6567 18.9072 21.6697 18.9116C21.7042 18.9159 21.7474 18.9116 21.7647 18.8727C21.7474 18.9072 22.6332 19.0628 22.7541 19.0671C23.0695 19.0757 23.4195 18.8597 23.6614 18.6869C24.2793 18.2548 24.6638 17.4901 24.9144 16.8075C24.9576 16.6951 24.8021 16.5698 24.7027 16.6433V16.639Z" fill="white"/>
<path d="M27.5109 13.753C27.4029 13.6277 27.1869 13.7573 27.2344 13.9128C27.6708 15.2738 27.1826 16.4835 26.4783 17.6414C26.1672 18.1513 25.7654 18.566 25.4198 19.0456C25.2297 19.3048 24.9704 19.5814 24.8106 19.8492C24.668 20.0955 24.6291 20.4109 24.5125 20.6701C24.4649 20.7738 24.6075 20.8602 24.6637 20.7609C25.4241 19.4777 26.5604 18.5012 27.3035 17.1878C27.8134 16.2891 28.3016 14.6473 27.5066 13.753H27.5109Z" fill="white"/>
<path d="M26.3315 18.1814C25.3421 19.4516 25.6272 21.3311 25.7482 22.813C25.8346 23.8845 25.8433 24.8134 25.2773 25.7683C24.8409 26.5114 24.0848 27.0774 23.4627 27.6736C23.3201 27.8119 23.5015 28.0192 23.6657 27.9372C25.1174 27.2329 26.1543 25.8935 26.3185 24.2863C26.4093 23.3833 26.2753 22.3723 26.1414 21.4823C25.9858 20.4367 26.1803 19.2745 26.4568 18.2548C26.4741 18.1857 26.379 18.1166 26.3315 18.1814Z" fill="white"/>
<path d="M34.792 14.2193C33.5002 13.9817 32.4589 13.2256 31.2189 12.8237C30.964 12.7417 29.9271 12.4911 29.7759 12.8886C29.7586 12.9318 29.8104 12.975 29.8493 12.962C30.0999 12.8886 30.6054 13.0571 30.8387 13.1175C31.4695 13.2817 32.0701 13.6187 32.6361 13.9341C33.2798 14.2927 34.0402 14.7637 34.792 14.5304C34.9346 14.4872 34.9562 14.2495 34.792 14.2193Z" fill="white"/>
<path d="M34.6664 14.2367C34.1998 14.375 33.8887 14.7076 33.6295 15.1311C33.1283 15.9476 32.1994 16.6865 31.318 17.0494C30.4712 17.395 29.4732 17.2308 28.6047 17.0623C28.069 16.9586 27.5203 16.7729 27.0105 17.0623C26.9586 17.0926 26.937 17.1531 26.95 17.2136L26.9586 17.2438C26.9629 17.2697 26.9889 17.2913 27.0148 17.3C27.153 17.3345 27.287 17.2956 27.4252 17.2827C27.9394 17.2438 28.4492 17.4771 28.9504 17.5765C29.7886 17.745 30.6311 17.7709 31.452 17.516C32.2383 17.274 32.9685 16.6216 33.5561 16.0643C33.8067 15.8267 33.9838 15.494 34.1912 15.2218C34.4115 14.9323 34.7572 14.7638 34.8436 14.4095C34.8695 14.3058 34.7744 14.2065 34.6708 14.2367H34.6664Z" fill="white"/>
<path d="M33.0469 14.8588C31.8501 14.8286 30.7527 14.3792 29.543 14.5823C28.6659 14.7292 27.737 15.2563 27.3827 16.1031C27.3568 16.1636 27.4432 16.1982 27.4864 16.1636C28.4412 15.3557 29.1973 14.9755 30.4675 14.9539C31.3014 14.9409 32.2735 15.481 33.0901 15.1699C33.2543 15.1094 33.237 14.8631 33.0469 14.8588Z" fill="white"/>
<path d="M32.9936 14.846C32.4838 15.1787 31.9394 15.3688 31.4599 15.7576C30.734 16.3496 29.8785 16.7427 28.9194 16.544C28.8762 16.5353 28.8459 16.5958 28.8891 16.6174C29.4378 16.8637 30.1162 16.9199 30.6778 16.6477C31.1099 16.4403 31.4944 16.1983 31.8746 15.9089C32.2764 15.6021 32.7776 15.4768 33.1881 15.1873C33.3955 15.0404 33.2053 14.7034 32.9893 14.8417L32.9936 14.846Z" fill="white"/>
<path d="M22.6854 25.7121C22.5256 25.1418 22.3355 24.5196 21.8084 24.1783C21.156 23.7592 20.59 23.6123 19.8295 23.4741C19.6394 23.4395 17.6131 23.5302 17.6477 23.8024C17.6304 23.6685 17.3971 23.6685 17.3798 23.8024C17.3798 23.8197 17.3798 23.8327 17.3755 23.8456C17.3625 23.9407 17.4144 24.0271 17.5181 24.0314C18.7926 24.0789 20.0067 23.703 21.1948 24.3943C21.8861 24.7961 22.0589 25.3794 22.2577 26.1053C22.383 26.5632 22.8323 26.8786 23.0829 27.2632C23.5668 28.002 22.5515 28.9827 22.0244 29.3845C21.4584 29.8209 20.8189 29.9462 20.1579 30.1622C19.2247 30.469 18.2569 30.4863 17.2848 30.5338C17.0644 30.5468 16.9996 30.8794 17.2329 30.9313C18.568 31.2251 19.8425 30.7153 21.1257 30.4344C22.3095 30.1795 23.7051 28.8229 23.7051 27.5699C23.7051 26.8138 22.8755 26.3904 22.6897 25.7164L22.6854 25.7121Z" fill="white"/>
<path d="M22.0069 29.7863C21.9464 29.661 21.7779 29.7128 21.739 29.8208C21.7131 29.8986 21.6872 29.9461 21.7002 30.0239C21.7779 30.4387 21.6094 30.7757 21.3632 31.0911C21.0607 31.4799 20.8274 31.7003 20.3824 31.9379C19.8855 32.2014 19.4016 32.3829 18.8659 32.5384C18.3431 32.6897 17.8333 32.6248 17.3235 32.7588C17.1334 32.8063 17.1593 33.0569 17.3235 33.1174C18.5548 33.571 19.9849 32.7588 21.0478 32.2058C21.8773 31.7737 22.4087 30.6374 22.0069 29.7819V29.7863Z" fill="white"/>
<path d="M22.3447 25.5868C22.3404 25.522 22.254 25.5263 22.2453 25.5868C22.1416 26.4466 20.3788 26.5892 19.7869 26.9953C19.4024 27.2588 19.0136 27.7471 19.3549 28.1964C19.6098 28.5248 20.085 28.4945 20.4134 28.3303C20.6467 28.2137 20.7807 27.9156 20.8843 27.6995C21.0701 27.315 21.338 27.0212 21.6059 26.6972C21.6102 26.6929 21.6145 26.6842 21.6188 26.6756C22.0509 26.4293 22.3836 26.0966 22.3404 25.5868H22.3447ZM20.5689 27.3453C20.4696 27.5397 20.4004 27.7341 20.2579 27.9026C19.9511 28.1446 19.8085 28.0279 19.8345 27.557C20.0073 27.3755 20.2276 27.2588 20.4566 27.1681C20.5473 27.1335 20.6467 27.0947 20.7547 27.0558C20.6856 27.1465 20.6251 27.2416 20.5689 27.3496V27.3453Z" fill="white"/>
<path d="M7.24327 5.63896C8.21539 5.09025 9.2696 4.62795 10.0819 3.84162C10.7343 3.21082 11.0108 2.50225 10.6046 1.63814C10.3757 1.15424 9.96089 0.812923 9.5418 0.497524C9.41218 0.398152 9.48131 0.125958 9.66709 0.203728C10.367 0.497524 10.838 0.964143 11.1361 1.67703C11.5033 2.5541 11.1879 3.32315 10.6046 4.0058C9.89608 4.83102 8.91532 5.25011 7.97776 5.74697C7.49818 6.00188 6.98836 6.20927 6.52174 6.4901C5.65764 7.00857 5.40704 8.14919 5.82614 9.03922C5.83046 9.05218 5.8175 9.06082 5.80886 9.05218C4.7028 7.53999 5.97736 6.36481 7.25191 5.64328L7.24327 5.63896Z" fill="white"/>
<path d="M2.95335 5.66478C3.79585 4.62354 4.95807 3.93657 6.14189 3.36626C6.85478 3.02062 7.53743 2.65337 8.25896 2.32501C9.02369 1.97505 9.65881 1.18871 9.34341 0.303004C9.28724 0.147465 9.52487 0.0524132 9.60696 0.194991C9.98285 0.860353 9.71498 1.68125 9.23108 2.20836C8.90704 2.55832 8.37562 2.75275 7.94356 2.92557C7.23067 3.21072 6.57827 3.64277 5.88698 3.97978C4.71612 4.55873 3.66191 5.4142 2.91446 6.49001C1.96826 7.85962 2.09788 9.50142 2.88853 10.8926C3.54093 12.0462 4.84142 12.6208 6.12462 12.6511C7.47694 12.6856 8.7515 11.895 9.28724 10.6248C9.60264 9.87298 9.52056 9.13849 9.09714 8.46449C8.75582 7.92442 7.75345 7.83801 7.22203 7.50101C6.72949 7.18561 6.26719 6.43816 6.88071 6.05795C7.006 5.98018 7.16154 6.13572 7.08377 6.26102C6.55667 7.08624 8.39289 7.53557 8.85519 7.66951C9.29156 7.79481 9.60696 8.30463 9.76682 8.68916C10.1686 9.65264 9.93533 10.7976 9.29157 11.6012C8.55276 12.5301 7.55039 13.1436 6.35792 13.1393C5.16545 13.1393 4.08532 12.7937 3.17369 12.016C2.26206 11.2383 1.86025 10.0328 1.78248 8.88358C1.69607 7.62631 2.17565 6.6153 2.95335 5.65182V5.66478Z" fill="white"/>
<path d="M6.65132 12.7504C7.06177 13.0312 7.33396 13.3682 7.83947 13.5151C8.48323 13.7009 9.08378 13.675 9.73186 13.5151C11.0972 13.1695 11.8489 11.9209 12.2507 10.6852C12.6093 9.57914 12.281 8.08424 11.4428 7.28926C10.4145 6.31282 8.63876 6.40355 7.86971 7.58306C7.82218 7.65651 7.70553 7.64787 7.67961 7.55714C7.54999 7.05595 7.99069 6.69735 8.37953 6.45108C9.0881 6.00606 10.0386 6.15296 10.7731 6.41219C12.3069 6.95658 12.7994 8.46877 12.7606 9.97231C12.7217 11.4499 11.7409 13.1954 10.3195 13.7614C9.909 13.9256 9.50287 14.0552 9.06218 14.0941C8.55236 14.1416 8.21103 14.0509 7.70985 13.9515C7.16978 13.8435 6.51306 13.4417 6.45257 12.8584C6.44393 12.7634 6.56923 12.6986 6.64268 12.7504H6.65132Z" fill="white"/>
<path d="M11.4174 6.77087C12.2643 6.42523 13.5129 7.03442 14.1696 7.58313C14.6146 7.95037 14.9603 8.40403 15.2929 8.87064C15.5781 9.26813 16.0058 9.6829 16.1787 10.1366C16.1873 10.1625 16.1527 10.1927 16.1268 10.1754C15.4658 9.67427 14.9473 8.96138 14.377 8.36082C13.5431 7.47943 12.5321 7.30229 11.4131 7.08627C11.236 7.0517 11.2792 6.82704 11.4131 6.77087H11.4174Z" fill="white"/>
<path d="M14.0915 7.59165C14.6056 7.47067 15.0334 7.84656 15.5043 8.02802C16.2993 8.3391 17.172 8.52056 18.0318 8.47736C18.1873 8.46872 18.2305 8.68474 18.1096 8.75819C17.5868 9.08223 16.7054 8.79708 16.1394 8.69338C15.4352 8.56809 14.6834 8.15332 14.0656 7.81632C13.9705 7.76447 13.9921 7.61325 14.0958 7.58733L14.0915 7.59165Z" fill="white"/>
<path d="M13.9093 22.6964C14.4061 21.7675 14.7345 20.8213 15.0499 19.8232C15.1881 19.3825 15.1881 18.9159 15.1925 18.4623C15.1968 17.8444 15.2961 17.2655 15.2184 16.6476C15.0844 15.5502 15.011 14.5003 14.6092 13.4591C14.6005 13.4375 14.6351 13.4202 14.6481 13.4418C15.1795 14.3578 15.4171 15.2478 15.5597 16.2977C15.6331 16.8291 15.6936 17.3173 15.6763 17.8574C15.6591 18.2938 15.7109 18.8295 15.6288 19.2616C15.4474 20.2078 15.1752 21.1108 14.7777 21.9921C14.3327 22.9859 13.7105 23.9061 13.3519 24.9388C13.2871 25.1245 13.0279 25.0511 13.0581 24.8567C13.1964 24.0617 13.5247 23.4093 13.9049 22.6964H13.9093Z" fill="white"/>
<path d="M12.6224 13.5886C14.2426 13.6664 15.4653 15.697 15.5776 17.1315C15.5863 17.2222 15.4566 17.2265 15.4264 17.1531C14.9468 15.9001 14.4068 14.9021 13.2272 14.2021C12.51 13.7787 11.5682 14.0207 10.9633 14.5262C10.3714 15.0187 10.3584 15.6495 10.3282 16.3538C10.3195 16.5309 10.0733 16.5655 10.0214 16.397C9.49431 14.7595 11.1188 13.5195 12.6224 13.5929V13.5886Z" fill="white"/>
<path d="M10.121 15.9434C10.3025 16.1292 10.4407 16.3063 10.6697 16.4489C10.9289 16.6131 11.3869 16.5655 11.6893 16.5915C12.1473 16.6303 12.5664 16.7988 12.9596 17.0321C13.2923 17.2352 13.5169 17.5636 13.6854 17.9049C13.7502 18.0345 13.7891 18.1857 13.841 18.3197C13.9058 18.4795 13.8107 18.7085 13.9101 18.8424C13.949 18.8986 13.8755 18.9677 13.8194 18.9332C13.5904 18.7906 13.6033 18.5011 13.4867 18.2635C13.1454 17.5722 12.6571 17.205 11.9054 17.0235C11.1752 16.8464 10.0994 17.071 9.92224 16.06C9.90064 15.9477 10.0346 15.8483 10.1253 15.9434H10.121Z" fill="white"/>
<path d="M10.7045 16.639C11.2013 17.0105 11.3093 17.6716 11.7241 18.1339C12.0222 18.4622 12.4197 18.6826 12.8691 18.7085C13.1888 18.7258 13.4178 18.6264 13.7375 18.6955C13.7807 18.7042 13.8023 18.7431 13.8066 18.7863C13.8412 18.8208 13.8325 18.8943 13.7764 18.9072C13.7634 18.9072 13.7504 18.9072 13.7375 18.9116C13.7029 18.9159 13.6597 18.9116 13.6424 18.8727C13.6597 18.9072 12.774 19.0628 12.653 19.0671C12.3376 19.0757 11.9877 18.8597 11.7457 18.6869C11.1279 18.2548 10.7477 17.4901 10.4928 16.8075C10.4496 16.6951 10.6051 16.5698 10.7045 16.6433V16.639Z" fill="white"/>
<path d="M7.89577 13.753C8.00379 13.6277 8.21981 13.7573 8.17229 13.9128C7.73591 15.2738 8.22413 16.4835 8.92838 17.6414C9.23946 18.1513 9.64127 18.566 9.98691 19.0456C10.177 19.3048 10.4362 19.5814 10.5961 19.8492C10.743 20.0955 10.7776 20.4109 10.8942 20.6701C10.9417 20.7738 10.7992 20.8602 10.743 20.7609C9.98259 19.4777 8.84629 18.5012 8.10316 17.1878C7.59333 16.2891 7.10511 14.6473 7.90009 13.753H7.89577Z" fill="white"/>
<path d="M9.07951 18.1814C10.0689 19.4516 9.78376 21.3311 9.66279 22.813C9.57638 23.8845 9.56774 24.8134 10.1337 25.7683C10.5744 26.5114 11.3305 27.0774 11.9483 27.6736C12.0909 27.8119 11.9095 28.0192 11.7453 27.9372C10.2936 27.2329 9.25666 25.8935 9.09248 24.2863C9.00174 23.3833 9.13568 22.3723 9.26962 21.4823C9.42516 20.4367 9.23074 19.2745 8.95422 18.2548C8.93694 18.1857 9.03199 18.1166 9.07951 18.1814Z" fill="white"/>
<path d="M0.620059 14.2193C1.9119 13.9817 2.95315 13.2256 4.19314 12.8237C4.44805 12.7417 5.48498 12.4911 5.6362 12.8886C5.65348 12.9318 5.60164 12.975 5.56275 12.962C5.31216 12.8886 4.80666 13.0571 4.57335 13.1175C3.94255 13.2817 3.342 13.6187 2.77601 13.9341C2.13225 14.2927 1.37183 14.7637 0.620059 14.5304C0.477482 14.4872 0.455879 14.2495 0.620059 14.2193Z" fill="white"/>
<path d="M0.744936 14.2367C1.21155 14.375 1.52263 14.7076 1.78186 15.1311C2.28304 15.9476 3.21196 16.6865 4.09335 17.0494C4.94017 17.395 5.93822 17.2308 6.80664 17.0623C7.34239 16.9586 7.8911 16.7729 8.40092 17.0623C8.45277 17.0926 8.47437 17.1531 8.46141 17.2136L8.45276 17.2438C8.44844 17.2697 8.42252 17.2913 8.3966 17.3C8.25834 17.3345 8.1244 17.2956 7.98615 17.2827C7.472 17.2438 6.96218 17.4771 6.461 17.5765C5.62282 17.745 4.78031 17.7709 3.95941 17.516C3.17308 17.274 2.4429 16.6216 1.85531 16.0643C1.60472 15.8267 1.42758 15.494 1.22019 15.2218C0.999843 14.9323 0.654203 14.7638 0.567793 14.4095C0.541869 14.3058 0.636918 14.2065 0.740611 14.2367H0.744936Z" fill="white"/>
<path d="M2.36092 14.8588C3.55771 14.8286 4.65512 14.3792 5.86487 14.5823C6.74194 14.7292 7.67085 15.2563 8.02514 16.1031C8.05106 16.1636 7.96465 16.1982 7.92145 16.1636C6.96661 15.3557 6.21052 14.9755 4.93596 14.9539C4.1021 14.9409 3.12997 15.481 2.31339 15.1699C2.14921 15.1094 2.1665 14.8631 2.3566 14.8588H2.36092Z" fill="white"/>
<path d="M2.41702 14.846C2.92684 15.1787 3.47123 15.3688 3.95081 15.7576C4.67666 16.3496 5.53212 16.7427 6.48696 16.544C6.53017 16.5353 6.56041 16.5958 6.51721 16.6174C5.9685 16.8637 5.28586 16.9199 4.72851 16.6477C4.29645 16.4403 3.91192 16.1983 3.53172 15.9089C3.12991 15.6021 2.62873 15.4768 2.21828 15.1873C2.01089 15.0404 2.20099 14.7034 2.41702 14.8417V14.846Z" fill="white"/>
<path d="M12.7218 25.7121C12.8817 25.1418 13.0718 24.5196 13.5989 24.1783C14.2513 23.7592 14.8173 23.6123 15.5777 23.4741C15.7678 23.4395 17.7941 23.5302 17.7595 23.8024C17.7768 23.6685 18.0101 23.6685 18.0274 23.8024C18.0274 23.8197 18.0274 23.8327 18.0317 23.8456C18.0447 23.9407 17.9928 24.0271 17.8891 24.0314C16.6146 24.0789 15.4005 23.703 14.2124 24.3943C13.5211 24.7961 13.3483 25.3794 13.1495 26.1053C13.0242 26.5632 12.5749 26.8786 12.3243 27.2632C11.8404 28.002 12.8557 28.9827 13.3828 29.3845C13.9488 29.8209 14.5883 29.9462 15.2493 30.1622C16.1825 30.469 17.1503 30.4863 18.1225 30.5338C18.3428 30.5468 18.4076 30.8794 18.1743 30.9313C16.8393 31.2251 15.5647 30.7153 14.2815 30.4344C13.0977 30.1795 11.7021 28.8229 11.7021 27.5699C11.7021 26.8138 12.5317 26.3904 12.7175 25.7164L12.7218 25.7121Z" fill="white"/>
<path d="M13.4 29.7863C13.4605 29.661 13.629 29.7128 13.6679 29.8208C13.6938 29.8986 13.7197 29.9461 13.7025 30.0239C13.6247 30.4387 13.7932 30.7757 14.0395 31.0911C14.3419 31.4799 14.5752 31.7003 15.0202 31.9379C15.5171 32.2014 16.001 32.3829 16.5367 32.5384C17.0595 32.6897 17.5693 32.6248 18.0792 32.7588C18.2693 32.8063 18.2433 33.0569 18.0792 33.1174C16.8478 33.571 15.4177 32.7588 14.3549 32.2058C13.5253 31.7737 12.9939 30.6374 13.3957 29.7819L13.4 29.7863Z" fill="white"/>
<path d="M13.7882 26.6712C13.7882 26.6712 13.7925 26.6841 13.8011 26.6928C14.069 27.0168 14.3412 27.3106 14.5227 27.6951C14.6264 27.9155 14.7603 28.2093 14.9936 28.3259C15.322 28.4901 15.8015 28.5247 16.0521 28.192C16.3935 27.7427 16.0046 27.2545 15.6201 26.9909C15.0282 26.5848 13.2654 26.4422 13.1617 25.5824C13.1531 25.5219 13.071 25.5176 13.0623 25.5824C13.0191 26.0922 13.3561 26.4249 13.7839 26.6712H13.7882ZM14.6523 27.0514C14.756 27.0903 14.8597 27.1292 14.9504 27.1637C15.1794 27.2544 15.4041 27.3711 15.5726 27.5526C15.5985 28.0235 15.4602 28.1402 15.1491 27.8982C15.0066 27.7297 14.9374 27.5353 14.8381 27.3409C14.7819 27.2328 14.7214 27.1378 14.6523 27.0471V27.0514Z" fill="white"/>
</svg>
