<svg width="37" height="35" viewBox="0 0 37 35" fill="none" xmlns="http://www.w3.org/2000/svg">
<path d="M3.98884 21.6929C3.99807 21.9331 3.98884 22.1733 3.96112 22.4273C3.85026 23.4528 3.57773 24.4089 3.57773 25.4528C3.57773 26.1365 3.75788 27.028 4.15512 27.6007C4.55237 28.1735 5.14362 28.5107 5.77182 28.7694C6.33074 29.6886 7.24533 30.4138 8.1322 30.9681C8.16454 31.2683 8.17378 31.5686 8.26616 31.8688C8.38626 32.2707 8.69574 32.5617 8.99599 32.8388C9.58723 33.3839 10.3494 33.6611 11.1208 33.8273C11.5457 33.9197 12.0862 33.9613 12.585 33.8781C12.6497 33.892 12.719 33.8966 12.7883 33.892C12.9869 33.9613 13.1994 33.9705 13.4534 33.9705C14.017 33.9705 14.5851 34.0768 15.1533 34.0906C16.3543 34.1137 17.4398 33.8689 18.2389 34.9313C18.2574 34.9544 18.2851 34.9636 18.3128 34.959C18.3405 34.959 18.3636 34.9544 18.3821 34.9313C19.1858 33.8689 20.2667 34.1137 21.4677 34.0906C22.0358 34.0768 22.604 33.9752 23.1721 33.9705C23.4262 33.9705 23.6386 33.9613 23.8373 33.892C23.9066 33.892 23.9712 33.892 24.0405 33.8781C24.5348 33.9613 25.0798 33.9197 25.5048 33.8273C26.2762 33.6611 27.0383 33.3839 27.6296 32.8388C27.9298 32.5617 28.2393 32.2707 28.3594 31.8688C28.4518 31.5686 28.461 31.2683 28.4934 30.9681C29.3802 30.4138 30.2994 29.6886 30.8537 28.7694C31.4819 28.5107 32.0732 28.1735 32.4704 27.6007C32.8677 27.028 33.0478 26.1365 33.0478 25.4528C33.0478 24.4089 32.7753 23.4528 32.6644 22.4273C32.6367 22.1733 32.6275 21.9331 32.6367 21.6929C34.7892 19.836 36.8355 17.3185 35.8794 14.2699C35.4729 12.9766 34.6368 11.7848 33.5097 11.0273C33.1772 10.8056 32.8354 10.6624 32.4889 10.5238C31.3434 9.01795 30.8999 7.27192 30.2163 5.54899C29.5927 3.98772 28.6643 2.9715 27.2554 2.06615C25.7219 1.07766 24.0359 0.504883 22.1975 0.504883C20.9226 0.504883 19.2643 0.551078 18.3128 1.51186C17.3612 0.555697 15.703 0.504883 14.4281 0.504883C12.5897 0.504883 10.9037 1.08228 9.37013 2.06615C7.9613 2.9715 7.03285 3.98772 6.40927 5.54899C5.72101 7.27192 5.2822 9.01795 4.13665 10.5238C3.79022 10.6624 3.44378 10.8056 3.11582 11.0273C1.98875 11.7894 1.15269 12.9812 0.746206 14.2699C-0.209955 17.3185 1.84094 19.8406 3.98884 21.6929Z" fill="#2A2A30"/>
<path d="M21.0334 25.0001C21.0704 24.8892 21.2597 24.8984 21.2875 25.0093C21.3337 25.1802 21.3383 25.2033 21.2921 25.3788C21.1766 25.8269 21.232 26.3165 21.2089 26.7738C21.1674 27.6006 21.269 28.4459 21.4076 29.2635C21.5507 30.1365 21.8787 30.9818 22.3221 31.744C22.6686 32.3399 23.3476 33.296 24.1051 33.2868C24.3638 33.2868 24.5209 33.6147 24.2853 33.7764C23.7402 34.1506 23.015 33.5824 22.6455 33.1852C22.0265 32.5108 21.5554 31.7301 21.2136 30.8848C20.5022 29.1157 20.3867 26.8061 21.0288 25.0001H21.0334Z" fill="white"/>
<path d="M20.992 12.838C21.7449 12.9674 22.4793 12.6948 23.2461 12.7549C23.9112 12.8057 24.4009 13.0597 24.872 13.5263C24.8905 13.5447 24.872 13.5725 24.8443 13.5586C24.1099 13.0736 23.3431 12.9212 22.4701 13.0228C21.925 13.0874 21.4354 13.3415 20.9134 13.0782C20.7887 13.0135 20.8488 12.8149 20.992 12.838Z" fill="white"/>
<path d="M20.8115 12.5655C21.5552 12.3946 22.1095 12.1775 22.904 12.33C23.5137 12.4501 24.2019 12.8889 24.6639 13.2954C24.6639 13.2954 24.6639 13.3046 24.6592 13.3C24.2019 12.9397 23.6476 12.6625 23.0795 12.5563C22.3912 12.4316 21.8092 12.621 21.1903 12.8011C21.218 12.8242 21.2503 12.8519 21.2826 12.8704C21.3612 12.9305 21.315 13.0644 21.218 13.0736C20.9824 13.0875 20.8715 13.0136 20.733 12.815C20.6775 12.7365 20.7053 12.584 20.8115 12.5609V12.5655Z" fill="white"/>
<path d="M20.8207 15.1845C20.9223 14.5609 21.8415 14.196 22.4143 14.2422C22.9132 14.2838 23.3751 14.4408 23.8324 14.6487C24.4652 14.9351 25.195 14.9305 25.8648 14.8288C25.874 14.8288 25.8786 14.8427 25.8648 14.8427C25.1488 15.0783 24.4606 15.1753 23.7169 14.9905C23.2596 14.875 22.867 14.7226 22.3912 14.7134C21.8369 14.7041 21.5505 15.1291 21.1256 15.3831C20.9777 15.4709 20.7837 15.3647 20.8161 15.1845H20.8207Z" fill="white"/>
<path d="M18.4186 26.6954C19.7165 26.3305 20.802 25.0279 21.6797 24.0348C22.7929 22.7737 24.0724 21.9007 24.6775 20.2655C24.9639 19.4941 25.1348 18.5657 25.1579 17.7435C25.1717 17.337 25.1579 16.8936 25.0378 16.5102C24.987 16.3393 25.0101 16.0991 25.0701 15.9374C25.3842 15.1152 25.4674 14.3992 25.4581 13.5216C25.4489 12.7918 25.2041 12.1774 25.0239 11.4846C25.0193 11.4615 25.047 11.4476 25.0609 11.4661C25.4397 11.9696 25.7815 12.3668 25.8554 13.0273C25.9431 13.8403 25.9385 14.6949 25.7353 15.4847C25.629 15.9097 25.4905 16.0436 25.6383 16.5379C25.7491 16.912 25.7768 17.2954 25.7953 17.6834C25.8323 18.5334 25.5967 19.4711 25.3427 20.2748C24.7745 22.0531 23.4673 23.171 22.1739 24.4505C21.1392 25.4713 20.0815 27.028 18.4878 26.9818C18.3354 26.9818 18.2477 26.7462 18.4232 26.6954H18.4186Z" fill="white"/>
<path d="M15.9614 6.34337C16.6727 7.19329 17.3841 8.0155 18.3679 8.55594C19.4673 9.16104 20.7006 9.5121 21.9108 9.81696C22.9039 10.0664 23.8832 10.3805 24.6684 11.0549C25.2181 11.526 25.8186 12.3575 25.7539 13.1104C25.7539 13.1474 25.6939 13.1474 25.6846 13.115C24.7192 10.69 22.1233 10.6299 20.0123 9.8493C18.2755 9.20724 16.3956 8.33422 15.6842 6.48657C15.6149 6.31104 15.8551 6.20479 15.966 6.33875L15.9614 6.34337Z" fill="white"/>
<path d="M18.2252 1.59498C19.1583 0.546432 20.8858 0.495623 22.2023 0.500242C24.0407 0.500242 25.7267 1.07764 27.2602 2.06151C28.6691 2.96686 29.5975 3.98307 30.2211 5.54434C30.9094 7.27651 31.3528 9.03179 32.5122 10.5422C32.6046 10.6623 32.4244 10.8333 32.3136 10.7224C30.1195 8.50983 30.3458 4.91152 27.7776 3.03153C26.3133 1.95989 24.8721 1.23007 23.0522 1.00835C22.2069 0.906729 21.3801 0.994487 20.544 1.08225C20.1006 1.12844 19.6664 1.24393 19.2507 1.39174C18.9366 1.5026 18.701 1.72432 18.3915 1.83056C18.2575 1.87675 18.1328 1.71508 18.2345 1.60422L18.2252 1.59498Z" fill="white"/>
<path d="M29.9199 8.67146C30.4696 9.32276 31.1025 9.90477 31.8877 10.2651C32.442 10.5191 32.9917 10.6669 33.5136 11.0226C34.6407 11.7848 35.4768 12.9765 35.8833 14.2652C36.8533 17.3601 34.7285 19.9098 32.5436 21.7713C32.4605 21.8406 32.3496 21.7113 32.4189 21.6328C33.2734 20.6073 34.225 19.5403 34.8763 18.3763C35.6384 17.0136 35.6893 15.1521 35.0841 13.7248C34.5345 12.4222 33.5506 11.6462 32.405 10.8933C31.9431 10.5884 31.4489 10.3713 30.9916 10.048C30.5204 9.71538 30.1786 9.17956 29.8691 8.70379C29.846 8.66684 29.8969 8.63451 29.9246 8.66685L29.9199 8.67146Z" fill="white"/>
<path d="M30.4977 28.654C31.2876 28.1321 32.0267 27.5223 32.2391 26.5569C32.4516 25.5915 32.4331 24.6954 32.3223 23.7162C32.2253 22.8524 32.0544 22.0487 32.2807 21.1941C32.4839 20.4089 32.9135 19.6975 33.3754 19.0416C33.3985 19.0093 33.4493 19.0416 33.4309 19.0786C32.8396 20.1641 32.5348 21.1941 32.6687 22.432C32.7796 23.4575 33.0521 24.4137 33.0521 25.4576C33.0521 26.1412 32.872 27.0327 32.4747 27.6055C32.0267 28.2522 31.3292 28.5986 30.6132 28.8711C30.4839 28.9219 30.3822 28.7325 30.4977 28.654Z" fill="white"/>
<path d="M28.2433 30.6539C29.0286 29.9472 29.8646 29.3236 30.5113 28.4783C30.8716 28.0071 31.0656 27.4205 31.2642 26.8662C31.4813 26.2611 31.7215 25.619 31.6522 24.9631C31.6522 24.9446 31.6753 24.94 31.6846 24.9539C32.0957 25.9331 31.5044 27.3189 31.121 28.2427C30.6314 29.4252 29.532 30.3259 28.4696 30.9818C28.2433 31.1204 28.0539 30.8248 28.2387 30.6539H28.2433Z" fill="white"/>
<path d="M23.31 33.1253C24.7235 33.6427 27.1901 33.2593 27.8691 31.7165C28.04 31.3239 28.077 30.8619 28.1509 30.4462C28.2017 30.146 28.3865 29.855 28.5158 29.5871C28.8576 28.8619 29.3057 28.2106 29.6567 27.49C29.6844 27.4299 29.763 27.4715 29.7445 27.5315C29.4119 28.5662 28.8299 29.467 28.562 30.5201C28.4511 30.9589 28.4927 31.4209 28.3541 31.8735C28.234 32.2754 27.9245 32.5664 27.6243 32.8435C27.0331 33.3886 26.2709 33.6657 25.4995 33.832C24.7604 33.9891 23.6749 33.9983 23.0837 33.4717C22.8989 33.3055 23.0929 33.0468 23.31 33.1253Z" fill="white"/>
<path d="M23.3062 10.3435C25.0569 10.907 26.2394 12.0387 27.0524 13.6646C27.4542 14.4684 27.6944 15.4153 27.6436 16.316C27.5928 17.2029 27.2556 18.1498 26.9692 18.9905C26.9507 19.0506 26.8445 19.0182 26.863 18.9582C27.0477 18.2422 27.1494 17.5355 27.251 16.8057C27.3803 15.8634 27.0708 14.9257 26.7059 14.0711C26.0269 12.4591 24.6735 11.4105 23.237 10.5005C23.1446 10.4405 23.2046 10.3112 23.3109 10.3435H23.3062Z" fill="white"/>
<path d="M23.6984 22.0438C23.8 21.9145 23.9663 22.053 23.9248 22.187C23.6568 23.0046 23.1487 23.7206 22.7977 24.5058C22.3358 25.5497 22.2526 26.723 22.3773 27.8362C22.3773 27.8593 22.3496 27.8593 22.345 27.8362C21.8831 25.7253 22.3773 23.7298 23.6984 22.0346V22.0438Z" fill="white"/>
<path d="M23.1861 24.9169C23.3016 24.3257 23.5372 23.7298 23.7774 23.1755C24.2393 22.1131 24.6458 21.06 25.0338 19.9606C25.0753 19.8451 25.2647 19.8821 25.2647 20.0022C25.2832 21.0322 24.7197 22.0161 24.1977 22.8707C23.8513 23.4342 23.6018 24.1271 23.3894 24.7506C23.2323 25.2126 23.2277 25.7114 23.0429 26.1595C23.0429 26.1687 23.0244 26.1595 23.0291 26.1549C23.1492 25.753 23.1122 25.3234 23.1954 24.9123L23.1861 24.9169Z" fill="white"/>
<path d="M17.7346 32.1783C18.081 32.0997 18.2335 32.1459 18.5891 32.1459C19.0095 32.1459 19.4252 32.0582 19.8363 31.9981C20.2751 31.9334 20.7601 31.8272 21.162 31.6332C21.3652 31.5362 21.5408 31.3976 21.7625 31.3468C21.8641 31.3237 21.9657 31.4254 21.9703 31.5177C22.0119 32.109 20.8109 32.3168 20.4183 32.4092C19.5314 32.6125 18.6538 32.7464 17.7623 32.5386C17.6006 32.5016 17.5313 32.2245 17.73 32.1783H17.7346Z" fill="white"/>
<path d="M15.5918 25.0001C15.5548 24.8892 15.3655 24.8984 15.3377 25.0093C15.2915 25.1802 15.2869 25.2033 15.3331 25.3788C15.4486 25.8269 15.3932 26.3165 15.4163 26.7738C15.4578 27.6006 15.3562 28.4459 15.2176 29.2635C15.0698 30.1365 14.7465 30.9818 14.2984 31.744C13.952 32.3399 13.273 33.296 12.5154 33.2868C12.2568 33.2868 12.0997 33.6147 12.3353 33.7764C12.8757 34.1506 13.6056 33.5824 13.9751 33.1852C14.5941 32.5108 15.0652 31.7301 15.407 30.8848C16.123 29.1157 16.2339 26.8061 15.5918 25.0001Z" fill="white"/>
<path d="M18.4043 1.59498C17.4712 0.546432 15.7437 0.495623 14.4272 0.500242C12.5888 0.500242 10.9028 1.07764 9.36925 2.06151C7.96042 2.96686 7.03197 3.98307 6.40838 5.54434C5.72013 7.27651 5.27669 9.03179 4.11729 10.5422C4.02491 10.6623 4.20506 10.8333 4.31592 10.7224C6.51001 8.50983 6.28366 4.91152 8.8519 3.03153C10.3162 1.95989 11.7573 1.23007 13.5819 1.00835C14.4272 0.906729 15.254 0.994487 16.0901 1.08225C16.5335 1.12844 16.9631 1.24393 17.3834 1.39174C17.6976 1.5026 17.9331 1.72432 18.2426 1.83056C18.3766 1.87675 18.5013 1.71508 18.3997 1.60422L18.4043 1.59498Z" fill="white"/>
<path d="M6.70461 8.67146C6.15494 9.32276 5.52212 9.90477 4.73686 10.2651C4.18257 10.5191 3.63289 10.6669 3.11093 11.0226C1.98386 11.7848 1.14779 12.9765 0.741307 14.2652C-0.228712 17.3601 1.8961 19.9098 4.08095 21.7713C4.16409 21.8406 4.27495 21.7113 4.20566 21.6328C3.35112 20.6073 2.39958 19.5403 1.74828 18.3763C0.986125 17.0136 0.935316 15.1521 1.54042 13.7248C2.0901 12.4222 3.07397 11.6462 4.21952 10.8933C4.68143 10.5884 5.17568 10.3713 5.63298 10.048C6.10413 9.71538 6.44594 9.17956 6.75542 8.70379C6.77852 8.66684 6.72771 8.63451 6.7 8.66685L6.70461 8.67146Z" fill="white"/>
<path d="M6.13171 28.654C5.34646 28.1321 4.60279 27.5223 4.39031 26.5569C4.17782 25.5915 4.1963 24.6954 4.30716 23.7162C4.40416 22.8524 4.57507 22.0487 4.35335 21.1941C4.15011 20.4089 3.72053 19.6975 3.25862 19.0416C3.23552 19.0093 3.18471 19.0416 3.20318 19.0786C3.79443 20.1641 4.0993 21.1941 3.96535 22.432C3.85449 23.4575 3.58196 24.4137 3.58196 25.4576C3.58196 26.1412 3.7621 27.0327 4.15935 27.6055C4.6074 28.2522 5.30489 28.5986 6.02086 28.8711C6.1502 28.9219 6.25181 28.7325 6.13171 28.654Z" fill="white"/>
<path d="M8.38156 30.6539C7.5963 29.9472 6.76024 29.3236 6.11356 28.4783C5.75326 28.0071 5.55926 27.4205 5.36064 26.8662C5.14354 26.2611 4.90796 25.619 4.97263 24.9631C4.97263 24.9446 4.94954 24.94 4.9403 24.9539C4.5292 25.9331 5.12044 27.3189 5.50383 28.2427C5.99346 29.4252 7.09281 30.3259 8.15522 30.9818C8.38155 31.1204 8.57094 30.8248 8.38617 30.6539H8.38156Z" fill="white"/>
<path d="M13.3142 33.1253C11.9007 33.6427 9.43412 33.2593 8.7551 31.7165C8.5842 31.3239 8.54724 30.8619 8.47334 30.4462C8.42253 30.146 8.23776 29.855 8.10843 29.5871C7.76661 28.8619 7.31856 28.2106 6.9675 27.49C6.93979 27.4299 6.86126 27.4715 6.87974 27.5315C7.21231 28.5662 7.79432 29.467 8.06223 30.5201C8.17309 30.9589 8.13152 31.4209 8.27009 31.8735C8.39019 32.2754 8.69967 32.5664 8.99992 32.8435C9.59117 33.3886 10.3533 33.6657 11.1247 33.832C11.8638 33.9891 12.9493 33.9983 13.5405 33.4717C13.7253 33.3055 13.5313 33.0468 13.3142 33.1253Z" fill="white"/>
<path d="M18.8901 32.1783C18.5437 32.0997 18.3913 32.1459 18.0356 32.1459C17.6152 32.1459 17.1995 32.0582 16.7884 31.9981C16.345 31.9334 15.8646 31.8272 15.4627 31.6332C15.2595 31.5362 15.084 31.3976 14.8622 31.3468C14.7606 31.3237 14.6636 31.4254 14.6544 31.5177C14.6128 32.109 15.8138 32.3168 16.2064 32.4092C17.0933 32.6125 17.9709 32.7464 18.8624 32.5386C19.0241 32.5016 19.0934 32.2245 18.8947 32.1783H18.8901Z" fill="white"/>
<path d="M20.9678 15.5725C21.1341 15.2215 21.7531 15.4894 22.0256 15.5079C22.4875 15.5448 22.9032 15.6649 23.3605 15.5171C23.7531 15.3924 23.9702 15.0367 24.3813 14.9859C24.4275 14.9813 24.4783 15.0275 24.4645 15.0783C24.2936 15.6141 23.864 15.9375 23.3097 16.0391C22.9956 16.0945 22.6723 16.0437 22.3628 15.9698C21.9517 15.8682 21.4574 15.4755 21.0232 15.6326C20.9863 15.6464 20.9493 15.6049 20.9678 15.5725Z" fill="white"/>
<path d="M20.6497 14.5192C20.9269 13.7617 21.5689 13.4845 22.3357 13.406C23.1579 13.3183 23.7954 13.6924 24.2942 14.2975C24.2989 14.3068 24.2942 14.316 24.2804 14.3068C23.121 13.4106 21.7214 13.503 20.7329 14.57C20.6959 14.6116 20.6313 14.57 20.6497 14.5192Z" fill="white"/>
<path d="M18.7608 19.7389C18.8532 19.6511 18.8855 19.5541 19.0241 19.5264C19.158 19.4987 19.292 19.5264 19.3844 19.6327C19.4583 19.7204 19.3567 19.8359 19.2643 19.822C19.2273 19.822 19.1996 19.7989 19.1626 19.7897C19.1257 19.7805 19.0795 19.7897 19.0426 19.7758C18.964 19.762 18.9132 19.822 18.8393 19.8451C18.7793 19.8636 18.71 19.7851 18.7608 19.7343V19.7389Z" fill="white"/>
<path d="M19.084 18.9122C19.084 18.8568 19.1117 18.8059 19.1856 18.7967C19.4951 18.7598 19.7584 19.1016 19.8739 19.351C20.017 19.6697 19.7815 20.0069 19.4674 20.0716C19.4212 20.0808 19.3935 20.0162 19.4212 19.9838C19.5367 19.8406 19.6752 19.7252 19.6106 19.5219C19.5505 19.3371 19.4166 19.1662 19.2456 19.0739C19.2272 19.0646 19.2179 19.0508 19.2041 19.0415H19.1995C19.1995 19.0415 19.1579 19.0415 19.1394 19.023C19.0978 19 19.0794 18.9584 19.0886 18.9122H19.084Z" fill="white"/>
<path d="M18.9316 21.1477C19.6245 21.1708 19.9802 21.8683 20.6223 22.0207C20.6638 22.03 20.6823 22.1039 20.6315 22.1131C20.2527 22.2009 19.9432 21.993 19.643 21.7759C19.3982 21.5958 18.8716 21.2909 18.5944 21.5773C18.5021 21.6743 18.4235 21.7251 18.2942 21.7436C18.2203 21.7574 18.151 21.6789 18.1649 21.605C18.2342 21.2678 18.636 21.1431 18.9363 21.1523L18.9316 21.1477Z" fill="white"/>
<path d="M18.0915 22.127C18.3225 21.9283 18.8029 21.8221 19.1031 21.7805C19.4911 21.7297 19.856 21.9099 20.2025 22.0392C20.2302 22.0484 20.2209 22.0946 20.1932 22.0946C19.7405 22.0946 19.3433 21.9514 18.9183 22.1916C18.6689 22.3302 18.3456 22.575 18.0777 22.3625C17.9991 22.2979 18.0176 22.187 18.0869 22.127H18.0915Z" fill="white"/>
<path d="M17.925 23.4805C18.2021 23.4159 18.4839 23.4667 18.761 23.402C19.0751 23.3281 19.3061 23.1064 19.5093 22.8754C19.7773 22.5705 20.0775 22.0948 20.5302 22.0994C20.544 22.0994 20.5579 22.1133 20.5486 22.1271C20.4378 22.3673 20.2253 22.5475 20.0544 22.7507C19.8512 22.9955 19.6572 23.2403 19.4216 23.4528C19.0059 23.8316 18.3915 23.9933 17.8695 23.7808C17.7079 23.7161 17.7864 23.5082 17.925 23.4759V23.4805Z" fill="white"/>
<path d="M17.9054 22.843C18.0348 22.7275 18.1133 22.7322 18.2888 22.7275C18.5383 22.7275 18.8016 22.6351 19.014 22.5012C19.3466 22.2887 19.67 22.0162 20.0857 22.0208C20.1319 22.0208 20.1596 22.0901 20.1042 22.1086C19.4067 22.3211 18.76 23.425 17.9193 23.0278C17.8408 22.9908 17.8454 22.8938 17.9054 22.843Z" fill="white"/>
<path d="M15.6795 12.838C14.9266 12.9674 14.1921 12.6948 13.4254 12.7549C12.7602 12.8057 12.2706 13.0597 11.7994 13.5263C11.781 13.5447 11.7994 13.5725 11.8271 13.5586C12.5616 13.0736 13.3284 12.9212 14.2014 13.0228C14.7464 13.0874 15.2361 13.3415 15.758 13.0782C15.8874 13.0135 15.8227 12.8149 15.6841 12.838H15.6795Z" fill="white"/>
<path d="M15.8553 12.5655C15.1116 12.3946 14.5573 12.1775 13.7628 12.33C13.1577 12.4501 12.4648 12.8889 12.0029 13.2954C12.0029 13.2954 12.0029 13.3046 12.0075 13.3C12.4648 12.9397 13.0191 12.6625 13.5873 12.5563C14.2755 12.4316 14.8576 12.621 15.4765 12.8011C15.4488 12.8242 15.4165 12.8519 15.3841 12.8704C15.3056 12.9305 15.3518 13.0644 15.4488 13.0736C15.6844 13.0875 15.7952 13.0136 15.9338 12.815C15.9892 12.7365 15.9615 12.584 15.8553 12.5609V12.5655Z" fill="white"/>
<path d="M15.8507 15.1845C15.7491 14.5609 14.8299 14.196 14.2571 14.2422C13.7582 14.2838 13.2963 14.4408 12.839 14.6487C12.2062 14.9351 11.4764 14.9305 10.8066 14.8288C10.7974 14.8288 10.7927 14.8427 10.8066 14.8427C11.5226 15.0783 12.2108 15.1753 12.9545 14.9905C13.4118 14.875 13.8044 14.7226 14.2802 14.7134C14.8345 14.7041 15.1209 15.1291 15.5458 15.3831C15.6936 15.4709 15.8876 15.3647 15.8553 15.1845H15.8507Z" fill="white"/>
<path d="M18.2479 26.6954C16.9499 26.3305 15.8644 25.0279 14.9868 24.0348C13.8736 22.7737 12.5941 21.9007 11.9889 20.2655C11.7026 19.4941 11.5316 18.5657 11.5086 17.7435C11.4947 17.337 11.5086 16.8936 11.6287 16.5102C11.6795 16.3393 11.661 16.0991 11.5963 15.9374C11.2822 15.1152 11.1991 14.3992 11.2083 13.5216C11.2175 12.7918 11.4624 12.1774 11.6425 11.4846C11.6471 11.4615 11.6194 11.4476 11.6056 11.4661C11.2314 11.9696 10.885 12.3668 10.8111 13.0273C10.7233 13.8403 10.7279 14.6949 10.9312 15.4847C11.0374 15.9097 11.176 16.0436 11.0282 16.5379C10.9173 16.912 10.8896 17.2954 10.8711 17.6834C10.8342 18.5334 11.0697 19.4711 11.3238 20.2748C11.8919 22.0531 13.1992 23.171 14.4925 24.4505C15.5272 25.4713 16.585 27.028 18.1786 26.9818C18.331 26.9818 18.4188 26.7462 18.2433 26.6954H18.2479Z" fill="white"/>
<path d="M15.6982 15.5725C15.5319 15.2215 14.913 15.4894 14.6404 15.5079C14.1785 15.5448 13.7628 15.6649 13.3055 15.5171C12.9129 15.3924 12.6958 15.0367 12.2847 14.9859C12.2385 14.9813 12.1877 15.0275 12.2015 15.0783C12.3678 15.6141 12.802 15.9375 13.3563 16.0391C13.6704 16.0945 13.9984 16.0437 14.3032 15.9698C14.7144 15.8682 15.2086 15.4755 15.6428 15.6326C15.6798 15.6464 15.7167 15.6049 15.6982 15.5725Z" fill="white"/>
<path d="M16.0168 14.5192C15.7397 13.7617 15.0976 13.4845 14.3308 13.406C13.5086 13.3183 12.8758 13.6924 12.3723 14.2975C12.3677 14.3068 12.3769 14.316 12.3862 14.3068C13.5456 13.4106 14.9452 13.503 15.9337 14.57C15.9706 14.6116 16.0353 14.57 16.0168 14.5192Z" fill="white"/>
<path d="M17.9059 19.7389C17.8135 19.6511 17.7811 19.5541 17.6426 19.5264C17.5086 19.4987 17.3747 19.5264 17.2823 19.6327C17.2084 19.7204 17.31 19.8359 17.4024 19.822C17.4393 19.822 17.467 19.7989 17.504 19.7897C17.5409 19.7805 17.5871 19.7897 17.6241 19.7758C17.7026 19.762 17.7534 19.822 17.8273 19.8451C17.8874 19.8636 17.9567 19.7851 17.9059 19.7343V19.7389Z" fill="white"/>
<path d="M17.5837 18.9122C17.5837 18.8568 17.556 18.8059 17.4821 18.7967C17.1726 18.7598 16.9094 19.1016 16.7939 19.351C16.6507 19.6697 16.8863 20.0069 17.2004 20.0716C17.2466 20.0808 17.2743 20.0162 17.2466 19.9838C17.1311 19.8406 16.9925 19.7252 17.0572 19.5219C17.1172 19.3371 17.2512 19.1662 17.4221 19.0739C17.4406 19.0646 17.4544 19.0508 17.4637 19.0415H17.4683C17.4683 19.0415 17.5098 19.0415 17.5283 19.023C17.5699 19 17.5884 18.9584 17.5791 18.9122H17.5837Z" fill="white"/>
<path d="M17.7355 21.1477C17.0426 21.1708 16.687 21.8683 16.0449 22.0207C16.0033 22.03 15.9849 22.1039 16.0357 22.1131C16.4144 22.2009 16.7239 21.993 17.0242 21.7759C17.269 21.5958 17.7956 21.2909 18.0727 21.5773C18.1651 21.6743 18.2436 21.7251 18.3729 21.7436C18.4469 21.7574 18.5161 21.6789 18.5023 21.605C18.433 21.2678 18.0311 21.1431 17.7309 21.1523L17.7355 21.1477Z" fill="white"/>
<path d="M18.5759 22.127C18.345 21.9283 17.8646 21.8221 17.5643 21.7805C17.1763 21.7297 16.8114 21.9099 16.465 22.0392C16.4373 22.0484 16.4465 22.0946 16.4742 22.0946C16.9269 22.0946 17.3241 21.9514 17.7491 22.1916C17.9985 22.3302 18.3172 22.575 18.5898 22.3625C18.6683 22.2979 18.6498 22.187 18.5805 22.127H18.5759Z" fill="white"/>
<path d="M18.7419 23.4805C18.4647 23.4159 18.183 23.4667 17.9058 23.402C17.5917 23.3281 17.3608 23.1064 17.1575 22.8754C16.8896 22.5705 16.5894 22.0948 16.1367 22.0994C16.1228 22.0994 16.109 22.1133 16.1182 22.1271C16.2291 22.3673 16.4416 22.5475 16.6125 22.7507C16.8157 22.9955 17.0097 23.2403 17.2453 23.4528C17.661 23.8316 18.2754 23.9933 18.7973 23.7808C18.959 23.7161 18.8805 23.5082 18.7419 23.4759V23.4805Z" fill="white"/>
<path d="M18.7607 22.843C18.6314 22.7275 18.5529 22.7322 18.3773 22.7275C18.1279 22.7275 17.86 22.6351 17.6521 22.5012C17.3149 22.2887 16.9962 22.0162 16.5805 22.0208C16.5343 22.0208 16.5066 22.0901 16.562 22.1086C17.2595 22.3211 17.9062 23.425 18.7469 23.0278C18.8254 22.9908 18.8208 22.8938 18.7607 22.843Z" fill="white"/>
<path d="M21.9664 15.4616C22.1974 15.4616 22.4006 15.5077 22.6316 15.4523C22.7655 15.42 22.8856 15.3045 22.978 15.2121C23.0981 15.0874 23.075 14.9673 23.0612 14.8195C23.0473 14.6301 23.3337 14.6024 23.3522 14.7918C23.3707 14.9719 23.3753 15.0874 23.3198 15.2629C23.2737 15.4061 23.0935 15.5262 22.978 15.6094C22.687 15.8265 22.2297 15.8496 21.9295 15.6556C21.8556 15.6094 21.851 15.4616 21.9618 15.4616H21.9664Z" fill="white"/>
<path d="M21.2184 14.9489C21.2323 14.8981 21.3016 14.8612 21.3432 14.9027C21.4494 14.9997 21.5095 15.1291 21.6203 15.2214C21.7312 15.3184 21.8651 15.4016 21.9945 15.4709C22.0407 15.494 22.0176 15.5586 21.9668 15.554C21.7866 15.5402 21.6157 15.5125 21.4633 15.4062C21.3108 15.3 21.1676 15.1475 21.2184 14.9489Z" fill="white"/>
<path d="M21.8597 14.778C21.9244 14.8011 21.9844 14.815 22.0445 14.8519C22.0999 14.8889 22.1553 14.912 22.22 14.9074C22.3539 14.9028 22.3955 14.7688 22.4048 14.6579C22.4048 14.6071 22.474 14.584 22.5156 14.6025C22.7835 14.7226 22.571 15.046 22.3909 15.1337C22.2754 15.1891 22.1553 15.1938 22.0306 15.1568C21.8828 15.106 21.7996 15.0321 21.7442 14.8843C21.7119 14.8058 21.7997 14.7457 21.8689 14.7734L21.8597 14.778Z" fill="white"/>
<path d="M13.236 15.4616C13.4669 15.4616 13.6702 15.5077 13.9011 15.4523C14.0351 15.42 14.1552 15.3045 14.2476 15.2121C14.3677 15.0874 14.3446 14.9673 14.3307 14.8195C14.3168 14.6301 14.6032 14.6024 14.6217 14.7918C14.6402 14.9719 14.6448 15.0874 14.5894 15.2629C14.5432 15.4061 14.363 15.5262 14.2476 15.6094C13.9566 15.8265 13.4993 15.8496 13.199 15.6556C13.1251 15.6094 13.1205 15.4616 13.2314 15.4616H13.236Z" fill="white"/>
<path d="M13.1292 14.778C13.1939 14.8011 13.2539 14.815 13.314 14.8519C13.3694 14.8889 13.4249 14.912 13.4895 14.9074C13.6235 14.9028 13.665 14.7688 13.6743 14.6579C13.6743 14.6071 13.7436 14.584 13.7851 14.6025C14.0531 14.7226 13.8406 15.046 13.6604 15.1337C13.5449 15.1891 13.4202 15.1938 13.3001 15.1568C13.1523 15.106 13.0692 15.0321 13.0137 14.8843C12.9814 14.8058 13.0692 14.7457 13.1385 14.7734L13.1292 14.778Z" fill="white"/>
<path d="M12.3863 10.1726C12.9267 9.59516 13.5965 9.16096 14.2247 8.68981C14.936 8.15861 15.4765 7.51193 16.0308 6.83292C16.1185 6.72668 16.3079 6.78211 16.3172 6.9253C16.3449 7.3826 15.8275 7.87223 15.5504 8.18171C15.0192 8.76834 14.3586 9.15635 13.772 9.66907C13.13 10.2372 12.5387 10.7823 11.989 11.4474C11.2315 12.3528 11.1576 13.3089 11.1345 14.4499C11.1345 14.6023 10.9174 14.6762 10.8573 14.5145C10.2291 12.7546 11.2453 11.3966 12.3863 10.1772V10.1726Z" fill="white"/>
<path d="M11.8692 21.1894C11.8692 21.0231 12.0817 20.9723 12.151 21.1247C12.4512 21.7807 12.6822 22.4597 13.0286 23.0971C13.3797 23.7438 13.8601 24.3258 14.1742 24.991C14.7839 26.2797 14.9871 27.4021 14.7238 28.8017C14.7238 28.8156 14.7054 28.811 14.7054 28.8017C14.8347 27.2128 14.3451 25.7854 13.4305 24.4921C12.7884 23.5867 11.86 22.3534 11.8692 21.1894Z" fill="white"/>
<path d="M11.1205 16.8614C11.1713 16.769 11.3053 16.8152 11.2914 16.9168C11.2083 17.6235 10.9219 18.2517 11.005 18.9816C11.0882 19.6744 11.1575 20.3257 11.3006 21.014C11.6471 22.6491 12.5894 24.0164 13.2222 25.5407C13.2407 25.5777 13.1806 25.6008 13.1622 25.5638C12.437 24.0626 11.2914 22.7046 10.9265 21.0509C10.6032 19.5821 10.3676 18.2425 11.1159 16.866L11.1205 16.8614Z" fill="white"/>
<path d="M17.5825 19.725C17.7581 19.8498 17.8782 20.0253 18.0444 20.1685C18.1599 20.2701 18.2985 20.3579 18.4555 20.3117C18.5156 20.2932 18.5064 20.2147 18.4602 20.187C18.4602 20.187 18.4602 20.187 18.4509 20.187C18.4509 20.187 18.4232 20.1823 18.4093 20.187C18.3493 20.2054 18.1137 19.9375 18.0537 19.8775C17.9059 19.7297 17.8458 19.5911 17.6149 19.6188C17.564 19.6234 17.5317 19.6973 17.5779 19.7297L17.5825 19.725Z" fill="white"/>
<path d="M17.8413 18.3901C17.8413 18.3901 17.8829 18.3901 17.8737 18.4132C17.8182 18.5333 17.7674 18.6488 17.7074 18.7689C17.6381 18.9075 17.6011 19.0553 17.5411 19.1985C17.518 19.2539 17.4348 19.2216 17.4441 19.1662C17.4764 18.8751 17.6519 18.6072 17.8367 18.3948L17.8413 18.3901Z" fill="white"/>
<path d="M17.467 14.2743C17.4624 14.2282 17.5317 14.2235 17.5363 14.2697C17.6656 15.0873 17.7072 15.9188 17.8504 16.7317C17.9705 17.42 18.0167 18.4824 17.5917 19.0782C17.5502 19.1383 17.4624 19.0829 17.4716 19.0228C17.5224 18.5932 17.6425 18.4085 17.6656 17.9789C17.7211 16.8287 17.5871 15.4384 17.4716 14.279L17.467 14.2743Z" fill="white"/>
<path d="M17.6704 21.2031C17.7535 21.0091 17.8644 20.8613 17.9152 20.6488C17.966 20.4455 17.9198 20.2284 17.966 20.0206C17.9752 19.9698 18.0492 19.9605 18.0676 20.0113C18.1554 20.2746 18.1646 20.5518 18.0907 20.8243C18.0491 20.9906 17.9291 21.2724 17.7397 21.2955C17.6889 21.3001 17.6519 21.2447 17.675 21.1985L17.6704 21.2031Z" fill="white"/>
<path d="M22.6734 28.1365C23.2046 27.1757 23.9345 26.3212 24.4795 25.3696C25.1401 24.2149 25.7082 22.9215 26.1008 21.6466C26.1101 21.6189 26.1563 21.6235 26.147 21.6559C25.6205 23.5959 24.7428 25.3696 23.8051 27.1295C23.297 28.0811 22.7243 28.9633 22.364 29.9888C22.2531 30.3075 22.096 30.7555 22.1561 31.1066C22.2623 31.7163 22.5118 32.1228 22.7982 32.6632C22.8582 32.7741 22.7427 32.8942 22.6319 32.8157C20.9413 31.5916 21.842 29.647 22.6734 28.1411V28.1365Z" fill="white"/>
<path d="M13.7351 9.18894C11.1207 10.7825 8.85271 14.233 9.37005 17.3879C9.37005 17.4018 9.39315 17.3971 9.39315 17.3879C9.10676 14.1129 11.5826 11.3645 13.8229 9.33213C13.8876 9.27208 13.8183 9.14736 13.7351 9.19818V9.18894Z" fill="white"/>
<path d="M15.6564 6.27411C15.6564 6.27411 15.624 6.30644 15.6102 6.3203C15.5917 6.33878 15.5778 6.35725 15.5686 6.37573C14.9589 7.12865 14.1875 7.74762 13.4022 8.32039C12.5107 8.96707 11.7209 9.68765 10.9726 10.4868C9.71616 11.8355 9.03715 13.5169 8.81543 15.323C8.81543 15.3415 8.84314 15.3415 8.84314 15.323C9.28658 13.1843 10.4136 11.4706 11.9795 9.97403C13.259 8.75458 14.8804 7.97395 16.0028 6.57897C16.1691 6.37573 15.8504 6.08011 15.661 6.26949L15.6564 6.27411Z" fill="white"/>
<path d="M16.405 33.4808C15.6613 33.3838 14.8761 33.4624 14.1185 33.4208C13.6197 33.3931 12.9499 33.2175 12.488 33.4624C12.3818 33.5178 12.3771 33.6379 12.4649 33.7072C12.7651 33.9566 13.0608 33.9658 13.4488 33.9658C14.0123 33.9658 14.5805 34.0721 15.1486 34.0859C16.3496 34.109 17.4351 33.8642 18.2342 34.9266C18.2804 34.9913 18.382 34.9497 18.3912 34.8804C18.5206 33.9797 17.0887 33.564 16.4004 33.4762L16.405 33.4808Z" fill="white"/>
<path d="M20.2198 33.4808C20.9681 33.3838 21.7487 33.4624 22.5062 33.4208C23.0051 33.3931 23.6749 33.2175 24.1368 33.4624C24.243 33.5178 24.243 33.6379 24.1599 33.7072C23.8596 33.9566 23.564 33.9658 23.176 33.9658C22.6079 33.9658 22.0443 34.0721 21.4715 34.0859C20.2706 34.109 19.1897 33.8642 18.386 34.9266C18.3398 34.9913 18.2381 34.9497 18.2289 34.8804C18.0996 33.9797 19.5315 33.564 20.2198 33.4762V33.4808Z" fill="white"/>
</svg>
